<?xml version="1.0" encoding="utf-8" standalone="no"?>
<!DOCTYPE svg PUBLIC "-//W3C//DTD SVG 1.1//EN"
  "http://www.w3.org/Graphics/SVG/1.1/DTD/svg11.dtd">
<svg xmlns:xlink="http://www.w3.org/1999/xlink" width="1203.373125pt" height="413.065625pt" viewBox="0 0 1203.373125 413.065625" xmlns="http://www.w3.org/2000/svg" version="1.1">
 <metadata>
  <rdf:RDF xmlns:dc="http://purl.org/dc/elements/1.1/" xmlns:cc="http://creativecommons.org/ns#" xmlns:rdf="http://www.w3.org/1999/02/22-rdf-syntax-ns#">
   <cc:Work>
    <dc:type rdf:resource="http://purl.org/dc/dcmitype/StillImage"/>
    <dc:date>2024-08-30T23:37:25.707813</dc:date>
    <dc:format>image/svg+xml</dc:format>
    <dc:creator>
     <cc:Agent>
      <dc:title>Matplotlib v3.9.0, https://matplotlib.org/</dc:title>
     </cc:Agent>
    </dc:creator>
   </cc:Work>
  </rdf:RDF>
 </metadata>
 <defs>
  <style type="text/css">*{stroke-linejoin: round; stroke-linecap: butt}</style>
 </defs>
 <g id="figure_1">
  <g id="patch_1">
   <path d="M 0 413.065625 
L 1203.373125 413.065625 
L 1203.373125 0 
L 0 0 
z
" style="fill: #ffffff"/>
  </g>
  <g id="axes_1">
   <g id="patch_2">
    <path d="M 45.800625 361.96 
L 475.603125 361.96 
L 475.603125 7.2 
L 45.800625 7.2 
z
" style="fill: #ffffff"/>
   </g>
   <g id="PolyCollection_1">
    <defs>
     <path id="mc6bfbe2bfa" d="M 45.800625 -377.085798 
L 45.800625 -375.291814 
L 56.545687 -153.653912 
L 67.29075 -135.139259 
L 78.035813 -122.786578 
L 88.780875 -112.621921 
L 99.525938 -104.412998 
L 110.271 -97.911153 
L 121.016063 -92.403537 
L 131.761125 -88.338024 
L 142.506188 -83.832315 
L 153.25125 -80.778459 
L 163.996313 -78.29505 
L 174.741375 -76.756145 
L 185.486438 -74.25406 
L 196.2315 -71.609911 
L 206.976563 -70.502323 
L 217.721625 -68.871293 
L 228.466688 -67.015105 
L 239.21175 -66.108412 
L 249.956813 -66.492045 
L 260.701875 -66.306257 
L 271.446938 -63.866821 
L 282.192 -63.423593 
L 292.937063 -62.702662 
L 303.682125 -61.133684 
L 314.427188 -60.994534 
L 325.17225 -64.427127 
L 335.917313 -61.83806 
L 346.662375 -60.341437 
L 357.407438 -58.739813 
L 368.1525 -61.093338 
L 378.897563 -59.458328 
L 389.642625 -58.181102 
L 400.387688 -59.72232 
L 411.13275 -58.322746 
L 421.877813 -59.333042 
L 432.622875 -59.639263 
L 443.367938 -59.788911 
L 454.113 -57.815783 
L 464.858063 -56.817174 
L 475.603125 -59.828738 
L 475.603125 -98.678648 
L 475.603125 -98.678648 
L 464.858063 -97.752061 
L 454.113 -97.678644 
L 443.367938 -99.603121 
L 432.622875 -99.104385 
L 421.877813 -99.445443 
L 411.13275 -99.156933 
L 400.387688 -100.362678 
L 389.642625 -99.322028 
L 378.897563 -100.403323 
L 368.1525 -100.336633 
L 357.407438 -101.307793 
L 346.662375 -100.448525 
L 335.917313 -101.033381 
L 325.17225 -103.949432 
L 314.427188 -102.744714 
L 303.682125 -103.644435 
L 292.937063 -103.914651 
L 282.192 -103.332054 
L 271.446938 -105.031073 
L 260.701875 -105.233719 
L 249.956813 -106.806407 
L 239.21175 -108.914517 
L 228.466688 -108.35935 
L 217.721625 -110.177281 
L 206.976563 -111.815603 
L 196.2315 -111.565046 
L 185.486438 -114.412594 
L 174.741375 -115.59649 
L 163.996313 -118.742492 
L 153.25125 -121.838226 
L 142.506188 -122.377034 
L 131.761125 -125.403188 
L 121.016063 -129.585153 
L 110.271 -132.71639 
L 99.525938 -137.207299 
L 88.780875 -141.096696 
L 78.035813 -145.430203 
L 67.29075 -152.582141 
L 56.545687 -167.374793 
L 45.800625 -377.085798 
z
" style="stroke: #0000ff; stroke-opacity: 0.2"/>
    </defs>
    <g clip-path="url(#p0507e15d44)">
     <use xlink:href="#mc6bfbe2bfa" x="0" y="413.065625" style="fill: #0000ff; fill-opacity: 0.2; stroke: #0000ff; stroke-opacity: 0.2"/>
    </g>
   </g>
   <g id="PolyCollection_2">
    <defs>
     <path id="m69b5f7b676" d="M 45.800625 -377.085798 
L 45.800625 -375.291814 
L 56.545687 -162.78713 
L 67.29075 -154.744109 
L 78.035813 -153.873053 
L 88.780875 -154.450511 
L 99.525938 -155.363126 
L 110.271 -154.748513 
L 121.016063 -155.332041 
L 131.761125 -156.492092 
L 142.506188 -156.833907 
L 153.25125 -158.847153 
L 163.996313 -160.94011 
L 174.741375 -163.050623 
L 185.486438 -163.91689 
L 196.2315 -165.39268 
L 206.976563 -167.010238 
L 217.721625 -170.212799 
L 228.466688 -170.864656 
L 239.21175 -172.013334 
L 249.956813 -174.174864 
L 260.701875 -175.146899 
L 271.446938 -176.880203 
L 282.192 -177.833984 
L 292.937063 -178.485322 
L 303.682125 -179.778739 
L 314.427188 -181.390787 
L 325.17225 -182.144862 
L 335.917313 -182.938245 
L 346.662375 -183.119653 
L 357.407438 -184.183587 
L 368.1525 -184.159051 
L 378.897563 -185.74149 
L 389.642625 -185.407948 
L 400.387688 -186.540959 
L 411.13275 -186.555311 
L 421.877813 -187.199708 
L 432.622875 -187.40152 
L 443.367938 -188.612039 
L 454.113 -188.810788 
L 464.858063 -188.753695 
L 475.603125 -189.674479 
L 475.603125 -249.348025 
L 475.603125 -249.348025 
L 464.858063 -248.131075 
L 454.113 -247.831936 
L 443.367938 -247.496976 
L 432.622875 -249.492764 
L 421.877813 -246.289306 
L 411.13275 -244.869252 
L 400.387688 -246.952367 
L 389.642625 -243.468735 
L 378.897563 -243.9515 
L 368.1525 -243.824297 
L 357.407438 -241.884463 
L 346.662375 -241.221469 
L 335.917313 -239.219429 
L 325.17225 -238.231278 
L 314.427188 -236.502202 
L 303.682125 -235.075705 
L 292.937063 -236.207996 
L 282.192 -231.465956 
L 271.446938 -229.840265 
L 260.701875 -227.315168 
L 249.956813 -224.979182 
L 239.21175 -221.417164 
L 228.466688 -218.442827 
L 217.721625 -217.224851 
L 206.976563 -214.74311 
L 196.2315 -209.539357 
L 185.486438 -207.667638 
L 174.741375 -201.312088 
L 163.996313 -197.824282 
L 153.25125 -194.449743 
L 142.506188 -189.818871 
L 131.761125 -182.85468 
L 121.016063 -176.259054 
L 110.271 -171.519644 
L 99.525938 -165.407975 
L 88.780875 -162.525529 
L 78.035813 -161.655849 
L 67.29075 -164.951184 
L 56.545687 -175.386544 
L 45.800625 -377.085798 
z
" style="stroke: #0000ff; stroke-opacity: 0.2"/>
    </defs>
    <g clip-path="url(#p0507e15d44)">
     <use xlink:href="#m69b5f7b676" x="0" y="413.065625" style="fill: #0000ff; fill-opacity: 0.2; stroke: #0000ff; stroke-opacity: 0.2"/>
    </g>
   </g>
   <g id="PolyCollection_3">
    <defs>
     <path id="m65a8b6f86f" d="M 45.800625 -384.840645 
L 45.800625 -373.585195 
L 56.545687 -133.899289 
L 67.29075 -114.660791 
L 78.035813 -99.311232 
L 88.780875 -85.94117 
L 99.525938 -82.035246 
L 110.271 -76.498424 
L 121.016063 -72.137796 
L 131.761125 -67.975265 
L 142.506188 -67.287806 
L 153.25125 -68.923612 
L 163.996313 -64.819147 
L 174.741375 -63.76504 
L 185.486438 -63.726661 
L 196.2315 -63.281409 
L 206.976563 -60.248656 
L 217.721625 -59.489127 
L 228.466688 -63.023962 
L 239.21175 -60.288928 
L 249.956813 -58.834883 
L 260.701875 -59.453317 
L 271.446938 -58.995156 
L 282.192 -58.944413 
L 292.937063 -58.47672 
L 303.682125 -58.166607 
L 314.427188 -57.328776 
L 325.17225 -58.461988 
L 335.917313 -58.268381 
L 346.662375 -57.524253 
L 357.407438 -58.342219 
L 368.1525 -57.100763 
L 378.897563 -56.829496 
L 389.642625 -57.874995 
L 400.387688 -56.385423 
L 411.13275 -57.316147 
L 421.877813 -58.478498 
L 432.622875 -56.433298 
L 443.367938 -56.944552 
L 454.113 -57.430422 
L 464.858063 -58.301895 
L 475.603125 -57.271258 
L 475.603125 -63.937778 
L 475.603125 -63.937778 
L 464.858063 -64.702718 
L 454.113 -63.870544 
L 443.367938 -63.528051 
L 432.622875 -63.221039 
L 421.877813 -61.764125 
L 411.13275 -62.923463 
L 400.387688 -64.861057 
L 389.642625 -64.983758 
L 378.897563 -64.992438 
L 368.1525 -65.826352 
L 357.407438 -65.219007 
L 346.662375 -65.659267 
L 335.917313 -66.180318 
L 325.17225 -65.214594 
L 314.427188 -66.552112 
L 303.682125 -68.080733 
L 292.937063 -66.507065 
L 282.192 -69.336015 
L 271.446938 -68.724064 
L 260.701875 -69.532353 
L 249.956813 -70.13476 
L 239.21175 -72.196039 
L 228.466688 -71.13742 
L 217.721625 -72.404168 
L 206.976563 -73.406921 
L 196.2315 -72.941876 
L 185.486438 -76.805045 
L 174.741375 -76.681589 
L 163.996313 -80.942592 
L 153.25125 -84.908598 
L 142.506188 -101.190971 
L 131.761125 -86.611687 
L 121.016063 -88.018569 
L 110.271 -94.45983 
L 99.525938 -100.463753 
L 88.780875 -109.908855 
L 78.035813 -114.361905 
L 67.29075 -126.747488 
L 56.545687 -141.883695 
L 45.800625 -384.840645 
z
" style="stroke: #008000; stroke-opacity: 0.2"/>
    </defs>
    <g clip-path="url(#p0507e15d44)">
     <use xlink:href="#m65a8b6f86f" x="0" y="413.065625" style="fill: #008000; fill-opacity: 0.2; stroke: #008000; stroke-opacity: 0.2"/>
    </g>
   </g>
   <g id="PolyCollection_4">
    <defs>
     <path id="m84c4d5ff00" d="M 45.800625 -384.840645 
L 45.800625 -373.585195 
L 56.545687 -152.792669 
L 67.29075 -155.705311 
L 78.035813 -162.272197 
L 88.780875 -172.099368 
L 99.525938 -184.003575 
L 110.271 -191.908636 
L 121.016063 -204.419586 
L 131.761125 -217.7185 
L 142.506188 -186.939203 
L 153.25125 -219.416575 
L 163.996313 -237.365035 
L 174.741375 -246.01503 
L 185.486438 -251.990099 
L 196.2315 -260.03548 
L 206.976563 -271.648863 
L 217.721625 -272.557506 
L 228.466688 -279.646871 
L 239.21175 -286.659772 
L 249.956813 -291.65542 
L 260.701875 -290.676943 
L 271.446938 -295.376467 
L 282.192 -290.788109 
L 292.937063 -299.03661 
L 303.682125 -295.365502 
L 314.427188 -298.03337 
L 325.17225 -308.719294 
L 335.917313 -305.810365 
L 346.662375 -305.413307 
L 357.407438 -309.893526 
L 368.1525 -316.310897 
L 378.897563 -310.063004 
L 389.642625 -302.076728 
L 400.387688 -312.826692 
L 411.13275 -311.207128 
L 421.877813 -315.679131 
L 432.622875 -320.457967 
L 443.367938 -322.568719 
L 454.113 -316.548251 
L 464.858063 -318.46111 
L 475.603125 -324.129559 
L 475.603125 -363.496516 
L 475.603125 -363.496516 
L 464.858063 -359.969317 
L 454.113 -355.293439 
L 443.367938 -373.300348 
L 432.622875 -376.770394 
L 421.877813 -366.252664 
L 411.13275 -344.844452 
L 400.387688 -369.381487 
L 389.642625 -379.688153 
L 378.897563 -358.485584 
L 368.1525 -352.00843 
L 357.407438 -350.62895 
L 346.662375 -368.400789 
L 335.917313 -356.318692 
L 325.17225 -370.240789 
L 314.427188 -382.185129 
L 303.682125 -340.137718 
L 292.937063 -345.096694 
L 282.192 -349.230831 
L 271.446938 -333.162334 
L 260.701875 -340.945371 
L 249.956813 -339.115254 
L 239.21175 -319.812304 
L 228.466688 -341.376444 
L 217.721625 -333.471426 
L 206.976563 -320.266875 
L 196.2315 -315.667025 
L 185.486438 -309.693813 
L 174.741375 -310.518122 
L 163.996313 -309.268842 
L 153.25125 -287.85153 
L 142.506188 -274.042722 
L 131.761125 -281.126022 
L 121.016063 -263.464224 
L 110.271 -246.174172 
L 99.525938 -218.417103 
L 88.780875 -200.282306 
L 78.035813 -176.950819 
L 67.29075 -160.759215 
L 56.545687 -157.697348 
L 45.800625 -384.840645 
z
" style="stroke: #008000; stroke-opacity: 0.2"/>
    </defs>
    <g clip-path="url(#p0507e15d44)">
     <use xlink:href="#m84c4d5ff00" x="0" y="413.065625" style="fill: #008000; fill-opacity: 0.2; stroke: #008000; stroke-opacity: 0.2"/>
    </g>
   </g>
   <g id="PolyCollection_5">
    <defs>
     <path id="m4ba7e96df9" d="M 45.800625 -389.223711 
L 45.800625 -386.009153 
L 56.545687 -152.362162 
L 67.29075 -143.802717 
L 78.035813 -135.94418 
L 88.780875 -126.809641 
L 99.525938 -121.834176 
L 110.271 -117.61294 
L 121.016063 -119.41355 
L 131.761125 -113.329198 
L 142.506188 -112.281025 
L 153.25125 -111.148247 
L 163.996313 -110.407393 
L 174.741375 -106.175583 
L 185.486438 -104.290642 
L 196.2315 -103.567019 
L 206.976563 -98.243955 
L 217.721625 -97.766276 
L 228.466688 -99.107038 
L 239.21175 -98.479773 
L 249.956813 -98.730984 
L 260.701875 -92.783574 
L 271.446938 -94.485213 
L 282.192 -93.287345 
L 292.937063 -91.429641 
L 303.682125 -93.633967 
L 314.427188 -92.590579 
L 325.17225 -91.505679 
L 335.917313 -87.853516 
L 346.662375 -87.496316 
L 357.407438 -89.725467 
L 368.1525 -90.721842 
L 378.897563 -88.274882 
L 389.642625 -89.016001 
L 400.387688 -86.669764 
L 411.13275 -84.453562 
L 421.877813 -85.179565 
L 432.622875 -84.121824 
L 443.367938 -84.612556 
L 454.113 -84.999098 
L 464.858063 -82.366987 
L 475.603125 -85.138512 
L 475.603125 -106.922444 
L 475.603125 -106.922444 
L 464.858063 -107.937683 
L 454.113 -104.339109 
L 443.367938 -107.095793 
L 432.622875 -108.007435 
L 421.877813 -106.563916 
L 411.13275 -106.049558 
L 400.387688 -106.651171 
L 389.642625 -106.191352 
L 378.897563 -107.320237 
L 368.1525 -107.562628 
L 357.407438 -109.318253 
L 346.662375 -108.542573 
L 335.917313 -107.094753 
L 325.17225 -108.971272 
L 314.427188 -110.644551 
L 303.682125 -109.678763 
L 292.937063 -111.150978 
L 282.192 -110.24959 
L 271.446938 -108.787248 
L 260.701875 -113.012836 
L 249.956813 -111.168768 
L 239.21175 -112.78461 
L 228.466688 -114.202762 
L 217.721625 -113.745164 
L 206.976563 -117.366286 
L 196.2315 -114.73698 
L 185.486438 -113.85787 
L 174.741375 -115.402803 
L 163.996313 -116.365923 
L 153.25125 -116.960911 
L 142.506188 -120.609321 
L 131.761125 -123.947573 
L 121.016063 -125.892472 
L 110.271 -126.139329 
L 99.525938 -130.335097 
L 88.780875 -134.332699 
L 78.035813 -139.152087 
L 67.29075 -147.50422 
L 56.545687 -154.890262 
L 45.800625 -389.223711 
z
" style="stroke: #ff0000; stroke-opacity: 0.2"/>
    </defs>
    <g clip-path="url(#p0507e15d44)">
     <use xlink:href="#m4ba7e96df9" x="0" y="413.065625" style="fill: #ff0000; fill-opacity: 0.2; stroke: #ff0000; stroke-opacity: 0.2"/>
    </g>
   </g>
   <g id="PolyCollection_6">
    <defs>
     <path id="m7a72314554" d="M 45.800625 -389.223711 
L 45.800625 -386.009153 
L 56.545687 -163.711062 
L 67.29075 -162.617018 
L 78.035813 -163.108763 
L 88.780875 -165.739619 
L 99.525938 -169.776682 
L 110.271 -172.795535 
L 121.016063 -174.229516 
L 131.761125 -177.209621 
L 142.506188 -178.804364 
L 153.25125 -177.288573 
L 163.996313 -180.25532 
L 174.741375 -182.912123 
L 185.486438 -184.66932 
L 196.2315 -183.351223 
L 206.976563 -186.674958 
L 217.721625 -185.65251 
L 228.466688 -186.804423 
L 239.21175 -187.749815 
L 249.956813 -184.528638 
L 260.701875 -187.844384 
L 271.446938 -191.64562 
L 282.192 -191.3426 
L 292.937063 -190.227963 
L 303.682125 -191.484472 
L 314.427188 -190.472888 
L 325.17225 -190.812511 
L 335.917313 -191.678114 
L 346.662375 -193.951275 
L 357.407438 -196.155377 
L 368.1525 -192.387635 
L 378.897563 -190.665561 
L 389.642625 -193.559818 
L 400.387688 -195.210102 
L 411.13275 -193.662573 
L 421.877813 -193.557764 
L 432.622875 -192.833505 
L 443.367938 -197.199878 
L 454.113 -195.272082 
L 464.858063 -195.767563 
L 475.603125 -196.024391 
L 475.603125 -209.065044 
L 475.603125 -209.065044 
L 464.858063 -207.066192 
L 454.113 -206.405428 
L 443.367938 -204.522101 
L 432.622875 -210.173551 
L 421.877813 -208.271387 
L 411.13275 -205.112503 
L 400.387688 -206.19578 
L 389.642625 -204.468713 
L 378.897563 -204.107757 
L 368.1525 -202.476469 
L 357.407438 -203.174529 
L 346.662375 -202.294596 
L 335.917313 -200.036395 
L 325.17225 -207.55624 
L 314.427188 -201.214954 
L 303.682125 -200.989396 
L 292.937063 -200.161559 
L 282.192 -195.57257 
L 271.446938 -199.312778 
L 260.701875 -199.064089 
L 249.956813 -198.377264 
L 239.21175 -196.573743 
L 228.466688 -193.633943 
L 217.721625 -195.468623 
L 206.976563 -191.519061 
L 196.2315 -190.655996 
L 185.486438 -186.578851 
L 174.741375 -186.725887 
L 163.996313 -184.796128 
L 153.25125 -185.92451 
L 142.506188 -181.826785 
L 131.761125 -178.145194 
L 121.016063 -177.359788 
L 110.271 -174.449078 
L 99.525938 -170.060406 
L 88.780875 -166.739221 
L 78.035813 -164.084436 
L 67.29075 -163.868641 
L 56.545687 -164.530381 
L 45.800625 -389.223711 
z
" style="stroke: #ff0000; stroke-opacity: 0.2"/>
    </defs>
    <g clip-path="url(#p0507e15d44)">
     <use xlink:href="#m7a72314554" x="0" y="413.065625" style="fill: #ff0000; fill-opacity: 0.2; stroke: #ff0000; stroke-opacity: 0.2"/>
    </g>
   </g>
   <g id="matplotlib.axis_1">
    <g id="xtick_1">
     <g id="line2d_1">
      <path d="M 45.800625 361.96 
L 45.800625 7.2 
" clip-path="url(#p0507e15d44)" style="fill: none; stroke-dasharray: 2.96,1.28; stroke-dashoffset: 0; stroke: #808080; stroke-opacity: 0.5; stroke-width: 0.8"/>
     </g>
     <g id="line2d_2">
      <defs>
       <path id="m62e61d40b5" d="M 0 0 
L 0 3.5 
" style="stroke: #000000; stroke-width: 0.8"/>
      </defs>
      <g>
       <use xlink:href="#m62e61d40b5" x="45.800625" y="361.96" style="stroke: #000000; stroke-width: 0.8"/>
      </g>
     </g>
     <g id="text_1">
      <!-- 0 -->
      <g transform="translate(40.710625 381.1175) scale(0.16 -0.16)">
       <defs>
        <path id="DejaVuSans-30" d="M 2034 4250 
Q 1547 4250 1301 3770 
Q 1056 3291 1056 2328 
Q 1056 1369 1301 889 
Q 1547 409 2034 409 
Q 2525 409 2770 889 
Q 3016 1369 3016 2328 
Q 3016 3291 2770 3770 
Q 2525 4250 2034 4250 
z
M 2034 4750 
Q 2819 4750 3233 4129 
Q 3647 3509 3647 2328 
Q 3647 1150 3233 529 
Q 2819 -91 2034 -91 
Q 1250 -91 836 529 
Q 422 1150 422 2328 
Q 422 3509 836 4129 
Q 1250 4750 2034 4750 
z
" transform="scale(0.015625)"/>
       </defs>
       <use xlink:href="#DejaVuSans-30"/>
      </g>
     </g>
    </g>
    <g id="xtick_2">
     <g id="line2d_3">
      <path d="M 99.525938 361.96 
L 99.525938 7.2 
" clip-path="url(#p0507e15d44)" style="fill: none; stroke-dasharray: 2.96,1.28; stroke-dashoffset: 0; stroke: #808080; stroke-opacity: 0.5; stroke-width: 0.8"/>
     </g>
     <g id="line2d_4">
      <g>
       <use xlink:href="#m62e61d40b5" x="99.525938" y="361.96" style="stroke: #000000; stroke-width: 0.8"/>
      </g>
     </g>
     <g id="text_2">
      <!-- 25 -->
      <g transform="translate(89.345938 381.1175) scale(0.16 -0.16)">
       <defs>
        <path id="DejaVuSans-32" d="M 1228 531 
L 3431 531 
L 3431 0 
L 469 0 
L 469 531 
Q 828 903 1448 1529 
Q 2069 2156 2228 2338 
Q 2531 2678 2651 2914 
Q 2772 3150 2772 3378 
Q 2772 3750 2511 3984 
Q 2250 4219 1831 4219 
Q 1534 4219 1204 4116 
Q 875 4013 500 3803 
L 500 4441 
Q 881 4594 1212 4672 
Q 1544 4750 1819 4750 
Q 2544 4750 2975 4387 
Q 3406 4025 3406 3419 
Q 3406 3131 3298 2873 
Q 3191 2616 2906 2266 
Q 2828 2175 2409 1742 
Q 1991 1309 1228 531 
z
" transform="scale(0.015625)"/>
        <path id="DejaVuSans-35" d="M 691 4666 
L 3169 4666 
L 3169 4134 
L 1269 4134 
L 1269 2991 
Q 1406 3038 1543 3061 
Q 1681 3084 1819 3084 
Q 2600 3084 3056 2656 
Q 3513 2228 3513 1497 
Q 3513 744 3044 326 
Q 2575 -91 1722 -91 
Q 1428 -91 1123 -41 
Q 819 9 494 109 
L 494 744 
Q 775 591 1075 516 
Q 1375 441 1709 441 
Q 2250 441 2565 725 
Q 2881 1009 2881 1497 
Q 2881 1984 2565 2268 
Q 2250 2553 1709 2553 
Q 1456 2553 1204 2497 
Q 953 2441 691 2322 
L 691 4666 
z
" transform="scale(0.015625)"/>
       </defs>
       <use xlink:href="#DejaVuSans-32"/>
       <use xlink:href="#DejaVuSans-35" x="63.623047"/>
      </g>
     </g>
    </g>
    <g id="xtick_3">
     <g id="line2d_5">
      <path d="M 153.25125 361.96 
L 153.25125 7.2 
" clip-path="url(#p0507e15d44)" style="fill: none; stroke-dasharray: 2.96,1.28; stroke-dashoffset: 0; stroke: #808080; stroke-opacity: 0.5; stroke-width: 0.8"/>
     </g>
     <g id="line2d_6">
      <g>
       <use xlink:href="#m62e61d40b5" x="153.25125" y="361.96" style="stroke: #000000; stroke-width: 0.8"/>
      </g>
     </g>
     <g id="text_3">
      <!-- 50 -->
      <g transform="translate(143.07125 381.1175) scale(0.16 -0.16)">
       <use xlink:href="#DejaVuSans-35"/>
       <use xlink:href="#DejaVuSans-30" x="63.623047"/>
      </g>
     </g>
    </g>
    <g id="xtick_4">
     <g id="line2d_7">
      <path d="M 206.976563 361.96 
L 206.976563 7.2 
" clip-path="url(#p0507e15d44)" style="fill: none; stroke-dasharray: 2.96,1.28; stroke-dashoffset: 0; stroke: #808080; stroke-opacity: 0.5; stroke-width: 0.8"/>
     </g>
     <g id="line2d_8">
      <g>
       <use xlink:href="#m62e61d40b5" x="206.976563" y="361.96" style="stroke: #000000; stroke-width: 0.8"/>
      </g>
     </g>
     <g id="text_4">
      <!-- 75 -->
      <g transform="translate(196.796563 381.1175) scale(0.16 -0.16)">
       <defs>
        <path id="DejaVuSans-37" d="M 525 4666 
L 3525 4666 
L 3525 4397 
L 1831 0 
L 1172 0 
L 2766 4134 
L 525 4134 
L 525 4666 
z
" transform="scale(0.015625)"/>
       </defs>
       <use xlink:href="#DejaVuSans-37"/>
       <use xlink:href="#DejaVuSans-35" x="63.623047"/>
      </g>
     </g>
    </g>
    <g id="xtick_5">
     <g id="line2d_9">
      <path d="M 260.701875 361.96 
L 260.701875 7.2 
" clip-path="url(#p0507e15d44)" style="fill: none; stroke-dasharray: 2.96,1.28; stroke-dashoffset: 0; stroke: #808080; stroke-opacity: 0.5; stroke-width: 0.8"/>
     </g>
     <g id="line2d_10">
      <g>
       <use xlink:href="#m62e61d40b5" x="260.701875" y="361.96" style="stroke: #000000; stroke-width: 0.8"/>
      </g>
     </g>
     <g id="text_5">
      <!-- 100 -->
      <g transform="translate(245.431875 381.1175) scale(0.16 -0.16)">
       <defs>
        <path id="DejaVuSans-31" d="M 794 531 
L 1825 531 
L 1825 4091 
L 703 3866 
L 703 4441 
L 1819 4666 
L 2450 4666 
L 2450 531 
L 3481 531 
L 3481 0 
L 794 0 
L 794 531 
z
" transform="scale(0.015625)"/>
       </defs>
       <use xlink:href="#DejaVuSans-31"/>
       <use xlink:href="#DejaVuSans-30" x="63.623047"/>
       <use xlink:href="#DejaVuSans-30" x="127.246094"/>
      </g>
     </g>
    </g>
    <g id="xtick_6">
     <g id="line2d_11">
      <path d="M 314.427188 361.96 
L 314.427188 7.2 
" clip-path="url(#p0507e15d44)" style="fill: none; stroke-dasharray: 2.96,1.28; stroke-dashoffset: 0; stroke: #808080; stroke-opacity: 0.5; stroke-width: 0.8"/>
     </g>
     <g id="line2d_12">
      <g>
       <use xlink:href="#m62e61d40b5" x="314.427188" y="361.96" style="stroke: #000000; stroke-width: 0.8"/>
      </g>
     </g>
     <g id="text_6">
      <!-- 125 -->
      <g transform="translate(299.157188 381.1175) scale(0.16 -0.16)">
       <use xlink:href="#DejaVuSans-31"/>
       <use xlink:href="#DejaVuSans-32" x="63.623047"/>
       <use xlink:href="#DejaVuSans-35" x="127.246094"/>
      </g>
     </g>
    </g>
    <g id="xtick_7">
     <g id="line2d_13">
      <path d="M 368.1525 361.96 
L 368.1525 7.2 
" clip-path="url(#p0507e15d44)" style="fill: none; stroke-dasharray: 2.96,1.28; stroke-dashoffset: 0; stroke: #808080; stroke-opacity: 0.5; stroke-width: 0.8"/>
     </g>
     <g id="line2d_14">
      <g>
       <use xlink:href="#m62e61d40b5" x="368.1525" y="361.96" style="stroke: #000000; stroke-width: 0.8"/>
      </g>
     </g>
     <g id="text_7">
      <!-- 150 -->
      <g transform="translate(352.8825 381.1175) scale(0.16 -0.16)">
       <use xlink:href="#DejaVuSans-31"/>
       <use xlink:href="#DejaVuSans-35" x="63.623047"/>
       <use xlink:href="#DejaVuSans-30" x="127.246094"/>
      </g>
     </g>
    </g>
    <g id="xtick_8">
     <g id="line2d_15">
      <path d="M 421.877813 361.96 
L 421.877813 7.2 
" clip-path="url(#p0507e15d44)" style="fill: none; stroke-dasharray: 2.96,1.28; stroke-dashoffset: 0; stroke: #808080; stroke-opacity: 0.5; stroke-width: 0.8"/>
     </g>
     <g id="line2d_16">
      <g>
       <use xlink:href="#m62e61d40b5" x="421.877813" y="361.96" style="stroke: #000000; stroke-width: 0.8"/>
      </g>
     </g>
     <g id="text_8">
      <!-- 175 -->
      <g transform="translate(406.607813 381.1175) scale(0.16 -0.16)">
       <use xlink:href="#DejaVuSans-31"/>
       <use xlink:href="#DejaVuSans-37" x="63.623047"/>
       <use xlink:href="#DejaVuSans-35" x="127.246094"/>
      </g>
     </g>
    </g>
    <g id="xtick_9">
     <g id="line2d_17">
      <path d="M 475.603125 361.96 
L 475.603125 7.2 
" clip-path="url(#p0507e15d44)" style="fill: none; stroke-dasharray: 2.96,1.28; stroke-dashoffset: 0; stroke: #808080; stroke-opacity: 0.5; stroke-width: 0.8"/>
     </g>
     <g id="line2d_18">
      <g>
       <use xlink:href="#m62e61d40b5" x="475.603125" y="361.96" style="stroke: #000000; stroke-width: 0.8"/>
      </g>
     </g>
     <g id="text_9">
      <!-- 200 -->
      <g transform="translate(460.333125 381.1175) scale(0.16 -0.16)">
       <use xlink:href="#DejaVuSans-32"/>
       <use xlink:href="#DejaVuSans-30" x="63.623047"/>
       <use xlink:href="#DejaVuSans-30" x="127.246094"/>
      </g>
     </g>
    </g>
    <g id="text_10">
     <!-- Epoch -->
     <g transform="translate(233.142188 402.122187) scale(0.18 -0.18)">
      <defs>
       <path id="DejaVuSans-45" d="M 628 4666 
L 3578 4666 
L 3578 4134 
L 1259 4134 
L 1259 2753 
L 3481 2753 
L 3481 2222 
L 1259 2222 
L 1259 531 
L 3634 531 
L 3634 0 
L 628 0 
L 628 4666 
z
" transform="scale(0.015625)"/>
       <path id="DejaVuSans-70" d="M 1159 525 
L 1159 -1331 
L 581 -1331 
L 581 3500 
L 1159 3500 
L 1159 2969 
Q 1341 3281 1617 3432 
Q 1894 3584 2278 3584 
Q 2916 3584 3314 3078 
Q 3713 2572 3713 1747 
Q 3713 922 3314 415 
Q 2916 -91 2278 -91 
Q 1894 -91 1617 61 
Q 1341 213 1159 525 
z
M 3116 1747 
Q 3116 2381 2855 2742 
Q 2594 3103 2138 3103 
Q 1681 3103 1420 2742 
Q 1159 2381 1159 1747 
Q 1159 1113 1420 752 
Q 1681 391 2138 391 
Q 2594 391 2855 752 
Q 3116 1113 3116 1747 
z
" transform="scale(0.015625)"/>
       <path id="DejaVuSans-6f" d="M 1959 3097 
Q 1497 3097 1228 2736 
Q 959 2375 959 1747 
Q 959 1119 1226 758 
Q 1494 397 1959 397 
Q 2419 397 2687 759 
Q 2956 1122 2956 1747 
Q 2956 2369 2687 2733 
Q 2419 3097 1959 3097 
z
M 1959 3584 
Q 2709 3584 3137 3096 
Q 3566 2609 3566 1747 
Q 3566 888 3137 398 
Q 2709 -91 1959 -91 
Q 1206 -91 779 398 
Q 353 888 353 1747 
Q 353 2609 779 3096 
Q 1206 3584 1959 3584 
z
" transform="scale(0.015625)"/>
       <path id="DejaVuSans-63" d="M 3122 3366 
L 3122 2828 
Q 2878 2963 2633 3030 
Q 2388 3097 2138 3097 
Q 1578 3097 1268 2742 
Q 959 2388 959 1747 
Q 959 1106 1268 751 
Q 1578 397 2138 397 
Q 2388 397 2633 464 
Q 2878 531 3122 666 
L 3122 134 
Q 2881 22 2623 -34 
Q 2366 -91 2075 -91 
Q 1284 -91 818 406 
Q 353 903 353 1747 
Q 353 2603 823 3093 
Q 1294 3584 2113 3584 
Q 2378 3584 2631 3529 
Q 2884 3475 3122 3366 
z
" transform="scale(0.015625)"/>
       <path id="DejaVuSans-68" d="M 3513 2113 
L 3513 0 
L 2938 0 
L 2938 2094 
Q 2938 2591 2744 2837 
Q 2550 3084 2163 3084 
Q 1697 3084 1428 2787 
Q 1159 2491 1159 1978 
L 1159 0 
L 581 0 
L 581 4863 
L 1159 4863 
L 1159 2956 
Q 1366 3272 1645 3428 
Q 1925 3584 2291 3584 
Q 2894 3584 3203 3211 
Q 3513 2838 3513 2113 
z
" transform="scale(0.015625)"/>
      </defs>
      <use xlink:href="#DejaVuSans-45"/>
      <use xlink:href="#DejaVuSans-70" x="63.183594"/>
      <use xlink:href="#DejaVuSans-6f" x="126.660156"/>
      <use xlink:href="#DejaVuSans-63" x="187.841797"/>
      <use xlink:href="#DejaVuSans-68" x="242.822266"/>
     </g>
    </g>
   </g>
   <g id="matplotlib.axis_2">
    <g id="ytick_1">
     <g id="line2d_19">
      <path d="M 45.800625 361.96 
L 475.603125 361.96 
" clip-path="url(#p0507e15d44)" style="fill: none; stroke-dasharray: 2.96,1.28; stroke-dashoffset: 0; stroke: #808080; stroke-opacity: 0.5; stroke-width: 0.8"/>
     </g>
     <g id="line2d_20">
      <defs>
       <path id="mdb54fda969" d="M 0 0 
L -3.5 0 
" style="stroke: #000000; stroke-width: 0.8"/>
      </defs>
      <g>
       <use xlink:href="#mdb54fda969" x="45.800625" y="361.96" style="stroke: #000000; stroke-width: 0.8"/>
      </g>
     </g>
     <g id="text_11">
      <!-- 0 -->
      <g transform="translate(28.620625 368.03875) scale(0.16 -0.16)">
       <use xlink:href="#DejaVuSans-30"/>
      </g>
     </g>
    </g>
    <g id="ytick_2">
     <g id="line2d_21">
      <path d="M 45.800625 293.872453 
L 475.603125 293.872453 
" clip-path="url(#p0507e15d44)" style="fill: none; stroke-dasharray: 2.96,1.28; stroke-dashoffset: 0; stroke: #808080; stroke-opacity: 0.5; stroke-width: 0.8"/>
     </g>
     <g id="line2d_22">
      <g>
       <use xlink:href="#mdb54fda969" x="45.800625" y="293.872453" style="stroke: #000000; stroke-width: 0.8"/>
      </g>
     </g>
     <g id="text_12">
      <!-- 1 -->
      <g transform="translate(28.620625 299.951203) scale(0.16 -0.16)">
       <use xlink:href="#DejaVuSans-31"/>
      </g>
     </g>
    </g>
    <g id="ytick_3">
     <g id="line2d_23">
      <path d="M 45.800625 225.784906 
L 475.603125 225.784906 
" clip-path="url(#p0507e15d44)" style="fill: none; stroke-dasharray: 2.96,1.28; stroke-dashoffset: 0; stroke: #808080; stroke-opacity: 0.5; stroke-width: 0.8"/>
     </g>
     <g id="line2d_24">
      <g>
       <use xlink:href="#mdb54fda969" x="45.800625" y="225.784906" style="stroke: #000000; stroke-width: 0.8"/>
      </g>
     </g>
     <g id="text_13">
      <!-- 2 -->
      <g transform="translate(28.620625 231.863656) scale(0.16 -0.16)">
       <use xlink:href="#DejaVuSans-32"/>
      </g>
     </g>
    </g>
    <g id="ytick_4">
     <g id="line2d_25">
      <path d="M 45.800625 157.697359 
L 475.603125 157.697359 
" clip-path="url(#p0507e15d44)" style="fill: none; stroke-dasharray: 2.96,1.28; stroke-dashoffset: 0; stroke: #808080; stroke-opacity: 0.5; stroke-width: 0.8"/>
     </g>
     <g id="line2d_26">
      <g>
       <use xlink:href="#mdb54fda969" x="45.800625" y="157.697359" style="stroke: #000000; stroke-width: 0.8"/>
      </g>
     </g>
     <g id="text_14">
      <!-- 3 -->
      <g transform="translate(28.620625 163.776109) scale(0.16 -0.16)">
       <defs>
        <path id="DejaVuSans-33" d="M 2597 2516 
Q 3050 2419 3304 2112 
Q 3559 1806 3559 1356 
Q 3559 666 3084 287 
Q 2609 -91 1734 -91 
Q 1441 -91 1130 -33 
Q 819 25 488 141 
L 488 750 
Q 750 597 1062 519 
Q 1375 441 1716 441 
Q 2309 441 2620 675 
Q 2931 909 2931 1356 
Q 2931 1769 2642 2001 
Q 2353 2234 1838 2234 
L 1294 2234 
L 1294 2753 
L 1863 2753 
Q 2328 2753 2575 2939 
Q 2822 3125 2822 3475 
Q 2822 3834 2567 4026 
Q 2313 4219 1838 4219 
Q 1578 4219 1281 4162 
Q 984 4106 628 3988 
L 628 4550 
Q 988 4650 1302 4700 
Q 1616 4750 1894 4750 
Q 2613 4750 3031 4423 
Q 3450 4097 3450 3541 
Q 3450 3153 3228 2886 
Q 3006 2619 2597 2516 
z
" transform="scale(0.015625)"/>
       </defs>
       <use xlink:href="#DejaVuSans-33"/>
      </g>
     </g>
    </g>
    <g id="ytick_5">
     <g id="line2d_27">
      <path d="M 45.800625 89.609812 
L 475.603125 89.609812 
" clip-path="url(#p0507e15d44)" style="fill: none; stroke-dasharray: 2.96,1.28; stroke-dashoffset: 0; stroke: #808080; stroke-opacity: 0.5; stroke-width: 0.8"/>
     </g>
     <g id="line2d_28">
      <g>
       <use xlink:href="#mdb54fda969" x="45.800625" y="89.609812" style="stroke: #000000; stroke-width: 0.8"/>
      </g>
     </g>
     <g id="text_15">
      <!-- 4 -->
      <g transform="translate(28.620625 95.688562) scale(0.16 -0.16)">
       <defs>
        <path id="DejaVuSans-34" d="M 2419 4116 
L 825 1625 
L 2419 1625 
L 2419 4116 
z
M 2253 4666 
L 3047 4666 
L 3047 1625 
L 3713 1625 
L 3713 1100 
L 3047 1100 
L 3047 0 
L 2419 0 
L 2419 1100 
L 313 1100 
L 313 1709 
L 2253 4666 
z
" transform="scale(0.015625)"/>
       </defs>
       <use xlink:href="#DejaVuSans-34"/>
      </g>
     </g>
    </g>
    <g id="ytick_6">
     <g id="line2d_29">
      <path d="M 45.800625 21.522265 
L 475.603125 21.522265 
" clip-path="url(#p0507e15d44)" style="fill: none; stroke-dasharray: 2.96,1.28; stroke-dashoffset: 0; stroke: #808080; stroke-opacity: 0.5; stroke-width: 0.8"/>
     </g>
     <g id="line2d_30">
      <g>
       <use xlink:href="#mdb54fda969" x="45.800625" y="21.522265" style="stroke: #000000; stroke-width: 0.8"/>
      </g>
     </g>
     <g id="text_16">
      <!-- 5 -->
      <g transform="translate(28.620625 27.601015) scale(0.16 -0.16)">
       <use xlink:href="#DejaVuSans-35"/>
      </g>
     </g>
    </g>
    <g id="text_17">
     <!-- Loss -->
     <g transform="translate(20.877187 204.320937) rotate(-90) scale(0.18 -0.18)">
      <defs>
       <path id="DejaVuSans-4c" d="M 628 4666 
L 1259 4666 
L 1259 531 
L 3531 531 
L 3531 0 
L 628 0 
L 628 4666 
z
" transform="scale(0.015625)"/>
       <path id="DejaVuSans-73" d="M 2834 3397 
L 2834 2853 
Q 2591 2978 2328 3040 
Q 2066 3103 1784 3103 
Q 1356 3103 1142 2972 
Q 928 2841 928 2578 
Q 928 2378 1081 2264 
Q 1234 2150 1697 2047 
L 1894 2003 
Q 2506 1872 2764 1633 
Q 3022 1394 3022 966 
Q 3022 478 2636 193 
Q 2250 -91 1575 -91 
Q 1294 -91 989 -36 
Q 684 19 347 128 
L 347 722 
Q 666 556 975 473 
Q 1284 391 1588 391 
Q 1994 391 2212 530 
Q 2431 669 2431 922 
Q 2431 1156 2273 1281 
Q 2116 1406 1581 1522 
L 1381 1569 
Q 847 1681 609 1914 
Q 372 2147 372 2553 
Q 372 3047 722 3315 
Q 1072 3584 1716 3584 
Q 2034 3584 2315 3537 
Q 2597 3491 2834 3397 
z
" transform="scale(0.015625)"/>
      </defs>
      <use xlink:href="#DejaVuSans-4c"/>
      <use xlink:href="#DejaVuSans-6f" x="53.962891"/>
      <use xlink:href="#DejaVuSans-73" x="115.144531"/>
      <use xlink:href="#DejaVuSans-73" x="167.244141"/>
     </g>
    </g>
   </g>
   <g id="line2d_31">
    <path d="M 45.800625 36.876819 
L 56.545687 252.551273 
L 67.29075 269.204925 
L 78.035813 278.957235 
L 88.780875 286.206317 
L 99.525938 292.255477 
L 110.271 297.751854 
L 121.016063 302.07128 
L 131.761125 306.195019 
L 142.506188 309.96095 
L 153.25125 311.757283 
L 163.996313 314.546854 
L 174.741375 316.889308 
L 185.486438 318.732298 
L 196.2315 321.478147 
L 206.976563 321.906662 
L 217.721625 323.541338 
L 228.466688 325.378398 
L 239.21175 325.55416 
L 249.956813 326.416399 
L 260.701875 327.295637 
L 271.446938 328.616678 
L 282.192 329.687802 
L 292.937063 329.756969 
L 303.682125 330.676566 
L 314.427188 331.196001 
L 325.17225 328.877345 
L 335.917313 331.629904 
L 346.662375 332.670644 
L 357.407438 333.041822 
L 368.1525 332.350639 
L 378.897563 333.134799 
L 389.642625 334.31406 
L 400.387688 333.023126 
L 411.13275 334.325785 
L 421.877813 333.676383 
L 432.622875 333.693801 
L 443.367938 333.369609 
L 454.113 335.318412 
L 464.858063 335.781008 
L 475.603125 333.811932 
" clip-path="url(#p0507e15d44)" style="fill: none; stroke: #0000ff; stroke-width: 2; stroke-linecap: square"/>
   </g>
   <g id="line2d_32">
    <path d="M 45.800625 36.876819 
L 56.545687 243.978788 
L 67.29075 253.217979 
L 78.035813 255.301174 
L 88.780875 254.577605 
L 99.525938 252.680075 
L 110.271 249.931546 
L 121.016063 247.270078 
L 131.761125 243.392239 
L 142.506188 239.739236 
L 153.25125 236.417177 
L 163.996313 233.683429 
L 174.741375 230.884269 
L 185.486438 227.273361 
L 196.2315 225.599606 
L 206.976563 222.188951 
L 217.721625 219.3468 
L 228.466688 218.411883 
L 239.21175 216.350376 
L 249.956813 213.488602 
L 260.701875 211.834592 
L 271.446938 209.705391 
L 282.192 208.415655 
L 292.937063 205.718966 
L 303.682125 205.638403 
L 314.427188 204.11913 
L 325.17225 202.877555 
L 335.917313 201.986788 
L 346.662375 200.895064 
L 357.407438 200.0316 
L 368.1525 199.073951 
L 378.897563 198.21913 
L 389.642625 198.627284 
L 400.387688 196.318962 
L 411.13275 197.353344 
L 421.877813 196.321118 
L 432.622875 194.618483 
L 443.367938 195.011118 
L 454.113 194.744263 
L 464.858063 194.62324 
L 475.603125 193.554373 
" clip-path="url(#p0507e15d44)" style="fill: none; stroke-dasharray: 7.4,3.2; stroke-dashoffset: 0; stroke: #0000ff; stroke-width: 2"/>
   </g>
   <g id="line2d_33">
    <path d="M 45.800625 33.852705 
L 56.545687 275.174133 
L 67.29075 292.361485 
L 78.035813 306.229056 
L 88.780875 315.140612 
L 99.525938 321.816125 
L 110.271 327.586498 
L 121.016063 332.987443 
L 131.761125 335.772149 
L 142.506188 328.826236 
L 153.25125 336.14952 
L 163.996313 340.184755 
L 174.741375 342.842311 
L 185.486438 342.799772 
L 196.2315 344.953982 
L 206.976563 346.237837 
L 217.721625 347.118978 
L 228.466688 345.984934 
L 239.21175 346.823142 
L 249.956813 348.580803 
L 260.701875 348.57279 
L 271.446938 349.206015 
L 282.192 348.925411 
L 292.937063 350.573732 
L 303.682125 349.941955 
L 314.427188 351.125181 
L 325.17225 351.227334 
L 335.917313 350.841276 
L 346.662375 351.473865 
L 357.407438 351.285012 
L 368.1525 351.602067 
L 378.897563 352.154658 
L 389.642625 351.636249 
L 400.387688 352.442385 
L 411.13275 352.94582 
L 421.877813 352.944314 
L 432.622875 353.238457 
L 443.367938 352.829324 
L 454.113 352.415142 
L 464.858063 351.563318 
L 475.603125 352.461107 
" clip-path="url(#p0507e15d44)" style="fill: none; stroke: #008000; stroke-width: 2; stroke-linecap: square"/>
   </g>
   <g id="line2d_34">
    <path d="M 45.800625 33.852705 
L 56.545687 257.820617 
L 67.29075 254.833362 
L 78.035813 243.454117 
L 88.780875 226.874788 
L 99.525938 211.855286 
L 110.271 194.024221 
L 121.016063 179.12372 
L 131.761125 163.643364 
L 142.506188 182.574663 
L 153.25125 159.431572 
L 163.996313 139.748687 
L 174.741375 134.799049 
L 185.486438 132.223669 
L 196.2315 125.214372 
L 206.976563 117.107756 
L 217.721625 110.051159 
L 228.466688 102.553968 
L 239.21175 109.829587 
L 249.956813 97.680288 
L 260.701875 97.254468 
L 271.446938 98.796224 
L 282.192 93.056155 
L 292.937063 90.998973 
L 303.682125 95.314015 
L 314.427188 72.956375 
L 325.17225 73.585583 
L 335.917313 82.001096 
L 346.662375 76.158577 
L 357.407438 82.804387 
L 368.1525 78.905961 
L 378.897563 78.791331 
L 389.642625 72.183184 
L 400.387688 71.961535 
L 411.13275 85.039835 
L 421.877813 72.099727 
L 432.622875 64.451444 
L 443.367938 65.131091 
L 454.113 77.14478 
L 464.858063 73.850412 
L 475.603125 69.252588 
" clip-path="url(#p0507e15d44)" style="fill: none; stroke-dasharray: 7.4,3.2; stroke-dashoffset: 0; stroke: #008000; stroke-width: 2"/>
   </g>
   <g id="line2d_35">
    <path d="M 45.800625 25.449193 
L 56.545687 259.439413 
L 67.29075 267.412157 
L 78.035813 275.517491 
L 88.780875 282.494455 
L 99.525938 286.980989 
L 110.271 291.18949 
L 121.016063 290.412614 
L 131.761125 294.42724 
L 142.506188 296.620452 
L 153.25125 299.011046 
L 163.996313 299.678967 
L 174.741375 302.276432 
L 185.486438 303.991369 
L 196.2315 303.913625 
L 206.976563 305.260504 
L 217.721625 307.309905 
L 228.466688 306.410725 
L 239.21175 307.433433 
L 249.956813 308.115749 
L 260.701875 310.16742 
L 271.446938 311.429394 
L 282.192 311.297157 
L 292.937063 311.775315 
L 303.682125 311.40926 
L 314.427188 311.44806 
L 325.17225 312.827149 
L 335.917313 315.59149 
L 346.662375 315.04618 
L 357.407438 313.543765 
L 368.1525 313.92339 
L 378.897563 315.268065 
L 389.642625 315.461949 
L 400.387688 316.405157 
L 411.13275 317.814065 
L 421.877813 317.193885 
L 432.622875 317.000996 
L 443.367938 317.21145 
L 454.113 318.396522 
L 464.858063 317.91329 
L 475.603125 317.035147 
" clip-path="url(#p0507e15d44)" style="fill: none; stroke: #ff0000; stroke-width: 2; stroke-linecap: square"/>
   </g>
   <g id="line2d_36">
    <path d="M 45.800625 25.449193 
L 56.545687 248.944903 
L 67.29075 249.822795 
L 78.035813 249.469026 
L 88.780875 246.826205 
L 99.525938 243.147081 
L 110.271 239.443318 
L 121.016063 237.270973 
L 131.761125 235.388217 
L 142.506188 232.750051 
L 153.25125 231.459083 
L 163.996313 230.539901 
L 174.741375 228.24662 
L 185.486438 227.441539 
L 196.2315 226.062015 
L 206.976563 223.968615 
L 217.721625 222.505059 
L 228.466688 222.846442 
L 239.21175 220.903846 
L 249.956813 221.612674 
L 260.701875 219.611388 
L 271.446938 217.586426 
L 282.192 219.60804 
L 292.937063 217.870864 
L 303.682125 216.828691 
L 314.427188 217.221704 
L 325.17225 213.881249 
L 335.917313 217.208371 
L 346.662375 214.94269 
L 357.407438 213.400672 
L 368.1525 215.633573 
L 378.897563 215.678966 
L 389.642625 214.051359 
L 400.387688 212.362684 
L 411.13275 213.678087 
L 421.877813 212.15105 
L 432.622875 211.562097 
L 443.367938 212.204635 
L 454.113 212.22687 
L 464.858063 211.648747 
L 475.603125 210.520908 
" clip-path="url(#p0507e15d44)" style="fill: none; stroke-dasharray: 7.4,3.2; stroke-dashoffset: 0; stroke: #ff0000; stroke-width: 2"/>
   </g>
   <g id="patch_3">
    <path d="M 45.800625 361.96 
L 45.800625 7.2 
" style="fill: none; stroke: #000000; stroke-width: 0.8; stroke-linejoin: miter; stroke-linecap: square"/>
   </g>
   <g id="patch_4">
    <path d="M 475.603125 361.96 
L 475.603125 7.2 
" style="fill: none; stroke: #000000; stroke-width: 0.8; stroke-linejoin: miter; stroke-linecap: square"/>
   </g>
   <g id="patch_5">
    <path d="M 45.800625 361.96 
L 475.603125 361.96 
" style="fill: none; stroke: #000000; stroke-width: 0.8; stroke-linejoin: miter; stroke-linecap: square"/>
   </g>
   <g id="patch_6">
    <path d="M 45.800625 7.2 
L 475.603125 7.2 
" style="fill: none; stroke: #000000; stroke-width: 0.8; stroke-linejoin: miter; stroke-linecap: square"/>
   </g>
  </g>
  <g id="axes_2">
   <g id="patch_7">
    <path d="M 567.198125 361.96 
L 997.000625 361.96 
L 997.000625 7.2 
L 567.198125 7.2 
z
" style="fill: #ffffff"/>
   </g>
   <g id="PolyCollection_7">
    <defs>
     <path id="m4bf0b6d960" d="M 567.198125 -54.561656 
L 567.198125 -50.646275 
L 577.943188 -228.397876 
L 588.68825 -248.302539 
L 599.433313 -255.651966 
L 610.178375 -262.392059 
L 620.923438 -266.866459 
L 631.6685 -272.160129 
L 642.413563 -277.056438 
L 653.158625 -282.947519 
L 663.903688 -287.417299 
L 674.64875 -288.810179 
L 685.393813 -292.799 
L 696.138875 -298.34034 
L 706.883938 -299.172638 
L 717.629 -304.197043 
L 728.374063 -303.87999 
L 739.119125 -305.038521 
L 749.864188 -309.848193 
L 760.60925 -307.393013 
L 771.354313 -311.326239 
L 782.099375 -311.973025 
L 792.844438 -313.71344 
L 803.5895 -316.200348 
L 814.334563 -315.803548 
L 825.079625 -317.552858 
L 835.824688 -316.652406 
L 846.56975 -316.040146 
L 857.314813 -319.036329 
L 868.059875 -321.36205 
L 878.804938 -319.752197 
L 889.55 -321.781778 
L 900.295063 -321.39903 
L 911.040125 -321.84625 
L 921.785188 -320.223248 
L 932.53025 -323.143175 
L 943.275313 -323.136192 
L 954.020375 -322.843811 
L 964.765438 -323.168771 
L 975.5105 -325.15926 
L 986.255563 -324.727516 
L 997.000625 -323.352938 
L 997.000625 -383.245021 
L 997.000625 -383.245021 
L 986.255563 -388.950418 
L 975.5105 -386.546611 
L 964.765438 -382.891912 
L 954.020375 -383.60555 
L 943.275313 -384.1736 
L 932.53025 -386.669836 
L 921.785188 -384.117618 
L 911.040125 -386.815525 
L 900.295063 -383.990671 
L 889.55 -380.978379 
L 878.804938 -385.753656 
L 868.059875 -383.103661 
L 857.314813 -380.225581 
L 846.56975 -374.959944 
L 835.824688 -382.609575 
L 825.079625 -381.128568 
L 814.334563 -379.104788 
L 803.5895 -378.849171 
L 792.844438 -377.660799 
L 782.099375 -373.762945 
L 771.354313 -371.901206 
L 760.60925 -374.379854 
L 749.864188 -371.935803 
L 739.119125 -368.712964 
L 728.374063 -367.103032 
L 717.629 -365.893019 
L 706.883938 -360.578885 
L 696.138875 -356.374021 
L 685.393813 -354.582337 
L 674.64875 -350.655625 
L 663.903688 -346.395171 
L 653.158625 -339.044474 
L 642.413563 -333.081596 
L 631.6685 -324.316136 
L 620.923438 -315.168699 
L 610.178375 -303.923336 
L 599.433313 -287.636893 
L 588.68825 -270.595475 
L 577.943188 -245.262377 
L 567.198125 -54.561656 
z
" style="stroke: #0000ff; stroke-opacity: 0.2"/>
    </defs>
    <g clip-path="url(#pac153c1851)">
     <use xlink:href="#m4bf0b6d960" x="0" y="413.065625" style="fill: #0000ff; fill-opacity: 0.2; stroke: #0000ff; stroke-opacity: 0.2"/>
    </g>
   </g>
   <g id="PolyCollection_8">
    <defs>
     <path id="m7eb01b0c41" d="M 567.198125 -54.561656 
L 567.198125 -50.646275 
L 577.943188 -220.086144 
L 588.68825 -232.796016 
L 599.433313 -237.691839 
L 610.178375 -239.813173 
L 620.923438 -239.954374 
L 631.6685 -240.101633 
L 642.413563 -240.553436 
L 653.158625 -240.289375 
L 663.903688 -237.75718 
L 674.64875 -238.316957 
L 685.393813 -237.376609 
L 696.138875 -236.78846 
L 706.883938 -236.976517 
L 717.629 -237.613434 
L 728.374063 -234.757844 
L 739.119125 -235.402751 
L 749.864188 -235.603481 
L 760.60925 -235.274414 
L 771.354313 -234.824902 
L 782.099375 -234.202134 
L 792.844438 -233.338979 
L 803.5895 -234.318249 
L 814.334563 -233.243082 
L 825.079625 -234.165148 
L 835.824688 -233.634244 
L 846.56975 -232.272444 
L 857.314813 -232.177423 
L 868.059875 -232.455197 
L 878.804938 -230.258374 
L 889.55 -231.730656 
L 900.295063 -231.723507 
L 911.040125 -231.247617 
L 921.785188 -232.205238 
L 932.53025 -231.907062 
L 943.275313 -231.314252 
L 954.020375 -229.485535 
L 964.765438 -231.146206 
L 975.5105 -230.617937 
L 986.255563 -233.352918 
L 997.000625 -230.021932 
L 997.000625 -244.596019 
L 997.000625 -244.596019 
L 986.255563 -246.376865 
L 975.5105 -247.654102 
L 964.765438 -245.98655 
L 954.020375 -245.226518 
L 943.275313 -246.035859 
L 932.53025 -246.207837 
L 921.785188 -245.096635 
L 911.040125 -246.135697 
L 900.295063 -246.327696 
L 889.55 -246.224119 
L 878.804938 -246.548453 
L 868.059875 -245.811798 
L 857.314813 -246.609194 
L 846.56975 -245.012822 
L 835.824688 -247.210739 
L 825.079625 -247.221937 
L 814.334563 -246.086119 
L 803.5895 -247.893205 
L 792.844438 -246.123539 
L 782.099375 -247.053464 
L 771.354313 -246.486649 
L 760.60925 -248.291005 
L 749.864188 -248.414263 
L 739.119125 -248.538763 
L 728.374063 -248.808944 
L 717.629 -249.380658 
L 706.883938 -250.449712 
L 696.138875 -251.081067 
L 685.393813 -251.741399 
L 674.64875 -252.265158 
L 663.903688 -252.905521 
L 653.158625 -252.749219 
L 642.413563 -254.523064 
L 631.6685 -253.89457 
L 620.923438 -253.510904 
L 610.178375 -255.046287 
L 599.433313 -251.940398 
L 588.68825 -249.271907 
L 577.943188 -237.361066 
L 567.198125 -54.561656 
z
" style="stroke: #0000ff; stroke-opacity: 0.2"/>
    </defs>
    <g clip-path="url(#pac153c1851)">
     <use xlink:href="#m7eb01b0c41" x="0" y="413.065625" style="fill: #0000ff; fill-opacity: 0.2; stroke: #0000ff; stroke-opacity: 0.2"/>
    </g>
   </g>
   <g id="PolyCollection_9">
    <defs>
     <path id="m3101321573" d="M 567.198125 -54.599852 
L 567.198125 -52.339773 
L 577.943188 -256.120888 
L 588.68825 -280.72433 
L 599.433313 -295.666403 
L 610.178375 -302.158209 
L 620.923438 -316.842905 
L 631.6685 -328.267437 
L 642.413563 -336.656709 
L 653.158625 -339.620253 
L 663.903688 -315.81131 
L 674.64875 -342.862037 
L 685.393813 -348.673831 
L 696.138875 -355.189398 
L 706.883938 -354.761717 
L 717.629 -361.285942 
L 728.374063 -360.760022 
L 739.119125 -361.301792 
L 749.864188 -362.408599 
L 760.60925 -360.912285 
L 771.354313 -364.26859 
L 782.099375 -366.083868 
L 792.844438 -367.798615 
L 803.5895 -365.866219 
L 814.334563 -370.537191 
L 825.079625 -368.187117 
L 835.824688 -370.486253 
L 846.56975 -372.8697 
L 857.314813 -370.998388 
L 868.059875 -370.388871 
L 878.804938 -373.750188 
L 889.55 -372.405876 
L 900.295063 -371.377561 
L 911.040125 -371.471543 
L 921.785188 -372.391364 
L 932.53025 -376.575275 
L 943.275313 -379.449811 
L 954.020375 -376.481764 
L 964.765438 -375.874583 
L 975.5105 -374.898231 
L 986.255563 -373.15921 
L 997.000625 -374.988922 
L 997.000625 -385.753838 
L 997.000625 -385.753838 
L 986.255563 -384.7854 
L 975.5105 -385.380262 
L 964.765438 -386.494367 
L 954.020375 -386.958765 
L 943.275313 -384.434908 
L 932.53025 -386.870273 
L 921.785188 -387.29362 
L 911.040125 -385.905908 
L 900.295063 -387.406494 
L 889.55 -387.206331 
L 878.804938 -384.580892 
L 868.059875 -385.884378 
L 857.314813 -385.392809 
L 846.56975 -384.527828 
L 835.824688 -386.070575 
L 825.079625 -385.612968 
L 814.334563 -384.065951 
L 803.5895 -382.932329 
L 792.844438 -380.759016 
L 782.099375 -383.463781 
L 771.354313 -383.838577 
L 760.60925 -380.609817 
L 749.864188 -376.491022 
L 739.119125 -382.685945 
L 728.374063 -380.191157 
L 717.629 -377.530864 
L 706.883938 -375.267892 
L 696.138875 -374.107422 
L 685.393813 -372.603717 
L 674.64875 -367.537857 
L 663.903688 -370.475556 
L 653.158625 -367.779472 
L 642.413563 -361.688554 
L 631.6685 -352.666554 
L 620.923438 -345.605727 
L 610.178375 -341.736052 
L 599.433313 -316.87477 
L 588.68825 -292.006568 
L 577.943188 -272.067973 
L 567.198125 -54.599852 
z
" style="stroke: #008000; stroke-opacity: 0.2"/>
    </defs>
    <g clip-path="url(#pac153c1851)">
     <use xlink:href="#m3101321573" x="0" y="413.065625" style="fill: #008000; fill-opacity: 0.2; stroke: #008000; stroke-opacity: 0.2"/>
    </g>
   </g>
   <g id="PolyCollection_10">
    <defs>
     <path id="m53b5425886" d="M 567.198125 -54.599852 
L 567.198125 -52.339773 
L 577.943188 -249.362134 
L 588.68825 -250.464384 
L 599.433313 -247.562874 
L 610.178375 -246.85747 
L 620.923438 -241.841053 
L 631.6685 -241.037173 
L 642.413563 -239.024511 
L 653.158625 -240.861098 
L 663.903688 -235.066276 
L 674.64875 -237.845323 
L 685.393813 -235.279258 
L 696.138875 -235.543637 
L 706.883938 -235.832556 
L 717.629 -236.630932 
L 728.374063 -235.293325 
L 739.119125 -236.759411 
L 749.864188 -234.887564 
L 760.60925 -233.152272 
L 771.354313 -231.825338 
L 782.099375 -233.432728 
L 792.844438 -233.14583 
L 803.5895 -233.897068 
L 814.334563 -229.209628 
L 825.079625 -232.134892 
L 835.824688 -233.975373 
L 846.56975 -232.536543 
L 857.314813 -233.567778 
L 868.059875 -236.262703 
L 878.804938 -229.368095 
L 889.55 -231.855444 
L 900.295063 -233.635653 
L 911.040125 -233.481541 
L 921.785188 -233.268361 
L 932.53025 -232.602048 
L 943.275313 -231.129367 
L 954.020375 -228.995692 
L 964.765438 -229.334273 
L 975.5105 -230.347153 
L 986.255563 -232.160529 
L 997.000625 -228.231435 
L 997.000625 -237.656989 
L 997.000625 -237.656989 
L 986.255563 -234.925631 
L 975.5105 -235.518285 
L 964.765438 -239.434356 
L 954.020375 -241.010746 
L 943.275313 -239.190814 
L 932.53025 -238.85924 
L 921.785188 -239.35527 
L 911.040125 -236.095004 
L 900.295063 -236.807187 
L 889.55 -240.780554 
L 878.804938 -237.483366 
L 868.059875 -240.521984 
L 857.314813 -239.666213 
L 846.56975 -237.166199 
L 835.824688 -238.391143 
L 825.079625 -238.764406 
L 814.334563 -237.640653 
L 803.5895 -239.007272 
L 792.844438 -242.082585 
L 782.099375 -239.48341 
L 771.354313 -237.997703 
L 760.60925 -237.896209 
L 749.864188 -236.932869 
L 739.119125 -240.251145 
L 728.374063 -242.421365 
L 717.629 -238.694796 
L 706.883938 -239.233698 
L 696.138875 -243.527411 
L 685.393813 -241.966606 
L 674.64875 -241.804232 
L 663.903688 -246.866101 
L 653.158625 -244.907974 
L 642.413563 -245.220143 
L 631.6685 -246.979327 
L 620.923438 -249.500883 
L 610.178375 -250.720741 
L 599.433313 -255.03622 
L 588.68825 -255.013126 
L 577.943188 -252.428436 
L 567.198125 -54.599852 
z
" style="stroke: #008000; stroke-opacity: 0.2"/>
    </defs>
    <g clip-path="url(#pac153c1851)">
     <use xlink:href="#m53b5425886" x="0" y="413.065625" style="fill: #008000; fill-opacity: 0.2; stroke: #008000; stroke-opacity: 0.2"/>
    </g>
   </g>
   <g id="PolyCollection_11">
    <defs>
     <path id="m270d9a7750" d="M 567.198125 -52.143962 
L 567.198125 -52.000098 
L 577.943188 -232.08113 
L 588.68825 -241.922467 
L 599.433313 -255.773971 
L 610.178375 -260.503953 
L 620.923438 -268.662554 
L 631.6685 -274.908113 
L 642.413563 -272.949359 
L 653.158625 -277.897061 
L 663.903688 -285.433254 
L 674.64875 -289.260578 
L 685.393813 -292.878025 
L 696.138875 -290.763462 
L 706.883938 -293.356697 
L 717.629 -290.023111 
L 728.374063 -285.556454 
L 739.119125 -295.658229 
L 749.864188 -293.29592 
L 760.60925 -297.520197 
L 771.354313 -294.981648 
L 782.099375 -292.12013 
L 792.844438 -301.752829 
L 803.5895 -298.054175 
L 814.334563 -294.811391 
L 825.079625 -299.923365 
L 835.824688 -299.800059 
L 846.56975 -297.128609 
L 857.314813 -303.584045 
L 868.059875 -298.796278 
L 878.804938 -296.959592 
L 889.55 -302.372245 
L 900.295063 -302.098599 
L 911.040125 -309.354543 
L 921.785188 -305.690765 
L 932.53025 -304.978688 
L 943.275313 -305.066498 
L 954.020375 -302.216435 
L 964.765438 -299.695944 
L 975.5105 -311.684348 
L 986.255563 -302.556222 
L 997.000625 -300.506047 
L 997.000625 -340.177242 
L 997.000625 -340.177242 
L 986.255563 -342.802362 
L 975.5105 -339.569173 
L 964.765438 -342.816808 
L 954.020375 -341.312685 
L 943.275313 -339.275717 
L 932.53025 -340.481533 
L 921.785188 -337.02526 
L 911.040125 -331.633656 
L 900.295063 -332.283204 
L 889.55 -330.688279 
L 878.804938 -334.474743 
L 868.059875 -334.874068 
L 857.314813 -337.505791 
L 846.56975 -329.325521 
L 835.824688 -326.247523 
L 825.079625 -322.058742 
L 814.334563 -331.032917 
L 803.5895 -328.095044 
L 792.844438 -323.888206 
L 782.099375 -325.89814 
L 771.354313 -317.548233 
L 760.60925 -312.468763 
L 749.864188 -315.575034 
L 739.119125 -317.074925 
L 728.374063 -314.878641 
L 717.629 -308.27761 
L 706.883938 -307.586582 
L 696.138875 -303.268512 
L 685.393813 -297.190111 
L 674.64875 -297.453542 
L 663.903688 -294.776108 
L 653.158625 -294.28299 
L 642.413563 -282.867158 
L 631.6685 -287.413163 
L 620.923438 -282.173758 
L 610.178375 -271.427905 
L 599.433313 -257.355069 
L 588.68825 -249.253014 
L 577.943188 -239.986622 
L 567.198125 -52.143962 
z
" style="stroke: #ff0000; stroke-opacity: 0.2"/>
    </defs>
    <g clip-path="url(#pac153c1851)">
     <use xlink:href="#m270d9a7750" x="0" y="413.065625" style="fill: #ff0000; fill-opacity: 0.2; stroke: #ff0000; stroke-opacity: 0.2"/>
    </g>
   </g>
   <g id="PolyCollection_12">
    <defs>
     <path id="mc5ec040353" d="M 567.198125 -52.143962 
L 567.198125 -52.000098 
L 577.943188 -230.926734 
L 588.68825 -232.287704 
L 599.433313 -231.978909 
L 610.178375 -232.316002 
L 620.923438 -230.270621 
L 631.6685 -229.000533 
L 642.413563 -226.334568 
L 653.158625 -223.493446 
L 663.903688 -226.527797 
L 674.64875 -222.121011 
L 685.393813 -227.903227 
L 696.138875 -226.580778 
L 706.883938 -225.450939 
L 717.629 -224.237447 
L 728.374063 -224.0689 
L 739.119125 -221.798377 
L 749.864188 -225.240876 
L 760.60925 -224.405993 
L 771.354313 -225.328144 
L 782.099375 -223.19849 
L 792.844438 -225.342603 
L 803.5895 -223.479607 
L 814.334563 -221.39209 
L 825.079625 -223.999086 
L 835.824688 -222.876476 
L 846.56975 -221.02009 
L 857.314813 -225.402193 
L 868.059875 -224.041222 
L 878.804938 -222.122252 
L 889.55 -222.153544 
L 900.295063 -220.616797 
L 911.040125 -218.0381 
L 921.785188 -220.382051 
L 932.53025 -220.013666 
L 943.275313 -219.473119 
L 954.020375 -221.560637 
L 964.765438 -222.602588 
L 975.5105 -219.164944 
L 986.255563 -223.153359 
L 997.000625 -220.294784 
L 997.000625 -220.870237 
L 997.000625 -220.870237 
L 986.255563 -225.742901 
L 975.5105 -221.89835 
L 964.765438 -225.479857 
L 954.020375 -225.301086 
L 943.275313 -225.659248 
L 932.53025 -223.897979 
L 921.785188 -223.834774 
L 911.040125 -226.38218 
L 900.295063 -225.939745 
L 889.55 -225.31854 
L 878.804938 -223.417023 
L 868.059875 -224.041222 
L 857.314813 -225.833783 
L 846.56975 -227.062355 
L 835.824688 -223.88352 
L 825.079625 -224.286813 
L 814.334563 -226.283447 
L 803.5895 -225.925286 
L 792.844438 -225.486466 
L 782.099375 -228.953028 
L 771.354313 -228.349276 
L 760.60925 -224.69372 
L 749.864188 -225.384739 
L 739.119125 -230.861775 
L 728.374063 -226.658442 
L 717.629 -225.676081 
L 706.883938 -228.328208 
L 696.138875 -227.300095 
L 685.393813 -228.622544 
L 674.64875 -231.759862 
L 663.903688 -229.692793 
L 653.158625 -227.233896 
L 642.413563 -231.513652 
L 631.6685 -234.035754 
L 620.923438 -233.579481 
L 610.178375 -233.46691 
L 599.433313 -235.431632 
L 588.68825 -235.02111 
L 577.943188 -233.228549 
L 567.198125 -52.143962 
z
" style="stroke: #ff0000; stroke-opacity: 0.2"/>
    </defs>
    <g clip-path="url(#pac153c1851)">
     <use xlink:href="#mc5ec040353" x="0" y="413.065625" style="fill: #ff0000; fill-opacity: 0.2; stroke: #ff0000; stroke-opacity: 0.2"/>
    </g>
   </g>
   <g id="matplotlib.axis_3">
    <g id="xtick_10">
     <g id="line2d_37">
      <path d="M 567.198125 361.96 
L 567.198125 7.2 
" clip-path="url(#pac153c1851)" style="fill: none; stroke-dasharray: 2.96,1.28; stroke-dashoffset: 0; stroke: #808080; stroke-opacity: 0.5; stroke-width: 0.8"/>
     </g>
     <g id="line2d_38">
      <g>
       <use xlink:href="#m62e61d40b5" x="567.198125" y="361.96" style="stroke: #000000; stroke-width: 0.8"/>
      </g>
     </g>
     <g id="text_18">
      <!-- 0 -->
      <g transform="translate(562.108125 381.1175) scale(0.16 -0.16)">
       <use xlink:href="#DejaVuSans-30"/>
      </g>
     </g>
    </g>
    <g id="xtick_11">
     <g id="line2d_39">
      <path d="M 620.923438 361.96 
L 620.923438 7.2 
" clip-path="url(#pac153c1851)" style="fill: none; stroke-dasharray: 2.96,1.28; stroke-dashoffset: 0; stroke: #808080; stroke-opacity: 0.5; stroke-width: 0.8"/>
     </g>
     <g id="line2d_40">
      <g>
       <use xlink:href="#m62e61d40b5" x="620.923438" y="361.96" style="stroke: #000000; stroke-width: 0.8"/>
      </g>
     </g>
     <g id="text_19">
      <!-- 25 -->
      <g transform="translate(610.743438 381.1175) scale(0.16 -0.16)">
       <use xlink:href="#DejaVuSans-32"/>
       <use xlink:href="#DejaVuSans-35" x="63.623047"/>
      </g>
     </g>
    </g>
    <g id="xtick_12">
     <g id="line2d_41">
      <path d="M 674.64875 361.96 
L 674.64875 7.2 
" clip-path="url(#pac153c1851)" style="fill: none; stroke-dasharray: 2.96,1.28; stroke-dashoffset: 0; stroke: #808080; stroke-opacity: 0.5; stroke-width: 0.8"/>
     </g>
     <g id="line2d_42">
      <g>
       <use xlink:href="#m62e61d40b5" x="674.64875" y="361.96" style="stroke: #000000; stroke-width: 0.8"/>
      </g>
     </g>
     <g id="text_20">
      <!-- 50 -->
      <g transform="translate(664.46875 381.1175) scale(0.16 -0.16)">
       <use xlink:href="#DejaVuSans-35"/>
       <use xlink:href="#DejaVuSans-30" x="63.623047"/>
      </g>
     </g>
    </g>
    <g id="xtick_13">
     <g id="line2d_43">
      <path d="M 728.374063 361.96 
L 728.374063 7.2 
" clip-path="url(#pac153c1851)" style="fill: none; stroke-dasharray: 2.96,1.28; stroke-dashoffset: 0; stroke: #808080; stroke-opacity: 0.5; stroke-width: 0.8"/>
     </g>
     <g id="line2d_44">
      <g>
       <use xlink:href="#m62e61d40b5" x="728.374063" y="361.96" style="stroke: #000000; stroke-width: 0.8"/>
      </g>
     </g>
     <g id="text_21">
      <!-- 75 -->
      <g transform="translate(718.194063 381.1175) scale(0.16 -0.16)">
       <use xlink:href="#DejaVuSans-37"/>
       <use xlink:href="#DejaVuSans-35" x="63.623047"/>
      </g>
     </g>
    </g>
    <g id="xtick_14">
     <g id="line2d_45">
      <path d="M 782.099375 361.96 
L 782.099375 7.2 
" clip-path="url(#pac153c1851)" style="fill: none; stroke-dasharray: 2.96,1.28; stroke-dashoffset: 0; stroke: #808080; stroke-opacity: 0.5; stroke-width: 0.8"/>
     </g>
     <g id="line2d_46">
      <g>
       <use xlink:href="#m62e61d40b5" x="782.099375" y="361.96" style="stroke: #000000; stroke-width: 0.8"/>
      </g>
     </g>
     <g id="text_22">
      <!-- 100 -->
      <g transform="translate(766.829375 381.1175) scale(0.16 -0.16)">
       <use xlink:href="#DejaVuSans-31"/>
       <use xlink:href="#DejaVuSans-30" x="63.623047"/>
       <use xlink:href="#DejaVuSans-30" x="127.246094"/>
      </g>
     </g>
    </g>
    <g id="xtick_15">
     <g id="line2d_47">
      <path d="M 835.824688 361.96 
L 835.824688 7.2 
" clip-path="url(#pac153c1851)" style="fill: none; stroke-dasharray: 2.96,1.28; stroke-dashoffset: 0; stroke: #808080; stroke-opacity: 0.5; stroke-width: 0.8"/>
     </g>
     <g id="line2d_48">
      <g>
       <use xlink:href="#m62e61d40b5" x="835.824688" y="361.96" style="stroke: #000000; stroke-width: 0.8"/>
      </g>
     </g>
     <g id="text_23">
      <!-- 125 -->
      <g transform="translate(820.554688 381.1175) scale(0.16 -0.16)">
       <use xlink:href="#DejaVuSans-31"/>
       <use xlink:href="#DejaVuSans-32" x="63.623047"/>
       <use xlink:href="#DejaVuSans-35" x="127.246094"/>
      </g>
     </g>
    </g>
    <g id="xtick_16">
     <g id="line2d_49">
      <path d="M 889.55 361.96 
L 889.55 7.2 
" clip-path="url(#pac153c1851)" style="fill: none; stroke-dasharray: 2.96,1.28; stroke-dashoffset: 0; stroke: #808080; stroke-opacity: 0.5; stroke-width: 0.8"/>
     </g>
     <g id="line2d_50">
      <g>
       <use xlink:href="#m62e61d40b5" x="889.55" y="361.96" style="stroke: #000000; stroke-width: 0.8"/>
      </g>
     </g>
     <g id="text_24">
      <!-- 150 -->
      <g transform="translate(874.28 381.1175) scale(0.16 -0.16)">
       <use xlink:href="#DejaVuSans-31"/>
       <use xlink:href="#DejaVuSans-35" x="63.623047"/>
       <use xlink:href="#DejaVuSans-30" x="127.246094"/>
      </g>
     </g>
    </g>
    <g id="xtick_17">
     <g id="line2d_51">
      <path d="M 943.275313 361.96 
L 943.275313 7.2 
" clip-path="url(#pac153c1851)" style="fill: none; stroke-dasharray: 2.96,1.28; stroke-dashoffset: 0; stroke: #808080; stroke-opacity: 0.5; stroke-width: 0.8"/>
     </g>
     <g id="line2d_52">
      <g>
       <use xlink:href="#m62e61d40b5" x="943.275313" y="361.96" style="stroke: #000000; stroke-width: 0.8"/>
      </g>
     </g>
     <g id="text_25">
      <!-- 175 -->
      <g transform="translate(928.005313 381.1175) scale(0.16 -0.16)">
       <use xlink:href="#DejaVuSans-31"/>
       <use xlink:href="#DejaVuSans-37" x="63.623047"/>
       <use xlink:href="#DejaVuSans-35" x="127.246094"/>
      </g>
     </g>
    </g>
    <g id="xtick_18">
     <g id="line2d_53">
      <path d="M 997.000625 361.96 
L 997.000625 7.2 
" clip-path="url(#pac153c1851)" style="fill: none; stroke-dasharray: 2.96,1.28; stroke-dashoffset: 0; stroke: #808080; stroke-opacity: 0.5; stroke-width: 0.8"/>
     </g>
     <g id="line2d_54">
      <g>
       <use xlink:href="#m62e61d40b5" x="997.000625" y="361.96" style="stroke: #000000; stroke-width: 0.8"/>
      </g>
     </g>
     <g id="text_26">
      <!-- 200 -->
      <g transform="translate(981.730625 381.1175) scale(0.16 -0.16)">
       <use xlink:href="#DejaVuSans-32"/>
       <use xlink:href="#DejaVuSans-30" x="63.623047"/>
       <use xlink:href="#DejaVuSans-30" x="127.246094"/>
      </g>
     </g>
    </g>
    <g id="text_27">
     <!-- Epoch -->
     <g transform="translate(754.539688 402.122187) scale(0.18 -0.18)">
      <use xlink:href="#DejaVuSans-45"/>
      <use xlink:href="#DejaVuSans-70" x="63.183594"/>
      <use xlink:href="#DejaVuSans-6f" x="126.660156"/>
      <use xlink:href="#DejaVuSans-63" x="187.841797"/>
      <use xlink:href="#DejaVuSans-68" x="242.822266"/>
     </g>
    </g>
   </g>
   <g id="matplotlib.axis_4">
    <g id="ytick_7">
     <g id="line2d_55">
      <path d="M 567.198125 361.96 
L 997.000625 361.96 
" clip-path="url(#pac153c1851)" style="fill: none; stroke-dasharray: 2.96,1.28; stroke-dashoffset: 0; stroke: #808080; stroke-opacity: 0.5; stroke-width: 0.8"/>
     </g>
     <g id="line2d_56">
      <g>
       <use xlink:href="#mdb54fda969" x="567.198125" y="361.96" style="stroke: #000000; stroke-width: 0.8"/>
      </g>
     </g>
     <g id="text_28">
      <!-- 0 -->
      <g transform="translate(550.018125 368.03875) scale(0.16 -0.16)">
       <use xlink:href="#DejaVuSans-30"/>
      </g>
     </g>
    </g>
    <g id="ytick_8">
     <g id="line2d_57">
      <path d="M 567.198125 293.00956 
L 997.000625 293.00956 
" clip-path="url(#pac153c1851)" style="fill: none; stroke-dasharray: 2.96,1.28; stroke-dashoffset: 0; stroke: #808080; stroke-opacity: 0.5; stroke-width: 0.8"/>
     </g>
     <g id="line2d_58">
      <g>
       <use xlink:href="#mdb54fda969" x="567.198125" y="293.00956" style="stroke: #000000; stroke-width: 0.8"/>
      </g>
     </g>
     <g id="text_29">
      <!-- 20 -->
      <g transform="translate(539.838125 299.08831) scale(0.16 -0.16)">
       <use xlink:href="#DejaVuSans-32"/>
       <use xlink:href="#DejaVuSans-30" x="63.623047"/>
      </g>
     </g>
    </g>
    <g id="ytick_9">
     <g id="line2d_59">
      <path d="M 567.198125 224.05912 
L 997.000625 224.05912 
" clip-path="url(#pac153c1851)" style="fill: none; stroke-dasharray: 2.96,1.28; stroke-dashoffset: 0; stroke: #808080; stroke-opacity: 0.5; stroke-width: 0.8"/>
     </g>
     <g id="line2d_60">
      <g>
       <use xlink:href="#mdb54fda969" x="567.198125" y="224.05912" style="stroke: #000000; stroke-width: 0.8"/>
      </g>
     </g>
     <g id="text_30">
      <!-- 40 -->
      <g transform="translate(539.838125 230.13787) scale(0.16 -0.16)">
       <use xlink:href="#DejaVuSans-34"/>
       <use xlink:href="#DejaVuSans-30" x="63.623047"/>
      </g>
     </g>
    </g>
    <g id="ytick_10">
     <g id="line2d_61">
      <path d="M 567.198125 155.10868 
L 997.000625 155.10868 
" clip-path="url(#pac153c1851)" style="fill: none; stroke-dasharray: 2.96,1.28; stroke-dashoffset: 0; stroke: #808080; stroke-opacity: 0.5; stroke-width: 0.8"/>
     </g>
     <g id="line2d_62">
      <g>
       <use xlink:href="#mdb54fda969" x="567.198125" y="155.10868" style="stroke: #000000; stroke-width: 0.8"/>
      </g>
     </g>
     <g id="text_31">
      <!-- 60 -->
      <g transform="translate(539.838125 161.18743) scale(0.16 -0.16)">
       <defs>
        <path id="DejaVuSans-36" d="M 2113 2584 
Q 1688 2584 1439 2293 
Q 1191 2003 1191 1497 
Q 1191 994 1439 701 
Q 1688 409 2113 409 
Q 2538 409 2786 701 
Q 3034 994 3034 1497 
Q 3034 2003 2786 2293 
Q 2538 2584 2113 2584 
z
M 3366 4563 
L 3366 3988 
Q 3128 4100 2886 4159 
Q 2644 4219 2406 4219 
Q 1781 4219 1451 3797 
Q 1122 3375 1075 2522 
Q 1259 2794 1537 2939 
Q 1816 3084 2150 3084 
Q 2853 3084 3261 2657 
Q 3669 2231 3669 1497 
Q 3669 778 3244 343 
Q 2819 -91 2113 -91 
Q 1303 -91 875 529 
Q 447 1150 447 2328 
Q 447 3434 972 4092 
Q 1497 4750 2381 4750 
Q 2619 4750 2861 4703 
Q 3103 4656 3366 4563 
z
" transform="scale(0.015625)"/>
       </defs>
       <use xlink:href="#DejaVuSans-36"/>
       <use xlink:href="#DejaVuSans-30" x="63.623047"/>
      </g>
     </g>
    </g>
    <g id="ytick_11">
     <g id="line2d_63">
      <path d="M 567.198125 86.15824 
L 997.000625 86.15824 
" clip-path="url(#pac153c1851)" style="fill: none; stroke-dasharray: 2.96,1.28; stroke-dashoffset: 0; stroke: #808080; stroke-opacity: 0.5; stroke-width: 0.8"/>
     </g>
     <g id="line2d_64">
      <g>
       <use xlink:href="#mdb54fda969" x="567.198125" y="86.15824" style="stroke: #000000; stroke-width: 0.8"/>
      </g>
     </g>
     <g id="text_32">
      <!-- 80 -->
      <g transform="translate(539.838125 92.23699) scale(0.16 -0.16)">
       <defs>
        <path id="DejaVuSans-38" d="M 2034 2216 
Q 1584 2216 1326 1975 
Q 1069 1734 1069 1313 
Q 1069 891 1326 650 
Q 1584 409 2034 409 
Q 2484 409 2743 651 
Q 3003 894 3003 1313 
Q 3003 1734 2745 1975 
Q 2488 2216 2034 2216 
z
M 1403 2484 
Q 997 2584 770 2862 
Q 544 3141 544 3541 
Q 544 4100 942 4425 
Q 1341 4750 2034 4750 
Q 2731 4750 3128 4425 
Q 3525 4100 3525 3541 
Q 3525 3141 3298 2862 
Q 3072 2584 2669 2484 
Q 3125 2378 3379 2068 
Q 3634 1759 3634 1313 
Q 3634 634 3220 271 
Q 2806 -91 2034 -91 
Q 1263 -91 848 271 
Q 434 634 434 1313 
Q 434 1759 690 2068 
Q 947 2378 1403 2484 
z
M 1172 3481 
Q 1172 3119 1398 2916 
Q 1625 2713 2034 2713 
Q 2441 2713 2670 2916 
Q 2900 3119 2900 3481 
Q 2900 3844 2670 4047 
Q 2441 4250 2034 4250 
Q 1625 4250 1398 4047 
Q 1172 3844 1172 3481 
z
" transform="scale(0.015625)"/>
       </defs>
       <use xlink:href="#DejaVuSans-38"/>
       <use xlink:href="#DejaVuSans-30" x="63.623047"/>
      </g>
     </g>
    </g>
    <g id="ytick_12">
     <g id="line2d_65">
      <path d="M 567.198125 17.2078 
L 997.000625 17.2078 
" clip-path="url(#pac153c1851)" style="fill: none; stroke-dasharray: 2.96,1.28; stroke-dashoffset: 0; stroke: #808080; stroke-opacity: 0.5; stroke-width: 0.8"/>
     </g>
     <g id="line2d_66">
      <g>
       <use xlink:href="#mdb54fda969" x="567.198125" y="17.2078" style="stroke: #000000; stroke-width: 0.8"/>
      </g>
     </g>
     <g id="text_33">
      <!-- 100 -->
      <g transform="translate(529.658125 23.28655) scale(0.16 -0.16)">
       <use xlink:href="#DejaVuSans-31"/>
       <use xlink:href="#DejaVuSans-30" x="63.623047"/>
       <use xlink:href="#DejaVuSans-30" x="127.246094"/>
      </g>
     </g>
    </g>
    <g id="text_34">
     <!-- Accuracy (%) -->
     <g transform="translate(521.914688 244.105156) rotate(-90) scale(0.18 -0.18)">
      <defs>
       <path id="DejaVuSans-41" d="M 2188 4044 
L 1331 1722 
L 3047 1722 
L 2188 4044 
z
M 1831 4666 
L 2547 4666 
L 4325 0 
L 3669 0 
L 3244 1197 
L 1141 1197 
L 716 0 
L 50 0 
L 1831 4666 
z
" transform="scale(0.015625)"/>
       <path id="DejaVuSans-75" d="M 544 1381 
L 544 3500 
L 1119 3500 
L 1119 1403 
Q 1119 906 1312 657 
Q 1506 409 1894 409 
Q 2359 409 2629 706 
Q 2900 1003 2900 1516 
L 2900 3500 
L 3475 3500 
L 3475 0 
L 2900 0 
L 2900 538 
Q 2691 219 2414 64 
Q 2138 -91 1772 -91 
Q 1169 -91 856 284 
Q 544 659 544 1381 
z
M 1991 3584 
L 1991 3584 
z
" transform="scale(0.015625)"/>
       <path id="DejaVuSans-72" d="M 2631 2963 
Q 2534 3019 2420 3045 
Q 2306 3072 2169 3072 
Q 1681 3072 1420 2755 
Q 1159 2438 1159 1844 
L 1159 0 
L 581 0 
L 581 3500 
L 1159 3500 
L 1159 2956 
Q 1341 3275 1631 3429 
Q 1922 3584 2338 3584 
Q 2397 3584 2469 3576 
Q 2541 3569 2628 3553 
L 2631 2963 
z
" transform="scale(0.015625)"/>
       <path id="DejaVuSans-61" d="M 2194 1759 
Q 1497 1759 1228 1600 
Q 959 1441 959 1056 
Q 959 750 1161 570 
Q 1363 391 1709 391 
Q 2188 391 2477 730 
Q 2766 1069 2766 1631 
L 2766 1759 
L 2194 1759 
z
M 3341 1997 
L 3341 0 
L 2766 0 
L 2766 531 
Q 2569 213 2275 61 
Q 1981 -91 1556 -91 
Q 1019 -91 701 211 
Q 384 513 384 1019 
Q 384 1609 779 1909 
Q 1175 2209 1959 2209 
L 2766 2209 
L 2766 2266 
Q 2766 2663 2505 2880 
Q 2244 3097 1772 3097 
Q 1472 3097 1187 3025 
Q 903 2953 641 2809 
L 641 3341 
Q 956 3463 1253 3523 
Q 1550 3584 1831 3584 
Q 2591 3584 2966 3190 
Q 3341 2797 3341 1997 
z
" transform="scale(0.015625)"/>
       <path id="DejaVuSans-79" d="M 2059 -325 
Q 1816 -950 1584 -1140 
Q 1353 -1331 966 -1331 
L 506 -1331 
L 506 -850 
L 844 -850 
Q 1081 -850 1212 -737 
Q 1344 -625 1503 -206 
L 1606 56 
L 191 3500 
L 800 3500 
L 1894 763 
L 2988 3500 
L 3597 3500 
L 2059 -325 
z
" transform="scale(0.015625)"/>
       <path id="DejaVuSans-20" transform="scale(0.015625)"/>
       <path id="DejaVuSans-28" d="M 1984 4856 
Q 1566 4138 1362 3434 
Q 1159 2731 1159 2009 
Q 1159 1288 1364 580 
Q 1569 -128 1984 -844 
L 1484 -844 
Q 1016 -109 783 600 
Q 550 1309 550 2009 
Q 550 2706 781 3412 
Q 1013 4119 1484 4856 
L 1984 4856 
z
" transform="scale(0.015625)"/>
       <path id="DejaVuSans-25" d="M 4653 2053 
Q 4381 2053 4226 1822 
Q 4072 1591 4072 1178 
Q 4072 772 4226 539 
Q 4381 306 4653 306 
Q 4919 306 5073 539 
Q 5228 772 5228 1178 
Q 5228 1588 5073 1820 
Q 4919 2053 4653 2053 
z
M 4653 2450 
Q 5147 2450 5437 2106 
Q 5728 1763 5728 1178 
Q 5728 594 5436 251 
Q 5144 -91 4653 -91 
Q 4153 -91 3862 251 
Q 3572 594 3572 1178 
Q 3572 1766 3864 2108 
Q 4156 2450 4653 2450 
z
M 1428 4353 
Q 1159 4353 1004 4120 
Q 850 3888 850 3481 
Q 850 3069 1003 2837 
Q 1156 2606 1428 2606 
Q 1700 2606 1854 2837 
Q 2009 3069 2009 3481 
Q 2009 3884 1853 4118 
Q 1697 4353 1428 4353 
z
M 4250 4750 
L 4750 4750 
L 1831 -91 
L 1331 -91 
L 4250 4750 
z
M 1428 4750 
Q 1922 4750 2215 4408 
Q 2509 4066 2509 3481 
Q 2509 2891 2217 2550 
Q 1925 2209 1428 2209 
Q 931 2209 642 2551 
Q 353 2894 353 3481 
Q 353 4063 643 4406 
Q 934 4750 1428 4750 
z
" transform="scale(0.015625)"/>
       <path id="DejaVuSans-29" d="M 513 4856 
L 1013 4856 
Q 1481 4119 1714 3412 
Q 1947 2706 1947 2009 
Q 1947 1309 1714 600 
Q 1481 -109 1013 -844 
L 513 -844 
Q 928 -128 1133 580 
Q 1338 1288 1338 2009 
Q 1338 2731 1133 3434 
Q 928 4138 513 4856 
z
" transform="scale(0.015625)"/>
      </defs>
      <use xlink:href="#DejaVuSans-41"/>
      <use xlink:href="#DejaVuSans-63" x="66.658203"/>
      <use xlink:href="#DejaVuSans-63" x="121.638672"/>
      <use xlink:href="#DejaVuSans-75" x="176.619141"/>
      <use xlink:href="#DejaVuSans-72" x="239.998047"/>
      <use xlink:href="#DejaVuSans-61" x="281.111328"/>
      <use xlink:href="#DejaVuSans-63" x="342.390625"/>
      <use xlink:href="#DejaVuSans-79" x="397.371094"/>
      <use xlink:href="#DejaVuSans-20" x="456.550781"/>
      <use xlink:href="#DejaVuSans-28" x="488.337891"/>
      <use xlink:href="#DejaVuSans-25" x="527.351562"/>
      <use xlink:href="#DejaVuSans-29" x="622.371094"/>
     </g>
    </g>
   </g>
   <g id="line2d_67">
    <path d="M 567.198125 360.461659 
L 577.943188 176.235499 
L 588.68825 153.616618 
L 599.433313 141.421195 
L 610.178375 129.907927 
L 620.923438 122.048046 
L 631.6685 114.827492 
L 642.413563 107.996608 
L 653.158625 102.069628 
L 663.903688 96.15939 
L 674.64875 93.332723 
L 685.393813 89.374956 
L 696.138875 85.708444 
L 706.883938 83.189863 
L 717.629 78.020594 
L 728.374063 77.574114 
L 739.119125 76.189882 
L 749.864188 72.173627 
L 760.60925 72.179192 
L 771.354313 71.451903 
L 782.099375 70.19764 
L 792.844438 67.378506 
L 803.5895 65.540865 
L 814.334563 65.611457 
L 825.079625 63.724912 
L 835.824688 63.434634 
L 846.56975 67.56558 
L 857.314813 63.43467 
L 868.059875 60.83277 
L 878.804938 60.312699 
L 889.55 61.685546 
L 900.295063 60.370775 
L 911.040125 58.734738 
L 921.785188 60.895192 
L 932.53025 58.159119 
L 943.275313 59.410729 
L 954.020375 59.840945 
L 964.765438 60.035284 
L 975.5105 57.21269 
L 986.255563 56.226658 
L 997.000625 59.766646 
" clip-path="url(#pac153c1851)" style="fill: none; stroke: #0000ff; stroke-width: 2; stroke-linecap: square"/>
   </g>
   <g id="line2d_68">
    <path d="M 567.198125 360.461659 
L 577.943188 184.34202 
L 588.68825 172.031663 
L 599.433313 168.249506 
L 610.178375 165.635895 
L 620.923438 166.332986 
L 631.6685 166.067524 
L 642.413563 165.527375 
L 653.158625 166.546328 
L 663.903688 167.734275 
L 674.64875 167.774567 
L 685.393813 168.506621 
L 696.138875 169.130862 
L 706.883938 169.352511 
L 717.629 169.568579 
L 728.374063 171.282231 
L 739.119125 171.094868 
L 749.864188 171.056753 
L 760.60925 171.282915 
L 771.354313 172.409849 
L 782.099375 172.437826 
L 792.844438 173.334366 
L 803.5895 171.959898 
L 814.334563 173.401024 
L 825.079625 172.372083 
L 835.824688 172.643133 
L 846.56975 174.422992 
L 857.314813 173.672316 
L 868.059875 173.932128 
L 878.804938 174.662211 
L 889.55 174.088238 
L 900.295063 174.040024 
L 911.040125 174.373968 
L 921.785188 174.414688 
L 932.53025 174.008175 
L 943.275313 174.39057 
L 954.020375 175.709599 
L 964.765438 174.499247 
L 975.5105 173.929605 
L 986.255563 173.200733 
L 997.000625 175.75665 
" clip-path="url(#pac153c1851)" style="fill: none; stroke-dasharray: 7.4,3.2; stroke-dashoffset: 0; stroke: #0000ff; stroke-width: 2"/>
   </g>
   <g id="line2d_69">
    <path d="M 567.198125 359.595812 
L 577.943188 148.971195 
L 588.68825 126.700176 
L 599.433313 106.795038 
L 610.178375 91.118495 
L 620.923438 81.841309 
L 631.6685 72.598629 
L 642.413563 63.892994 
L 653.158625 59.365762 
L 663.903688 69.922192 
L 674.64875 57.865678 
L 685.393813 52.426851 
L 696.138875 48.417215 
L 706.883938 48.05082 
L 717.629 43.657222 
L 728.374063 42.590035 
L 739.119125 41.071756 
L 749.864188 43.615815 
L 760.60925 42.304574 
L 771.354313 39.012042 
L 782.099375 38.2918 
L 792.844438 38.786809 
L 803.5895 38.666351 
L 814.334563 35.764054 
L 825.079625 36.165583 
L 835.824688 34.787211 
L 846.56975 34.366861 
L 857.314813 34.870026 
L 868.059875 34.929001 
L 878.804938 33.900085 
L 889.55 33.259521 
L 900.295063 33.673597 
L 911.040125 34.376899 
L 921.785188 33.223133 
L 932.53025 31.342851 
L 943.275313 31.123265 
L 954.020375 31.345361 
L 964.765438 31.88115 
L 975.5105 32.926378 
L 986.255563 34.09332 
L 997.000625 32.694245 
" clip-path="url(#pac153c1851)" style="fill: none; stroke: #008000; stroke-width: 2; stroke-linecap: square"/>
   </g>
   <g id="line2d_70">
    <path d="M 567.198125 359.595812 
L 577.943188 162.17034 
L 588.68825 160.32687 
L 599.433313 161.766078 
L 610.178375 164.276519 
L 620.923438 167.394657 
L 631.6685 169.057375 
L 642.413563 170.943298 
L 653.158625 170.181089 
L 663.903688 172.099437 
L 674.64875 173.240848 
L 685.393813 174.442693 
L 696.138875 173.530101 
L 706.883938 175.532498 
L 717.629 175.402761 
L 728.374063 174.20828 
L 739.119125 174.560347 
L 749.864188 177.155408 
L 760.60925 177.541384 
L 771.354313 178.154105 
L 782.099375 176.607556 
L 792.844438 175.451418 
L 803.5895 176.613455 
L 814.334563 179.640484 
L 825.079625 177.615976 
L 835.824688 176.882367 
L 846.56975 178.214254 
L 857.314813 176.448629 
L 868.059875 174.673282 
L 878.804938 179.639894 
L 889.55 176.747626 
L 900.295063 177.844205 
L 911.040125 178.277353 
L 921.785188 176.75381 
L 932.53025 177.334981 
L 943.275313 177.905534 
L 954.020375 178.062406 
L 964.765438 178.68131 
L 975.5105 180.132906 
L 986.255563 179.522545 
L 997.000625 180.121413 
" clip-path="url(#pac153c1851)" style="fill: none; stroke-dasharray: 7.4,3.2; stroke-dashoffset: 0; stroke: #008000; stroke-width: 2"/>
   </g>
   <g id="line2d_71">
    <path d="M 567.198125 360.993595 
L 577.943188 177.031749 
L 588.68825 167.477885 
L 599.433313 156.501105 
L 610.178375 147.099696 
L 620.923438 137.647469 
L 631.6685 131.904987 
L 642.413563 135.157366 
L 653.158625 126.9756 
L 663.903688 122.960944 
L 674.64875 119.708565 
L 685.393813 118.031557 
L 696.138875 116.049638 
L 706.883938 112.593985 
L 717.629 113.915264 
L 728.374063 112.848077 
L 739.119125 106.699048 
L 749.864188 108.630148 
L 760.60925 108.071145 
L 771.354313 106.800685 
L 782.099375 104.05649 
L 792.844438 100.245108 
L 803.5895 99.991016 
L 814.334563 100.143471 
L 825.079625 102.074571 
L 835.824688 100.041834 
L 846.56975 99.83856 
L 857.314813 92.520707 
L 868.059875 96.230452 
L 878.804938 97.348457 
L 889.55 96.535363 
L 900.295063 95.874723 
L 911.040125 92.571525 
L 921.785188 91.707612 
L 932.53025 90.335515 
L 943.275313 90.894517 
L 954.020375 91.301065 
L 964.765438 91.809249 
L 975.5105 87.438864 
L 986.255563 90.386333 
L 997.000625 92.723981 
" clip-path="url(#pac153c1851)" style="fill: none; stroke: #ff0000; stroke-width: 2; stroke-linecap: square"/>
   </g>
   <g id="line2d_72">
    <path d="M 567.198125 360.993595 
L 577.943188 180.987984 
L 588.68825 179.411218 
L 599.433313 179.360354 
L 610.178375 180.174169 
L 620.923438 181.140574 
L 631.6685 181.547481 
L 642.413563 184.141515 
L 653.158625 187.701954 
L 663.903688 184.95533 
L 674.64875 186.125188 
L 685.393813 184.802739 
L 696.138875 186.125188 
L 706.883938 186.176052 
L 717.629 188.108861 
L 728.374063 187.701954 
L 739.119125 186.735549 
L 749.864188 187.752817 
L 760.60925 188.515768 
L 771.354313 186.226915 
L 782.099375 186.989866 
L 792.844438 187.65109 
L 803.5895 188.363178 
L 814.334563 189.227856 
L 825.079625 188.922676 
L 835.824688 189.685627 
L 846.56975 189.024403 
L 857.314813 187.447637 
L 868.059875 189.024403 
L 878.804938 190.295988 
L 889.55 189.329583 
L 900.295063 189.787354 
L 911.040125 190.855485 
L 921.785188 190.957212 
L 932.53025 191.109802 
L 943.275313 190.499441 
L 954.020375 189.634764 
L 964.765438 189.024403 
L 975.5105 192.533978 
L 986.255563 188.617495 
L 997.000625 192.483115 
" clip-path="url(#pac153c1851)" style="fill: none; stroke-dasharray: 7.4,3.2; stroke-dashoffset: 0; stroke: #ff0000; stroke-width: 2"/>
   </g>
   <g id="patch_8">
    <path d="M 567.198125 361.96 
L 567.198125 7.2 
" style="fill: none; stroke: #000000; stroke-width: 0.8; stroke-linejoin: miter; stroke-linecap: square"/>
   </g>
   <g id="patch_9">
    <path d="M 997.000625 361.96 
L 997.000625 7.2 
" style="fill: none; stroke: #000000; stroke-width: 0.8; stroke-linejoin: miter; stroke-linecap: square"/>
   </g>
   <g id="patch_10">
    <path d="M 567.198125 361.96 
L 997.000625 361.96 
" style="fill: none; stroke: #000000; stroke-width: 0.8; stroke-linejoin: miter; stroke-linecap: square"/>
   </g>
   <g id="patch_11">
    <path d="M 567.198125 7.2 
L 997.000625 7.2 
" style="fill: none; stroke: #000000; stroke-width: 0.8; stroke-linejoin: miter; stroke-linecap: square"/>
   </g>
   <g id="legend_1">
    <g id="patch_12">
     <path d="M 1008.200625 257.435 
L 1192.973125 257.435 
Q 1196.173125 257.435 1196.173125 254.235 
L 1196.173125 114.925 
Q 1196.173125 111.725 1192.973125 111.725 
L 1008.200625 111.725 
Q 1005.000625 111.725 1005.000625 114.925 
L 1005.000625 254.235 
Q 1005.000625 257.435 1008.200625 257.435 
z
" style="fill: #ffffff; opacity: 0.8; stroke: #cccccc; stroke-linejoin: miter"/>
    </g>
    <g id="line2d_73">
     <path d="M 1011.400625 124.6825 
L 1027.400625 124.6825 
L 1043.400625 124.6825 
" style="fill: none; stroke: #0000ff; stroke-width: 2; stroke-linecap: square"/>
    </g>
    <g id="text_35">
     <!-- RNN Train -->
     <g transform="translate(1056.200625 130.2825) scale(0.16 -0.16)">
      <defs>
       <path id="DejaVuSans-52" d="M 2841 2188 
Q 3044 2119 3236 1894 
Q 3428 1669 3622 1275 
L 4263 0 
L 3584 0 
L 2988 1197 
Q 2756 1666 2539 1819 
Q 2322 1972 1947 1972 
L 1259 1972 
L 1259 0 
L 628 0 
L 628 4666 
L 2053 4666 
Q 2853 4666 3247 4331 
Q 3641 3997 3641 3322 
Q 3641 2881 3436 2590 
Q 3231 2300 2841 2188 
z
M 1259 4147 
L 1259 2491 
L 2053 2491 
Q 2509 2491 2742 2702 
Q 2975 2913 2975 3322 
Q 2975 3731 2742 3939 
Q 2509 4147 2053 4147 
L 1259 4147 
z
" transform="scale(0.015625)"/>
       <path id="DejaVuSans-4e" d="M 628 4666 
L 1478 4666 
L 3547 763 
L 3547 4666 
L 4159 4666 
L 4159 0 
L 3309 0 
L 1241 3903 
L 1241 0 
L 628 0 
L 628 4666 
z
" transform="scale(0.015625)"/>
       <path id="DejaVuSans-54" d="M -19 4666 
L 3928 4666 
L 3928 4134 
L 2272 4134 
L 2272 0 
L 1638 0 
L 1638 4134 
L -19 4134 
L -19 4666 
z
" transform="scale(0.015625)"/>
       <path id="DejaVuSans-69" d="M 603 3500 
L 1178 3500 
L 1178 0 
L 603 0 
L 603 3500 
z
M 603 4863 
L 1178 4863 
L 1178 4134 
L 603 4134 
L 603 4863 
z
" transform="scale(0.015625)"/>
       <path id="DejaVuSans-6e" d="M 3513 2113 
L 3513 0 
L 2938 0 
L 2938 2094 
Q 2938 2591 2744 2837 
Q 2550 3084 2163 3084 
Q 1697 3084 1428 2787 
Q 1159 2491 1159 1978 
L 1159 0 
L 581 0 
L 581 3500 
L 1159 3500 
L 1159 2956 
Q 1366 3272 1645 3428 
Q 1925 3584 2291 3584 
Q 2894 3584 3203 3211 
Q 3513 2838 3513 2113 
z
" transform="scale(0.015625)"/>
      </defs>
      <use xlink:href="#DejaVuSans-52"/>
      <use xlink:href="#DejaVuSans-4e" x="69.482422"/>
      <use xlink:href="#DejaVuSans-4e" x="144.287109"/>
      <use xlink:href="#DejaVuSans-20" x="219.091797"/>
      <use xlink:href="#DejaVuSans-54" x="250.878906"/>
      <use xlink:href="#DejaVuSans-72" x="297.212891"/>
      <use xlink:href="#DejaVuSans-61" x="338.326172"/>
      <use xlink:href="#DejaVuSans-69" x="399.605469"/>
      <use xlink:href="#DejaVuSans-6e" x="427.388672"/>
     </g>
    </g>
    <g id="line2d_74">
     <path d="M 1011.400625 148.1675 
L 1027.400625 148.1675 
L 1043.400625 148.1675 
" style="fill: none; stroke-dasharray: 7.4,3.2; stroke-dashoffset: 0; stroke: #0000ff; stroke-width: 2"/>
    </g>
    <g id="text_36">
     <!-- RNN Test -->
     <g transform="translate(1056.200625 153.7675) scale(0.16 -0.16)">
      <defs>
       <path id="DejaVuSans-65" d="M 3597 1894 
L 3597 1613 
L 953 1613 
Q 991 1019 1311 708 
Q 1631 397 2203 397 
Q 2534 397 2845 478 
Q 3156 559 3463 722 
L 3463 178 
Q 3153 47 2828 -22 
Q 2503 -91 2169 -91 
Q 1331 -91 842 396 
Q 353 884 353 1716 
Q 353 2575 817 3079 
Q 1281 3584 2069 3584 
Q 2775 3584 3186 3129 
Q 3597 2675 3597 1894 
z
M 3022 2063 
Q 3016 2534 2758 2815 
Q 2500 3097 2075 3097 
Q 1594 3097 1305 2825 
Q 1016 2553 972 2059 
L 3022 2063 
z
" transform="scale(0.015625)"/>
       <path id="DejaVuSans-74" d="M 1172 4494 
L 1172 3500 
L 2356 3500 
L 2356 3053 
L 1172 3053 
L 1172 1153 
Q 1172 725 1289 603 
Q 1406 481 1766 481 
L 2356 481 
L 2356 0 
L 1766 0 
Q 1100 0 847 248 
Q 594 497 594 1153 
L 594 3053 
L 172 3053 
L 172 3500 
L 594 3500 
L 594 4494 
L 1172 4494 
z
" transform="scale(0.015625)"/>
      </defs>
      <use xlink:href="#DejaVuSans-52"/>
      <use xlink:href="#DejaVuSans-4e" x="69.482422"/>
      <use xlink:href="#DejaVuSans-4e" x="144.287109"/>
      <use xlink:href="#DejaVuSans-20" x="219.091797"/>
      <use xlink:href="#DejaVuSans-54" x="250.878906"/>
      <use xlink:href="#DejaVuSans-65" x="294.962891"/>
      <use xlink:href="#DejaVuSans-73" x="356.486328"/>
      <use xlink:href="#DejaVuSans-74" x="408.585938"/>
     </g>
    </g>
    <g id="line2d_75">
     <path d="M 1011.400625 171.6525 
L 1027.400625 171.6525 
L 1043.400625 171.6525 
" style="fill: none; stroke: #008000; stroke-width: 2; stroke-linecap: square"/>
    </g>
    <g id="text_37">
     <!-- SSM Train -->
     <g transform="translate(1056.200625 177.2525) scale(0.16 -0.16)">
      <defs>
       <path id="DejaVuSans-53" d="M 3425 4513 
L 3425 3897 
Q 3066 4069 2747 4153 
Q 2428 4238 2131 4238 
Q 1616 4238 1336 4038 
Q 1056 3838 1056 3469 
Q 1056 3159 1242 3001 
Q 1428 2844 1947 2747 
L 2328 2669 
Q 3034 2534 3370 2195 
Q 3706 1856 3706 1288 
Q 3706 609 3251 259 
Q 2797 -91 1919 -91 
Q 1588 -91 1214 -16 
Q 841 59 441 206 
L 441 856 
Q 825 641 1194 531 
Q 1563 422 1919 422 
Q 2459 422 2753 634 
Q 3047 847 3047 1241 
Q 3047 1584 2836 1778 
Q 2625 1972 2144 2069 
L 1759 2144 
Q 1053 2284 737 2584 
Q 422 2884 422 3419 
Q 422 4038 858 4394 
Q 1294 4750 2059 4750 
Q 2388 4750 2728 4690 
Q 3069 4631 3425 4513 
z
" transform="scale(0.015625)"/>
       <path id="DejaVuSans-4d" d="M 628 4666 
L 1569 4666 
L 2759 1491 
L 3956 4666 
L 4897 4666 
L 4897 0 
L 4281 0 
L 4281 4097 
L 3078 897 
L 2444 897 
L 1241 4097 
L 1241 0 
L 628 0 
L 628 4666 
z
" transform="scale(0.015625)"/>
      </defs>
      <use xlink:href="#DejaVuSans-53"/>
      <use xlink:href="#DejaVuSans-53" x="63.476562"/>
      <use xlink:href="#DejaVuSans-4d" x="126.953125"/>
      <use xlink:href="#DejaVuSans-20" x="213.232422"/>
      <use xlink:href="#DejaVuSans-54" x="245.019531"/>
      <use xlink:href="#DejaVuSans-72" x="291.353516"/>
      <use xlink:href="#DejaVuSans-61" x="332.466797"/>
      <use xlink:href="#DejaVuSans-69" x="393.746094"/>
      <use xlink:href="#DejaVuSans-6e" x="421.529297"/>
     </g>
    </g>
    <g id="line2d_76">
     <path d="M 1011.400625 195.1375 
L 1027.400625 195.1375 
L 1043.400625 195.1375 
" style="fill: none; stroke-dasharray: 7.4,3.2; stroke-dashoffset: 0; stroke: #008000; stroke-width: 2"/>
    </g>
    <g id="text_38">
     <!-- SSM Test -->
     <g transform="translate(1056.200625 200.7375) scale(0.16 -0.16)">
      <use xlink:href="#DejaVuSans-53"/>
      <use xlink:href="#DejaVuSans-53" x="63.476562"/>
      <use xlink:href="#DejaVuSans-4d" x="126.953125"/>
      <use xlink:href="#DejaVuSans-20" x="213.232422"/>
      <use xlink:href="#DejaVuSans-54" x="245.019531"/>
      <use xlink:href="#DejaVuSans-65" x="289.103516"/>
      <use xlink:href="#DejaVuSans-73" x="350.626953"/>
      <use xlink:href="#DejaVuSans-74" x="402.726562"/>
     </g>
    </g>
    <g id="line2d_77">
     <path d="M 1011.400625 218.6225 
L 1027.400625 218.6225 
L 1043.400625 218.6225 
" style="fill: none; stroke: #ff0000; stroke-width: 2; stroke-linecap: square"/>
    </g>
    <g id="text_39">
     <!-- ATTENTION Train -->
     <g transform="translate(1056.200625 224.2225) scale(0.16 -0.16)">
      <defs>
       <path id="DejaVuSans-49" d="M 628 4666 
L 1259 4666 
L 1259 0 
L 628 0 
L 628 4666 
z
" transform="scale(0.015625)"/>
       <path id="DejaVuSans-4f" d="M 2522 4238 
Q 1834 4238 1429 3725 
Q 1025 3213 1025 2328 
Q 1025 1447 1429 934 
Q 1834 422 2522 422 
Q 3209 422 3611 934 
Q 4013 1447 4013 2328 
Q 4013 3213 3611 3725 
Q 3209 4238 2522 4238 
z
M 2522 4750 
Q 3503 4750 4090 4092 
Q 4678 3434 4678 2328 
Q 4678 1225 4090 567 
Q 3503 -91 2522 -91 
Q 1538 -91 948 565 
Q 359 1222 359 2328 
Q 359 3434 948 4092 
Q 1538 4750 2522 4750 
z
" transform="scale(0.015625)"/>
      </defs>
      <use xlink:href="#DejaVuSans-41"/>
      <use xlink:href="#DejaVuSans-54" x="60.658203"/>
      <use xlink:href="#DejaVuSans-54" x="119.992188"/>
      <use xlink:href="#DejaVuSans-45" x="181.076172"/>
      <use xlink:href="#DejaVuSans-4e" x="244.259766"/>
      <use xlink:href="#DejaVuSans-54" x="319.064453"/>
      <use xlink:href="#DejaVuSans-49" x="380.148438"/>
      <use xlink:href="#DejaVuSans-4f" x="409.640625"/>
      <use xlink:href="#DejaVuSans-4e" x="488.351562"/>
      <use xlink:href="#DejaVuSans-20" x="563.15625"/>
      <use xlink:href="#DejaVuSans-54" x="594.943359"/>
      <use xlink:href="#DejaVuSans-72" x="641.277344"/>
      <use xlink:href="#DejaVuSans-61" x="682.390625"/>
      <use xlink:href="#DejaVuSans-69" x="743.669922"/>
      <use xlink:href="#DejaVuSans-6e" x="771.453125"/>
     </g>
    </g>
    <g id="line2d_78">
     <path d="M 1011.400625 242.1075 
L 1027.400625 242.1075 
L 1043.400625 242.1075 
" style="fill: none; stroke-dasharray: 7.4,3.2; stroke-dashoffset: 0; stroke: #ff0000; stroke-width: 2"/>
    </g>
    <g id="text_40">
     <!-- ATTENTION Test -->
     <g transform="translate(1056.200625 247.7075) scale(0.16 -0.16)">
      <use xlink:href="#DejaVuSans-41"/>
      <use xlink:href="#DejaVuSans-54" x="60.658203"/>
      <use xlink:href="#DejaVuSans-54" x="119.992188"/>
      <use xlink:href="#DejaVuSans-45" x="181.076172"/>
      <use xlink:href="#DejaVuSans-4e" x="244.259766"/>
      <use xlink:href="#DejaVuSans-54" x="319.064453"/>
      <use xlink:href="#DejaVuSans-49" x="380.148438"/>
      <use xlink:href="#DejaVuSans-4f" x="409.640625"/>
      <use xlink:href="#DejaVuSans-4e" x="488.351562"/>
      <use xlink:href="#DejaVuSans-20" x="563.15625"/>
      <use xlink:href="#DejaVuSans-54" x="594.943359"/>
      <use xlink:href="#DejaVuSans-65" x="639.027344"/>
      <use xlink:href="#DejaVuSans-73" x="700.550781"/>
      <use xlink:href="#DejaVuSans-74" x="752.650391"/>
     </g>
    </g>
   </g>
  </g>
 </g>
 <defs>
  <clipPath id="p0507e15d44">
   <rect x="45.800625" y="7.2" width="429.8025" height="354.76"/>
  </clipPath>
  <clipPath id="pac153c1851">
   <rect x="567.198125" y="7.2" width="429.8025" height="354.76"/>
  </clipPath>
 </defs>
</svg>
