<?xml version="1.0" encoding="utf-8" standalone="no"?>
<!DOCTYPE svg PUBLIC "-//W3C//DTD SVG 1.1//EN"
  "http://www.w3.org/Graphics/SVG/1.1/DTD/svg11.dtd">
<svg xmlns:xlink="http://www.w3.org/1999/xlink" width="568.729466pt" height="426.344375pt" viewBox="0 0 568.729466 426.344375" xmlns="http://www.w3.org/2000/svg" version="1.1">
 <metadata>
  <rdf:RDF xmlns:dc="http://purl.org/dc/elements/1.1/" xmlns:cc="http://creativecommons.org/ns#" xmlns:rdf="http://www.w3.org/1999/02/22-rdf-syntax-ns#">
   <cc:Work>
    <dc:type rdf:resource="http://purl.org/dc/dcmitype/StillImage"/>
    <dc:date>2024-10-09T20:22:28.387218</dc:date>
    <dc:format>image/svg+xml</dc:format>
    <dc:creator>
     <cc:Agent>
      <dc:title>Matplotlib v3.9.0, https://matplotlib.org/</dc:title>
     </cc:Agent>
    </dc:creator>
   </cc:Work>
  </rdf:RDF>
 </metadata>
 <defs>
  <style type="text/css">*{stroke-linejoin: round; stroke-linecap: butt}</style>
 </defs>
 <g id="figure_1">
  <g id="patch_1">
   <path d="M 0 426.344375 
L 568.729466 426.344375 
L 568.729466 0 
L 0 0 
z
" style="fill: #ffffff"/>
  </g>
  <g id="axes_1">
   <g id="patch_2">
    <path d="M 74.473125 375.23875 
L 548.146611 375.23875 
L 548.146611 13.27875 
L 74.473125 13.27875 
z
" style="fill: #ffffff"/>
   </g>
   <g id="PolyCollection_1">
    <defs>
     <path id="md3b7473101" d="M 74.473125 -289.0435 
L 74.473125 -262.926689 
L 76.36027 -262.926689 
L 78.247416 -304.248127 
L 80.134561 -304.248127 
L 82.021706 -330.085695 
L 83.908852 -330.085695 
L 85.795997 -340.972684 
L 87.683143 -340.972684 
L 89.570288 -351.55303 
L 91.457433 -351.55303 
L 93.344579 -351.824462 
L 95.231724 -351.824462 
L 97.118869 -353.831695 
L 99.006015 -353.831695 
L 100.89316 -355.091209 
L 102.780305 -355.091209 
L 104.667451 -355.231022 
L 106.554596 -355.231022 
L 108.441742 -348.393606 
L 110.328887 -348.393606 
L 112.216032 -344.096271 
L 114.103178 -344.096271 
L 115.990323 -345.547441 
L 117.877468 -345.547441 
L 119.764614 -341.256624 
L 121.651759 -341.256624 
L 123.538904 -352.666209 
L 125.42605 -352.666209 
L 127.313195 -356.332677 
L 129.200341 -356.332677 
L 131.087486 -357.664897 
L 132.974631 -357.664897 
L 134.861777 -358.094959 
L 136.748922 -358.094959 
L 138.636067 -349.569297 
L 140.523213 -349.569297 
L 142.410358 -348.140435 
L 144.297503 -348.140435 
L 146.184649 -347.595811 
L 148.071794 -347.595811 
L 149.95894 -353.244797 
L 151.846085 -353.244797 
L 153.73323 -348.858709 
L 155.620376 -348.858709 
L 157.507521 -356.59306 
L 159.394666 -356.59306 
L 161.281812 -359.488785 
L 163.168957 -359.488785 
L 165.056102 -294.326438 
L 166.943248 -294.326438 
L 168.830393 -272.766001 
L 170.717539 -272.766001 
L 172.604684 -209.327443 
L 174.491829 -209.327443 
L 176.378975 -195.385636 
L 178.26612 -195.385636 
L 180.153265 -244.842687 
L 182.040411 -244.842687 
L 183.927556 -259.150296 
L 185.814701 -259.150296 
L 187.701847 -251.027442 
L 189.588992 -251.027442 
L 191.476137 -226.480927 
L 193.363283 -226.480927 
L 195.250428 -187.017199 
L 197.137574 -187.017199 
L 199.024719 -233.196349 
L 200.911864 -233.196349 
L 202.79901 -254.45908 
L 204.686155 -254.45908 
L 206.5733 -242.40399 
L 208.460446 -242.40399 
L 210.347591 -234.638291 
L 212.234736 -234.638291 
L 214.121882 -225.098348 
L 216.009027 -225.098348 
L 217.896173 -205.329565 
L 219.783318 -205.329565 
L 221.670463 -254.716546 
L 223.557609 -254.716546 
L 225.444754 -218.63591 
L 227.331899 -218.63591 
L 229.219045 -253.298543 
L 231.10619 -253.298543 
L 232.993335 -241.986208 
L 234.880481 -241.986208 
L 236.767626 -276.982508 
L 238.654772 -276.982508 
L 240.541917 -196.073451 
L 242.429062 -196.073451 
L 244.316208 -226.351961 
L 246.203353 -226.351961 
L 248.090498 -244.501768 
L 249.977644 -244.501768 
L 251.864789 -234.07967 
L 253.751934 -234.07967 
L 255.63908 -269.788915 
L 257.526225 -269.788915 
L 259.413371 -221.688807 
L 261.300516 -221.688807 
L 263.187661 -192.526582 
L 265.074807 -192.526582 
L 266.961952 -239.565128 
L 268.849097 -239.565128 
L 270.736243 -261.010176 
L 272.623388 -261.010176 
L 274.510533 -246.868253 
L 276.397679 -246.868253 
L 278.284824 -229.778188 
L 280.17197 -229.778188 
L 282.059115 -215.514626 
L 283.94626 -215.514626 
L 285.833406 -232.873483 
L 287.720551 -232.873483 
L 289.607696 -262.54841 
L 291.494842 -262.54841 
L 293.381987 -202.82903 
L 295.269132 -202.82903 
L 297.156278 -209.197078 
L 299.043423 -209.197078 
L 300.930569 -244.902506 
L 302.817714 -244.902506 
L 304.704859 -275.408248 
L 306.592005 -275.408248 
L 308.47915 -264.893082 
L 310.366295 -264.893082 
L 312.253441 -212.554862 
L 314.140586 -212.554862 
L 316.027731 -147.488144 
L 317.914877 -121.459901 
L 319.802022 -44.571836 
L 321.689168 -151.925758 
L 323.576313 -122.469085 
L 325.463458 -223.266182 
L 327.350604 -227.914554 
L 329.237749 -233.531552 
L 331.124894 -227.384693 
L 333.01204 -235.699198 
L 334.899185 -225.91491 
L 336.78633 -222.314169 
L 338.673476 -208.323469 
L 340.560621 -217.057214 
L 342.447767 -242.568546 
L 344.334912 -249.750397 
L 346.222057 -250.935834 
L 348.109203 -243.592305 
L 349.996348 -255.258484 
L 351.883493 -258.198767 
L 353.770639 -266.74267 
L 355.657784 -265.301394 
L 357.544929 -263.926049 
L 359.432075 -266.05171 
L 361.31922 -265.573626 
L 363.206366 -267.364386 
L 365.093511 -264.95017 
L 366.980656 -263.884368 
L 368.867802 -261.573556 
L 370.754947 -258.373921 
L 372.642092 -260.98817 
L 374.529238 -260.519769 
L 376.416383 -266.207875 
L 378.303528 -263.073002 
L 380.190674 -260.251585 
L 382.077819 -263.066668 
L 383.964964 -260.282959 
L 385.85211 -256.19904 
L 387.739255 -264.660953 
L 389.626401 -260.440728 
L 391.513546 -261.708782 
L 393.400691 -269.516902 
L 395.287837 -268.998844 
L 397.174982 -267.06232 
L 399.062127 -259.008339 
L 400.949273 -261.268329 
L 402.836418 -270.431758 
L 404.723563 -270.875288 
L 406.610709 -267.367282 
L 408.497854 -272.792981 
L 410.385 -272.292864 
L 412.272145 -269.652176 
L 414.15929 -269.555567 
L 416.046436 -271.251767 
L 417.933581 -272.087901 
L 419.820726 -271.463922 
L 421.707872 -270.583153 
L 423.595017 -269.712034 
L 425.482162 -269.522517 
L 427.369308 -268.065277 
L 429.256453 -267.138907 
L 431.143599 -265.260713 
L 433.030744 -267.992054 
L 434.917889 -271.743248 
L 436.805035 -271.669004 
L 438.69218 -269.769671 
L 440.579325 -268.64798 
L 442.466471 -267.748939 
L 444.353616 -266.592676 
L 446.240761 -265.075108 
L 448.127907 -263.565654 
L 450.015052 -270.678249 
L 451.902198 -270.353309 
L 453.789343 -271.740174 
L 455.676488 -270.862805 
L 457.563634 -271.356385 
L 459.450779 -268.330016 
L 461.337924 -272.068143 
L 463.22507 -272.402303 
L 465.112215 -274.144495 
L 466.99936 -273.745046 
L 468.886506 -272.490661 
L 470.773651 -272.473099 
L 472.660797 -270.152829 
L 474.547942 -269.411946 
L 476.435087 -269.972175 
L 478.322233 -267.839308 
L 480.209378 -270.906723 
L 482.096523 -272.397769 
L 483.983669 -269.011851 
L 485.870814 -269.713485 
L 487.757959 -265.345477 
L 489.645105 -274.419735 
L 491.53225 -273.215071 
L 493.419396 -275.683519 
L 495.306541 -275.781765 
L 497.193686 -275.915005 
L 499.080832 -275.831089 
L 500.967977 -276.974608 
L 502.855122 -277.171525 
L 504.742268 -274.18152 
L 506.629413 -276.281168 
L 508.516558 -275.306408 
L 510.403704 -274.193999 
L 512.290849 -275.745705 
L 514.177995 -274.867585 
L 516.06514 -276.925869 
L 517.952285 -277.078341 
L 519.839431 -276.870376 
L 521.726576 -275.749347 
L 523.613721 -275.032079 
L 525.500867 -274.447817 
L 527.388012 -274.95115 
L 529.275157 -276.224478 
L 531.162303 -275.463175 
L 533.049448 -272.877845 
L 534.936594 -273.885583 
L 536.823739 -272.830528 
L 538.710884 -277.517909 
L 540.59803 -278.411638 
L 542.485175 -276.045332 
L 544.37232 -274.864849 
L 546.259466 -274.970103 
L 546.259466 -321.851869 
L 546.259466 -321.851869 
L 544.37232 -324.494839 
L 542.485175 -324.670227 
L 540.59803 -323.390808 
L 538.710884 -324.423636 
L 536.823739 -326.274631 
L 534.936594 -324.746731 
L 533.049448 -325.376317 
L 531.162303 -323.194635 
L 529.275157 -323.220067 
L 527.388012 -322.852018 
L 525.500867 -323.700608 
L 523.613721 -322.978605 
L 521.726576 -322.592221 
L 519.839431 -324.139967 
L 517.952285 -324.070965 
L 516.06514 -323.446548 
L 514.177995 -323.105549 
L 512.290849 -321.833024 
L 510.403704 -323.142393 
L 508.516558 -324.209209 
L 506.629413 -323.864733 
L 504.742268 -325.467905 
L 502.855122 -323.227036 
L 500.967977 -323.526983 
L 499.080832 -323.273198 
L 497.193686 -323.885015 
L 495.306541 -325.244878 
L 493.419396 -325.083018 
L 491.53225 -326.023083 
L 489.645105 -324.078966 
L 487.757959 -330.916782 
L 485.870814 -327.917937 
L 483.983669 -327.175312 
L 482.096523 -325.017012 
L 480.209378 -326.974879 
L 478.322233 -329.602667 
L 476.435087 -328.384399 
L 474.547942 -328.861196 
L 472.660797 -327.692728 
L 470.773651 -325.051556 
L 468.886506 -324.222761 
L 466.99936 -324.088349 
L 465.112215 -323.636092 
L 463.22507 -327.09136 
L 461.337924 -325.118735 
L 459.450779 -326.913624 
L 457.563634 -327.240663 
L 455.676488 -327.642082 
L 453.789343 -326.737112 
L 451.902198 -326.65199 
L 450.015052 -325.292359 
L 448.127907 -331.122317 
L 446.240761 -331.796636 
L 444.353616 -331.184124 
L 442.466471 -329.988278 
L 440.579325 -329.454476 
L 438.69218 -329.328262 
L 436.805035 -329.938365 
L 434.917889 -328.506345 
L 433.030744 -329.855106 
L 431.143599 -329.737037 
L 429.256453 -329.703764 
L 427.369308 -329.666833 
L 425.482162 -327.213402 
L 423.595017 -326.878271 
L 421.707872 -326.296069 
L 419.820726 -324.511413 
L 417.933581 -325.263434 
L 416.046436 -328.123688 
L 414.15929 -328.429105 
L 412.272145 -328.718624 
L 410.385 -327.338385 
L 408.497854 -328.001587 
L 406.610709 -331.441393 
L 404.723563 -327.963295 
L 402.836418 -328.438296 
L 400.949273 -334.147418 
L 399.062127 -334.34163 
L 397.174982 -329.697798 
L 395.287837 -328.9042 
L 393.400691 -329.83909 
L 391.513546 -333.65382 
L 389.626401 -333.614305 
L 387.739255 -328.436258 
L 385.85211 -334.65267 
L 383.964964 -333.005458 
L 382.077819 -332.710285 
L 380.190674 -332.708548 
L 378.303528 -332.124871 
L 376.416383 -330.86688 
L 374.529238 -332.06624 
L 372.642092 -332.738074 
L 370.754947 -329.26462 
L 368.867802 -330.985599 
L 366.980656 -330.107313 
L 365.093511 -330.354124 
L 363.206366 -329.469486 
L 361.31922 -329.139407 
L 359.432075 -329.28097 
L 357.544929 -332.347278 
L 355.657784 -330.18598 
L 353.770639 -329.837737 
L 351.883493 -333.396226 
L 349.996348 -336.147483 
L 348.109203 -342.133942 
L 346.222057 -336.590529 
L 344.334912 -336.819995 
L 342.447767 -341.36825 
L 340.560621 -347.922521 
L 338.673476 -346.528301 
L 336.78633 -339.385781 
L 334.899185 -339.045143 
L 333.01204 -334.64862 
L 331.124894 -336.748222 
L 329.237749 -334.105085 
L 327.350604 -340.002131 
L 325.463458 -341.56804 
L 323.576313 -346.148057 
L 321.689168 -318.189146 
L 319.802022 -291.148961 
L 317.914877 -295.624601 
L 316.027731 -293.400865 
L 314.140586 -383.045869 
L 312.253441 -383.045869 
L 310.366295 -382.827114 
L 308.47915 -382.827114 
L 306.592005 -373.002131 
L 304.704859 -373.002131 
L 302.817714 -352.976972 
L 300.930569 -352.976972 
L 299.043423 -344.7103 
L 297.156278 -344.7103 
L 295.269132 -365.472543 
L 293.381987 -365.472543 
L 291.494842 -373.979831 
L 289.607696 -373.979831 
L 287.720551 -357.200679 
L 285.833406 -357.200679 
L 283.94626 -351.54269 
L 282.059115 -351.54269 
L 280.17197 -371.88776 
L 278.284824 -371.88776 
L 276.397679 -386.394114 
L 274.510533 -386.394114 
L 272.623388 -364.847549 
L 270.736243 -364.847549 
L 268.849097 -346.655845 
L 266.961952 -346.655845 
L 265.074807 -337.944378 
L 263.187661 -337.944378 
L 261.300516 -364.352646 
L 259.413371 -364.352646 
L 257.526225 -370.263498 
L 255.63908 -370.263498 
L 253.751934 -365.392897 
L 251.864789 -365.392897 
L 249.977644 -362.069067 
L 248.090498 -362.069067 
L 246.203353 -346.450608 
L 244.316208 -346.450608 
L 242.429062 -356.842844 
L 240.541917 -356.842844 
L 238.654772 -369.137436 
L 236.767626 -369.137436 
L 234.880481 -360.773134 
L 232.993335 -360.773134 
L 231.10619 -366.327843 
L 229.219045 -366.327843 
L 227.331899 -362.886705 
L 225.444754 -362.886705 
L 223.557609 -361.694988 
L 221.670463 -361.694988 
L 219.783318 -352.923073 
L 217.896173 -352.923073 
L 216.009027 -371.736101 
L 214.121882 -371.736101 
L 212.234736 -369.595386 
L 210.347591 -369.595386 
L 208.460446 -368.838073 
L 206.5733 -368.838073 
L 204.686155 -374.945286 
L 202.79901 -374.945286 
L 200.911864 -346.688245 
L 199.024719 -346.688245 
L 197.137574 -339.038474 
L 195.250428 -339.038474 
L 193.363283 -369.123687 
L 191.476137 -369.123687 
L 189.588992 -374.680792 
L 187.701847 -374.680792 
L 185.814701 -367.027635 
L 183.927556 -367.027635 
L 182.040411 -346.268011 
L 180.153265 -346.268011 
L 178.26612 -336.424144 
L 176.378975 -336.424144 
L 174.491829 -388.596122 
L 172.604684 -388.596122 
L 170.717539 -397.665472 
L 168.830393 -397.665472 
L 166.943248 -400.051763 
L 165.056102 -400.051763 
L 163.168957 -385.731856 
L 161.281812 -385.731856 
L 159.394666 -384.834768 
L 157.507521 -384.834768 
L 155.620376 -378.349899 
L 153.73323 -378.349899 
L 151.846085 -379.882653 
L 149.95894 -379.882653 
L 148.071794 -379.355041 
L 146.184649 -379.355041 
L 144.297503 -378.185124 
L 142.410358 -378.185124 
L 140.523213 -381.746974 
L 138.636067 -381.746974 
L 136.748922 -382.312825 
L 134.861777 -382.312825 
L 132.974631 -386.422372 
L 131.087486 -386.422372 
L 129.200341 -382.655527 
L 127.313195 -382.655527 
L 125.42605 -380.604675 
L 123.538904 -380.604675 
L 121.651759 -374.657243 
L 119.764614 -374.657243 
L 117.877468 -377.353648 
L 115.990323 -377.353648 
L 114.103178 -376.398911 
L 112.216032 -376.398911 
L 110.328887 -375.325161 
L 108.441742 -375.325161 
L 106.554596 -386.522492 
L 104.667451 -386.522492 
L 102.780305 -381.406824 
L 100.89316 -381.406824 
L 99.006015 -384.285768 
L 97.118869 -384.285768 
L 95.231724 -378.420534 
L 93.344579 -378.420534 
L 91.457433 -376.919709 
L 89.570288 -376.919709 
L 87.683143 -368.897678 
L 85.795997 -368.897678 
L 83.908852 -355.34627 
L 82.021706 -355.34627 
L 80.134561 -333.322805 
L 78.247416 -333.322805 
L 76.36027 -289.0435 
L 74.473125 -289.0435 
z
" style="stroke: #008000; stroke-opacity: 0.2"/>
    </defs>
    <g clip-path="url(#p629fa5f175)">
     <use xlink:href="#md3b7473101" x="0" y="426.344375" style="fill: #008000; fill-opacity: 0.2; stroke: #008000; stroke-opacity: 0.2"/>
    </g>
   </g>
   <g id="PolyCollection_2">
    <defs>
     <path id="m7fefa84d16" d="M 74.473125 -191.85993 
L 74.473125 -184.897681 
L 76.36027 -186.726492 
L 78.247416 -188.905403 
L 80.134561 -191.421206 
L 82.021706 -194.123829 
L 83.908852 -197.012008 
L 85.795997 -199.961295 
L 87.683143 -202.966214 
L 89.570288 -205.962192 
L 91.457433 -208.955202 
L 93.344579 -211.943666 
L 95.231724 -214.921894 
L 97.118869 -217.852656 
L 99.006015 -220.733549 
L 100.89316 -223.531852 
L 102.780305 -226.255442 
L 104.667451 -228.961491 
L 106.554596 -231.643027 
L 108.441742 -234.2365 
L 110.328887 -236.74522 
L 112.216032 -239.155518 
L 114.103178 -241.464055 
L 115.990323 -243.728682 
L 117.877468 -245.951016 
L 119.764614 -248.125544 
L 121.651759 -250.248648 
L 123.538904 -252.429532 
L 125.42605 -254.672044 
L 127.313195 -256.837452 
L 129.200341 -258.932577 
L 131.087486 -261.038006 
L 132.974631 -263.147903 
L 134.861777 -265.211519 
L 136.748922 -267.233253 
L 138.636067 -269.165745 
L 140.523213 -271.001939 
L 142.410358 -272.811394 
L 144.297503 -274.595495 
L 146.184649 -276.299725 
L 148.071794 -277.925165 
L 149.95894 -279.564489 
L 151.846085 -281.221503 
L 153.73323 -282.808982 
L 155.620376 -284.325245 
L 157.507521 -285.885917 
L 159.394666 -287.490275 
L 161.281812 -289.095592 
L 163.168957 -290.702641 
L 165.056102 -292.342438 
L 166.943248 -293.821516 
L 168.830393 -295.149294 
L 170.717539 -296.151287 
L 172.604684 -296.832399 
L 174.491829 -296.509351 
L 176.378975 -295.919929 
L 178.26612 -295.390082 
L 180.153265 -294.982026 
L 182.040411 -294.988046 
L 183.927556 -295.198057 
L 185.814701 -295.549207 
L 187.701847 -295.894931 
L 189.588992 -296.09691 
L 191.476137 -296.207141 
L 193.363283 -296.044728 
L 195.250428 -295.739865 
L 197.137574 -295.179824 
L 199.024719 -294.67521 
L 200.911864 -294.542426 
L 202.79901 -294.518908 
L 204.686155 -294.572685 
L 206.5733 -294.867766 
L 208.460446 -295.33153 
L 210.347591 -295.657578 
L 212.234736 -295.733617 
L 214.121882 -295.802342 
L 216.009027 -295.731041 
L 217.896173 -295.593611 
L 219.783318 -295.35521 
L 221.670463 -294.969718 
L 223.557609 -294.838618 
L 225.444754 -295.068204 
L 227.331899 -295.394593 
L 229.219045 -295.428519 
L 231.10619 -295.432386 
L 232.993335 -295.660426 
L 234.880481 -296.052134 
L 236.767626 -296.253638 
L 238.654772 -296.486684 
L 240.541917 -296.750394 
L 242.429062 -296.423613 
L 244.316208 -295.928225 
L 246.203353 -295.673168 
L 248.090498 -295.65636 
L 249.977644 -295.875163 
L 251.864789 -296.136751 
L 253.751934 -296.281974 
L 255.63908 -296.227858 
L 257.526225 -296.331133 
L 259.413371 -296.463461 
L 261.300516 -296.246905 
L 263.187661 -295.983129 
L 265.074807 -295.643004 
L 266.961952 -295.263549 
L 268.849097 -295.174473 
L 270.736243 -295.281821 
L 272.623388 -295.591035 
L 274.510533 -295.985144 
L 276.397679 -296.131917 
L 278.284824 -296.230154 
L 280.17197 -296.215509 
L 282.059115 -296.106772 
L 283.94626 -295.936253 
L 285.833406 -295.936462 
L 287.720551 -296.216038 
L 289.607696 -296.258568 
L 291.494842 -296.247486 
L 293.381987 -296.290169 
L 295.269132 -295.857493 
L 297.156278 -295.453408 
L 299.043423 -295.294385 
L 300.930569 -295.263517 
L 302.817714 -295.579592 
L 304.704859 -295.853213 
L 306.592005 -296.168251 
L 308.47915 -296.712982 
L 310.366295 -297.283101 
L 312.253441 -297.494053 
L 314.140586 -296.850738 
L 316.027731 -295.309083 
L 317.914877 -293.234263 
L 319.802022 -290.963194 
L 321.689168 -288.652716 
L 323.576313 -286.643494 
L 325.463458 -285.22287 
L 327.350604 -284.662267 
L 329.237749 -284.014888 
L 331.124894 -283.326051 
L 333.01204 -282.654534 
L 334.899185 -281.940072 
L 336.78633 -281.136535 
L 338.673476 -280.2671 
L 340.560621 -279.377478 
L 342.447767 -278.822412 
L 344.334912 -278.563468 
L 346.222057 -278.327298 
L 348.109203 -278.035117 
L 349.996348 -277.804161 
L 351.883493 -277.695891 
L 353.770639 -277.663972 
L 355.657784 -277.68818 
L 357.544929 -277.677593 
L 359.432075 -277.650155 
L 361.31922 -277.616471 
L 363.206366 -277.586185 
L 365.093511 -277.540174 
L 366.980656 -277.449175 
L 368.867802 -277.32022 
L 370.754947 -277.153857 
L 372.642092 -276.980277 
L 374.529238 -276.805018 
L 376.416383 -276.668934 
L 378.303528 -276.559479 
L 380.190674 -276.403985 
L 382.077819 -276.254908 
L 383.964964 -276.107958 
L 385.85211 -275.907847 
L 387.739255 -275.736631 
L 389.626401 -275.608843 
L 391.513546 -275.487848 
L 393.400691 -275.449069 
L 395.287837 -275.461389 
L 397.174982 -275.44314 
L 399.062127 -275.353516 
L 400.949273 -275.247594 
L 402.836418 -275.223774 
L 404.723563 -275.246631 
L 406.610709 -275.254672 
L 408.497854 -275.270787 
L 410.385 -275.303009 
L 412.272145 -275.31353 
L 414.15929 -275.303499 
L 416.046436 -275.306186 
L 417.933581 -275.331499 
L 419.820726 -275.352855 
L 421.707872 -275.357509 
L 423.595017 -275.341632 
L 425.482162 -275.314758 
L 427.369308 -275.277947 
L 429.256453 -275.222992 
L 431.143599 -275.15017 
L 433.030744 -275.092852 
L 434.917889 -275.083324 
L 436.805035 -275.091288 
L 438.69218 -275.081656 
L 440.579325 -275.042906 
L 442.466471 -274.981465 
L 444.353616 -274.904943 
L 446.240761 -274.822088 
L 448.127907 -274.735967 
L 450.015052 -274.679929 
L 451.902198 -274.657535 
L 453.789343 -274.646769 
L 455.676488 -274.645527 
L 457.563634 -274.642531 
L 459.450779 -274.620592 
L 461.337924 -274.597471 
L 463.22507 -274.599347 
L 465.112215 -274.622435 
L 466.99936 -274.656302 
L 468.886506 -274.67521 
L 470.773651 -274.685734 
L 472.660797 -274.677221 
L 474.547942 -274.648874 
L 476.435087 -274.624252 
L 478.322233 -274.589812 
L 480.209378 -274.554843 
L 482.096523 -274.547114 
L 483.983669 -274.530009 
L 485.870814 -274.510285 
L 487.757959 -274.487038 
L 489.645105 -274.487495 
L 491.53225 -274.525515 
L 493.419396 -274.574218 
L 495.306541 -274.647743 
L 497.193686 -274.722489 
L 499.080832 -274.790235 
L 500.967977 -274.86307 
L 502.855122 -274.949055 
L 504.742268 -275.020528 
L 506.629413 -275.077525 
L 508.516558 -275.130664 
L 510.403704 -275.165159 
L 512.290849 -275.200813 
L 514.177995 -275.243244 
L 516.06514 -275.297518 
L 517.952285 -275.369975 
L 519.839431 -275.440782 
L 521.726576 -275.497441 
L 523.613721 -275.533889 
L 525.500867 -275.555762 
L 527.388012 -275.577019 
L 529.275157 -275.613588 
L 531.162303 -275.652522 
L 533.049448 -275.661948 
L 534.936594 -275.659002 
L 536.823739 -275.671814 
L 538.710884 -275.71728 
L 540.59803 -275.797039 
L 542.485175 -275.864532 
L 544.37232 -275.898892 
L 546.259466 -275.929703 
L 546.259466 -320.046771 
L 546.259466 -320.046771 
L 544.37232 -320.034998 
L 542.485175 -319.986586 
L 540.59803 -319.944979 
L 538.710884 -319.901034 
L 536.823739 -319.847416 
L 534.936594 -319.792616 
L 533.049448 -319.729284 
L 531.162303 -319.676874 
L 529.275157 -319.640725 
L 527.388012 -319.609239 
L 525.500867 -319.574211 
L 523.613721 -319.536554 
L 521.726576 -319.510338 
L 519.839431 -319.472878 
L 517.952285 -319.419251 
L 516.06514 -319.371168 
L 514.177995 -319.334465 
L 512.290849 -319.31234 
L 510.403704 -319.288565 
L 508.516558 -319.242968 
L 506.629413 -319.185998 
L 504.742268 -319.129277 
L 502.855122 -319.082228 
L 500.967977 -319.038679 
L 499.080832 -318.992376 
L 497.193686 -318.945728 
L 495.306541 -318.884392 
L 493.419396 -318.809287 
L 491.53225 -318.724364 
L 489.645105 -318.648971 
L 487.757959 -318.563705 
L 485.870814 -318.461877 
L 483.983669 -318.36265 
L 482.096523 -318.266713 
L 480.209378 -318.161437 
L 478.322233 -318.026648 
L 476.435087 -317.885627 
L 474.547942 -317.743852 
L 472.660797 -317.601132 
L 470.773651 -317.483495 
L 468.886506 -317.3941 
L 466.99936 -317.308022 
L 465.112215 -317.223976 
L 463.22507 -317.110079 
L 461.337924 -316.978061 
L 459.450779 -316.86124 
L 457.563634 -316.729659 
L 455.676488 -316.581786 
L 453.789343 -316.433953 
L 451.902198 -316.288721 
L 450.015052 -316.154455 
L 448.127907 -316.007663 
L 446.240761 -315.81998 
L 444.353616 -315.602301 
L 442.466471 -315.379471 
L 440.579325 -315.165496 
L 438.69218 -314.957426 
L 436.805035 -314.73974 
L 434.917889 -314.523701 
L 433.030744 -314.323557 
L 431.143599 -314.124755 
L 429.256453 -313.917886 
L 427.369308 -313.698556 
L 425.482162 -313.495068 
L 423.595017 -313.309702 
L 421.707872 -313.130703 
L 419.820726 -312.975109 
L 417.933581 -312.828296 
L 416.046436 -312.647759 
L 414.15929 -312.433935 
L 412.272145 -312.213222 
L 410.385 -311.992223 
L 408.497854 -311.763793 
L 406.610709 -311.522191 
L 404.723563 -311.287118 
L 402.836418 -311.061334 
L 400.949273 -310.818278 
L 399.062127 -310.544441 
L 397.174982 -310.270134 
L 395.287837 -310.017455 
L 393.400691 -309.76443 
L 391.513546 -309.480403 
L 389.626401 -309.16279 
L 387.739255 -308.857287 
L 385.85211 -308.537049 
L 383.964964 -308.183137 
L 382.077819 -307.829585 
L 380.190674 -307.472872 
L 378.303528 -307.111564 
L 376.416383 -306.750611 
L 374.529238 -306.384094 
L 372.642092 -306.00773 
L 370.754947 -305.678665 
L 368.867802 -305.365827 
L 366.980656 -305.023216 
L 365.093511 -304.686546 
L 363.206366 -304.361234 
L 361.31922 -304.051855 
L 359.432075 -303.748684 
L 357.544929 -303.430587 
L 355.657784 -303.121857 
L 353.770639 -302.83887 
L 351.883493 -302.532628 
L 349.996348 -302.196873 
L 348.109203 -301.792875 
L 346.222057 -301.363558 
L 344.334912 -300.978874 
L 342.447767 -300.604584 
L 340.560621 -300.149154 
L 338.673476 -299.654958 
L 336.78633 -299.222594 
L 334.899185 -298.76283 
L 333.01204 -298.31189 
L 331.124894 -297.917169 
L 329.237749 -297.538398 
L 327.350604 -297.169054 
L 325.463458 -296.920262 
L 323.576313 -296.816592 
L 321.689168 -297.109947 
L 319.802022 -298.484936 
L 317.914877 -300.516063 
L 316.027731 -301.767118 
L 314.140586 -301.821564 
L 312.253441 -301.240237 
L 310.366295 -300.990268 
L 308.47915 -300.562503 
L 306.592005 -300.08227 
L 304.704859 -299.344673 
L 302.817714 -299.052597 
L 300.930569 -299.303139 
L 299.043423 -299.647637 
L 297.156278 -300.316733 
L 295.269132 -300.612718 
L 293.381987 -300.748512 
L 291.494842 -300.68499 
L 289.607696 -299.874826 
L 287.720551 -299.569333 
L 285.833406 -299.964167 
L 283.94626 -300.313437 
L 282.059115 -300.732048 
L 280.17197 -300.876276 
L 278.284824 -300.76932 
L 276.397679 -300.455622 
L 274.510533 -299.862261 
L 272.623388 -299.575768 
L 270.736243 -299.26561 
L 268.849097 -299.139708 
L 266.961952 -299.213961 
L 265.074807 -299.561802 
L 263.187661 -300.528068 
L 261.300516 -301.038181 
L 259.413371 -301.048533 
L 257.526225 -300.869165 
L 255.63908 -300.107644 
L 253.751934 -299.579385 
L 251.864789 -299.651731 
L 249.977644 -299.767584 
L 248.090498 -299.765848 
L 246.203353 -299.863653 
L 244.316208 -300.067395 
L 242.429062 -300.240058 
L 240.541917 -300.796141 
L 238.654772 -301.023195 
L 236.767626 -300.275243 
L 234.880481 -299.912024 
L 232.993335 -300.166599 
L 231.10619 -300.085108 
L 229.219045 -299.602435 
L 227.331899 -299.523207 
L 225.444754 -300.119923 
L 223.557609 -300.274419 
L 221.670463 -299.713495 
L 219.783318 -299.474401 
L 217.896173 -299.974158 
L 216.009027 -300.201771 
L 214.121882 -300.112274 
L 212.234736 -300.088023 
L 210.347591 -299.994299 
L 208.460446 -300.076676 
L 206.5733 -300.220898 
L 204.686155 -300.007331 
L 202.79901 -299.358319 
L 200.911864 -299.115844 
L 199.024719 -299.261026 
L 197.137574 -299.581338 
L 195.250428 -300.40784 
L 193.363283 -300.818056 
L 191.476137 -300.681034 
L 189.588992 -300.51442 
L 187.701847 -300.129196 
L 185.814701 -299.871142 
L 183.927556 -299.601575 
L 182.040411 -299.531009 
L 180.153265 -299.605813 
L 178.26612 -299.86431 
L 176.378975 -300.614837 
L 174.491829 -300.666729 
L 172.604684 -300.328596 
L 170.717539 -300.265115 
L 168.830393 -299.773413 
L 166.943248 -299.336523 
L 165.056102 -298.772881 
L 163.168957 -297.817418 
L 161.281812 -296.262099 
L 159.394666 -294.679373 
L 157.507521 -293.069748 
L 155.620376 -291.494578 
L 153.73323 -289.955671 
L 151.846085 -288.366797 
L 149.95894 -286.723435 
L 148.071794 -285.057896 
L 146.184649 -283.374309 
L 144.297503 -281.709021 
L 142.410358 -280.061935 
L 140.523213 -278.320767 
L 138.636067 -276.484156 
L 136.748922 -274.578291 
L 134.861777 -272.592163 
L 132.974631 -270.53003 
L 131.087486 -268.393665 
L 129.200341 -266.21842 
L 127.313195 -263.998106 
L 125.42605 -261.818482 
L 123.538904 -259.686159 
L 121.651759 -257.578478 
L 119.764614 -255.502193 
L 117.877468 -253.322314 
L 115.990323 -251.031625 
L 114.103178 -248.716349 
L 112.216032 -246.376914 
L 110.328887 -244.013019 
L 108.441742 -241.618564 
L 106.554596 -239.028536 
L 104.667451 -236.239379 
L 102.780305 -233.417185 
L 100.89316 -230.554174 
L 99.006015 -227.636846 
L 97.118869 -224.670366 
L 95.231724 -221.714922 
L 93.344579 -218.767856 
L 91.457433 -215.729271 
L 89.570288 -212.591544 
L 87.683143 -209.520142 
L 85.795997 -206.523567 
L 83.908852 -203.596018 
L 82.021706 -200.736178 
L 80.134561 -198.056112 
L 78.247416 -195.56515 
L 76.36027 -193.497129 
L 74.473125 -191.85993 
z
" style="stroke: #0000ff; stroke-opacity: 0.2"/>
    </defs>
    <g clip-path="url(#p629fa5f175)">
     <use xlink:href="#m7fefa84d16" x="0" y="426.344375" style="fill: #0000ff; fill-opacity: 0.2; stroke: #0000ff; stroke-opacity: 0.2"/>
    </g>
   </g>
   <g id="matplotlib.axis_1">
    <g id="xtick_1">
     <g id="line2d_1">
      <defs>
       <path id="m8f3952f0de" d="M 0 0 
L 0 3.5 
" style="stroke: #000000; stroke-width: 0.8"/>
      </defs>
      <g>
       <use xlink:href="#m8f3952f0de" x="74.473125" y="375.23875" style="stroke: #000000; stroke-width: 0.8"/>
      </g>
     </g>
     <g id="text_1">
      <!-- 0 -->
      <g transform="translate(69.383125 394.39625) scale(0.16 -0.16)">
       <defs>
        <path id="DejaVuSans-30" d="M 2034 4250 
Q 1547 4250 1301 3770 
Q 1056 3291 1056 2328 
Q 1056 1369 1301 889 
Q 1547 409 2034 409 
Q 2525 409 2770 889 
Q 3016 1369 3016 2328 
Q 3016 3291 2770 3770 
Q 2525 4250 2034 4250 
z
M 2034 4750 
Q 2819 4750 3233 4129 
Q 3647 3509 3647 2328 
Q 3647 1150 3233 529 
Q 2819 -91 2034 -91 
Q 1250 -91 836 529 
Q 422 1150 422 2328 
Q 422 3509 836 4129 
Q 1250 4750 2034 4750 
z
" transform="scale(0.015625)"/>
       </defs>
       <use xlink:href="#DejaVuSans-30"/>
      </g>
     </g>
    </g>
    <g id="xtick_2">
     <g id="line2d_2">
      <g>
       <use xlink:href="#m8f3952f0de" x="168.830393" y="375.23875" style="stroke: #000000; stroke-width: 0.8"/>
      </g>
     </g>
     <g id="text_2">
      <!-- 50 -->
      <g transform="translate(158.650393 394.39625) scale(0.16 -0.16)">
       <defs>
        <path id="DejaVuSans-35" d="M 691 4666 
L 3169 4666 
L 3169 4134 
L 1269 4134 
L 1269 2991 
Q 1406 3038 1543 3061 
Q 1681 3084 1819 3084 
Q 2600 3084 3056 2656 
Q 3513 2228 3513 1497 
Q 3513 744 3044 326 
Q 2575 -91 1722 -91 
Q 1428 -91 1123 -41 
Q 819 9 494 109 
L 494 744 
Q 775 591 1075 516 
Q 1375 441 1709 441 
Q 2250 441 2565 725 
Q 2881 1009 2881 1497 
Q 2881 1984 2565 2268 
Q 2250 2553 1709 2553 
Q 1456 2553 1204 2497 
Q 953 2441 691 2322 
L 691 4666 
z
" transform="scale(0.015625)"/>
       </defs>
       <use xlink:href="#DejaVuSans-35"/>
       <use xlink:href="#DejaVuSans-30" x="63.623047"/>
      </g>
     </g>
    </g>
    <g id="xtick_3">
     <g id="line2d_3">
      <g>
       <use xlink:href="#m8f3952f0de" x="263.187661" y="375.23875" style="stroke: #000000; stroke-width: 0.8"/>
      </g>
     </g>
     <g id="text_3">
      <!-- 100 -->
      <g transform="translate(247.917661 394.39625) scale(0.16 -0.16)">
       <defs>
        <path id="DejaVuSans-31" d="M 794 531 
L 1825 531 
L 1825 4091 
L 703 3866 
L 703 4441 
L 1819 4666 
L 2450 4666 
L 2450 531 
L 3481 531 
L 3481 0 
L 794 0 
L 794 531 
z
" transform="scale(0.015625)"/>
       </defs>
       <use xlink:href="#DejaVuSans-31"/>
       <use xlink:href="#DejaVuSans-30" x="63.623047"/>
       <use xlink:href="#DejaVuSans-30" x="127.246094"/>
      </g>
     </g>
    </g>
    <g id="xtick_4">
     <g id="line2d_4">
      <g>
       <use xlink:href="#m8f3952f0de" x="357.544929" y="375.23875" style="stroke: #000000; stroke-width: 0.8"/>
      </g>
     </g>
     <g id="text_4">
      <!-- 150 -->
      <g transform="translate(342.274929 394.39625) scale(0.16 -0.16)">
       <use xlink:href="#DejaVuSans-31"/>
       <use xlink:href="#DejaVuSans-35" x="63.623047"/>
       <use xlink:href="#DejaVuSans-30" x="127.246094"/>
      </g>
     </g>
    </g>
    <g id="xtick_5">
     <g id="line2d_5">
      <g>
       <use xlink:href="#m8f3952f0de" x="451.902198" y="375.23875" style="stroke: #000000; stroke-width: 0.8"/>
      </g>
     </g>
     <g id="text_5">
      <!-- 200 -->
      <g transform="translate(436.632198 394.39625) scale(0.16 -0.16)">
       <defs>
        <path id="DejaVuSans-32" d="M 1228 531 
L 3431 531 
L 3431 0 
L 469 0 
L 469 531 
Q 828 903 1448 1529 
Q 2069 2156 2228 2338 
Q 2531 2678 2651 2914 
Q 2772 3150 2772 3378 
Q 2772 3750 2511 3984 
Q 2250 4219 1831 4219 
Q 1534 4219 1204 4116 
Q 875 4013 500 3803 
L 500 4441 
Q 881 4594 1212 4672 
Q 1544 4750 1819 4750 
Q 2544 4750 2975 4387 
Q 3406 4025 3406 3419 
Q 3406 3131 3298 2873 
Q 3191 2616 2906 2266 
Q 2828 2175 2409 1742 
Q 1991 1309 1228 531 
z
" transform="scale(0.015625)"/>
       </defs>
       <use xlink:href="#DejaVuSans-32"/>
       <use xlink:href="#DejaVuSans-30" x="63.623047"/>
       <use xlink:href="#DejaVuSans-30" x="127.246094"/>
      </g>
     </g>
    </g>
    <g id="xtick_6">
     <g id="line2d_6">
      <g>
       <use xlink:href="#m8f3952f0de" x="546.259466" y="375.23875" style="stroke: #000000; stroke-width: 0.8"/>
      </g>
     </g>
     <g id="text_6">
      <!-- 250 -->
      <g transform="translate(530.989466 394.39625) scale(0.16 -0.16)">
       <use xlink:href="#DejaVuSans-32"/>
       <use xlink:href="#DejaVuSans-35" x="63.623047"/>
       <use xlink:href="#DejaVuSans-30" x="127.246094"/>
      </g>
     </g>
    </g>
    <g id="text_7">
     <!-- Steps -->
     <g transform="translate(286.128149 415.400937) scale(0.18 -0.18)">
      <defs>
       <path id="DejaVuSans-53" d="M 3425 4513 
L 3425 3897 
Q 3066 4069 2747 4153 
Q 2428 4238 2131 4238 
Q 1616 4238 1336 4038 
Q 1056 3838 1056 3469 
Q 1056 3159 1242 3001 
Q 1428 2844 1947 2747 
L 2328 2669 
Q 3034 2534 3370 2195 
Q 3706 1856 3706 1288 
Q 3706 609 3251 259 
Q 2797 -91 1919 -91 
Q 1588 -91 1214 -16 
Q 841 59 441 206 
L 441 856 
Q 825 641 1194 531 
Q 1563 422 1919 422 
Q 2459 422 2753 634 
Q 3047 847 3047 1241 
Q 3047 1584 2836 1778 
Q 2625 1972 2144 2069 
L 1759 2144 
Q 1053 2284 737 2584 
Q 422 2884 422 3419 
Q 422 4038 858 4394 
Q 1294 4750 2059 4750 
Q 2388 4750 2728 4690 
Q 3069 4631 3425 4513 
z
" transform="scale(0.015625)"/>
       <path id="DejaVuSans-74" d="M 1172 4494 
L 1172 3500 
L 2356 3500 
L 2356 3053 
L 1172 3053 
L 1172 1153 
Q 1172 725 1289 603 
Q 1406 481 1766 481 
L 2356 481 
L 2356 0 
L 1766 0 
Q 1100 0 847 248 
Q 594 497 594 1153 
L 594 3053 
L 172 3053 
L 172 3500 
L 594 3500 
L 594 4494 
L 1172 4494 
z
" transform="scale(0.015625)"/>
       <path id="DejaVuSans-65" d="M 3597 1894 
L 3597 1613 
L 953 1613 
Q 991 1019 1311 708 
Q 1631 397 2203 397 
Q 2534 397 2845 478 
Q 3156 559 3463 722 
L 3463 178 
Q 3153 47 2828 -22 
Q 2503 -91 2169 -91 
Q 1331 -91 842 396 
Q 353 884 353 1716 
Q 353 2575 817 3079 
Q 1281 3584 2069 3584 
Q 2775 3584 3186 3129 
Q 3597 2675 3597 1894 
z
M 3022 2063 
Q 3016 2534 2758 2815 
Q 2500 3097 2075 3097 
Q 1594 3097 1305 2825 
Q 1016 2553 972 2059 
L 3022 2063 
z
" transform="scale(0.015625)"/>
       <path id="DejaVuSans-70" d="M 1159 525 
L 1159 -1331 
L 581 -1331 
L 581 3500 
L 1159 3500 
L 1159 2969 
Q 1341 3281 1617 3432 
Q 1894 3584 2278 3584 
Q 2916 3584 3314 3078 
Q 3713 2572 3713 1747 
Q 3713 922 3314 415 
Q 2916 -91 2278 -91 
Q 1894 -91 1617 61 
Q 1341 213 1159 525 
z
M 3116 1747 
Q 3116 2381 2855 2742 
Q 2594 3103 2138 3103 
Q 1681 3103 1420 2742 
Q 1159 2381 1159 1747 
Q 1159 1113 1420 752 
Q 1681 391 2138 391 
Q 2594 391 2855 752 
Q 3116 1113 3116 1747 
z
" transform="scale(0.015625)"/>
       <path id="DejaVuSans-73" d="M 2834 3397 
L 2834 2853 
Q 2591 2978 2328 3040 
Q 2066 3103 1784 3103 
Q 1356 3103 1142 2972 
Q 928 2841 928 2578 
Q 928 2378 1081 2264 
Q 1234 2150 1697 2047 
L 1894 2003 
Q 2506 1872 2764 1633 
Q 3022 1394 3022 966 
Q 3022 478 2636 193 
Q 2250 -91 1575 -91 
Q 1294 -91 989 -36 
Q 684 19 347 128 
L 347 722 
Q 666 556 975 473 
Q 1284 391 1588 391 
Q 1994 391 2212 530 
Q 2431 669 2431 922 
Q 2431 1156 2273 1281 
Q 2116 1406 1581 1522 
L 1381 1569 
Q 847 1681 609 1914 
Q 372 2147 372 2553 
Q 372 3047 722 3315 
Q 1072 3584 1716 3584 
Q 2034 3584 2315 3537 
Q 2597 3491 2834 3397 
z
" transform="scale(0.015625)"/>
      </defs>
      <use xlink:href="#DejaVuSans-53"/>
      <use xlink:href="#DejaVuSans-74" x="63.476562"/>
      <use xlink:href="#DejaVuSans-65" x="102.685547"/>
      <use xlink:href="#DejaVuSans-70" x="164.208984"/>
      <use xlink:href="#DejaVuSans-73" x="227.685547"/>
     </g>
    </g>
   </g>
   <g id="matplotlib.axis_2">
    <g id="ytick_1">
     <g id="line2d_7">
      <defs>
       <path id="m94c45fd01a" d="M 0 0 
L -3.5 0 
" style="stroke: #000000; stroke-width: 0.8"/>
      </defs>
      <g>
       <use xlink:href="#m94c45fd01a" x="74.473125" y="375.23875" style="stroke: #000000; stroke-width: 0.8"/>
      </g>
     </g>
     <g id="text_8">
      <!-- −0.6 -->
      <g transform="translate(28.620625 381.3175) scale(0.16 -0.16)">
       <defs>
        <path id="DejaVuSans-2212" d="M 678 2272 
L 4684 2272 
L 4684 1741 
L 678 1741 
L 678 2272 
z
" transform="scale(0.015625)"/>
        <path id="DejaVuSans-2e" d="M 684 794 
L 1344 794 
L 1344 0 
L 684 0 
L 684 794 
z
" transform="scale(0.015625)"/>
        <path id="DejaVuSans-36" d="M 2113 2584 
Q 1688 2584 1439 2293 
Q 1191 2003 1191 1497 
Q 1191 994 1439 701 
Q 1688 409 2113 409 
Q 2538 409 2786 701 
Q 3034 994 3034 1497 
Q 3034 2003 2786 2293 
Q 2538 2584 2113 2584 
z
M 3366 4563 
L 3366 3988 
Q 3128 4100 2886 4159 
Q 2644 4219 2406 4219 
Q 1781 4219 1451 3797 
Q 1122 3375 1075 2522 
Q 1259 2794 1537 2939 
Q 1816 3084 2150 3084 
Q 2853 3084 3261 2657 
Q 3669 2231 3669 1497 
Q 3669 778 3244 343 
Q 2819 -91 2113 -91 
Q 1303 -91 875 529 
Q 447 1150 447 2328 
Q 447 3434 972 4092 
Q 1497 4750 2381 4750 
Q 2619 4750 2861 4703 
Q 3103 4656 3366 4563 
z
" transform="scale(0.015625)"/>
       </defs>
       <use xlink:href="#DejaVuSans-2212"/>
       <use xlink:href="#DejaVuSans-30" x="83.789062"/>
       <use xlink:href="#DejaVuSans-2e" x="147.412109"/>
       <use xlink:href="#DejaVuSans-36" x="179.199219"/>
      </g>
     </g>
    </g>
    <g id="ytick_2">
     <g id="line2d_8">
      <g>
       <use xlink:href="#m94c45fd01a" x="74.473125" y="329.99375" style="stroke: #000000; stroke-width: 0.8"/>
      </g>
     </g>
     <g id="text_9">
      <!-- −0.4 -->
      <g transform="translate(28.620625 336.0725) scale(0.16 -0.16)">
       <defs>
        <path id="DejaVuSans-34" d="M 2419 4116 
L 825 1625 
L 2419 1625 
L 2419 4116 
z
M 2253 4666 
L 3047 4666 
L 3047 1625 
L 3713 1625 
L 3713 1100 
L 3047 1100 
L 3047 0 
L 2419 0 
L 2419 1100 
L 313 1100 
L 313 1709 
L 2253 4666 
z
" transform="scale(0.015625)"/>
       </defs>
       <use xlink:href="#DejaVuSans-2212"/>
       <use xlink:href="#DejaVuSans-30" x="83.789062"/>
       <use xlink:href="#DejaVuSans-2e" x="147.412109"/>
       <use xlink:href="#DejaVuSans-34" x="179.199219"/>
      </g>
     </g>
    </g>
    <g id="ytick_3">
     <g id="line2d_9">
      <g>
       <use xlink:href="#m94c45fd01a" x="74.473125" y="284.74875" style="stroke: #000000; stroke-width: 0.8"/>
      </g>
     </g>
     <g id="text_10">
      <!-- −0.2 -->
      <g transform="translate(28.620625 290.8275) scale(0.16 -0.16)">
       <use xlink:href="#DejaVuSans-2212"/>
       <use xlink:href="#DejaVuSans-30" x="83.789062"/>
       <use xlink:href="#DejaVuSans-2e" x="147.412109"/>
       <use xlink:href="#DejaVuSans-32" x="179.199219"/>
      </g>
     </g>
    </g>
    <g id="ytick_4">
     <g id="line2d_10">
      <g>
       <use xlink:href="#m94c45fd01a" x="74.473125" y="239.50375" style="stroke: #000000; stroke-width: 0.8"/>
      </g>
     </g>
     <g id="text_11">
      <!-- 0.0 -->
      <g transform="translate(42.028125 245.5825) scale(0.16 -0.16)">
       <use xlink:href="#DejaVuSans-30"/>
       <use xlink:href="#DejaVuSans-2e" x="63.623047"/>
       <use xlink:href="#DejaVuSans-30" x="95.410156"/>
      </g>
     </g>
    </g>
    <g id="ytick_5">
     <g id="line2d_11">
      <g>
       <use xlink:href="#m94c45fd01a" x="74.473125" y="194.25875" style="stroke: #000000; stroke-width: 0.8"/>
      </g>
     </g>
     <g id="text_12">
      <!-- 0.2 -->
      <g transform="translate(42.028125 200.3375) scale(0.16 -0.16)">
       <use xlink:href="#DejaVuSans-30"/>
       <use xlink:href="#DejaVuSans-2e" x="63.623047"/>
       <use xlink:href="#DejaVuSans-32" x="95.410156"/>
      </g>
     </g>
    </g>
    <g id="ytick_6">
     <g id="line2d_12">
      <g>
       <use xlink:href="#m94c45fd01a" x="74.473125" y="149.01375" style="stroke: #000000; stroke-width: 0.8"/>
      </g>
     </g>
     <g id="text_13">
      <!-- 0.4 -->
      <g transform="translate(42.028125 155.0925) scale(0.16 -0.16)">
       <use xlink:href="#DejaVuSans-30"/>
       <use xlink:href="#DejaVuSans-2e" x="63.623047"/>
       <use xlink:href="#DejaVuSans-34" x="95.410156"/>
      </g>
     </g>
    </g>
    <g id="ytick_7">
     <g id="line2d_13">
      <g>
       <use xlink:href="#m94c45fd01a" x="74.473125" y="103.76875" style="stroke: #000000; stroke-width: 0.8"/>
      </g>
     </g>
     <g id="text_14">
      <!-- 0.6 -->
      <g transform="translate(42.028125 109.8475) scale(0.16 -0.16)">
       <use xlink:href="#DejaVuSans-30"/>
       <use xlink:href="#DejaVuSans-2e" x="63.623047"/>
       <use xlink:href="#DejaVuSans-36" x="95.410156"/>
      </g>
     </g>
    </g>
    <g id="ytick_8">
     <g id="line2d_14">
      <g>
       <use xlink:href="#m94c45fd01a" x="74.473125" y="58.52375" style="stroke: #000000; stroke-width: 0.8"/>
      </g>
     </g>
     <g id="text_15">
      <!-- 0.8 -->
      <g transform="translate(42.028125 64.6025) scale(0.16 -0.16)">
       <defs>
        <path id="DejaVuSans-38" d="M 2034 2216 
Q 1584 2216 1326 1975 
Q 1069 1734 1069 1313 
Q 1069 891 1326 650 
Q 1584 409 2034 409 
Q 2484 409 2743 651 
Q 3003 894 3003 1313 
Q 3003 1734 2745 1975 
Q 2488 2216 2034 2216 
z
M 1403 2484 
Q 997 2584 770 2862 
Q 544 3141 544 3541 
Q 544 4100 942 4425 
Q 1341 4750 2034 4750 
Q 2731 4750 3128 4425 
Q 3525 4100 3525 3541 
Q 3525 3141 3298 2862 
Q 3072 2584 2669 2484 
Q 3125 2378 3379 2068 
Q 3634 1759 3634 1313 
Q 3634 634 3220 271 
Q 2806 -91 2034 -91 
Q 1263 -91 848 271 
Q 434 634 434 1313 
Q 434 1759 690 2068 
Q 947 2378 1403 2484 
z
M 1172 3481 
Q 1172 3119 1398 2916 
Q 1625 2713 2034 2713 
Q 2441 2713 2670 2916 
Q 2900 3119 2900 3481 
Q 2900 3844 2670 4047 
Q 2441 4250 2034 4250 
Q 1625 4250 1398 4047 
Q 1172 3844 1172 3481 
z
" transform="scale(0.015625)"/>
       </defs>
       <use xlink:href="#DejaVuSans-30"/>
       <use xlink:href="#DejaVuSans-2e" x="63.623047"/>
       <use xlink:href="#DejaVuSans-38" x="95.410156"/>
      </g>
     </g>
    </g>
    <g id="ytick_9">
     <g id="line2d_15">
      <g>
       <use xlink:href="#m94c45fd01a" x="74.473125" y="13.27875" style="stroke: #000000; stroke-width: 0.8"/>
      </g>
     </g>
     <g id="text_16">
      <!-- 1.0 -->
      <g transform="translate(42.028125 19.3575) scale(0.16 -0.16)">
       <use xlink:href="#DejaVuSans-31"/>
       <use xlink:href="#DejaVuSans-2e" x="63.623047"/>
       <use xlink:href="#DejaVuSans-30" x="95.410156"/>
      </g>
     </g>
    </g>
    <g id="text_17">
     <!-- Value -->
     <g transform="translate(20.877187 218.975) rotate(-90) scale(0.18 -0.18)">
      <defs>
       <path id="DejaVuSans-56" d="M 1831 0 
L 50 4666 
L 709 4666 
L 2188 738 
L 3669 4666 
L 4325 4666 
L 2547 0 
L 1831 0 
z
" transform="scale(0.015625)"/>
       <path id="DejaVuSans-61" d="M 2194 1759 
Q 1497 1759 1228 1600 
Q 959 1441 959 1056 
Q 959 750 1161 570 
Q 1363 391 1709 391 
Q 2188 391 2477 730 
Q 2766 1069 2766 1631 
L 2766 1759 
L 2194 1759 
z
M 3341 1997 
L 3341 0 
L 2766 0 
L 2766 531 
Q 2569 213 2275 61 
Q 1981 -91 1556 -91 
Q 1019 -91 701 211 
Q 384 513 384 1019 
Q 384 1609 779 1909 
Q 1175 2209 1959 2209 
L 2766 2209 
L 2766 2266 
Q 2766 2663 2505 2880 
Q 2244 3097 1772 3097 
Q 1472 3097 1187 3025 
Q 903 2953 641 2809 
L 641 3341 
Q 956 3463 1253 3523 
Q 1550 3584 1831 3584 
Q 2591 3584 2966 3190 
Q 3341 2797 3341 1997 
z
" transform="scale(0.015625)"/>
       <path id="DejaVuSans-6c" d="M 603 4863 
L 1178 4863 
L 1178 0 
L 603 0 
L 603 4863 
z
" transform="scale(0.015625)"/>
       <path id="DejaVuSans-75" d="M 544 1381 
L 544 3500 
L 1119 3500 
L 1119 1403 
Q 1119 906 1312 657 
Q 1506 409 1894 409 
Q 2359 409 2629 706 
Q 2900 1003 2900 1516 
L 2900 3500 
L 3475 3500 
L 3475 0 
L 2900 0 
L 2900 538 
Q 2691 219 2414 64 
Q 2138 -91 1772 -91 
Q 1169 -91 856 284 
Q 544 659 544 1381 
z
M 1991 3584 
L 1991 3584 
z
" transform="scale(0.015625)"/>
      </defs>
      <use xlink:href="#DejaVuSans-56"/>
      <use xlink:href="#DejaVuSans-61" x="60.658203"/>
      <use xlink:href="#DejaVuSans-6c" x="121.9375"/>
      <use xlink:href="#DejaVuSans-75" x="149.720703"/>
      <use xlink:href="#DejaVuSans-65" x="213.099609"/>
     </g>
    </g>
   </g>
   <g id="line2d_16">
    <path d="M 74.473125 150.35928 
L 76.36027 150.35928 
L 78.247416 107.558909 
L 80.134561 107.558909 
L 82.021706 83.628393 
L 83.908852 83.628393 
L 85.795997 71.409194 
L 87.683143 71.409194 
L 89.570288 62.108006 
L 91.457433 62.108006 
L 93.344579 61.221877 
L 95.231724 61.221877 
L 97.118869 57.285643 
L 99.006015 57.285643 
L 100.89316 58.095359 
L 102.780305 58.095359 
L 104.667451 55.467618 
L 106.554596 55.467618 
L 108.441742 64.484992 
L 110.328887 64.484992 
L 112.216032 66.096784 
L 114.103178 66.096784 
L 115.990323 64.89383 
L 117.877468 64.89383 
L 119.764614 68.387441 
L 121.651759 68.387441 
L 123.538904 59.708933 
L 125.42605 59.708933 
L 127.313195 56.850273 
L 129.200341 56.850273 
L 131.087486 54.300741 
L 132.974631 54.300741 
L 134.861777 56.140483 
L 136.748922 56.140483 
L 138.636067 60.686239 
L 140.523213 60.686239 
L 142.410358 63.181595 
L 144.297503 63.181595 
L 146.184649 62.868949 
L 148.071794 62.868949 
L 149.95894 59.78065 
L 151.846085 59.78065 
L 153.73323 62.740071 
L 155.620376 62.740071 
L 157.507521 55.630461 
L 159.394666 55.630461 
L 161.281812 53.734055 
L 163.168957 53.734055 
L 165.056102 79.155274 
L 166.943248 79.155274 
L 168.830393 91.128638 
L 170.717539 91.128638 
L 172.604684 127.382593 
L 174.491829 127.382593 
L 176.378975 160.439485 
L 178.26612 160.439485 
L 180.153265 130.789026 
L 182.040411 130.789026 
L 183.927556 113.25541 
L 185.814701 113.25541 
L 187.701847 113.490258 
L 189.588992 113.490258 
L 191.476137 128.542068 
L 193.363283 128.542068 
L 195.250428 163.316539 
L 197.137574 163.316539 
L 199.024719 136.402078 
L 200.911864 136.402078 
L 202.79901 111.642192 
L 204.686155 111.642192 
L 206.5733 120.723344 
L 208.460446 120.723344 
L 210.347591 124.227537 
L 212.234736 124.227537 
L 214.121882 127.92715 
L 216.009027 127.92715 
L 217.896173 147.218056 
L 219.783318 147.218056 
L 221.670463 118.138608 
L 223.557609 118.138608 
L 225.444754 135.583067 
L 227.331899 135.583067 
L 229.219045 116.531182 
L 231.10619 116.531182 
L 232.993335 124.964704 
L 234.880481 124.964704 
L 236.767626 103.284403 
L 238.654772 103.284403 
L 240.541917 149.886227 
L 242.429062 149.886227 
L 244.316208 139.94309 
L 246.203353 139.94309 
L 248.090498 123.058958 
L 249.977644 123.058958 
L 251.864789 126.608092 
L 253.751934 126.608092 
L 255.63908 106.318168 
L 257.526225 106.318168 
L 259.413371 133.323649 
L 261.300516 133.323649 
L 263.187661 161.108895 
L 265.074807 161.108895 
L 266.961952 133.233889 
L 268.849097 133.233889 
L 270.736243 113.415513 
L 272.623388 113.415513 
L 274.510533 109.713192 
L 276.397679 109.713192 
L 278.284824 125.511401 
L 280.17197 125.511401 
L 282.059115 142.815717 
L 283.94626 142.815717 
L 285.833406 131.307294 
L 287.720551 131.307294 
L 289.607696 108.080254 
L 291.494842 108.080254 
L 293.381987 142.193588 
L 295.269132 142.193588 
L 297.156278 149.390686 
L 299.043423 149.390686 
L 300.930569 127.404636 
L 302.817714 127.404636 
L 304.704859 102.139185 
L 306.592005 102.139185 
L 308.47915 102.484277 
L 310.366295 102.484277 
L 312.253441 128.54401 
L 314.140586 128.54401 
L 316.027731 205.899871 
L 317.914877 217.802124 
L 319.802022 258.483977 
L 321.689168 191.286923 
L 323.576313 192.035804 
L 325.463458 143.927264 
L 327.350604 142.386032 
L 329.237749 142.526057 
L 331.124894 144.277917 
L 333.01204 141.170466 
L 334.899185 143.864349 
L 336.78633 145.4944 
L 338.673476 148.91849 
L 340.560621 143.854508 
L 342.447767 134.375977 
L 344.334912 133.059179 
L 346.222057 132.581193 
L 348.109203 133.481252 
L 349.996348 130.641391 
L 351.883493 130.546878 
L 353.770639 128.054172 
L 355.657784 128.600688 
L 357.544929 128.207712 
L 359.432075 128.678035 
L 361.31922 128.987858 
L 363.206366 127.927439 
L 366.980656 129.348534 
L 368.867802 130.064798 
L 370.754947 132.525105 
L 372.642092 129.481253 
L 374.529238 130.051371 
L 376.416383 127.806997 
L 378.303528 128.745438 
L 380.190674 129.864309 
L 382.077819 128.455898 
L 385.85211 130.91852 
L 387.739255 129.795769 
L 389.626401 129.316859 
L 391.513546 128.663074 
L 393.400691 126.666379 
L 395.287837 127.392853 
L 397.174982 127.964316 
L 399.062127 129.669391 
L 400.949273 128.636502 
L 402.836418 126.909348 
L 406.610709 126.940038 
L 408.497854 125.947091 
L 412.272145 127.158975 
L 414.15929 127.352039 
L 416.046436 126.656647 
L 417.933581 127.668707 
L 419.820726 128.356707 
L 421.707872 127.904764 
L 423.595017 128.049223 
L 425.482162 127.976416 
L 427.369308 127.47832 
L 429.256453 127.92304 
L 431.143599 128.8455 
L 433.030744 127.420795 
L 434.917889 126.219579 
L 436.805035 125.54069 
L 438.69218 126.795409 
L 440.579325 127.293147 
L 442.466471 127.475766 
L 444.353616 127.455975 
L 446.240761 127.908503 
L 448.127907 129.000389 
L 450.015052 128.359071 
L 451.902198 127.841725 
L 453.789343 127.105732 
L 457.563634 127.045851 
L 459.450779 128.722555 
L 461.337924 127.750936 
L 463.22507 126.597544 
L 465.112215 127.454082 
L 466.99936 127.427678 
L 468.886506 127.987664 
L 470.773651 127.582047 
L 476.435087 127.166088 
L 478.322233 127.623388 
L 480.209378 127.403574 
L 482.096523 127.636984 
L 483.983669 128.250793 
L 485.870814 127.528664 
L 487.757959 128.213246 
L 489.645105 127.095024 
L 491.53225 126.725298 
L 493.419396 125.961107 
L 495.306541 125.831054 
L 497.193686 126.444365 
L 499.080832 126.792231 
L 500.967977 126.093579 
L 502.855122 126.145095 
L 504.742268 126.519663 
L 506.629413 126.271424 
L 508.516558 126.586567 
L 510.403704 127.676179 
L 514.177995 127.357808 
L 516.06514 126.158167 
L 517.952285 125.769722 
L 519.839431 125.839204 
L 521.726576 127.173591 
L 523.613721 127.339033 
L 525.500867 127.270162 
L 527.388012 127.442791 
L 529.275157 126.622103 
L 531.162303 127.01547 
L 533.049448 127.217294 
L 536.823739 126.791795 
L 538.710884 125.373603 
L 540.59803 125.443152 
L 542.485175 125.986596 
L 544.37232 126.664531 
L 546.259466 127.933389 
L 546.259466 127.933389 
" clip-path="url(#p629fa5f175)" style="fill: none; stroke: #008000; stroke-width: 2; stroke-linecap: square"/>
   </g>
   <g id="line2d_17">
    <path d="M 74.473125 237.96557 
L 76.36027 236.232565 
L 78.247416 234.109099 
L 80.134561 231.605716 
L 83.908852 226.040362 
L 89.570288 217.067507 
L 95.231724 208.025967 
L 100.89316 199.301362 
L 106.554596 191.008593 
L 110.328887 185.965255 
L 115.990323 178.964221 
L 119.764614 174.530507 
L 125.42605 168.099112 
L 132.974631 159.505408 
L 136.748922 155.438603 
L 140.523213 151.683022 
L 146.184649 146.507358 
L 153.73323 139.962049 
L 159.394666 135.259551 
L 163.168957 132.084345 
L 165.056102 130.786715 
L 166.943248 129.765356 
L 168.830393 128.883021 
L 170.717539 128.136174 
L 172.604684 127.763878 
L 174.491829 127.756335 
L 176.378975 128.076992 
L 178.26612 128.717179 
L 180.153265 129.050456 
L 182.040411 129.084848 
L 183.927556 128.944559 
L 189.588992 128.03871 
L 191.476137 127.900287 
L 193.363283 127.912983 
L 195.250428 128.270523 
L 197.137574 128.963794 
L 199.024719 129.376257 
L 200.911864 129.51524 
L 202.79901 129.405761 
L 206.5733 128.800043 
L 210.347591 128.518436 
L 214.121882 128.387067 
L 216.009027 128.377969 
L 217.896173 128.56049 
L 219.783318 128.929569 
L 221.670463 129.002769 
L 223.557609 128.787857 
L 225.444754 128.750311 
L 227.331899 128.885475 
L 229.219045 128.828898 
L 232.993335 128.430862 
L 234.880481 128.362296 
L 236.767626 128.079934 
L 238.654772 127.589436 
L 240.541917 127.571107 
L 244.316208 128.346565 
L 246.203353 128.575965 
L 248.090498 128.633271 
L 255.63908 128.176624 
L 257.526225 127.744226 
L 259.413371 127.588378 
L 261.300516 127.701832 
L 263.187661 128.088777 
L 265.074807 128.741972 
L 266.961952 129.10562 
L 268.849097 129.187284 
L 270.736243 129.070659 
L 278.284824 127.844638 
L 280.17197 127.798483 
L 282.059115 127.924965 
L 283.94626 128.21953 
L 285.833406 128.394061 
L 287.720551 128.451689 
L 289.607696 128.277678 
L 291.494842 127.878137 
L 293.381987 127.825035 
L 297.156278 128.459305 
L 299.043423 128.873364 
L 300.930569 129.061047 
L 302.817714 129.02828 
L 304.704859 128.745432 
L 310.366295 127.207691 
L 312.253441 126.97723 
L 314.140586 127.008224 
L 316.027731 127.806275 
L 317.914877 129.469212 
L 319.802022 131.62031 
L 321.689168 133.463043 
L 323.576313 134.614332 
L 325.463458 135.272809 
L 342.447767 136.630877 
L 349.996348 136.343858 
L 357.544929 135.790285 
L 368.867802 135.001352 
L 376.416383 134.634602 
L 383.964964 134.198827 
L 393.400691 133.737625 
L 400.949273 133.311439 
L 429.256453 131.773936 
L 436.805035 131.428861 
L 444.353616 131.090753 
L 468.886506 130.30972 
L 546.259466 128.356138 
L 546.259466 128.356138 
" clip-path="url(#p629fa5f175)" style="fill: none; stroke: #0000ff; stroke-width: 2; stroke-linecap: square"/>
   </g>
   <g id="line2d_18">
    <path d="M 316.027731 375.23875 
L 316.027731 13.27875 
" clip-path="url(#p629fa5f175)" style="fill: none; stroke-dasharray: 3,4.95; stroke-dashoffset: 0; stroke: #ff0000; stroke-width: 3"/>
   </g>
   <g id="patch_3">
    <path d="M 74.473125 375.23875 
L 74.473125 13.27875 
" style="fill: none; stroke: #000000; stroke-width: 0.8; stroke-linejoin: miter; stroke-linecap: square"/>
   </g>
   <g id="patch_4">
    <path d="M 548.146611 375.23875 
L 548.146611 13.27875 
" style="fill: none; stroke: #000000; stroke-width: 0.8; stroke-linejoin: miter; stroke-linecap: square"/>
   </g>
   <g id="patch_5">
    <path d="M 74.473125 375.23875 
L 548.146611 375.23875 
" style="fill: none; stroke: #000000; stroke-width: 0.8; stroke-linejoin: miter; stroke-linecap: square"/>
   </g>
   <g id="patch_6">
    <path d="M 74.473125 13.27875 
L 548.146611 13.27875 
" style="fill: none; stroke: #000000; stroke-width: 0.8; stroke-linejoin: miter; stroke-linecap: square"/>
   </g>
   <g id="legend_1">
    <g id="patch_7">
     <path d="M 425.854424 86.126875 
L 538.346611 86.126875 
Q 541.146611 86.126875 541.146611 83.326875 
L 541.146611 23.07875 
Q 541.146611 20.27875 538.346611 20.27875 
L 425.854424 20.27875 
Q 423.054424 20.27875 423.054424 23.07875 
L 423.054424 83.326875 
Q 423.054424 86.126875 425.854424 86.126875 
z
" style="fill: #ffffff; opacity: 0.7; stroke: #cccccc; stroke-linejoin: miter"/>
    </g>
    <g id="line2d_19">
     <path d="M 428.654424 31.616562 
L 442.654424 31.616562 
L 456.654424 31.616562 
" style="fill: none; stroke: #008000; stroke-width: 2; stroke-linecap: square"/>
    </g>
    <g id="text_18">
     <!-- Action -->
     <g transform="translate(467.854424 36.516562) scale(0.14 -0.14)">
      <defs>
       <path id="DejaVuSans-41" d="M 2188 4044 
L 1331 1722 
L 3047 1722 
L 2188 4044 
z
M 1831 4666 
L 2547 4666 
L 4325 0 
L 3669 0 
L 3244 1197 
L 1141 1197 
L 716 0 
L 50 0 
L 1831 4666 
z
" transform="scale(0.015625)"/>
       <path id="DejaVuSans-63" d="M 3122 3366 
L 3122 2828 
Q 2878 2963 2633 3030 
Q 2388 3097 2138 3097 
Q 1578 3097 1268 2742 
Q 959 2388 959 1747 
Q 959 1106 1268 751 
Q 1578 397 2138 397 
Q 2388 397 2633 464 
Q 2878 531 3122 666 
L 3122 134 
Q 2881 22 2623 -34 
Q 2366 -91 2075 -91 
Q 1284 -91 818 406 
Q 353 903 353 1747 
Q 353 2603 823 3093 
Q 1294 3584 2113 3584 
Q 2378 3584 2631 3529 
Q 2884 3475 3122 3366 
z
" transform="scale(0.015625)"/>
       <path id="DejaVuSans-69" d="M 603 3500 
L 1178 3500 
L 1178 0 
L 603 0 
L 603 3500 
z
M 603 4863 
L 1178 4863 
L 1178 4134 
L 603 4134 
L 603 4863 
z
" transform="scale(0.015625)"/>
       <path id="DejaVuSans-6f" d="M 1959 3097 
Q 1497 3097 1228 2736 
Q 959 2375 959 1747 
Q 959 1119 1226 758 
Q 1494 397 1959 397 
Q 2419 397 2687 759 
Q 2956 1122 2956 1747 
Q 2956 2369 2687 2733 
Q 2419 3097 1959 3097 
z
M 1959 3584 
Q 2709 3584 3137 3096 
Q 3566 2609 3566 1747 
Q 3566 888 3137 398 
Q 2709 -91 1959 -91 
Q 1206 -91 779 398 
Q 353 888 353 1747 
Q 353 2609 779 3096 
Q 1206 3584 1959 3584 
z
" transform="scale(0.015625)"/>
       <path id="DejaVuSans-6e" d="M 3513 2113 
L 3513 0 
L 2938 0 
L 2938 2094 
Q 2938 2591 2744 2837 
Q 2550 3084 2163 3084 
Q 1697 3084 1428 2787 
Q 1159 2491 1159 1978 
L 1159 0 
L 581 0 
L 581 3500 
L 1159 3500 
L 1159 2956 
Q 1366 3272 1645 3428 
Q 1925 3584 2291 3584 
Q 2894 3584 3203 3211 
Q 3513 2838 3513 2113 
z
" transform="scale(0.015625)"/>
      </defs>
      <use xlink:href="#DejaVuSans-41"/>
      <use xlink:href="#DejaVuSans-63" x="66.658203"/>
      <use xlink:href="#DejaVuSans-74" x="121.638672"/>
      <use xlink:href="#DejaVuSans-69" x="160.847656"/>
      <use xlink:href="#DejaVuSans-6f" x="188.630859"/>
      <use xlink:href="#DejaVuSans-6e" x="249.8125"/>
     </g>
    </g>
    <g id="line2d_20">
     <path d="M 428.654424 52.165937 
L 442.654424 52.165937 
L 456.654424 52.165937 
" style="fill: none; stroke: #0000ff; stroke-width: 2; stroke-linecap: square"/>
    </g>
    <g id="text_19">
     <!-- State -->
     <g transform="translate(467.854424 57.065937) scale(0.14 -0.14)">
      <use xlink:href="#DejaVuSans-53"/>
      <use xlink:href="#DejaVuSans-74" x="63.476562"/>
      <use xlink:href="#DejaVuSans-61" x="102.685547"/>
      <use xlink:href="#DejaVuSans-74" x="163.964844"/>
      <use xlink:href="#DejaVuSans-65" x="203.173828"/>
     </g>
    </g>
    <g id="line2d_21">
     <path d="M 428.654424 72.715312 
L 442.654424 72.715312 
L 456.654424 72.715312 
" style="fill: none; stroke-dasharray: 3,4.95; stroke-dashoffset: 0; stroke: #ff0000; stroke-width: 3"/>
    </g>
    <g id="text_20">
     <!-- Transition -->
     <g transform="translate(467.854424 77.615312) scale(0.14 -0.14)">
      <defs>
       <path id="DejaVuSans-54" d="M -19 4666 
L 3928 4666 
L 3928 4134 
L 2272 4134 
L 2272 0 
L 1638 0 
L 1638 4134 
L -19 4134 
L -19 4666 
z
" transform="scale(0.015625)"/>
       <path id="DejaVuSans-72" d="M 2631 2963 
Q 2534 3019 2420 3045 
Q 2306 3072 2169 3072 
Q 1681 3072 1420 2755 
Q 1159 2438 1159 1844 
L 1159 0 
L 581 0 
L 581 3500 
L 1159 3500 
L 1159 2956 
Q 1341 3275 1631 3429 
Q 1922 3584 2338 3584 
Q 2397 3584 2469 3576 
Q 2541 3569 2628 3553 
L 2631 2963 
z
" transform="scale(0.015625)"/>
      </defs>
      <use xlink:href="#DejaVuSans-54"/>
      <use xlink:href="#DejaVuSans-72" x="46.333984"/>
      <use xlink:href="#DejaVuSans-61" x="87.447266"/>
      <use xlink:href="#DejaVuSans-6e" x="148.726562"/>
      <use xlink:href="#DejaVuSans-73" x="212.105469"/>
      <use xlink:href="#DejaVuSans-69" x="264.205078"/>
      <use xlink:href="#DejaVuSans-74" x="291.988281"/>
      <use xlink:href="#DejaVuSans-69" x="331.197266"/>
      <use xlink:href="#DejaVuSans-6f" x="358.980469"/>
      <use xlink:href="#DejaVuSans-6e" x="420.162109"/>
     </g>
    </g>
   </g>
  </g>
 </g>
 <defs>
  <clipPath id="p629fa5f175">
   <rect x="74.473125" y="13.27875" width="473.673486" height="361.96"/>
  </clipPath>
 </defs>
</svg>
