<?xml version="1.0" encoding="utf-8" standalone="no"?>
<!DOCTYPE svg PUBLIC "-//W3C//DTD SVG 1.1//EN"
  "http://www.w3.org/Graphics/SVG/1.1/DTD/svg11.dtd">
<svg xmlns:xlink="http://www.w3.org/1999/xlink" width="568.729466pt" height="426.344375pt" viewBox="0 0 568.729466 426.344375" xmlns="http://www.w3.org/2000/svg" version="1.1">
 <metadata>
  <rdf:RDF xmlns:dc="http://purl.org/dc/elements/1.1/" xmlns:cc="http://creativecommons.org/ns#" xmlns:rdf="http://www.w3.org/1999/02/22-rdf-syntax-ns#">
   <cc:Work>
    <dc:type rdf:resource="http://purl.org/dc/dcmitype/StillImage"/>
    <dc:date>2024-10-05T22:24:46.341462</dc:date>
    <dc:format>image/svg+xml</dc:format>
    <dc:creator>
     <cc:Agent>
      <dc:title>Matplotlib v3.9.0, https://matplotlib.org/</dc:title>
     </cc:Agent>
    </dc:creator>
   </cc:Work>
  </rdf:RDF>
 </metadata>
 <defs>
  <style type="text/css">*{stroke-linejoin: round; stroke-linecap: butt}</style>
 </defs>
 <g id="figure_1">
  <g id="patch_1">
   <path d="M 0 426.344375 
L 568.729466 426.344375 
L 568.729466 0 
L 0 0 
z
" style="fill: #ffffff"/>
  </g>
  <g id="axes_1">
   <g id="patch_2">
    <path d="M 74.473125 375.23875 
L 548.146611 375.23875 
L 548.146611 13.27875 
L 74.473125 13.27875 
z
" style="fill: #ffffff"/>
   </g>
   <g id="PolyCollection_1">
    <defs>
     <path id="m0e418fd7a1" d="M 74.473125 -285.279427 
L 74.473125 -271.058446 
L 76.36027 -276.570561 
L 78.247416 -317.303628 
L 80.134561 -324.323322 
L 82.021706 -335.478882 
L 83.908852 -337.918827 
L 85.795997 -344.812088 
L 87.683143 -345.832329 
L 89.570288 -346.485818 
L 91.457433 -347.324775 
L 93.344579 -352.876051 
L 95.231724 -354.140258 
L 97.118869 -357.933936 
L 99.006015 -358.571195 
L 100.89316 -359.490666 
L 102.780305 -360.004547 
L 104.667451 -362.882348 
L 106.554596 -362.317784 
L 108.441742 -355.269247 
L 110.328887 -355.102148 
L 112.216032 -360.914705 
L 114.103178 -360.96416 
L 115.990323 -355.515176 
L 117.877468 -354.936499 
L 119.764614 -356.10799 
L 121.651759 -355.408387 
L 123.538904 -349.064069 
L 125.42605 -348.262154 
L 127.313195 -348.683389 
L 129.200341 -350.316667 
L 131.087486 -361.964044 
L 132.974631 -362.856792 
L 134.861777 -357.810086 
L 136.748922 -357.833879 
L 138.636067 -363.061534 
L 140.523213 -364.242539 
L 142.410358 -367.741424 
L 144.297503 -367.728019 
L 146.184649 -364.132119 
L 148.071794 -363.772538 
L 149.95894 -364.712062 
L 151.846085 -364.960445 
L 153.73323 -365.855463 
L 155.620376 -365.903564 
L 157.507521 -365.365093 
L 159.394666 -365.570485 
L 161.281812 -367.610816 
L 163.168957 -361.189866 
L 165.056102 -311.684788 
L 166.943248 -303.416166 
L 168.830393 -291.777983 
L 170.717539 -279.662438 
L 172.604684 -201.746561 
L 174.491829 -197.261393 
L 176.378975 -242.030155 
L 178.26612 -251.741601 
L 180.153265 -278.725304 
L 182.040411 -280.810405 
L 183.927556 -269.252328 
L 185.814701 -267.083154 
L 187.701847 -262.602697 
L 189.588992 -256.327112 
L 191.476137 -214.430873 
L 193.363283 -214.158711 
L 195.250428 -254.049598 
L 197.137574 -262.612339 
L 199.024719 -285.998156 
L 200.911864 -288.744988 
L 202.79901 -285.675628 
L 204.686155 -285.16521 
L 206.5733 -284.444552 
L 208.460446 -274.227299 
L 210.347591 -199.435159 
L 212.234736 -193.110581 
L 214.121882 -221.170316 
L 216.009027 -231.491356 
L 217.896173 -279.6999 
L 219.783318 -288.256029 
L 221.670463 -303.299663 
L 223.557609 -305.264353 
L 225.444754 -304.743069 
L 227.331899 -298.261006 
L 229.219045 -250.871089 
L 231.10619 -242.907669 
L 232.993335 -231.428265 
L 234.880481 -226.950509 
L 236.767626 -205.336558 
L 238.654772 -210.490059 
L 240.541917 -270.194002 
L 242.429062 -278.901805 
L 244.316208 -283.557561 
L 246.203353 -285.364356 
L 248.090498 -294.067401 
L 249.977644 -288.702827 
L 251.864789 -240.346897 
L 253.751934 -232.992463 
L 255.63908 -226.97986 
L 257.526225 -221.772488 
L 259.413371 -189.303679 
L 261.300516 -195.10656 
L 263.187661 -270.452235 
L 265.074807 -275.276957 
L 266.961952 -235.585725 
L 268.849097 -231.517723 
L 270.736243 -241.174202 
L 272.623388 -246.008193 
L 274.510533 -272.075732 
L 276.397679 -278.317265 
L 278.284824 -298.383942 
L 280.17197 -299.675222 
L 282.059115 -289.152647 
L 283.94626 -284.025241 
L 285.833406 -256.659101 
L 287.720551 -254.55249 
L 289.607696 -266.328905 
L 291.494842 -261.83249 
L 293.381987 -216.828213 
L 295.269132 -217.483062 
L 297.156278 -267.335809 
L 299.043423 -275.765268 
L 300.930569 -288.191624 
L 302.817714 -284.859228 
L 304.704859 -247.81058 
L 306.592005 -239.772188 
L 308.47915 -217.428801 
L 310.366295 -222.414597 
L 312.253441 -281.598241 
L 314.140586 -289.608891 
L 316.027731 -204.894738 
L 317.914877 -196.665329 
L 319.802022 -191.186356 
L 321.689168 -182.861987 
L 323.576313 -170.652969 
L 325.463458 -157.209239 
L 327.350604 -144.905099 
L 329.237749 -147.665212 
L 331.124894 -164.934156 
L 333.01204 -168.83136 
L 334.899185 -155.314457 
L 336.78633 -137.025494 
L 338.673476 -122.3911 
L 340.560621 -106.508205 
L 342.447767 -87.26735 
L 344.334912 -95.36731 
L 346.222057 -132.246169 
L 348.109203 -161.813612 
L 349.996348 -179.508679 
L 351.883493 -180.865909 
L 353.770639 -157.06901 
L 355.657784 -140.447345 
L 357.544929 -140.519509 
L 359.432075 -146.689154 
L 361.31922 -166.082201 
L 363.206366 -202.559596 
L 365.093511 -235.343393 
L 366.980656 -253.491457 
L 368.867802 -257.303187 
L 370.754947 -251.239457 
L 372.642092 -237.96275 
L 374.529238 -217.545803 
L 376.416383 -203.484619 
L 378.303528 -205.464972 
L 380.190674 -215.764388 
L 382.077819 -220.571925 
L 383.964964 -222.849782 
L 385.85211 -226.032954 
L 387.739255 -226.545717 
L 389.626401 -223.513028 
L 391.513546 -220.474792 
L 393.400691 -219.914983 
L 395.287837 -222.165729 
L 397.174982 -229.918705 
L 399.062127 -235.817625 
L 400.949273 -219.410225 
L 402.836418 -195.836333 
L 404.723563 -187.825622 
L 406.610709 -190.061034 
L 408.497854 -194.677818 
L 410.385 -202.259422 
L 412.272145 -207.465316 
L 414.15929 -204.196034 
L 416.046436 -197.164201 
L 417.933581 -191.278202 
L 419.820726 -182.560202 
L 421.707872 -171.68707 
L 423.595017 -169.962635 
L 425.482162 -186.835765 
L 427.369308 -215.622435 
L 429.256453 -232.240665 
L 431.143599 -236.229345 
L 433.030744 -241.733903 
L 434.917889 -252.870879 
L 436.805035 -264.908251 
L 438.69218 -267.777576 
L 440.579325 -261.459903 
L 442.466471 -256.223454 
L 444.353616 -248.065389 
L 446.240761 -228.537636 
L 448.127907 -211.642804 
L 450.015052 -205.230071 
L 451.902198 -205.25654 
L 453.789343 -205.875976 
L 455.676488 -203.751904 
L 457.563634 -194.351306 
L 459.450779 -189.035231 
L 461.337924 -196.676813 
L 463.22507 -212.066799 
L 465.112215 -215.857236 
L 466.99936 -203.807254 
L 468.886506 -188.881584 
L 470.773651 -187.492917 
L 472.660797 -198.067381 
L 474.547942 -206.582862 
L 476.435087 -212.896652 
L 478.322233 -219.78685 
L 480.209378 -230.040481 
L 482.096523 -239.217181 
L 483.983669 -239.592133 
L 485.870814 -232.931093 
L 487.757959 -227.894582 
L 489.645105 -227.596855 
L 491.53225 -229.15709 
L 493.419396 -230.937742 
L 495.306541 -231.6334 
L 497.193686 -230.815136 
L 499.080832 -228.271682 
L 500.967977 -223.522687 
L 502.855122 -222.467834 
L 504.742268 -221.92059 
L 506.629413 -213.479772 
L 508.516558 -204.729427 
L 510.403704 -201.164906 
L 512.290849 -199.582028 
L 514.177995 -192.192182 
L 516.06514 -175.435343 
L 517.952285 -152.129692 
L 519.839431 -129.069334 
L 521.726576 -116.652923 
L 523.613721 -115.785102 
L 525.500867 -122.955905 
L 527.388012 -131.855861 
L 529.275157 -138.238682 
L 531.162303 -143.538153 
L 533.049448 -152.899646 
L 534.936594 -171.628665 
L 536.823739 -199.615574 
L 538.710884 -225.854066 
L 540.59803 -239.208173 
L 542.485175 -248.522577 
L 544.37232 -260.877389 
L 546.259466 -268.573572 
L 546.259466 -382.541177 
L 546.259466 -382.541177 
L 544.37232 -384.113915 
L 542.485175 -385.839485 
L 540.59803 -385.737681 
L 538.710884 -373.494345 
L 536.823739 -343.548919 
L 534.936594 -310.268844 
L 533.049448 -284.922668 
L 531.162303 -272.928642 
L 529.275157 -273.869448 
L 527.388012 -279.795447 
L 525.500867 -279.830895 
L 523.613721 -272.681993 
L 521.726576 -270.31316 
L 519.839431 -285.054007 
L 517.952285 -317.131598 
L 516.06514 -353.416913 
L 514.177995 -379.679175 
L 512.290849 -389.6707 
L 510.403704 -389.742569 
L 508.516558 -389.523237 
L 506.629413 -390.942576 
L 504.742268 -387.607003 
L 502.855122 -378.007176 
L 500.967977 -375.126961 
L 499.080832 -380.048523 
L 497.193686 -384.460193 
L 495.306541 -386.289051 
L 493.419396 -386.19558 
L 491.53225 -388.227338 
L 489.645105 -389.5547 
L 487.757959 -387.66279 
L 485.870814 -387.81583 
L 483.983669 -390.903657 
L 482.096523 -391.698786 
L 480.209378 -383.399153 
L 478.322233 -370.264084 
L 476.435087 -363.879233 
L 474.547942 -359.709471 
L 472.660797 -354.567488 
L 470.773651 -348.82655 
L 468.886506 -344.763703 
L 466.99936 -342.757923 
L 465.112215 -342.046841 
L 463.22507 -341.732154 
L 461.337924 -342.963232 
L 459.450779 -348.51172 
L 457.563634 -355.008627 
L 455.676488 -356.167187 
L 453.789343 -348.199236 
L 451.902198 -340.920152 
L 450.015052 -338.28901 
L 448.127907 -339.997715 
L 446.240761 -344.965981 
L 444.353616 -348.852194 
L 442.466471 -348.03552 
L 440.579325 -345.47487 
L 438.69218 -343.81189 
L 436.805035 -344.031157 
L 434.917889 -345.45421 
L 433.030744 -346.122028 
L 431.143599 -347.575178 
L 429.256453 -349.328876 
L 427.369308 -344.660872 
L 425.482162 -332.857443 
L 423.595017 -321.693251 
L 421.707872 -314.252607 
L 419.820726 -311.7823 
L 417.933581 -312.297372 
L 416.046436 -314.564221 
L 414.15929 -318.839579 
L 412.272145 -322.256246 
L 410.385 -321.852624 
L 408.497854 -322.233493 
L 406.610709 -328.385157 
L 404.723563 -337.911407 
L 402.836418 -350.089822 
L 400.949273 -369.588454 
L 399.062127 -386.843094 
L 397.174982 -389.983969 
L 395.287837 -388.016446 
L 393.400691 -388.168159 
L 391.513546 -390.628484 
L 389.626401 -391.227096 
L 387.739255 -388.752217 
L 385.85211 -385.291982 
L 383.964964 -375.052714 
L 382.077819 -356.252906 
L 380.190674 -343.295796 
L 378.303528 -338.472915 
L 376.416383 -339.449084 
L 374.529238 -352.20473 
L 372.642092 -373.030964 
L 370.754947 -382.397495 
L 368.867802 -381.301602 
L 366.980656 -376.396705 
L 365.093511 -363.866373 
L 363.206366 -343.951344 
L 361.31922 -323.39582 
L 359.432075 -311.56895 
L 357.544929 -307.103852 
L 355.657784 -308.977505 
L 353.770639 -326.072708 
L 351.883493 -349.923145 
L 349.996348 -353.181085 
L 348.109203 -338.7544 
L 346.222057 -307.307351 
L 344.334912 -267.586117 
L 342.447767 -260.305672 
L 340.560621 -281.267836 
L 338.673476 -299.457618 
L 336.78633 -314.0401 
L 334.899185 -325.170819 
L 333.01204 -329.262335 
L 331.124894 -324.183682 
L 329.237749 -315.389108 
L 327.350604 -321.929028 
L 325.463458 -346.961423 
L 323.576313 -366.422694 
L 321.689168 -373.801072 
L 319.802022 -373.132665 
L 317.914877 -365.05649 
L 316.027731 -356.267239 
L 314.140586 -346.347493 
L 312.253441 -343.287088 
L 310.366295 -320.681052 
L 308.47915 -320.634342 
L 306.592005 -342.896695 
L 304.704859 -346.544285 
L 302.817714 -351.232441 
L 300.930569 -350.576669 
L 299.043423 -341.040647 
L 297.156278 -336.451749 
L 295.269132 -312.082466 
L 293.381987 -313.676772 
L 291.494842 -349.826037 
L 289.607696 -354.240536 
L 287.720551 -350.716981 
L 285.833406 -351.836652 
L 283.94626 -363.647478 
L 282.059115 -364.864696 
L 280.17197 -362.04241 
L 278.284824 -358.682667 
L 276.397679 -336.674191 
L 274.510533 -333.264035 
L 272.623388 -330.063196 
L 270.736243 -328.790714 
L 268.849097 -322.586429 
L 266.961952 -324.91685 
L 265.074807 -348.339674 
L 263.187661 -349.180498 
L 261.300516 -331.964605 
L 259.413371 -327.228817 
L 257.526225 -309.458172 
L 255.63908 -311.225918 
L 253.751934 -342.061656 
L 251.864789 -348.054654 
L 249.977644 -361.508398 
L 248.090498 -362.516498 
L 246.203353 -356.519057 
L 244.316208 -353.509547 
L 242.429062 -337.257532 
L 240.541917 -331.400635 
L 238.654772 -304.36518 
L 236.767626 -303.128541 
L 234.880481 -321.025276 
L 232.993335 -326.430126 
L 231.10619 -348.479506 
L 229.219045 -353.498082 
L 227.331899 -368.545564 
L 225.444754 -368.916745 
L 223.557609 -356.611027 
L 221.670463 -351.224202 
L 219.783318 -323.71195 
L 217.896173 -317.522844 
L 216.009027 -299.284243 
L 214.121882 -296.925159 
L 212.234736 -297.7366 
L 210.347591 -305.637277 
L 208.460446 -363.213315 
L 206.5733 -369.176177 
L 204.686155 -355.671099 
L 202.79901 -352.223528 
L 200.911864 -340.261752 
L 199.024719 -337.298075 
L 197.137574 -327.344744 
L 195.250428 -324.201959 
L 193.363283 -310.934035 
L 191.476137 -314.285397 
L 189.588992 -352.320933 
L 187.701847 -357.16311 
L 185.814701 -354.909616 
L 183.927556 -352.738712 
L 182.040411 -338.953419 
L 180.153265 -334.977874 
L 178.26612 -319.375825 
L 176.378975 -316.777612 
L 174.491829 -313.186526 
L 172.604684 -319.260077 
L 170.717539 -367.743432 
L 168.830393 -376.174624 
L 166.943248 -390.009574 
L 165.056102 -391.90618 
L 163.168957 -392.105407 
L 161.281812 -391.764106 
L 159.394666 -389.045049 
L 157.507521 -387.980511 
L 155.620376 -382.830691 
L 153.73323 -381.981409 
L 151.846085 -380.853195 
L 149.95894 -380.851776 
L 148.071794 -381.968076 
L 146.184649 -382.239649 
L 144.297503 -383.129745 
L 142.410358 -383.01874 
L 140.523213 -381.307525 
L 138.636067 -380.674482 
L 136.748922 -377.706791 
L 134.861777 -377.286486 
L 132.974631 -377.14702 
L 131.087486 -377.172868 
L 129.200341 -377.500027 
L 127.313195 -376.588503 
L 125.42605 -369.524528 
L 123.538904 -368.889695 
L 121.651759 -371.262095 
L 119.764614 -371.867171 
L 117.877468 -373.965988 
L 115.990323 -374.713063 
L 114.103178 -378.135846 
L 112.216032 -378.104709 
L 110.328887 -374.453954 
L 108.441742 -374.55449 
L 106.554596 -378.948358 
L 104.667451 -379.077763 
L 102.780305 -375.639309 
L 100.89316 -375.227342 
L 99.006015 -375.620609 
L 97.118869 -375.032342 
L 95.231724 -370.288392 
L 93.344579 -369.107912 
L 91.457433 -365.127962 
L 89.570288 -365.203008 
L 87.683143 -369.731439 
L 85.795997 -368.476183 
L 83.908852 -354.664908 
L 82.021706 -351.486357 
L 80.134561 -341.790216 
L 78.247416 -334.601622 
L 76.36027 -291.15839 
L 74.473125 -285.279427 
z
" style="stroke: #008000; stroke-opacity: 0.2"/>
    </defs>
    <g clip-path="url(#pb1026516bf)">
     <use xlink:href="#m0e418fd7a1" x="0" y="426.344375" style="fill: #008000; fill-opacity: 0.2; stroke: #008000; stroke-opacity: 0.2"/>
    </g>
   </g>
   <g id="PolyCollection_2">
    <defs>
     <path id="m301ef61a37" d="M 74.473125 -189.576509 
L 74.473125 -183.982064 
L 76.36027 -185.661769 
L 78.247416 -187.979085 
L 80.134561 -190.737233 
L 82.021706 -193.617178 
L 83.908852 -196.573014 
L 85.795997 -199.587882 
L 87.683143 -202.635603 
L 89.570288 -205.601404 
L 91.457433 -208.488723 
L 93.344579 -211.379406 
L 95.231724 -214.285428 
L 97.118869 -217.214945 
L 99.006015 -220.1599 
L 100.89316 -223.072297 
L 102.780305 -225.945847 
L 104.667451 -228.770937 
L 106.554596 -231.538323 
L 108.441742 -234.186378 
L 110.328887 -236.720264 
L 112.216032 -239.243471 
L 114.103178 -241.76516 
L 115.990323 -244.235261 
L 117.877468 -246.64366 
L 119.764614 -248.980833 
L 121.651759 -251.240218 
L 123.538904 -253.352772 
L 125.42605 -255.330917 
L 127.313195 -257.320562 
L 129.200341 -259.330808 
L 131.087486 -261.374681 
L 132.974631 -263.45595 
L 134.861777 -265.497726 
L 136.748922 -267.494641 
L 138.636067 -269.522422 
L 140.523213 -271.582933 
L 142.410358 -273.604969 
L 144.297503 -275.57861 
L 146.184649 -277.483584 
L 148.071794 -279.323175 
L 149.95894 -281.153005 
L 151.846085 -282.979282 
L 153.73323 -284.784107 
L 155.620376 -286.562839 
L 157.507521 -288.299704 
L 159.394666 -289.991007 
L 161.281812 -291.669159 
L 163.168957 -293.32947 
L 165.056102 -294.888523 
L 166.943248 -296.167744 
L 168.830393 -297.171592 
L 170.717539 -297.86403 
L 172.604684 -297.928453 
L 174.491829 -297.117356 
L 176.378975 -296.294037 
L 178.26612 -295.938936 
L 180.153265 -295.831227 
L 182.040411 -295.98113 
L 183.927556 -296.28271 
L 185.814701 -296.539962 
L 187.701847 -296.623775 
L 189.588992 -296.52279 
L 191.476137 -296.334578 
L 193.363283 -296.087109 
L 195.250428 -295.975271 
L 197.137574 -296.146717 
L 199.024719 -296.279783 
L 200.911864 -296.456461 
L 202.79901 -296.846868 
L 204.686155 -297.318374 
L 206.5733 -297.751136 
L 208.460446 -297.972983 
L 210.347591 -297.615554 
L 212.234736 -296.539156 
L 214.121882 -295.580734 
L 216.009027 -295.050457 
L 217.896173 -294.775502 
L 219.783318 -294.87152 
L 221.670463 -295.296231 
L 223.557609 -295.961638 
L 225.444754 -296.728718 
L 227.331899 -297.466717 
L 229.219045 -297.920837 
L 231.10619 -297.793706 
L 232.993335 -297.446215 
L 234.880481 -297.003938 
L 236.767626 -296.394119 
L 238.654772 -295.612976 
L 240.541917 -295.067363 
L 242.429062 -295.046433 
L 244.316208 -295.301441 
L 246.203353 -295.701994 
L 248.090498 -296.165848 
L 249.977644 -296.6592 
L 251.864789 -296.888386 
L 253.751934 -296.640458 
L 255.63908 -296.337845 
L 257.526225 -296.210871 
L 259.413371 -295.894497 
L 261.300516 -294.68183 
L 263.187661 -293.704311 
L 265.074807 -293.469273 
L 266.961952 -293.336185 
L 268.849097 -293.121201 
L 270.736243 -293.079423 
L 272.623388 -293.258768 
L 274.510533 -293.555298 
L 276.397679 -294.04622 
L 278.284824 -294.690955 
L 280.17197 -295.423075 
L 282.059115 -296.142448 
L 283.94626 -296.72502 
L 285.833406 -297.091201 
L 287.720551 -297.105655 
L 289.607696 -297.022987 
L 291.494842 -296.969727 
L 293.381987 -296.823573 
L 295.269132 -296.5552 
L 297.156278 -296.385809 
L 299.043423 -296.488732 
L 300.930569 -296.71367 
L 302.817714 -297.038872 
L 304.704859 -297.303762 
L 306.592005 -297.214174 
L 308.47915 -296.890894 
L 310.366295 -296.373199 
L 312.253441 -295.929655 
L 314.140586 -295.917519 
L 316.027731 -294.831548 
L 317.914877 -293.854039 
L 319.802022 -292.390753 
L 321.689168 -290.731725 
L 323.576313 -288.851943 
L 325.463458 -286.763537 
L 327.350604 -284.587971 
L 329.237749 -282.521153 
L 331.124894 -280.741478 
L 333.01204 -279.145374 
L 334.899185 -277.450378 
L 336.78633 -275.53042 
L 338.673476 -273.410917 
L 340.560621 -271.133783 
L 342.447767 -268.681183 
L 344.334912 -266.1969 
L 346.222057 -264.06771 
L 348.109203 -262.490079 
L 349.996348 -261.437585 
L 351.883493 -260.848767 
L 353.770639 -260.465621 
L 355.657784 -260.004351 
L 357.544929 -259.421094 
L 359.432075 -258.776191 
L 361.31922 -258.181403 
L 363.206366 -257.850615 
L 365.093511 -257.919442 
L 366.980656 -258.297272 
L 368.867802 -258.785855 
L 370.754947 -259.214593 
L 372.642092 -259.482312 
L 374.529238 -259.528448 
L 376.416383 -259.357114 
L 378.303528 -259.099647 
L 380.190674 -258.918492 
L 382.077819 -258.856283 
L 383.964964 -258.865385 
L 385.85211 -258.89387 
L 387.739255 -258.903891 
L 389.626401 -258.87817 
L 391.513546 -258.809033 
L 393.400691 -258.703017 
L 395.287837 -258.597327 
L 397.174982 -258.596147 
L 399.062127 -258.833518 
L 400.949273 -259.212476 
L 402.836418 -259.453876 
L 404.723563 -259.464748 
L 406.610709 -259.309706 
L 408.497854 -259.044524 
L 410.385 -258.762048 
L 412.272145 -258.542313 
L 414.15929 -258.319591 
L 416.046436 -257.981501 
L 417.933581 -257.523041 
L 419.820726 -256.99633 
L 421.707872 -256.405466 
L 423.595017 -255.767519 
L 425.482162 -255.220406 
L 427.369308 -254.935843 
L 429.256453 -254.927624 
L 431.143599 -255.089036 
L 433.030744 -255.367165 
L 434.917889 -255.795863 
L 436.805035 -256.429318 
L 438.69218 -257.232662 
L 440.579325 -258.085753 
L 442.466471 -258.903944 
L 444.353616 -259.626279 
L 446.240761 -260.132104 
L 448.127907 -260.381032 
L 450.015052 -260.513264 
L 451.902198 -260.678025 
L 453.789343 -260.918103 
L 455.676488 -261.181208 
L 457.563634 -261.303682 
L 459.450779 -261.158715 
L 461.337924 -260.84829 
L 463.22507 -260.581559 
L 465.112215 -260.418057 
L 466.99936 -260.245352 
L 468.886506 -259.951074 
L 470.773651 -259.536781 
L 472.660797 -259.128511 
L 474.547942 -258.867392 
L 476.435087 -258.828192 
L 478.322233 -258.991815 
L 480.209378 -259.304022 
L 482.096523 -259.718244 
L 483.983669 -260.118642 
L 485.870814 -260.363067 
L 487.757959 -260.414682 
L 489.645105 -260.337979 
L 491.53225 -260.208591 
L 493.419396 -260.077112 
L 495.306541 -259.948073 
L 497.193686 -259.785498 
L 499.080832 -259.555762 
L 500.967977 -259.233421 
L 502.855122 -258.844717 
L 504.742268 -258.465206 
L 506.629413 -258.081286 
L 508.516558 -257.617655 
L 510.403704 -257.075915 
L 512.290849 -256.502399 
L 514.177995 -255.887197 
L 516.06514 -255.156451 
L 517.952285 -254.225714 
L 519.839431 -253.027282 
L 521.726576 -251.588511 
L 523.613721 -250.047038 
L 525.500867 -248.5486 
L 527.388012 -247.178486 
L 529.275157 -245.95303 
L 531.162303 -244.851687 
L 533.049448 -243.874664 
L 534.936594 -243.118597 
L 536.823739 -242.770698 
L 538.710884 -242.927845 
L 540.59803 -243.447356 
L 542.485175 -244.134058 
L 544.37232 -244.883672 
L 546.259466 -245.446051 
L 546.259466 -306.966935 
L 546.259466 -306.966935 
L 544.37232 -306.318445 
L 542.485175 -305.408485 
L 540.59803 -304.487533 
L 538.710884 -303.710586 
L 536.823739 -303.36903 
L 534.936594 -303.697329 
L 533.049448 -304.694637 
L 531.162303 -306.167364 
L 529.275157 -307.825248 
L 527.388012 -309.463425 
L 525.500867 -311.10851 
L 523.613721 -312.919876 
L 521.726576 -314.915072 
L 519.839431 -316.826423 
L 517.952285 -318.216262 
L 516.06514 -318.768512 
L 514.177995 -318.514738 
L 512.290849 -317.775803 
L 510.403704 -316.883445 
L 508.516558 -315.966034 
L 506.629413 -314.983007 
L 504.742268 -313.914909 
L 502.855122 -312.876768 
L 500.967977 -311.926148 
L 499.080832 -310.951774 
L 497.193686 -309.888996 
L 495.306541 -308.779531 
L 493.419396 -307.665629 
L 491.53225 -306.534875 
L 489.645105 -305.385847 
L 487.757959 -304.287315 
L 485.870814 -303.26043 
L 483.983669 -302.254006 
L 482.096523 -301.275388 
L 480.209378 -300.454268 
L 478.322233 -299.918351 
L 476.435087 -299.587029 
L 474.547942 -299.282725 
L 472.660797 -298.99464 
L 470.773651 -298.86121 
L 468.886506 -298.919377 
L 466.99936 -299.004234 
L 465.112215 -298.973478 
L 463.22507 -298.881279 
L 461.337924 -298.871245 
L 459.450779 -298.987093 
L 457.563634 -299.179391 
L 455.676488 -299.420149 
L 453.789343 -299.755794 
L 451.902198 -300.208474 
L 450.015052 -300.69682 
L 448.127907 -301.104397 
L 446.240761 -301.332131 
L 444.353616 -301.359518 
L 442.466471 -301.282884 
L 440.579325 -301.184746 
L 438.69218 -301.029115 
L 436.805035 -300.782906 
L 434.917889 -300.479204 
L 433.030744 -300.164579 
L 431.143599 -299.831121 
L 429.256453 -299.432095 
L 427.369308 -299.088828 
L 425.482162 -299.086171 
L 423.595017 -299.519556 
L 421.707872 -300.223234 
L 419.820726 -300.974437 
L 417.933581 -301.638949 
L 416.046436 -302.220283 
L 414.15929 -302.746717 
L 412.272145 -303.224252 
L 410.385 -303.707629 
L 408.497854 -304.271664 
L 406.610709 -304.92754 
L 404.723563 -305.623283 
L 402.836418 -306.225256 
L 400.949273 -306.432115 
L 399.062127 -306.00123 
L 397.174982 -305.099355 
L 395.287837 -304.061619 
L 393.400691 -303.017974 
L 391.513546 -301.945952 
L 389.626401 -300.824163 
L 387.739255 -299.682117 
L 385.85211 -298.587594 
L 383.964964 -297.664453 
L 382.077819 -297.050591 
L 380.190674 -296.744894 
L 378.303528 -296.647272 
L 376.416383 -296.638222 
L 374.529238 -296.46079 
L 372.642092 -295.814433 
L 370.754947 -294.730413 
L 368.867802 -293.50093 
L 366.980656 -292.335196 
L 365.093511 -291.422098 
L 363.206366 -291.014522 
L 361.31922 -291.304818 
L 359.432075 -292.235027 
L 357.544929 -293.568923 
L 355.657784 -295.093949 
L 353.770639 -296.426184 
L 351.883493 -297.052202 
L 349.996348 -296.991413 
L 348.109203 -296.781406 
L 346.222057 -297.002082 
L 344.334912 -298.095565 
L 342.447767 -299.829175 
L 340.560621 -301.430985 
L 338.673476 -302.5404 
L 336.78633 -303.237003 
L 334.899185 -303.598321 
L 333.01204 -303.755705 
L 331.124894 -303.961364 
L 329.237749 -304.372803 
L 327.350604 -304.767175 
L 325.463458 -304.688712 
L 323.576313 -304.03081 
L 321.689168 -303.080198 
L 319.802022 -302.09095 
L 317.914877 -301.222322 
L 316.027731 -300.685336 
L 314.140586 -299.734792 
L 312.253441 -299.107511 
L 310.366295 -298.884365 
L 308.47915 -299.469959 
L 306.592005 -299.874589 
L 304.704859 -299.958483 
L 302.817714 -299.862304 
L 300.930569 -299.369687 
L 299.043423 -298.954075 
L 297.156278 -298.756794 
L 295.269132 -299.159381 
L 293.381987 -300.216512 
L 291.494842 -300.596948 
L 289.607696 -300.169685 
L 287.720551 -299.769122 
L 285.833406 -299.581716 
L 283.94626 -299.315303 
L 282.059115 -298.792077 
L 280.17197 -298.241661 
L 278.284824 -297.647184 
L 276.397679 -297.408781 
L 274.510533 -297.52178 
L 272.623388 -297.824824 
L 270.736243 -298.368542 
L 268.849097 -298.919822 
L 266.961952 -299.406092 
L 265.074807 -299.288902 
L 263.187661 -298.471176 
L 261.300516 -297.870424 
L 259.413371 -298.085214 
L 257.526225 -299.183982 
L 255.63908 -300.281755 
L 253.751934 -300.787408 
L 251.864789 -300.856771 
L 249.977644 -300.652908 
L 248.090498 -300.014615 
L 246.203353 -299.407311 
L 244.316208 -298.912355 
L 242.429062 -298.51281 
L 240.541917 -298.182263 
L 238.654772 -298.340568 
L 236.767626 -299.219969 
L 234.880481 -299.971545 
L 232.993335 -300.418741 
L 231.10619 -300.541426 
L 229.219045 -300.423953 
L 227.331899 -300.12857 
L 225.444754 -299.400897 
L 223.557609 -298.721858 
L 221.670463 -298.105201 
L 219.783318 -297.724383 
L 217.896173 -297.577745 
L 216.009027 -297.87277 
L 214.121882 -298.724214 
L 212.234736 -299.577804 
L 210.347591 -300.482789 
L 208.460446 -300.671502 
L 206.5733 -299.947685 
L 204.686155 -299.38046 
L 202.79901 -298.990768 
L 200.911864 -298.621763 
L 199.024719 -298.171161 
L 197.137574 -298.05739 
L 195.250428 -298.432266 
L 193.363283 -299.181082 
L 191.476137 -300.313379 
L 189.588992 -300.69223 
L 187.701847 -300.248705 
L 185.814701 -299.848113 
L 183.927556 -299.588656 
L 182.040411 -299.385514 
L 180.153265 -299.10401 
L 178.26612 -299.045825 
L 176.378975 -299.296187 
L 174.491829 -299.701522 
L 172.604684 -300.527286 
L 170.717539 -300.883525 
L 168.830393 -300.387356 
L 166.943248 -299.714412 
L 165.056102 -298.922879 
L 163.168957 -297.766606 
L 161.281812 -296.092439 
L 159.394666 -294.355134 
L 157.507521 -292.62301 
L 155.620376 -290.926592 
L 153.73323 -289.258465 
L 151.846085 -287.576302 
L 149.95894 -285.868216 
L 148.071794 -284.093107 
L 146.184649 -282.246872 
L 144.297503 -280.34013 
L 142.410358 -278.380697 
L 140.523213 -276.44367 
L 138.636067 -274.536212 
L 136.748922 -272.616733 
L 134.861777 -270.674164 
L 132.974631 -268.652097 
L 131.087486 -266.54655 
L 129.200341 -264.441734 
L 127.313195 -262.359767 
L 125.42605 -260.275656 
L 123.538904 -258.171932 
L 121.651759 -256.030887 
L 119.764614 -253.849461 
L 117.877468 -251.63367 
L 115.990323 -249.374499 
L 114.103178 -246.980191 
L 112.216032 -244.450294 
L 110.328887 -241.915957 
L 108.441742 -239.383348 
L 106.554596 -236.744878 
L 104.667451 -233.996227 
L 102.780305 -231.250458 
L 100.89316 -228.513981 
L 99.006015 -225.717801 
L 97.118869 -222.856626 
L 95.231724 -219.961111 
L 93.344579 -217.035566 
L 91.457433 -214.0976 
L 89.570288 -211.14282 
L 87.683143 -208.117387 
L 85.795997 -205.036619 
L 83.908852 -202.03058 
L 82.021706 -199.11012 
L 80.134561 -196.261765 
L 78.247416 -193.530006 
L 76.36027 -191.237995 
L 74.473125 -189.576509 
z
" style="stroke: #0000ff; stroke-opacity: 0.2"/>
    </defs>
    <g clip-path="url(#pb1026516bf)">
     <use xlink:href="#m301ef61a37" x="0" y="426.344375" style="fill: #0000ff; fill-opacity: 0.2; stroke: #0000ff; stroke-opacity: 0.2"/>
    </g>
   </g>
   <g id="matplotlib.axis_1">
    <g id="xtick_1">
     <g id="line2d_1">
      <defs>
       <path id="m3aeac69a2a" d="M 0 0 
L 0 3.5 
" style="stroke: #000000; stroke-width: 0.8"/>
      </defs>
      <g>
       <use xlink:href="#m3aeac69a2a" x="74.473125" y="375.23875" style="stroke: #000000; stroke-width: 0.8"/>
      </g>
     </g>
     <g id="text_1">
      <!-- 0 -->
      <g transform="translate(69.383125 394.39625) scale(0.16 -0.16)">
       <defs>
        <path id="DejaVuSans-30" d="M 2034 4250 
Q 1547 4250 1301 3770 
Q 1056 3291 1056 2328 
Q 1056 1369 1301 889 
Q 1547 409 2034 409 
Q 2525 409 2770 889 
Q 3016 1369 3016 2328 
Q 3016 3291 2770 3770 
Q 2525 4250 2034 4250 
z
M 2034 4750 
Q 2819 4750 3233 4129 
Q 3647 3509 3647 2328 
Q 3647 1150 3233 529 
Q 2819 -91 2034 -91 
Q 1250 -91 836 529 
Q 422 1150 422 2328 
Q 422 3509 836 4129 
Q 1250 4750 2034 4750 
z
" transform="scale(0.015625)"/>
       </defs>
       <use xlink:href="#DejaVuSans-30"/>
      </g>
     </g>
    </g>
    <g id="xtick_2">
     <g id="line2d_2">
      <g>
       <use xlink:href="#m3aeac69a2a" x="168.830393" y="375.23875" style="stroke: #000000; stroke-width: 0.8"/>
      </g>
     </g>
     <g id="text_2">
      <!-- 50 -->
      <g transform="translate(158.650393 394.39625) scale(0.16 -0.16)">
       <defs>
        <path id="DejaVuSans-35" d="M 691 4666 
L 3169 4666 
L 3169 4134 
L 1269 4134 
L 1269 2991 
Q 1406 3038 1543 3061 
Q 1681 3084 1819 3084 
Q 2600 3084 3056 2656 
Q 3513 2228 3513 1497 
Q 3513 744 3044 326 
Q 2575 -91 1722 -91 
Q 1428 -91 1123 -41 
Q 819 9 494 109 
L 494 744 
Q 775 591 1075 516 
Q 1375 441 1709 441 
Q 2250 441 2565 725 
Q 2881 1009 2881 1497 
Q 2881 1984 2565 2268 
Q 2250 2553 1709 2553 
Q 1456 2553 1204 2497 
Q 953 2441 691 2322 
L 691 4666 
z
" transform="scale(0.015625)"/>
       </defs>
       <use xlink:href="#DejaVuSans-35"/>
       <use xlink:href="#DejaVuSans-30" x="63.623047"/>
      </g>
     </g>
    </g>
    <g id="xtick_3">
     <g id="line2d_3">
      <g>
       <use xlink:href="#m3aeac69a2a" x="263.187661" y="375.23875" style="stroke: #000000; stroke-width: 0.8"/>
      </g>
     </g>
     <g id="text_3">
      <!-- 100 -->
      <g transform="translate(247.917661 394.39625) scale(0.16 -0.16)">
       <defs>
        <path id="DejaVuSans-31" d="M 794 531 
L 1825 531 
L 1825 4091 
L 703 3866 
L 703 4441 
L 1819 4666 
L 2450 4666 
L 2450 531 
L 3481 531 
L 3481 0 
L 794 0 
L 794 531 
z
" transform="scale(0.015625)"/>
       </defs>
       <use xlink:href="#DejaVuSans-31"/>
       <use xlink:href="#DejaVuSans-30" x="63.623047"/>
       <use xlink:href="#DejaVuSans-30" x="127.246094"/>
      </g>
     </g>
    </g>
    <g id="xtick_4">
     <g id="line2d_4">
      <g>
       <use xlink:href="#m3aeac69a2a" x="357.544929" y="375.23875" style="stroke: #000000; stroke-width: 0.8"/>
      </g>
     </g>
     <g id="text_4">
      <!-- 150 -->
      <g transform="translate(342.274929 394.39625) scale(0.16 -0.16)">
       <use xlink:href="#DejaVuSans-31"/>
       <use xlink:href="#DejaVuSans-35" x="63.623047"/>
       <use xlink:href="#DejaVuSans-30" x="127.246094"/>
      </g>
     </g>
    </g>
    <g id="xtick_5">
     <g id="line2d_5">
      <g>
       <use xlink:href="#m3aeac69a2a" x="451.902198" y="375.23875" style="stroke: #000000; stroke-width: 0.8"/>
      </g>
     </g>
     <g id="text_5">
      <!-- 200 -->
      <g transform="translate(436.632198 394.39625) scale(0.16 -0.16)">
       <defs>
        <path id="DejaVuSans-32" d="M 1228 531 
L 3431 531 
L 3431 0 
L 469 0 
L 469 531 
Q 828 903 1448 1529 
Q 2069 2156 2228 2338 
Q 2531 2678 2651 2914 
Q 2772 3150 2772 3378 
Q 2772 3750 2511 3984 
Q 2250 4219 1831 4219 
Q 1534 4219 1204 4116 
Q 875 4013 500 3803 
L 500 4441 
Q 881 4594 1212 4672 
Q 1544 4750 1819 4750 
Q 2544 4750 2975 4387 
Q 3406 4025 3406 3419 
Q 3406 3131 3298 2873 
Q 3191 2616 2906 2266 
Q 2828 2175 2409 1742 
Q 1991 1309 1228 531 
z
" transform="scale(0.015625)"/>
       </defs>
       <use xlink:href="#DejaVuSans-32"/>
       <use xlink:href="#DejaVuSans-30" x="63.623047"/>
       <use xlink:href="#DejaVuSans-30" x="127.246094"/>
      </g>
     </g>
    </g>
    <g id="xtick_6">
     <g id="line2d_6">
      <g>
       <use xlink:href="#m3aeac69a2a" x="546.259466" y="375.23875" style="stroke: #000000; stroke-width: 0.8"/>
      </g>
     </g>
     <g id="text_6">
      <!-- 250 -->
      <g transform="translate(530.989466 394.39625) scale(0.16 -0.16)">
       <use xlink:href="#DejaVuSans-32"/>
       <use xlink:href="#DejaVuSans-35" x="63.623047"/>
       <use xlink:href="#DejaVuSans-30" x="127.246094"/>
      </g>
     </g>
    </g>
    <g id="text_7">
     <!-- Steps -->
     <g transform="translate(286.128149 415.400937) scale(0.18 -0.18)">
      <defs>
       <path id="DejaVuSans-53" d="M 3425 4513 
L 3425 3897 
Q 3066 4069 2747 4153 
Q 2428 4238 2131 4238 
Q 1616 4238 1336 4038 
Q 1056 3838 1056 3469 
Q 1056 3159 1242 3001 
Q 1428 2844 1947 2747 
L 2328 2669 
Q 3034 2534 3370 2195 
Q 3706 1856 3706 1288 
Q 3706 609 3251 259 
Q 2797 -91 1919 -91 
Q 1588 -91 1214 -16 
Q 841 59 441 206 
L 441 856 
Q 825 641 1194 531 
Q 1563 422 1919 422 
Q 2459 422 2753 634 
Q 3047 847 3047 1241 
Q 3047 1584 2836 1778 
Q 2625 1972 2144 2069 
L 1759 2144 
Q 1053 2284 737 2584 
Q 422 2884 422 3419 
Q 422 4038 858 4394 
Q 1294 4750 2059 4750 
Q 2388 4750 2728 4690 
Q 3069 4631 3425 4513 
z
" transform="scale(0.015625)"/>
       <path id="DejaVuSans-74" d="M 1172 4494 
L 1172 3500 
L 2356 3500 
L 2356 3053 
L 1172 3053 
L 1172 1153 
Q 1172 725 1289 603 
Q 1406 481 1766 481 
L 2356 481 
L 2356 0 
L 1766 0 
Q 1100 0 847 248 
Q 594 497 594 1153 
L 594 3053 
L 172 3053 
L 172 3500 
L 594 3500 
L 594 4494 
L 1172 4494 
z
" transform="scale(0.015625)"/>
       <path id="DejaVuSans-65" d="M 3597 1894 
L 3597 1613 
L 953 1613 
Q 991 1019 1311 708 
Q 1631 397 2203 397 
Q 2534 397 2845 478 
Q 3156 559 3463 722 
L 3463 178 
Q 3153 47 2828 -22 
Q 2503 -91 2169 -91 
Q 1331 -91 842 396 
Q 353 884 353 1716 
Q 353 2575 817 3079 
Q 1281 3584 2069 3584 
Q 2775 3584 3186 3129 
Q 3597 2675 3597 1894 
z
M 3022 2063 
Q 3016 2534 2758 2815 
Q 2500 3097 2075 3097 
Q 1594 3097 1305 2825 
Q 1016 2553 972 2059 
L 3022 2063 
z
" transform="scale(0.015625)"/>
       <path id="DejaVuSans-70" d="M 1159 525 
L 1159 -1331 
L 581 -1331 
L 581 3500 
L 1159 3500 
L 1159 2969 
Q 1341 3281 1617 3432 
Q 1894 3584 2278 3584 
Q 2916 3584 3314 3078 
Q 3713 2572 3713 1747 
Q 3713 922 3314 415 
Q 2916 -91 2278 -91 
Q 1894 -91 1617 61 
Q 1341 213 1159 525 
z
M 3116 1747 
Q 3116 2381 2855 2742 
Q 2594 3103 2138 3103 
Q 1681 3103 1420 2742 
Q 1159 2381 1159 1747 
Q 1159 1113 1420 752 
Q 1681 391 2138 391 
Q 2594 391 2855 752 
Q 3116 1113 3116 1747 
z
" transform="scale(0.015625)"/>
       <path id="DejaVuSans-73" d="M 2834 3397 
L 2834 2853 
Q 2591 2978 2328 3040 
Q 2066 3103 1784 3103 
Q 1356 3103 1142 2972 
Q 928 2841 928 2578 
Q 928 2378 1081 2264 
Q 1234 2150 1697 2047 
L 1894 2003 
Q 2506 1872 2764 1633 
Q 3022 1394 3022 966 
Q 3022 478 2636 193 
Q 2250 -91 1575 -91 
Q 1294 -91 989 -36 
Q 684 19 347 128 
L 347 722 
Q 666 556 975 473 
Q 1284 391 1588 391 
Q 1994 391 2212 530 
Q 2431 669 2431 922 
Q 2431 1156 2273 1281 
Q 2116 1406 1581 1522 
L 1381 1569 
Q 847 1681 609 1914 
Q 372 2147 372 2553 
Q 372 3047 722 3315 
Q 1072 3584 1716 3584 
Q 2034 3584 2315 3537 
Q 2597 3491 2834 3397 
z
" transform="scale(0.015625)"/>
      </defs>
      <use xlink:href="#DejaVuSans-53"/>
      <use xlink:href="#DejaVuSans-74" x="63.476562"/>
      <use xlink:href="#DejaVuSans-65" x="102.685547"/>
      <use xlink:href="#DejaVuSans-70" x="164.208984"/>
      <use xlink:href="#DejaVuSans-73" x="227.685547"/>
     </g>
    </g>
   </g>
   <g id="matplotlib.axis_2">
    <g id="ytick_1">
     <g id="line2d_7">
      <defs>
       <path id="m4ec3e0523e" d="M 0 0 
L -3.5 0 
" style="stroke: #000000; stroke-width: 0.8"/>
      </defs>
      <g>
       <use xlink:href="#m4ec3e0523e" x="74.473125" y="375.23875" style="stroke: #000000; stroke-width: 0.8"/>
      </g>
     </g>
     <g id="text_8">
      <!-- −0.6 -->
      <g transform="translate(28.620625 381.3175) scale(0.16 -0.16)">
       <defs>
        <path id="DejaVuSans-2212" d="M 678 2272 
L 4684 2272 
L 4684 1741 
L 678 1741 
L 678 2272 
z
" transform="scale(0.015625)"/>
        <path id="DejaVuSans-2e" d="M 684 794 
L 1344 794 
L 1344 0 
L 684 0 
L 684 794 
z
" transform="scale(0.015625)"/>
        <path id="DejaVuSans-36" d="M 2113 2584 
Q 1688 2584 1439 2293 
Q 1191 2003 1191 1497 
Q 1191 994 1439 701 
Q 1688 409 2113 409 
Q 2538 409 2786 701 
Q 3034 994 3034 1497 
Q 3034 2003 2786 2293 
Q 2538 2584 2113 2584 
z
M 3366 4563 
L 3366 3988 
Q 3128 4100 2886 4159 
Q 2644 4219 2406 4219 
Q 1781 4219 1451 3797 
Q 1122 3375 1075 2522 
Q 1259 2794 1537 2939 
Q 1816 3084 2150 3084 
Q 2853 3084 3261 2657 
Q 3669 2231 3669 1497 
Q 3669 778 3244 343 
Q 2819 -91 2113 -91 
Q 1303 -91 875 529 
Q 447 1150 447 2328 
Q 447 3434 972 4092 
Q 1497 4750 2381 4750 
Q 2619 4750 2861 4703 
Q 3103 4656 3366 4563 
z
" transform="scale(0.015625)"/>
       </defs>
       <use xlink:href="#DejaVuSans-2212"/>
       <use xlink:href="#DejaVuSans-30" x="83.789062"/>
       <use xlink:href="#DejaVuSans-2e" x="147.412109"/>
       <use xlink:href="#DejaVuSans-36" x="179.199219"/>
      </g>
     </g>
    </g>
    <g id="ytick_2">
     <g id="line2d_8">
      <g>
       <use xlink:href="#m4ec3e0523e" x="74.473125" y="329.99375" style="stroke: #000000; stroke-width: 0.8"/>
      </g>
     </g>
     <g id="text_9">
      <!-- −0.4 -->
      <g transform="translate(28.620625 336.0725) scale(0.16 -0.16)">
       <defs>
        <path id="DejaVuSans-34" d="M 2419 4116 
L 825 1625 
L 2419 1625 
L 2419 4116 
z
M 2253 4666 
L 3047 4666 
L 3047 1625 
L 3713 1625 
L 3713 1100 
L 3047 1100 
L 3047 0 
L 2419 0 
L 2419 1100 
L 313 1100 
L 313 1709 
L 2253 4666 
z
" transform="scale(0.015625)"/>
       </defs>
       <use xlink:href="#DejaVuSans-2212"/>
       <use xlink:href="#DejaVuSans-30" x="83.789062"/>
       <use xlink:href="#DejaVuSans-2e" x="147.412109"/>
       <use xlink:href="#DejaVuSans-34" x="179.199219"/>
      </g>
     </g>
    </g>
    <g id="ytick_3">
     <g id="line2d_9">
      <g>
       <use xlink:href="#m4ec3e0523e" x="74.473125" y="284.74875" style="stroke: #000000; stroke-width: 0.8"/>
      </g>
     </g>
     <g id="text_10">
      <!-- −0.2 -->
      <g transform="translate(28.620625 290.8275) scale(0.16 -0.16)">
       <use xlink:href="#DejaVuSans-2212"/>
       <use xlink:href="#DejaVuSans-30" x="83.789062"/>
       <use xlink:href="#DejaVuSans-2e" x="147.412109"/>
       <use xlink:href="#DejaVuSans-32" x="179.199219"/>
      </g>
     </g>
    </g>
    <g id="ytick_4">
     <g id="line2d_10">
      <g>
       <use xlink:href="#m4ec3e0523e" x="74.473125" y="239.50375" style="stroke: #000000; stroke-width: 0.8"/>
      </g>
     </g>
     <g id="text_11">
      <!-- 0.0 -->
      <g transform="translate(42.028125 245.5825) scale(0.16 -0.16)">
       <use xlink:href="#DejaVuSans-30"/>
       <use xlink:href="#DejaVuSans-2e" x="63.623047"/>
       <use xlink:href="#DejaVuSans-30" x="95.410156"/>
      </g>
     </g>
    </g>
    <g id="ytick_5">
     <g id="line2d_11">
      <g>
       <use xlink:href="#m4ec3e0523e" x="74.473125" y="194.25875" style="stroke: #000000; stroke-width: 0.8"/>
      </g>
     </g>
     <g id="text_12">
      <!-- 0.2 -->
      <g transform="translate(42.028125 200.3375) scale(0.16 -0.16)">
       <use xlink:href="#DejaVuSans-30"/>
       <use xlink:href="#DejaVuSans-2e" x="63.623047"/>
       <use xlink:href="#DejaVuSans-32" x="95.410156"/>
      </g>
     </g>
    </g>
    <g id="ytick_6">
     <g id="line2d_12">
      <g>
       <use xlink:href="#m4ec3e0523e" x="74.473125" y="149.01375" style="stroke: #000000; stroke-width: 0.8"/>
      </g>
     </g>
     <g id="text_13">
      <!-- 0.4 -->
      <g transform="translate(42.028125 155.0925) scale(0.16 -0.16)">
       <use xlink:href="#DejaVuSans-30"/>
       <use xlink:href="#DejaVuSans-2e" x="63.623047"/>
       <use xlink:href="#DejaVuSans-34" x="95.410156"/>
      </g>
     </g>
    </g>
    <g id="ytick_7">
     <g id="line2d_13">
      <g>
       <use xlink:href="#m4ec3e0523e" x="74.473125" y="103.76875" style="stroke: #000000; stroke-width: 0.8"/>
      </g>
     </g>
     <g id="text_14">
      <!-- 0.6 -->
      <g transform="translate(42.028125 109.8475) scale(0.16 -0.16)">
       <use xlink:href="#DejaVuSans-30"/>
       <use xlink:href="#DejaVuSans-2e" x="63.623047"/>
       <use xlink:href="#DejaVuSans-36" x="95.410156"/>
      </g>
     </g>
    </g>
    <g id="ytick_8">
     <g id="line2d_14">
      <g>
       <use xlink:href="#m4ec3e0523e" x="74.473125" y="58.52375" style="stroke: #000000; stroke-width: 0.8"/>
      </g>
     </g>
     <g id="text_15">
      <!-- 0.8 -->
      <g transform="translate(42.028125 64.6025) scale(0.16 -0.16)">
       <defs>
        <path id="DejaVuSans-38" d="M 2034 2216 
Q 1584 2216 1326 1975 
Q 1069 1734 1069 1313 
Q 1069 891 1326 650 
Q 1584 409 2034 409 
Q 2484 409 2743 651 
Q 3003 894 3003 1313 
Q 3003 1734 2745 1975 
Q 2488 2216 2034 2216 
z
M 1403 2484 
Q 997 2584 770 2862 
Q 544 3141 544 3541 
Q 544 4100 942 4425 
Q 1341 4750 2034 4750 
Q 2731 4750 3128 4425 
Q 3525 4100 3525 3541 
Q 3525 3141 3298 2862 
Q 3072 2584 2669 2484 
Q 3125 2378 3379 2068 
Q 3634 1759 3634 1313 
Q 3634 634 3220 271 
Q 2806 -91 2034 -91 
Q 1263 -91 848 271 
Q 434 634 434 1313 
Q 434 1759 690 2068 
Q 947 2378 1403 2484 
z
M 1172 3481 
Q 1172 3119 1398 2916 
Q 1625 2713 2034 2713 
Q 2441 2713 2670 2916 
Q 2900 3119 2900 3481 
Q 2900 3844 2670 4047 
Q 2441 4250 2034 4250 
Q 1625 4250 1398 4047 
Q 1172 3844 1172 3481 
z
" transform="scale(0.015625)"/>
       </defs>
       <use xlink:href="#DejaVuSans-30"/>
       <use xlink:href="#DejaVuSans-2e" x="63.623047"/>
       <use xlink:href="#DejaVuSans-38" x="95.410156"/>
      </g>
     </g>
    </g>
    <g id="ytick_9">
     <g id="line2d_15">
      <g>
       <use xlink:href="#m4ec3e0523e" x="74.473125" y="13.27875" style="stroke: #000000; stroke-width: 0.8"/>
      </g>
     </g>
     <g id="text_16">
      <!-- 1.0 -->
      <g transform="translate(42.028125 19.3575) scale(0.16 -0.16)">
       <use xlink:href="#DejaVuSans-31"/>
       <use xlink:href="#DejaVuSans-2e" x="63.623047"/>
       <use xlink:href="#DejaVuSans-30" x="95.410156"/>
      </g>
     </g>
    </g>
    <g id="text_17">
     <!-- Value -->
     <g transform="translate(20.877187 218.975) rotate(-90) scale(0.18 -0.18)">
      <defs>
       <path id="DejaVuSans-56" d="M 1831 0 
L 50 4666 
L 709 4666 
L 2188 738 
L 3669 4666 
L 4325 4666 
L 2547 0 
L 1831 0 
z
" transform="scale(0.015625)"/>
       <path id="DejaVuSans-61" d="M 2194 1759 
Q 1497 1759 1228 1600 
Q 959 1441 959 1056 
Q 959 750 1161 570 
Q 1363 391 1709 391 
Q 2188 391 2477 730 
Q 2766 1069 2766 1631 
L 2766 1759 
L 2194 1759 
z
M 3341 1997 
L 3341 0 
L 2766 0 
L 2766 531 
Q 2569 213 2275 61 
Q 1981 -91 1556 -91 
Q 1019 -91 701 211 
Q 384 513 384 1019 
Q 384 1609 779 1909 
Q 1175 2209 1959 2209 
L 2766 2209 
L 2766 2266 
Q 2766 2663 2505 2880 
Q 2244 3097 1772 3097 
Q 1472 3097 1187 3025 
Q 903 2953 641 2809 
L 641 3341 
Q 956 3463 1253 3523 
Q 1550 3584 1831 3584 
Q 2591 3584 2966 3190 
Q 3341 2797 3341 1997 
z
" transform="scale(0.015625)"/>
       <path id="DejaVuSans-6c" d="M 603 4863 
L 1178 4863 
L 1178 0 
L 603 0 
L 603 4863 
z
" transform="scale(0.015625)"/>
       <path id="DejaVuSans-75" d="M 544 1381 
L 544 3500 
L 1119 3500 
L 1119 1403 
Q 1119 906 1312 657 
Q 1506 409 1894 409 
Q 2359 409 2629 706 
Q 2900 1003 2900 1516 
L 2900 3500 
L 3475 3500 
L 3475 0 
L 2900 0 
L 2900 538 
Q 2691 219 2414 64 
Q 2138 -91 1772 -91 
Q 1169 -91 856 284 
Q 544 659 544 1381 
z
M 1991 3584 
L 1991 3584 
z
" transform="scale(0.015625)"/>
      </defs>
      <use xlink:href="#DejaVuSans-56"/>
      <use xlink:href="#DejaVuSans-61" x="60.658203"/>
      <use xlink:href="#DejaVuSans-6c" x="121.9375"/>
      <use xlink:href="#DejaVuSans-75" x="149.720703"/>
      <use xlink:href="#DejaVuSans-65" x="213.099609"/>
     </g>
    </g>
   </g>
   <g id="line2d_16">
    <path d="M 74.473125 148.175438 
L 76.36027 142.479899 
L 78.247416 100.39175 
L 80.134561 93.287606 
L 82.021706 82.861755 
L 83.908852 80.052508 
L 85.795997 69.700239 
L 87.683143 68.562491 
L 89.570288 70.499962 
L 91.457433 70.118007 
L 93.344579 65.352393 
L 95.231724 64.13005 
L 97.118869 59.861236 
L 99.006015 59.248473 
L 100.89316 58.985371 
L 102.780305 58.522447 
L 104.667451 55.364319 
L 106.554596 55.711304 
L 108.441742 61.432506 
L 110.328887 61.566324 
L 112.216032 56.834668 
L 114.103178 56.794372 
L 115.990323 61.230256 
L 117.877468 61.893132 
L 119.764614 62.356795 
L 121.651759 63.009134 
L 123.538904 67.367493 
L 125.42605 67.451034 
L 127.313195 63.708429 
L 129.200341 62.436028 
L 131.087486 56.775919 
L 132.974631 56.342469 
L 134.861777 58.796089 
L 136.748922 58.57404 
L 138.636067 54.476367 
L 140.523213 53.569343 
L 142.410358 50.964293 
L 144.297503 50.915493 
L 146.184649 53.158491 
L 148.071794 53.474068 
L 149.95894 53.562456 
L 151.846085 53.437555 
L 153.73323 52.425939 
L 155.620376 51.977248 
L 157.507521 49.671573 
L 159.394666 49.036608 
L 161.281812 46.656914 
L 163.168957 49.696738 
L 165.056102 74.548891 
L 166.943248 79.631505 
L 168.830393 92.368071 
L 170.717539 102.64144 
L 172.604684 165.841056 
L 174.491829 171.120416 
L 176.378975 146.940491 
L 178.26612 140.785662 
L 180.153265 119.492786 
L 182.040411 116.462463 
L 183.927556 115.348855 
L 185.814701 115.34799 
L 187.701847 116.461472 
L 189.588992 122.020352 
L 191.476137 161.98624 
L 193.363283 163.798002 
L 195.250428 137.218596 
L 197.137574 131.365833 
L 199.024719 114.69626 
L 200.911864 111.841005 
L 202.79901 107.394797 
L 204.686155 105.92622 
L 206.5733 99.53401 
L 208.460446 107.624068 
L 210.347591 173.808157 
L 212.234736 180.920784 
L 214.121882 167.296637 
L 216.009027 160.956575 
L 217.896173 127.733003 
L 219.783318 120.360385 
L 221.670463 99.082442 
L 223.557609 95.406685 
L 225.444754 89.514468 
L 227.331899 92.94109 
L 229.219045 124.15979 
L 231.10619 130.650788 
L 232.993335 147.41518 
L 234.880481 152.356483 
L 236.767626 172.111826 
L 238.654772 168.916755 
L 240.541917 125.547057 
L 242.429062 118.264706 
L 244.316208 107.810821 
L 246.203353 105.402668 
L 248.090498 98.052426 
L 249.977644 101.238762 
L 251.864789 132.143599 
L 253.751934 138.817316 
L 255.63908 157.241486 
L 257.526225 160.729045 
L 259.413371 168.078127 
L 261.300516 162.808792 
L 263.187661 116.528009 
L 265.074807 114.536059 
L 266.961952 146.093088 
L 268.849097 149.292299 
L 270.736243 141.361917 
L 272.623388 138.30868 
L 274.510533 123.674491 
L 276.397679 118.848647 
L 278.284824 97.811071 
L 280.17197 95.485559 
L 282.059115 99.335703 
L 283.94626 102.508016 
L 285.833406 122.096498 
L 287.720551 123.709639 
L 289.607696 116.059655 
L 291.494842 120.515112 
L 293.381987 161.091883 
L 295.269132 161.561611 
L 297.156278 124.450596 
L 299.043423 117.941418 
L 300.930569 106.960228 
L 302.817714 108.298541 
L 304.704859 129.166942 
L 306.592005 135.009934 
L 308.47915 157.312803 
L 310.366295 154.796551 
L 312.253441 113.90171 
L 314.140586 108.366183 
L 316.027731 145.763387 
L 317.914877 145.483466 
L 319.802022 144.184865 
L 321.689168 148.012846 
L 323.576313 157.806543 
L 325.463458 174.259044 
L 327.350604 192.927311 
L 329.237749 194.817215 
L 331.124894 181.785456 
L 333.01204 177.297528 
L 334.899185 186.101737 
L 338.673476 215.420016 
L 340.560621 232.456354 
L 342.447767 252.557864 
L 344.334912 244.867662 
L 346.222057 206.567615 
L 348.109203 176.060369 
L 349.996348 159.999493 
L 351.883493 160.949848 
L 353.770639 184.773516 
L 355.657784 201.63195 
L 357.544929 202.532694 
L 359.432075 197.215323 
L 361.31922 181.605364 
L 363.206366 153.088905 
L 365.093511 126.739492 
L 366.980656 111.400294 
L 368.867802 107.041981 
L 370.754947 109.525899 
L 372.642092 120.847518 
L 374.529238 141.469108 
L 376.416383 154.877523 
L 378.303528 154.375431 
L 380.190674 146.814283 
L 382.077819 137.93196 
L 383.964964 127.393127 
L 385.85211 120.681907 
L 387.739255 118.695408 
L 389.626401 118.974313 
L 391.513546 120.792737 
L 393.400691 122.302804 
L 395.287837 121.253287 
L 397.174982 116.393038 
L 399.062127 115.014015 
L 400.949273 131.845035 
L 402.836418 153.381297 
L 404.723563 163.475861 
L 406.610709 167.12128 
L 408.497854 167.88872 
L 410.385 164.288352 
L 412.272145 161.483594 
L 414.15929 164.826569 
L 416.046436 170.480164 
L 417.933581 174.556588 
L 419.820726 179.173124 
L 421.707872 183.374536 
L 423.595017 180.516432 
L 425.482162 166.497771 
L 427.369308 146.202721 
L 429.256453 135.559604 
L 431.143599 134.442114 
L 433.030744 132.41641 
L 436.805035 121.874671 
L 438.69218 120.549642 
L 440.579325 122.876989 
L 442.466471 124.214888 
L 444.353616 127.885584 
L 446.240761 139.592567 
L 448.127907 150.524115 
L 450.015052 154.584835 
L 451.902198 153.256029 
L 453.789343 149.306769 
L 455.676488 146.38483 
L 457.563634 151.664408 
L 459.450779 157.5709 
L 461.337924 156.524352 
L 463.22507 149.444898 
L 465.112215 147.392336 
L 466.99936 153.061786 
L 468.886506 159.521732 
L 470.773651 158.184641 
L 472.660797 150.026941 
L 474.547942 143.198208 
L 476.435087 137.956432 
L 478.322233 131.318908 
L 480.209378 119.624558 
L 482.096523 110.886392 
L 483.983669 111.09648 
L 485.870814 115.970913 
L 487.757959 118.565689 
L 489.645105 117.768597 
L 491.53225 117.652161 
L 493.419396 117.777714 
L 495.306541 117.383149 
L 497.193686 118.706711 
L 499.080832 122.184273 
L 500.967977 127.019551 
L 502.855122 126.10687 
L 504.742268 121.580578 
L 506.629413 124.133201 
L 508.516558 129.218043 
L 510.403704 130.890638 
L 512.290849 131.718011 
L 514.177995 140.408696 
L 516.06514 161.918247 
L 517.952285 191.71373 
L 519.839431 219.282704 
L 521.726576 232.861334 
L 523.613721 232.110827 
L 525.500867 224.950975 
L 527.388012 220.518721 
L 529.275157 220.29031 
L 531.162303 218.110978 
L 533.049448 207.433218 
L 534.936594 185.395621 
L 536.823739 154.762128 
L 538.710884 126.670169 
L 540.59803 113.871448 
L 542.485175 109.163344 
L 544.37232 103.848723 
L 546.259466 100.787001 
L 546.259466 100.787001 
" clip-path="url(#pb1026516bf)" style="fill: none; stroke: #008000; stroke-width: 2; stroke-linecap: square"/>
   </g>
   <g id="line2d_17">
    <path d="M 74.473125 239.565089 
L 76.36027 237.894493 
L 78.247416 235.58983 
L 82.021706 229.980726 
L 87.683143 220.96788 
L 93.344579 212.136889 
L 102.780305 197.746222 
L 108.441742 189.559512 
L 115.990323 179.539495 
L 121.651759 172.708823 
L 125.42605 168.541089 
L 142.410358 150.351542 
L 146.184649 146.479147 
L 151.846085 141.066583 
L 161.281812 132.463576 
L 163.168957 130.796337 
L 165.056102 129.438674 
L 166.943248 128.403297 
L 168.830393 127.564901 
L 170.717539 126.970598 
L 172.604684 127.116505 
L 174.491829 127.934936 
L 176.378975 128.549263 
L 178.26612 128.851994 
L 180.153265 128.876757 
L 189.588992 127.736865 
L 191.476137 128.020396 
L 193.363283 128.710279 
L 195.250428 129.140607 
L 197.137574 129.242322 
L 199.024719 129.118903 
L 202.79901 128.425557 
L 208.460446 127.022133 
L 210.347591 127.295203 
L 214.121882 129.191901 
L 216.009027 129.882762 
L 217.896173 130.167752 
L 219.783318 130.046424 
L 221.670463 129.643659 
L 225.444754 128.279568 
L 227.331899 127.546732 
L 229.219045 127.17198 
L 231.10619 127.176809 
L 232.993335 127.411897 
L 234.880481 127.856633 
L 236.767626 128.537331 
L 238.654772 129.367603 
L 240.541917 129.719562 
L 242.429062 129.564754 
L 244.316208 129.237477 
L 248.090498 128.254143 
L 249.977644 127.688321 
L 251.864789 127.471797 
L 253.751934 127.630442 
L 255.63908 128.034575 
L 259.413371 129.354519 
L 261.300516 130.068248 
L 263.187661 130.256631 
L 265.074807 129.965288 
L 266.961952 129.973236 
L 270.736243 130.620393 
L 272.623388 130.802579 
L 274.510533 130.805836 
L 276.397679 130.616875 
L 278.284824 130.175306 
L 282.059115 128.877113 
L 283.94626 128.324214 
L 285.833406 128.007916 
L 289.607696 127.748039 
L 291.494842 127.561038 
L 293.381987 127.824333 
L 295.269132 128.487084 
L 297.156278 128.773074 
L 299.043423 128.622972 
L 304.704859 127.713253 
L 306.592005 127.799994 
L 308.47915 128.163948 
L 310.366295 128.715593 
L 312.253441 128.825792 
L 314.140586 128.51822 
L 316.027731 128.585933 
L 319.802022 129.103523 
L 321.689168 129.438413 
L 323.576313 129.902999 
L 325.463458 130.618251 
L 327.350604 131.666802 
L 329.237749 132.897397 
L 331.124894 133.992954 
L 334.899185 135.820026 
L 336.78633 136.960663 
L 338.673476 138.368717 
L 340.560621 140.061991 
L 344.334912 144.198143 
L 346.222057 145.809479 
L 348.109203 146.708633 
L 349.996348 147.129876 
L 351.883493 147.393891 
L 353.770639 147.898473 
L 355.657784 148.795225 
L 359.432075 150.838766 
L 361.31922 151.601265 
L 363.206366 151.911806 
L 365.093511 151.673605 
L 366.980656 151.028141 
L 370.754947 149.371872 
L 372.642092 148.696003 
L 374.529238 148.349756 
L 376.416383 148.346707 
L 380.190674 148.512682 
L 382.077819 148.390938 
L 383.964964 148.079456 
L 387.739255 147.051371 
L 393.400691 145.483879 
L 397.174982 144.496624 
L 399.062127 143.927001 
L 400.949273 143.522079 
L 402.836418 143.504809 
L 404.723563 143.80036 
L 412.272145 145.461093 
L 416.046436 146.243483 
L 419.820726 147.358992 
L 423.595017 148.700838 
L 425.482162 149.191087 
L 427.369308 149.332039 
L 429.256453 149.164516 
L 433.030744 148.578503 
L 436.805035 147.738263 
L 442.466471 146.250961 
L 444.353616 145.851477 
L 446.240761 145.612258 
L 448.127907 145.60166 
L 455.676488 146.043697 
L 459.450779 146.271471 
L 463.22507 146.612956 
L 466.99936 146.719582 
L 472.660797 147.2828 
L 474.547942 147.269316 
L 476.435087 147.136764 
L 478.322233 146.889292 
L 480.209378 146.46523 
L 489.645105 143.482462 
L 497.193686 141.507128 
L 500.967977 140.764591 
L 510.403704 139.364695 
L 514.177995 139.143408 
L 516.06514 139.381894 
L 517.952285 140.123387 
L 519.839431 141.417523 
L 527.388012 148.023419 
L 531.162303 150.83485 
L 533.049448 152.059725 
L 534.936594 152.936412 
L 536.823739 153.274511 
L 538.710884 153.025159 
L 540.59803 152.376931 
L 544.37232 150.743317 
L 546.259466 150.137882 
L 546.259466 150.137882 
" clip-path="url(#pb1026516bf)" style="fill: none; stroke: #0000ff; stroke-width: 2; stroke-linecap: square"/>
   </g>
   <g id="line2d_18">
    <path d="M 316.027731 375.23875 
L 316.027731 13.27875 
" clip-path="url(#pb1026516bf)" style="fill: none; stroke-dasharray: 3,4.95; stroke-dashoffset: 0; stroke: #ff0000; stroke-width: 3"/>
   </g>
   <g id="patch_3">
    <path d="M 74.473125 375.23875 
L 74.473125 13.27875 
" style="fill: none; stroke: #000000; stroke-width: 0.8; stroke-linejoin: miter; stroke-linecap: square"/>
   </g>
   <g id="patch_4">
    <path d="M 548.146611 375.23875 
L 548.146611 13.27875 
" style="fill: none; stroke: #000000; stroke-width: 0.8; stroke-linejoin: miter; stroke-linecap: square"/>
   </g>
   <g id="patch_5">
    <path d="M 74.473125 375.23875 
L 548.146611 375.23875 
" style="fill: none; stroke: #000000; stroke-width: 0.8; stroke-linejoin: miter; stroke-linecap: square"/>
   </g>
   <g id="patch_6">
    <path d="M 74.473125 13.27875 
L 548.146611 13.27875 
" style="fill: none; stroke: #000000; stroke-width: 0.8; stroke-linejoin: miter; stroke-linecap: square"/>
   </g>
   <g id="legend_1">
    <g id="patch_7">
     <path d="M 84.273125 368.23875 
L 196.765312 368.23875 
Q 199.565313 368.23875 199.565313 365.43875 
L 199.565313 305.190625 
Q 199.565313 302.390625 196.765312 302.390625 
L 84.273125 302.390625 
Q 81.473125 302.390625 81.473125 305.190625 
L 81.473125 365.43875 
Q 81.473125 368.23875 84.273125 368.23875 
z
" style="fill: #ffffff; opacity: 0.7; stroke: #cccccc; stroke-linejoin: miter"/>
    </g>
    <g id="line2d_19">
     <path d="M 87.073125 313.728437 
L 101.073125 313.728437 
L 115.073125 313.728437 
" style="fill: none; stroke: #008000; stroke-width: 2; stroke-linecap: square"/>
    </g>
    <g id="text_18">
     <!-- Action -->
     <g transform="translate(126.273125 318.628437) scale(0.14 -0.14)">
      <defs>
       <path id="DejaVuSans-41" d="M 2188 4044 
L 1331 1722 
L 3047 1722 
L 2188 4044 
z
M 1831 4666 
L 2547 4666 
L 4325 0 
L 3669 0 
L 3244 1197 
L 1141 1197 
L 716 0 
L 50 0 
L 1831 4666 
z
" transform="scale(0.015625)"/>
       <path id="DejaVuSans-63" d="M 3122 3366 
L 3122 2828 
Q 2878 2963 2633 3030 
Q 2388 3097 2138 3097 
Q 1578 3097 1268 2742 
Q 959 2388 959 1747 
Q 959 1106 1268 751 
Q 1578 397 2138 397 
Q 2388 397 2633 464 
Q 2878 531 3122 666 
L 3122 134 
Q 2881 22 2623 -34 
Q 2366 -91 2075 -91 
Q 1284 -91 818 406 
Q 353 903 353 1747 
Q 353 2603 823 3093 
Q 1294 3584 2113 3584 
Q 2378 3584 2631 3529 
Q 2884 3475 3122 3366 
z
" transform="scale(0.015625)"/>
       <path id="DejaVuSans-69" d="M 603 3500 
L 1178 3500 
L 1178 0 
L 603 0 
L 603 3500 
z
M 603 4863 
L 1178 4863 
L 1178 4134 
L 603 4134 
L 603 4863 
z
" transform="scale(0.015625)"/>
       <path id="DejaVuSans-6f" d="M 1959 3097 
Q 1497 3097 1228 2736 
Q 959 2375 959 1747 
Q 959 1119 1226 758 
Q 1494 397 1959 397 
Q 2419 397 2687 759 
Q 2956 1122 2956 1747 
Q 2956 2369 2687 2733 
Q 2419 3097 1959 3097 
z
M 1959 3584 
Q 2709 3584 3137 3096 
Q 3566 2609 3566 1747 
Q 3566 888 3137 398 
Q 2709 -91 1959 -91 
Q 1206 -91 779 398 
Q 353 888 353 1747 
Q 353 2609 779 3096 
Q 1206 3584 1959 3584 
z
" transform="scale(0.015625)"/>
       <path id="DejaVuSans-6e" d="M 3513 2113 
L 3513 0 
L 2938 0 
L 2938 2094 
Q 2938 2591 2744 2837 
Q 2550 3084 2163 3084 
Q 1697 3084 1428 2787 
Q 1159 2491 1159 1978 
L 1159 0 
L 581 0 
L 581 3500 
L 1159 3500 
L 1159 2956 
Q 1366 3272 1645 3428 
Q 1925 3584 2291 3584 
Q 2894 3584 3203 3211 
Q 3513 2838 3513 2113 
z
" transform="scale(0.015625)"/>
      </defs>
      <use xlink:href="#DejaVuSans-41"/>
      <use xlink:href="#DejaVuSans-63" x="66.658203"/>
      <use xlink:href="#DejaVuSans-74" x="121.638672"/>
      <use xlink:href="#DejaVuSans-69" x="160.847656"/>
      <use xlink:href="#DejaVuSans-6f" x="188.630859"/>
      <use xlink:href="#DejaVuSans-6e" x="249.8125"/>
     </g>
    </g>
    <g id="line2d_20">
     <path d="M 87.073125 334.277812 
L 101.073125 334.277812 
L 115.073125 334.277812 
" style="fill: none; stroke: #0000ff; stroke-width: 2; stroke-linecap: square"/>
    </g>
    <g id="text_19">
     <!-- State -->
     <g transform="translate(126.273125 339.177812) scale(0.14 -0.14)">
      <use xlink:href="#DejaVuSans-53"/>
      <use xlink:href="#DejaVuSans-74" x="63.476562"/>
      <use xlink:href="#DejaVuSans-61" x="102.685547"/>
      <use xlink:href="#DejaVuSans-74" x="163.964844"/>
      <use xlink:href="#DejaVuSans-65" x="203.173828"/>
     </g>
    </g>
    <g id="line2d_21">
     <path d="M 87.073125 354.827187 
L 101.073125 354.827187 
L 115.073125 354.827187 
" style="fill: none; stroke-dasharray: 3,4.95; stroke-dashoffset: 0; stroke: #ff0000; stroke-width: 3"/>
    </g>
    <g id="text_20">
     <!-- Transition -->
     <g transform="translate(126.273125 359.727187) scale(0.14 -0.14)">
      <defs>
       <path id="DejaVuSans-54" d="M -19 4666 
L 3928 4666 
L 3928 4134 
L 2272 4134 
L 2272 0 
L 1638 0 
L 1638 4134 
L -19 4134 
L -19 4666 
z
" transform="scale(0.015625)"/>
       <path id="DejaVuSans-72" d="M 2631 2963 
Q 2534 3019 2420 3045 
Q 2306 3072 2169 3072 
Q 1681 3072 1420 2755 
Q 1159 2438 1159 1844 
L 1159 0 
L 581 0 
L 581 3500 
L 1159 3500 
L 1159 2956 
Q 1341 3275 1631 3429 
Q 1922 3584 2338 3584 
Q 2397 3584 2469 3576 
Q 2541 3569 2628 3553 
L 2631 2963 
z
" transform="scale(0.015625)"/>
      </defs>
      <use xlink:href="#DejaVuSans-54"/>
      <use xlink:href="#DejaVuSans-72" x="46.333984"/>
      <use xlink:href="#DejaVuSans-61" x="87.447266"/>
      <use xlink:href="#DejaVuSans-6e" x="148.726562"/>
      <use xlink:href="#DejaVuSans-73" x="212.105469"/>
      <use xlink:href="#DejaVuSans-69" x="264.205078"/>
      <use xlink:href="#DejaVuSans-74" x="291.988281"/>
      <use xlink:href="#DejaVuSans-69" x="331.197266"/>
      <use xlink:href="#DejaVuSans-6f" x="358.980469"/>
      <use xlink:href="#DejaVuSans-6e" x="420.162109"/>
     </g>
    </g>
   </g>
  </g>
 </g>
 <defs>
  <clipPath id="pb1026516bf">
   <rect x="74.473125" y="13.27875" width="473.673486" height="361.96"/>
  </clipPath>
 </defs>
</svg>
