<?xml version="1.0" encoding="utf-8" standalone="no"?>
<!DOCTYPE svg PUBLIC "-//W3C//DTD SVG 1.1//EN"
  "http://www.w3.org/Graphics/SVG/1.1/DTD/svg11.dtd">
<svg xmlns:xlink="http://www.w3.org/1999/xlink" width="568.729466pt" height="426.344375pt" viewBox="0 0 568.729466 426.344375" xmlns="http://www.w3.org/2000/svg" version="1.1">
 <metadata>
  <rdf:RDF xmlns:dc="http://purl.org/dc/elements/1.1/" xmlns:cc="http://creativecommons.org/ns#" xmlns:rdf="http://www.w3.org/1999/02/22-rdf-syntax-ns#">
   <cc:Work>
    <dc:type rdf:resource="http://purl.org/dc/dcmitype/StillImage"/>
    <dc:date>2024-10-10T06:05:00.895683</dc:date>
    <dc:format>image/svg+xml</dc:format>
    <dc:creator>
     <cc:Agent>
      <dc:title>Matplotlib v3.9.0, https://matplotlib.org/</dc:title>
     </cc:Agent>
    </dc:creator>
   </cc:Work>
  </rdf:RDF>
 </metadata>
 <defs>
  <style type="text/css">*{stroke-linejoin: round; stroke-linecap: butt}</style>
 </defs>
 <g id="figure_1">
  <g id="patch_1">
   <path d="M 0 426.344375 
L 568.729466 426.344375 
L 568.729466 0 
L 0 0 
z
" style="fill: #ffffff"/>
  </g>
  <g id="axes_1">
   <g id="patch_2">
    <path d="M 74.473125 375.23875 
L 548.146611 375.23875 
L 548.146611 13.27875 
L 74.473125 13.27875 
z
" style="fill: #ffffff"/>
   </g>
   <g id="PolyCollection_1">
    <defs>
     <path id="mf5ac876da7" d="M 74.473125 -291.344585 
L 74.473125 -264.699921 
L 76.36027 -264.699921 
L 78.247416 -307.320088 
L 80.134561 -307.320088 
L 82.021706 -328.132262 
L 83.908852 -328.132262 
L 85.795997 -340.460875 
L 87.683143 -340.460875 
L 89.570288 -347.25236 
L 91.457433 -347.25236 
L 93.344579 -350.801892 
L 95.231724 -350.801892 
L 97.118869 -351.495114 
L 99.006015 -351.495114 
L 100.89316 -352.452539 
L 102.780305 -352.452539 
L 104.667451 -353.323899 
L 106.554596 -353.323899 
L 108.441742 -350.822415 
L 110.328887 -350.822415 
L 112.216032 -350.898943 
L 114.103178 -350.898943 
L 115.990323 -351.877006 
L 117.877468 -351.877006 
L 119.764614 -348.700546 
L 121.651759 -348.700546 
L 123.538904 -352.852162 
L 125.42605 -352.852162 
L 127.313195 -352.752412 
L 129.200341 -352.752412 
L 131.087486 -352.281114 
L 132.974631 -352.281114 
L 134.861777 -353.995559 
L 136.748922 -353.995559 
L 138.636067 -352.921256 
L 140.523213 -352.921256 
L 142.410358 -351.488537 
L 144.297503 -351.488537 
L 146.184649 -352.511394 
L 148.071794 -352.511394 
L 149.95894 -353.033998 
L 151.846085 -353.033998 
L 153.73323 -351.881846 
L 155.620376 -351.881846 
L 157.507521 -353.713573 
L 159.394666 -353.713573 
L 161.281812 -355.978094 
L 163.168957 -355.978094 
L 165.056102 -306.56 
L 166.943248 -306.56 
L 168.830393 -258.156493 
L 170.717539 -258.156493 
L 172.604684 -206.98891 
L 174.491829 -206.98891 
L 176.378975 -204.032337 
L 178.26612 -204.032337 
L 180.153265 -231.594556 
L 182.040411 -231.594556 
L 183.927556 -238.532932 
L 185.814701 -238.532932 
L 187.701847 -239.156298 
L 189.588992 -239.156298 
L 191.476137 -214.579864 
L 193.363283 -214.579864 
L 195.250428 -231.472434 
L 197.137574 -231.472434 
L 199.024719 -233.502419 
L 200.911864 -233.502419 
L 202.79901 -245.145936 
L 204.686155 -245.145936 
L 206.5733 -223.509469 
L 208.460446 -223.509469 
L 210.347591 -230.85158 
L 212.234736 -230.85158 
L 214.121882 -225.19895 
L 216.009027 -225.19895 
L 217.896173 -231.972316 
L 219.783318 -231.972316 
L 221.670463 -237.978736 
L 223.557609 -237.978736 
L 225.444754 -210.602976 
L 227.331899 -210.602976 
L 229.219045 -227.313882 
L 231.10619 -227.313882 
L 232.993335 -235.705452 
L 234.880481 -235.705452 
L 236.767626 -257.753624 
L 238.654772 -257.753624 
L 240.541917 -226.837794 
L 242.429062 -226.837794 
L 244.316208 -220.890347 
L 246.203353 -220.890347 
L 248.090498 -235.20731 
L 249.977644 -235.20731 
L 251.864789 -231.542138 
L 253.751934 -231.542138 
L 255.63908 -257.617857 
L 257.526225 -257.617857 
L 259.413371 -212.968714 
L 261.300516 -212.968714 
L 263.187661 -219.626734 
L 265.074807 -219.626734 
L 266.961952 -234.061176 
L 268.849097 -234.061176 
L 270.736243 -247.349462 
L 272.623388 -247.349462 
L 274.510533 -236.251526 
L 276.397679 -236.251526 
L 278.284824 -239.142381 
L 280.17197 -239.142381 
L 282.059115 -224.4529 
L 283.94626 -224.4529 
L 285.833406 -213.381643 
L 287.720551 -213.381643 
L 289.607696 -241.154205 
L 291.494842 -241.154205 
L 293.381987 -230.900448 
L 295.269132 -230.900448 
L 297.156278 -246.463294 
L 299.043423 -246.463294 
L 300.930569 -220.660025 
L 302.817714 -220.660025 
L 304.704859 -248.785271 
L 306.592005 -248.785271 
L 308.47915 -236.200523 
L 310.366295 -236.200523 
L 312.253441 -207.854872 
L 314.140586 -207.854872 
L 316.027731 -177.909136 
L 317.914877 -146.624033 
L 319.802022 -135.216461 
L 321.689168 -144.282419 
L 323.576313 -142.273641 
L 325.463458 -198.745453 
L 327.350604 -199.711175 
L 329.237749 -212.098523 
L 331.124894 -204.095196 
L 333.01204 -211.651756 
L 334.899185 -198.272334 
L 336.78633 -195.638747 
L 338.673476 -194.33653 
L 340.560621 -198.627285 
L 342.447767 -222.630609 
L 344.334912 -224.209389 
L 346.222057 -226.196742 
L 348.109203 -219.624166 
L 349.996348 -224.359689 
L 351.883493 -228.852489 
L 353.770639 -242.636479 
L 355.657784 -241.962185 
L 357.544929 -238.27331 
L 359.432075 -241.798063 
L 361.31922 -241.743843 
L 363.206366 -244.283091 
L 365.093511 -241.112909 
L 366.980656 -238.053005 
L 368.867802 -235.01739 
L 370.754947 -232.323779 
L 372.642092 -233.059752 
L 374.529238 -232.66145 
L 376.416383 -241.937772 
L 378.303528 -235.444268 
L 380.190674 -231.469531 
L 382.077819 -237.000378 
L 383.964964 -234.495833 
L 385.85211 -228.782216 
L 387.739255 -241.643232 
L 389.626401 -233.533082 
L 391.513546 -237.22806 
L 393.400691 -250.24184 
L 395.287837 -248.539912 
L 397.174982 -244.213517 
L 399.062127 -228.822048 
L 400.949273 -233.727861 
L 402.836418 -252.378229 
L 404.723563 -250.999482 
L 406.610709 -243.918027 
L 408.497854 -254.431188 
L 410.385 -254.1552 
L 412.272145 -250.663008 
L 414.15929 -251.080632 
L 416.046436 -254.039553 
L 417.933581 -257.494467 
L 419.820726 -255.668044 
L 421.707872 -253.946204 
L 423.595017 -251.277818 
L 425.482162 -250.928861 
L 427.369308 -248.075502 
L 429.256453 -247.014778 
L 431.143599 -243.118596 
L 433.030744 -247.173223 
L 434.917889 -252.686174 
L 436.805035 -250.558635 
L 438.69218 -248.505179 
L 440.579325 -248.36588 
L 442.466471 -246.061221 
L 444.353616 -244.257138 
L 446.240761 -241.099429 
L 448.127907 -239.157691 
L 450.015052 -254.669059 
L 451.902198 -254.651257 
L 453.789343 -255.383318 
L 455.676488 -252.088244 
L 457.563634 -252.281099 
L 459.450779 -249.530456 
L 461.337924 -255.592796 
L 463.22507 -254.006874 
L 465.112215 -258.787485 
L 466.99936 -257.168323 
L 468.886506 -255.929047 
L 470.773651 -255.646103 
L 472.660797 -251.650521 
L 474.547942 -250.188692 
L 476.435087 -250.968504 
L 478.322233 -246.631866 
L 480.209378 -251.713941 
L 482.096523 -255.114503 
L 483.983669 -248.520778 
L 485.870814 -250.128166 
L 487.757959 -242.160274 
L 489.645105 -259.052481 
L 491.53225 -256.956634 
L 493.419396 -261.572756 
L 495.306541 -261.758506 
L 497.193686 -261.849381 
L 499.080832 -261.544169 
L 500.967977 -263.831122 
L 502.855122 -263.998719 
L 504.742268 -259.367586 
L 506.629413 -262.944021 
L 508.516558 -261.981874 
L 510.403704 -259.276318 
L 512.290849 -261.760807 
L 514.177995 -260.870264 
L 516.06514 -263.450505 
L 517.952285 -263.561492 
L 519.839431 -263.466142 
L 521.726576 -263.403554 
L 523.613721 -262.733364 
L 525.500867 -260.989513 
L 527.388012 -261.672522 
L 529.275157 -262.927484 
L 531.162303 -261.956061 
L 533.049448 -256.905737 
L 534.936594 -258.901005 
L 536.823739 -256.418239 
L 538.710884 -264.701233 
L 540.59803 -266.397635 
L 542.485175 -262.56096 
L 544.37232 -260.656525 
L 546.259466 -259.342265 
L 546.259466 -330.898245 
L 546.259466 -330.898245 
L 544.37232 -334.404947 
L 542.485175 -333.784736 
L 540.59803 -332.056682 
L 538.710884 -333.547959 
L 536.823739 -337.698432 
L 534.936594 -335.142541 
L 533.049448 -335.172634 
L 531.162303 -332.724235 
L 529.275157 -332.971585 
L 527.388012 -333.672732 
L 525.500867 -334.125488 
L 523.613721 -333.00133 
L 521.726576 -331.981568 
L 519.839431 -332.692052 
L 517.952285 -332.686013 
L 516.06514 -333.761799 
L 514.177995 -333.520073 
L 512.290849 -331.487207 
L 510.403704 -333.364973 
L 508.516558 -334.220777 
L 506.629413 -333.134238 
L 504.742268 -336.420624 
L 502.855122 -332.246756 
L 500.967977 -332.898364 
L 499.080832 -332.10453 
L 497.193686 -333.337949 
L 495.306541 -334.850428 
L 493.419396 -334.24898 
L 491.53225 -335.243069 
L 489.645105 -332.738872 
L 487.757959 -344.968897 
L 485.870814 -339.994785 
L 483.983669 -338.630705 
L 482.096523 -335.637659 
L 480.209378 -337.561331 
L 478.322233 -341.382944 
L 476.435087 -339.07404 
L 474.547942 -341.227539 
L 472.660797 -338.934848 
L 470.773651 -335.268861 
L 468.886506 -334.520594 
L 466.99936 -333.661067 
L 465.112215 -333.323532 
L 463.22507 -336.895033 
L 461.337924 -335.295745 
L 459.450779 -338.422906 
L 457.563634 -337.712261 
L 455.676488 -338.328214 
L 453.789343 -337.824408 
L 451.902198 -339.599922 
L 450.015052 -337.577005 
L 448.127907 -346.788357 
L 446.240761 -345.654924 
L 444.353616 -345.314234 
L 442.466471 -341.927577 
L 440.579325 -341.532811 
L 438.69218 -340.550387 
L 436.805035 -340.745496 
L 434.917889 -340.095379 
L 433.030744 -343.910058 
L 431.143599 -343.61612 
L 429.256453 -343.079049 
L 427.369308 -341.720854 
L 425.482162 -339.711145 
L 423.595017 -340.154026 
L 421.707872 -338.913236 
L 419.820726 -336.639266 
L 417.933581 -338.781788 
L 416.046436 -339.978652 
L 414.15929 -339.540032 
L 412.272145 -340.139025 
L 410.385 -338.047198 
L 408.497854 -338.424042 
L 406.610709 -343.636072 
L 404.723563 -338.611968 
L 402.836418 -340.955148 
L 400.949273 -349.463536 
L 399.062127 -349.051923 
L 397.174982 -341.977831 
L 395.287837 -341.424199 
L 393.400691 -342.184192 
L 391.513546 -347.269791 
L 389.626401 -348.558628 
L 387.739255 -341.61052 
L 385.85211 -346.429308 
L 383.964964 -345.707023 
L 382.077819 -344.751358 
L 380.190674 -342.363313 
L 378.303528 -343.082577 
L 376.416383 -342.676131 
L 374.529238 -343.135969 
L 372.642092 -346.385544 
L 370.754947 -340.388122 
L 368.867802 -340.351663 
L 366.980656 -339.979845 
L 365.093511 -340.302351 
L 363.206366 -339.722692 
L 361.31922 -339.960383 
L 359.432075 -338.605781 
L 357.544929 -343.082405 
L 355.657784 -340.658997 
L 353.770639 -339.080524 
L 351.883493 -344.623985 
L 349.996348 -347.634392 
L 348.109203 -349.565637 
L 346.222057 -344.951433 
L 344.334912 -343.302215 
L 342.447767 -345.302165 
L 340.560621 -349.844688 
L 338.673476 -346.340122 
L 336.78633 -344.31978 
L 334.899185 -343.497706 
L 333.01204 -340.984304 
L 331.124894 -340.502463 
L 329.237749 -340.337717 
L 327.350604 -347.05237 
L 325.463458 -348.641528 
L 323.576313 -345.814242 
L 321.689168 -327.569246 
L 319.802022 -323.537033 
L 317.914877 -319.035869 
L 316.027731 -321.181221 
L 314.140586 -358.639894 
L 312.253441 -358.639894 
L 310.366295 -369.166674 
L 308.47915 -369.166674 
L 306.592005 -368.555643 
L 304.704859 -368.555643 
L 302.817714 -361.636493 
L 300.930569 -361.636493 
L 299.043423 -363.579645 
L 297.156278 -363.579645 
L 295.269132 -367.848568 
L 293.381987 -367.848568 
L 291.494842 -364.051386 
L 289.607696 -364.051386 
L 287.720551 -349.048312 
L 285.833406 -349.048312 
L 283.94626 -363.78999 
L 282.059115 -363.78999 
L 280.17197 -369.563186 
L 278.284824 -369.563186 
L 276.397679 -375.583615 
L 274.510533 -375.583615 
L 272.623388 -363.024971 
L 270.736243 -363.024971 
L 268.849097 -357.071812 
L 266.961952 -357.071812 
L 265.074807 -350.093793 
L 263.187661 -350.093793 
L 261.300516 -364.412411 
L 259.413371 -364.412411 
L 257.526225 -372.163952 
L 255.63908 -372.163952 
L 253.751934 -369.418343 
L 251.864789 -369.418343 
L 249.977644 -357.46382 
L 248.090498 -357.46382 
L 246.203353 -359.178147 
L 244.316208 -359.178147 
L 242.429062 -371.000174 
L 240.541917 -371.000174 
L 238.654772 -368.633987 
L 236.767626 -368.633987 
L 234.880481 -360.715496 
L 232.993335 -360.715496 
L 231.10619 -359.461924 
L 229.219045 -359.461924 
L 227.331899 -359.762819 
L 225.444754 -359.762819 
L 223.557609 -370.426955 
L 221.670463 -370.426955 
L 219.783318 -365.170931 
L 217.896173 -365.170931 
L 216.009027 -364.859818 
L 214.121882 -364.859818 
L 212.234736 -366.957633 
L 210.347591 -366.957633 
L 208.460446 -363.66841 
L 206.5733 -363.66841 
L 204.686155 -378.071028 
L 202.79901 -378.071028 
L 200.911864 -362.339272 
L 199.024719 -362.339272 
L 197.137574 -364.468153 
L 195.250428 -364.468153 
L 193.363283 -362.025928 
L 191.476137 -362.025928 
L 189.588992 -367.775332 
L 187.701847 -367.775332 
L 185.814701 -366.374785 
L 183.927556 -366.374785 
L 182.040411 -360.142167 
L 180.153265 -360.142167 
L 178.26612 -344.537398 
L 176.378975 -344.537398 
L 174.491829 -375.5186 
L 172.604684 -375.5186 
L 170.717539 -400.592829 
L 168.830393 -400.592829 
L 166.943248 -401.639263 
L 165.056102 -401.639263 
L 163.168957 -383.985541 
L 161.281812 -383.985541 
L 159.394666 -383.766924 
L 157.507521 -383.766924 
L 155.620376 -382.733921 
L 153.73323 -382.733921 
L 151.846085 -381.760226 
L 149.95894 -381.760226 
L 148.071794 -382.298791 
L 146.184649 -382.298791 
L 144.297503 -381.919773 
L 142.410358 -381.919773 
L 140.523213 -385.038932 
L 138.636067 -385.038932 
L 136.748922 -382.88013 
L 134.861777 -382.88013 
L 132.974631 -381.153129 
L 131.087486 -381.153129 
L 129.200341 -382.708746 
L 127.313195 -382.708746 
L 125.42605 -381.210438 
L 123.538904 -381.210438 
L 121.651759 -380.845888 
L 119.764614 -380.845888 
L 117.877468 -381.812723 
L 115.990323 -381.812723 
L 114.103178 -381.370983 
L 112.216032 -381.370983 
L 110.328887 -379.617903 
L 108.441742 -379.617903 
L 106.554596 -384.63963 
L 104.667451 -384.63963 
L 102.780305 -381.778138 
L 100.89316 -381.778138 
L 99.006015 -383.30754 
L 97.118869 -383.30754 
L 95.231724 -380.428439 
L 93.344579 -380.428439 
L 91.457433 -376.309639 
L 89.570288 -376.309639 
L 87.683143 -370.16814 
L 85.795997 -370.16814 
L 83.908852 -358.660226 
L 82.021706 -358.660226 
L 80.134561 -335.871416 
L 78.247416 -335.871416 
L 76.36027 -291.344585 
L 74.473125 -291.344585 
z
" style="stroke: #008000; stroke-opacity: 0.2"/>
    </defs>
    <g clip-path="url(#p08099b81a5)">
     <use xlink:href="#mf5ac876da7" x="0" y="426.344375" style="fill: #008000; fill-opacity: 0.2; stroke: #008000; stroke-opacity: 0.2"/>
    </g>
   </g>
   <g id="PolyCollection_2">
    <defs>
     <path id="m9e5365f660" d="M 74.473125 -191.213381 
L 74.473125 -183.337585 
L 76.36027 -185.212644 
L 78.247416 -187.460992 
L 80.134561 -190.070351 
L 82.021706 -192.851907 
L 83.908852 -195.797689 
L 85.795997 -198.790781 
L 87.683143 -201.830356 
L 89.570288 -204.841715 
L 91.457433 -207.827669 
L 93.344579 -210.842843 
L 95.231724 -213.882115 
L 97.118869 -216.864119 
L 99.006015 -219.787088 
L 100.89316 -222.630255 
L 102.780305 -225.398878 
L 104.667451 -228.136249 
L 106.554596 -230.839525 
L 108.441742 -233.490514 
L 110.328887 -236.091267 
L 112.216032 -238.62627 
L 114.103178 -241.094806 
L 115.990323 -243.498023 
L 117.877468 -245.838872 
L 119.764614 -248.131227 
L 121.651759 -250.371414 
L 123.538904 -252.579192 
L 125.42605 -254.759789 
L 127.313195 -256.895172 
L 129.200341 -258.984539 
L 131.087486 -261.053372 
L 132.974631 -263.100827 
L 134.861777 -265.126692 
L 136.748922 -267.130602 
L 138.636067 -269.102454 
L 140.523213 -271.038004 
L 142.410358 -272.920937 
L 144.297503 -274.753666 
L 146.184649 -276.549378 
L 148.071794 -278.309166 
L 149.95894 -280.003529 
L 151.846085 -281.636491 
L 153.73323 -283.242047 
L 155.620376 -284.816982 
L 157.507521 -286.366545 
L 159.394666 -287.892283 
L 161.281812 -289.409008 
L 163.168957 -290.917944 
L 165.056102 -292.468338 
L 166.943248 -293.886589 
L 168.830393 -295.194073 
L 170.717539 -296.087568 
L 172.604684 -296.537143 
L 174.491829 -296.239148 
L 176.378975 -295.764769 
L 178.26612 -295.346951 
L 180.153265 -294.996415 
L 182.040411 -294.80545 
L 183.927556 -294.738443 
L 185.814701 -294.773261 
L 187.701847 -294.824138 
L 189.588992 -294.870761 
L 191.476137 -294.928935 
L 193.363283 -294.846491 
L 195.250428 -294.74349 
L 197.137574 -294.714077 
L 199.024719 -294.814433 
L 200.911864 -295.060849 
L 202.79901 -295.243587 
L 204.686155 -295.320189 
L 206.5733 -295.469078 
L 208.460446 -295.607899 
L 210.347591 -295.620439 
L 212.234736 -295.523448 
L 214.121882 -295.498302 
L 216.009027 -295.485075 
L 217.896173 -295.461981 
L 219.783318 -295.465042 
L 221.670463 -295.404085 
L 223.557609 -295.29275 
L 225.444754 -295.277382 
L 227.331899 -295.196003 
L 229.219045 -294.991657 
L 231.10619 -294.794118 
L 232.993335 -294.778924 
L 234.880481 -294.9719 
L 236.767626 -295.121179 
L 238.654772 -295.318144 
L 240.541917 -295.605024 
L 242.429062 -295.713853 
L 244.316208 -295.731566 
L 246.203353 -295.691615 
L 248.090498 -295.66443 
L 249.977644 -295.773869 
L 251.864789 -295.875686 
L 253.751934 -295.793559 
L 255.63908 -295.703115 
L 257.526225 -295.80546 
L 259.413371 -295.942263 
L 261.300516 -295.790115 
L 263.187661 -295.557055 
L 265.074807 -295.403208 
L 266.961952 -295.330223 
L 268.849097 -295.378112 
L 270.736243 -295.518962 
L 272.623388 -295.795333 
L 274.510533 -296.05269 
L 276.397679 -296.03969 
L 278.284824 -295.967569 
L 280.17197 -295.903037 
L 282.059115 -295.860046 
L 283.94626 -295.734173 
L 285.833406 -295.65205 
L 287.720551 -295.642866 
L 289.607696 -295.496638 
L 291.494842 -295.328473 
L 293.381987 -295.323322 
L 295.269132 -295.322851 
L 297.156278 -295.360263 
L 299.043423 -295.563292 
L 300.930569 -295.823772 
L 302.817714 -295.945562 
L 304.704859 -295.848913 
L 306.592005 -295.762683 
L 308.47915 -295.922198 
L 310.366295 -296.175255 
L 312.253441 -296.292854 
L 314.140586 -296.067698 
L 316.027731 -294.875075 
L 317.914877 -293.011697 
L 319.802022 -290.820256 
L 321.689168 -288.624279 
L 323.576313 -286.512001 
L 325.463458 -284.931115 
L 327.350604 -283.817626 
L 329.237749 -282.67493 
L 331.124894 -281.527665 
L 333.01204 -280.384665 
L 334.899185 -279.192073 
L 336.78633 -277.888901 
L 338.673476 -276.607346 
L 340.560621 -275.419892 
L 342.447767 -274.564352 
L 344.334912 -273.944014 
L 346.222057 -273.3145 
L 348.109203 -272.642821 
L 349.996348 -271.985935 
L 351.883493 -271.424165 
L 353.770639 -271.029446 
L 355.657784 -270.753353 
L 357.544929 -270.419453 
L 359.432075 -270.068985 
L 361.31922 -269.744562 
L 363.206366 -269.441786 
L 365.093511 -269.117158 
L 366.980656 -268.721436 
L 368.867802 -268.267078 
L 370.754947 -267.772566 
L 372.642092 -267.270657 
L 374.529238 -266.75836 
L 376.416383 -266.329956 
L 378.303528 -265.954531 
L 380.190674 -265.503887 
L 382.077819 -265.079367 
L 383.964964 -264.685019 
L 385.85211 -264.237236 
L 387.739255 -263.852382 
L 389.626401 -263.53008 
L 391.513546 -263.223024 
L 393.400691 -263.0614 
L 395.287837 -262.982138 
L 397.174982 -262.844999 
L 399.062127 -262.564379 
L 400.949273 -262.256247 
L 402.836418 -262.124869 
L 404.723563 -262.082724 
L 406.610709 -261.996057 
L 408.497854 -261.925202 
L 410.385 -261.897758 
L 412.272145 -261.84646 
L 414.15929 -261.772155 
L 416.046436 -261.728037 
L 417.933581 -261.745541 
L 419.820726 -261.76927 
L 421.707872 -261.756107 
L 423.595017 -261.703998 
L 425.482162 -261.631053 
L 427.369308 -261.535141 
L 429.256453 -261.408791 
L 431.143599 -261.25393 
L 433.030744 -261.116646 
L 434.917889 -261.04577 
L 436.805035 -260.979489 
L 438.69218 -260.882129 
L 440.579325 -260.764635 
L 442.466471 -260.617043 
L 444.353616 -260.438197 
L 446.240761 -260.245646 
L 448.127907 -260.052419 
L 450.015052 -259.946888 
L 451.902198 -259.931791 
L 453.789343 -259.928203 
L 455.676488 -259.911335 
L 457.563634 -259.869521 
L 459.450779 -259.811662 
L 461.337924 -259.7723 
L 463.22507 -259.752965 
L 465.112215 -259.767547 
L 466.99936 -259.809954 
L 468.886506 -259.827802 
L 470.773651 -259.83722 
L 472.660797 -259.810475 
L 474.547942 -259.749579 
L 476.435087 -259.693642 
L 478.322233 -259.613788 
L 480.209378 -259.525106 
L 482.096523 -259.489497 
L 483.983669 -259.439108 
L 485.870814 -259.383144 
L 487.757959 -259.323797 
L 489.645105 -259.307888 
L 491.53225 -259.362703 
L 493.419396 -259.439421 
L 495.306541 -259.561759 
L 497.193686 -259.687711 
L 499.080832 -259.8026 
L 500.967977 -259.926828 
L 502.855122 -260.073842 
L 504.742268 -260.199209 
L 506.629413 -260.303551 
L 508.516558 -260.405345 
L 510.403704 -260.475016 
L 512.290849 -260.540158 
L 514.177995 -260.619293 
L 516.06514 -260.714837 
L 517.952285 -260.831648 
L 519.839431 -260.946103 
L 521.726576 -261.056618 
L 523.613721 -261.153459 
L 525.500867 -261.222493 
L 527.388012 -261.284532 
L 529.275157 -261.364007 
L 531.162303 -261.44101 
L 533.049448 -261.464335 
L 534.936594 -261.46325 
L 536.823739 -261.485542 
L 538.710884 -261.556175 
L 540.59803 -261.688008 
L 542.485175 -261.806122 
L 544.37232 -261.871614 
L 546.259466 -261.911772 
L 546.259466 -328.143949 
L 546.259466 -328.143949 
L 544.37232 -328.131894 
L 542.485175 -328.082395 
L 540.59803 -328.048991 
L 538.710884 -328.006964 
L 536.823739 -327.943864 
L 534.936594 -327.872298 
L 533.049448 -327.795964 
L 531.162303 -327.736251 
L 529.275157 -327.689941 
L 527.388012 -327.636844 
L 525.500867 -327.571559 
L 523.613721 -327.506798 
L 521.726576 -327.464385 
L 519.839431 -327.428601 
L 517.952285 -327.38508 
L 516.06514 -327.330119 
L 514.177995 -327.269037 
L 512.290849 -327.228444 
L 510.403704 -327.189107 
L 508.516558 -327.122519 
L 506.629413 -327.050498 
L 504.742268 -326.981694 
L 502.855122 -326.928759 
L 500.967977 -326.884375 
L 499.080832 -326.839426 
L 497.193686 -326.79744 
L 495.306541 -326.733476 
L 493.419396 -326.655591 
L 491.53225 -326.57244 
L 489.645105 -326.504937 
L 487.757959 -326.415264 
L 485.870814 -326.297755 
L 483.983669 -326.182029 
L 482.096523 -326.064545 
L 480.209378 -325.938886 
L 478.322233 -325.785964 
L 476.435087 -325.632944 
L 474.547942 -325.468019 
L 472.660797 -325.290385 
L 470.773651 -325.149643 
L 468.886506 -325.044105 
L 466.99936 -324.94557 
L 465.112215 -324.852511 
L 463.22507 -324.728079 
L 461.337924 -324.579299 
L 459.450779 -324.437534 
L 457.563634 -324.284406 
L 455.676488 -324.12049 
L 453.789343 -323.946704 
L 451.902198 -323.744276 
L 450.015052 -323.535929 
L 448.127907 -323.316906 
L 446.240761 -323.063549 
L 444.353616 -322.773141 
L 442.466471 -322.481859 
L 440.579325 -322.216376 
L 438.69218 -321.967756 
L 436.805035 -321.722547 
L 434.917889 -321.467808 
L 433.030744 -321.206794 
L 431.143599 -320.936461 
L 429.256453 -320.656109 
L 427.369308 -320.370719 
L 425.482162 -320.107085 
L 423.595017 -319.846528 
L 421.707872 -319.580648 
L 419.820726 -319.340499 
L 417.933581 -319.098336 
L 416.046436 -318.827109 
L 414.15929 -318.545462 
L 412.272145 -318.261407 
L 410.385 -317.980207 
L 408.497854 -317.69748 
L 406.610709 -317.412892 
L 404.723563 -317.141157 
L 402.836418 -316.85195 
L 400.949273 -316.532839 
L 399.062127 -316.189342 
L 397.174982 -315.842828 
L 395.287837 -315.516319 
L 393.400691 -315.18091 
L 391.513546 -314.812778 
L 389.626401 -314.39951 
L 387.739255 -313.981526 
L 385.85211 -313.568174 
L 383.964964 -313.122541 
L 382.077819 -312.664276 
L 380.190674 -312.238509 
L 378.303528 -311.819556 
L 376.416383 -311.367723 
L 374.529238 -310.88841 
L 372.642092 -310.376748 
L 370.754947 -309.906273 
L 368.867802 -309.485276 
L 366.980656 -309.052225 
L 365.093511 -308.617256 
L 363.206366 -308.192293 
L 361.31922 -307.784075 
L 359.432075 -307.388463 
L 357.544929 -306.968961 
L 355.657784 -306.542271 
L 353.770639 -306.167796 
L 351.883493 -305.764738 
L 349.996348 -305.292797 
L 348.109203 -304.770762 
L 346.222057 -304.245352 
L 344.334912 -303.781804 
L 342.447767 -303.363363 
L 340.560621 -302.905245 
L 338.673476 -302.398654 
L 336.78633 -301.897844 
L 334.899185 -301.380225 
L 333.01204 -300.861421 
L 331.124894 -300.37664 
L 329.237749 -299.903427 
L 327.350604 -299.426078 
L 325.463458 -299.042524 
L 323.576313 -298.796355 
L 321.689168 -298.809365 
L 319.802022 -299.07767 
L 317.914877 -299.463392 
L 316.027731 -299.823052 
L 314.140586 -299.882014 
L 312.253441 -300.251288 
L 310.366295 -300.584377 
L 308.47915 -300.663724 
L 306.592005 -300.525607 
L 304.704859 -300.014515 
L 302.817714 -299.836866 
L 300.930569 -300.230815 
L 299.043423 -300.489904 
L 297.156278 -300.410607 
L 295.269132 -300.273577 
L 293.381987 -300.209483 
L 291.494842 -300.074493 
L 289.607696 -299.708501 
L 287.720551 -299.790644 
L 285.833406 -300.447503 
L 283.94626 -300.785267 
L 282.059115 -300.826423 
L 280.17197 -300.748042 
L 278.284824 -300.440238 
L 276.397679 -300.088463 
L 274.510533 -299.758481 
L 272.623388 -299.707148 
L 270.736243 -299.68339 
L 268.849097 -299.711561 
L 266.961952 -299.8393 
L 265.074807 -300.063118 
L 263.187661 -300.428847 
L 261.300516 -300.648805 
L 259.413371 -300.881261 
L 257.526225 -300.883443 
L 255.63908 -300.317942 
L 253.751934 -299.836026 
L 251.864789 -299.646316 
L 249.977644 -299.721745 
L 248.090498 -299.888185 
L 246.203353 -300.045894 
L 244.316208 -300.322159 
L 242.429062 -300.483764 
L 240.541917 -300.559489 
L 238.654772 -300.525476 
L 236.767626 -300.106035 
L 234.880481 -299.927838 
L 232.993335 -300.090115 
L 231.10619 -300.140602 
L 229.219045 -300.107717 
L 227.331899 -300.236383 
L 225.444754 -300.660872 
L 223.557609 -300.779018 
L 221.670463 -300.418772 
L 219.783318 -300.217146 
L 217.896173 -300.190722 
L 216.009027 -300.208795 
L 214.121882 -300.30929 
L 212.234736 -300.322215 
L 210.347591 -300.185598 
L 208.460446 -300.26463 
L 206.5733 -300.578917 
L 204.686155 -300.544373 
L 202.79901 -300.068978 
L 200.911864 -299.963887 
L 199.024719 -300.193816 
L 197.137574 -300.276358 
L 195.250428 -300.227771 
L 193.363283 -300.299655 
L 191.476137 -300.591374 
L 189.588992 -300.726277 
L 187.701847 -300.544158 
L 185.814701 -300.382029 
L 183.927556 -300.220034 
L 182.040411 -300.084701 
L 180.153265 -299.957375 
L 178.26612 -300.105887 
L 176.378975 -300.634216 
L 174.491829 -300.783768 
L 172.604684 -300.778708 
L 170.717539 -300.760375 
L 168.830393 -300.404641 
L 166.943248 -299.940373 
L 165.056102 -299.050482 
L 163.168957 -297.926703 
L 161.281812 -296.385913 
L 159.394666 -294.816339 
L 157.507521 -293.218632 
L 155.620376 -291.610527 
L 153.73323 -289.993071 
L 151.846085 -288.340017 
L 149.95894 -286.6468 
L 148.071794 -284.947697 
L 146.184649 -283.245375 
L 144.297503 -281.523207 
L 142.410358 -279.781254 
L 140.523213 -277.971587 
L 138.636067 -276.093933 
L 136.748922 -274.186534 
L 134.861777 -272.243885 
L 132.974631 -270.278156 
L 131.087486 -268.288305 
L 129.200341 -266.217971 
L 127.313195 -264.064116 
L 125.42605 -261.884712 
L 123.538904 -259.677604 
L 121.651759 -257.454547 
L 119.764614 -255.220203 
L 117.877468 -252.906058 
L 115.990323 -250.505496 
L 114.103178 -248.085894 
L 112.216032 -245.648657 
L 110.328887 -243.197285 
L 108.441742 -240.729554 
L 106.554596 -238.134114 
L 104.667451 -235.408917 
L 102.780305 -232.645803 
L 100.89316 -229.840728 
L 99.006015 -226.991963 
L 97.118869 -224.10234 
L 95.231724 -221.190375 
L 93.344579 -218.252898 
L 91.457433 -215.247827 
L 89.570288 -212.169676 
L 87.683143 -209.124615 
L 85.795997 -206.116482 
L 83.908852 -203.179538 
L 82.021706 -200.316932 
L 80.134561 -197.611372 
L 78.247416 -195.064299 
L 76.36027 -192.92858 
L 74.473125 -191.213381 
z
" style="stroke: #0000ff; stroke-opacity: 0.2"/>
    </defs>
    <g clip-path="url(#p08099b81a5)">
     <use xlink:href="#m9e5365f660" x="0" y="426.344375" style="fill: #0000ff; fill-opacity: 0.2; stroke: #0000ff; stroke-opacity: 0.2"/>
    </g>
   </g>
   <g id="matplotlib.axis_1">
    <g id="xtick_1">
     <g id="line2d_1">
      <defs>
       <path id="md74cae82eb" d="M 0 0 
L 0 3.5 
" style="stroke: #000000; stroke-width: 0.8"/>
      </defs>
      <g>
       <use xlink:href="#md74cae82eb" x="74.473125" y="375.23875" style="stroke: #000000; stroke-width: 0.8"/>
      </g>
     </g>
     <g id="text_1">
      <!-- 0 -->
      <g transform="translate(69.383125 394.39625) scale(0.16 -0.16)">
       <defs>
        <path id="DejaVuSans-30" d="M 2034 4250 
Q 1547 4250 1301 3770 
Q 1056 3291 1056 2328 
Q 1056 1369 1301 889 
Q 1547 409 2034 409 
Q 2525 409 2770 889 
Q 3016 1369 3016 2328 
Q 3016 3291 2770 3770 
Q 2525 4250 2034 4250 
z
M 2034 4750 
Q 2819 4750 3233 4129 
Q 3647 3509 3647 2328 
Q 3647 1150 3233 529 
Q 2819 -91 2034 -91 
Q 1250 -91 836 529 
Q 422 1150 422 2328 
Q 422 3509 836 4129 
Q 1250 4750 2034 4750 
z
" transform="scale(0.015625)"/>
       </defs>
       <use xlink:href="#DejaVuSans-30"/>
      </g>
     </g>
    </g>
    <g id="xtick_2">
     <g id="line2d_2">
      <g>
       <use xlink:href="#md74cae82eb" x="168.830393" y="375.23875" style="stroke: #000000; stroke-width: 0.8"/>
      </g>
     </g>
     <g id="text_2">
      <!-- 50 -->
      <g transform="translate(158.650393 394.39625) scale(0.16 -0.16)">
       <defs>
        <path id="DejaVuSans-35" d="M 691 4666 
L 3169 4666 
L 3169 4134 
L 1269 4134 
L 1269 2991 
Q 1406 3038 1543 3061 
Q 1681 3084 1819 3084 
Q 2600 3084 3056 2656 
Q 3513 2228 3513 1497 
Q 3513 744 3044 326 
Q 2575 -91 1722 -91 
Q 1428 -91 1123 -41 
Q 819 9 494 109 
L 494 744 
Q 775 591 1075 516 
Q 1375 441 1709 441 
Q 2250 441 2565 725 
Q 2881 1009 2881 1497 
Q 2881 1984 2565 2268 
Q 2250 2553 1709 2553 
Q 1456 2553 1204 2497 
Q 953 2441 691 2322 
L 691 4666 
z
" transform="scale(0.015625)"/>
       </defs>
       <use xlink:href="#DejaVuSans-35"/>
       <use xlink:href="#DejaVuSans-30" x="63.623047"/>
      </g>
     </g>
    </g>
    <g id="xtick_3">
     <g id="line2d_3">
      <g>
       <use xlink:href="#md74cae82eb" x="263.187661" y="375.23875" style="stroke: #000000; stroke-width: 0.8"/>
      </g>
     </g>
     <g id="text_3">
      <!-- 100 -->
      <g transform="translate(247.917661 394.39625) scale(0.16 -0.16)">
       <defs>
        <path id="DejaVuSans-31" d="M 794 531 
L 1825 531 
L 1825 4091 
L 703 3866 
L 703 4441 
L 1819 4666 
L 2450 4666 
L 2450 531 
L 3481 531 
L 3481 0 
L 794 0 
L 794 531 
z
" transform="scale(0.015625)"/>
       </defs>
       <use xlink:href="#DejaVuSans-31"/>
       <use xlink:href="#DejaVuSans-30" x="63.623047"/>
       <use xlink:href="#DejaVuSans-30" x="127.246094"/>
      </g>
     </g>
    </g>
    <g id="xtick_4">
     <g id="line2d_4">
      <g>
       <use xlink:href="#md74cae82eb" x="357.544929" y="375.23875" style="stroke: #000000; stroke-width: 0.8"/>
      </g>
     </g>
     <g id="text_4">
      <!-- 150 -->
      <g transform="translate(342.274929 394.39625) scale(0.16 -0.16)">
       <use xlink:href="#DejaVuSans-31"/>
       <use xlink:href="#DejaVuSans-35" x="63.623047"/>
       <use xlink:href="#DejaVuSans-30" x="127.246094"/>
      </g>
     </g>
    </g>
    <g id="xtick_5">
     <g id="line2d_5">
      <g>
       <use xlink:href="#md74cae82eb" x="451.902198" y="375.23875" style="stroke: #000000; stroke-width: 0.8"/>
      </g>
     </g>
     <g id="text_5">
      <!-- 200 -->
      <g transform="translate(436.632198 394.39625) scale(0.16 -0.16)">
       <defs>
        <path id="DejaVuSans-32" d="M 1228 531 
L 3431 531 
L 3431 0 
L 469 0 
L 469 531 
Q 828 903 1448 1529 
Q 2069 2156 2228 2338 
Q 2531 2678 2651 2914 
Q 2772 3150 2772 3378 
Q 2772 3750 2511 3984 
Q 2250 4219 1831 4219 
Q 1534 4219 1204 4116 
Q 875 4013 500 3803 
L 500 4441 
Q 881 4594 1212 4672 
Q 1544 4750 1819 4750 
Q 2544 4750 2975 4387 
Q 3406 4025 3406 3419 
Q 3406 3131 3298 2873 
Q 3191 2616 2906 2266 
Q 2828 2175 2409 1742 
Q 1991 1309 1228 531 
z
" transform="scale(0.015625)"/>
       </defs>
       <use xlink:href="#DejaVuSans-32"/>
       <use xlink:href="#DejaVuSans-30" x="63.623047"/>
       <use xlink:href="#DejaVuSans-30" x="127.246094"/>
      </g>
     </g>
    </g>
    <g id="xtick_6">
     <g id="line2d_6">
      <g>
       <use xlink:href="#md74cae82eb" x="546.259466" y="375.23875" style="stroke: #000000; stroke-width: 0.8"/>
      </g>
     </g>
     <g id="text_6">
      <!-- 250 -->
      <g transform="translate(530.989466 394.39625) scale(0.16 -0.16)">
       <use xlink:href="#DejaVuSans-32"/>
       <use xlink:href="#DejaVuSans-35" x="63.623047"/>
       <use xlink:href="#DejaVuSans-30" x="127.246094"/>
      </g>
     </g>
    </g>
    <g id="text_7">
     <!-- Steps -->
     <g transform="translate(286.128149 415.400937) scale(0.18 -0.18)">
      <defs>
       <path id="DejaVuSans-53" d="M 3425 4513 
L 3425 3897 
Q 3066 4069 2747 4153 
Q 2428 4238 2131 4238 
Q 1616 4238 1336 4038 
Q 1056 3838 1056 3469 
Q 1056 3159 1242 3001 
Q 1428 2844 1947 2747 
L 2328 2669 
Q 3034 2534 3370 2195 
Q 3706 1856 3706 1288 
Q 3706 609 3251 259 
Q 2797 -91 1919 -91 
Q 1588 -91 1214 -16 
Q 841 59 441 206 
L 441 856 
Q 825 641 1194 531 
Q 1563 422 1919 422 
Q 2459 422 2753 634 
Q 3047 847 3047 1241 
Q 3047 1584 2836 1778 
Q 2625 1972 2144 2069 
L 1759 2144 
Q 1053 2284 737 2584 
Q 422 2884 422 3419 
Q 422 4038 858 4394 
Q 1294 4750 2059 4750 
Q 2388 4750 2728 4690 
Q 3069 4631 3425 4513 
z
" transform="scale(0.015625)"/>
       <path id="DejaVuSans-74" d="M 1172 4494 
L 1172 3500 
L 2356 3500 
L 2356 3053 
L 1172 3053 
L 1172 1153 
Q 1172 725 1289 603 
Q 1406 481 1766 481 
L 2356 481 
L 2356 0 
L 1766 0 
Q 1100 0 847 248 
Q 594 497 594 1153 
L 594 3053 
L 172 3053 
L 172 3500 
L 594 3500 
L 594 4494 
L 1172 4494 
z
" transform="scale(0.015625)"/>
       <path id="DejaVuSans-65" d="M 3597 1894 
L 3597 1613 
L 953 1613 
Q 991 1019 1311 708 
Q 1631 397 2203 397 
Q 2534 397 2845 478 
Q 3156 559 3463 722 
L 3463 178 
Q 3153 47 2828 -22 
Q 2503 -91 2169 -91 
Q 1331 -91 842 396 
Q 353 884 353 1716 
Q 353 2575 817 3079 
Q 1281 3584 2069 3584 
Q 2775 3584 3186 3129 
Q 3597 2675 3597 1894 
z
M 3022 2063 
Q 3016 2534 2758 2815 
Q 2500 3097 2075 3097 
Q 1594 3097 1305 2825 
Q 1016 2553 972 2059 
L 3022 2063 
z
" transform="scale(0.015625)"/>
       <path id="DejaVuSans-70" d="M 1159 525 
L 1159 -1331 
L 581 -1331 
L 581 3500 
L 1159 3500 
L 1159 2969 
Q 1341 3281 1617 3432 
Q 1894 3584 2278 3584 
Q 2916 3584 3314 3078 
Q 3713 2572 3713 1747 
Q 3713 922 3314 415 
Q 2916 -91 2278 -91 
Q 1894 -91 1617 61 
Q 1341 213 1159 525 
z
M 3116 1747 
Q 3116 2381 2855 2742 
Q 2594 3103 2138 3103 
Q 1681 3103 1420 2742 
Q 1159 2381 1159 1747 
Q 1159 1113 1420 752 
Q 1681 391 2138 391 
Q 2594 391 2855 752 
Q 3116 1113 3116 1747 
z
" transform="scale(0.015625)"/>
       <path id="DejaVuSans-73" d="M 2834 3397 
L 2834 2853 
Q 2591 2978 2328 3040 
Q 2066 3103 1784 3103 
Q 1356 3103 1142 2972 
Q 928 2841 928 2578 
Q 928 2378 1081 2264 
Q 1234 2150 1697 2047 
L 1894 2003 
Q 2506 1872 2764 1633 
Q 3022 1394 3022 966 
Q 3022 478 2636 193 
Q 2250 -91 1575 -91 
Q 1294 -91 989 -36 
Q 684 19 347 128 
L 347 722 
Q 666 556 975 473 
Q 1284 391 1588 391 
Q 1994 391 2212 530 
Q 2431 669 2431 922 
Q 2431 1156 2273 1281 
Q 2116 1406 1581 1522 
L 1381 1569 
Q 847 1681 609 1914 
Q 372 2147 372 2553 
Q 372 3047 722 3315 
Q 1072 3584 1716 3584 
Q 2034 3584 2315 3537 
Q 2597 3491 2834 3397 
z
" transform="scale(0.015625)"/>
      </defs>
      <use xlink:href="#DejaVuSans-53"/>
      <use xlink:href="#DejaVuSans-74" x="63.476562"/>
      <use xlink:href="#DejaVuSans-65" x="102.685547"/>
      <use xlink:href="#DejaVuSans-70" x="164.208984"/>
      <use xlink:href="#DejaVuSans-73" x="227.685547"/>
     </g>
    </g>
   </g>
   <g id="matplotlib.axis_2">
    <g id="ytick_1">
     <g id="line2d_7">
      <defs>
       <path id="m51cbd3950a" d="M 0 0 
L -3.5 0 
" style="stroke: #000000; stroke-width: 0.8"/>
      </defs>
      <g>
       <use xlink:href="#m51cbd3950a" x="74.473125" y="375.23875" style="stroke: #000000; stroke-width: 0.8"/>
      </g>
     </g>
     <g id="text_8">
      <!-- −0.6 -->
      <g transform="translate(28.620625 381.3175) scale(0.16 -0.16)">
       <defs>
        <path id="DejaVuSans-2212" d="M 678 2272 
L 4684 2272 
L 4684 1741 
L 678 1741 
L 678 2272 
z
" transform="scale(0.015625)"/>
        <path id="DejaVuSans-2e" d="M 684 794 
L 1344 794 
L 1344 0 
L 684 0 
L 684 794 
z
" transform="scale(0.015625)"/>
        <path id="DejaVuSans-36" d="M 2113 2584 
Q 1688 2584 1439 2293 
Q 1191 2003 1191 1497 
Q 1191 994 1439 701 
Q 1688 409 2113 409 
Q 2538 409 2786 701 
Q 3034 994 3034 1497 
Q 3034 2003 2786 2293 
Q 2538 2584 2113 2584 
z
M 3366 4563 
L 3366 3988 
Q 3128 4100 2886 4159 
Q 2644 4219 2406 4219 
Q 1781 4219 1451 3797 
Q 1122 3375 1075 2522 
Q 1259 2794 1537 2939 
Q 1816 3084 2150 3084 
Q 2853 3084 3261 2657 
Q 3669 2231 3669 1497 
Q 3669 778 3244 343 
Q 2819 -91 2113 -91 
Q 1303 -91 875 529 
Q 447 1150 447 2328 
Q 447 3434 972 4092 
Q 1497 4750 2381 4750 
Q 2619 4750 2861 4703 
Q 3103 4656 3366 4563 
z
" transform="scale(0.015625)"/>
       </defs>
       <use xlink:href="#DejaVuSans-2212"/>
       <use xlink:href="#DejaVuSans-30" x="83.789062"/>
       <use xlink:href="#DejaVuSans-2e" x="147.412109"/>
       <use xlink:href="#DejaVuSans-36" x="179.199219"/>
      </g>
     </g>
    </g>
    <g id="ytick_2">
     <g id="line2d_8">
      <g>
       <use xlink:href="#m51cbd3950a" x="74.473125" y="329.99375" style="stroke: #000000; stroke-width: 0.8"/>
      </g>
     </g>
     <g id="text_9">
      <!-- −0.4 -->
      <g transform="translate(28.620625 336.0725) scale(0.16 -0.16)">
       <defs>
        <path id="DejaVuSans-34" d="M 2419 4116 
L 825 1625 
L 2419 1625 
L 2419 4116 
z
M 2253 4666 
L 3047 4666 
L 3047 1625 
L 3713 1625 
L 3713 1100 
L 3047 1100 
L 3047 0 
L 2419 0 
L 2419 1100 
L 313 1100 
L 313 1709 
L 2253 4666 
z
" transform="scale(0.015625)"/>
       </defs>
       <use xlink:href="#DejaVuSans-2212"/>
       <use xlink:href="#DejaVuSans-30" x="83.789062"/>
       <use xlink:href="#DejaVuSans-2e" x="147.412109"/>
       <use xlink:href="#DejaVuSans-34" x="179.199219"/>
      </g>
     </g>
    </g>
    <g id="ytick_3">
     <g id="line2d_9">
      <g>
       <use xlink:href="#m51cbd3950a" x="74.473125" y="284.74875" style="stroke: #000000; stroke-width: 0.8"/>
      </g>
     </g>
     <g id="text_10">
      <!-- −0.2 -->
      <g transform="translate(28.620625 290.8275) scale(0.16 -0.16)">
       <use xlink:href="#DejaVuSans-2212"/>
       <use xlink:href="#DejaVuSans-30" x="83.789062"/>
       <use xlink:href="#DejaVuSans-2e" x="147.412109"/>
       <use xlink:href="#DejaVuSans-32" x="179.199219"/>
      </g>
     </g>
    </g>
    <g id="ytick_4">
     <g id="line2d_10">
      <g>
       <use xlink:href="#m51cbd3950a" x="74.473125" y="239.50375" style="stroke: #000000; stroke-width: 0.8"/>
      </g>
     </g>
     <g id="text_11">
      <!-- 0.0 -->
      <g transform="translate(42.028125 245.5825) scale(0.16 -0.16)">
       <use xlink:href="#DejaVuSans-30"/>
       <use xlink:href="#DejaVuSans-2e" x="63.623047"/>
       <use xlink:href="#DejaVuSans-30" x="95.410156"/>
      </g>
     </g>
    </g>
    <g id="ytick_5">
     <g id="line2d_11">
      <g>
       <use xlink:href="#m51cbd3950a" x="74.473125" y="194.25875" style="stroke: #000000; stroke-width: 0.8"/>
      </g>
     </g>
     <g id="text_12">
      <!-- 0.2 -->
      <g transform="translate(42.028125 200.3375) scale(0.16 -0.16)">
       <use xlink:href="#DejaVuSans-30"/>
       <use xlink:href="#DejaVuSans-2e" x="63.623047"/>
       <use xlink:href="#DejaVuSans-32" x="95.410156"/>
      </g>
     </g>
    </g>
    <g id="ytick_6">
     <g id="line2d_12">
      <g>
       <use xlink:href="#m51cbd3950a" x="74.473125" y="149.01375" style="stroke: #000000; stroke-width: 0.8"/>
      </g>
     </g>
     <g id="text_13">
      <!-- 0.4 -->
      <g transform="translate(42.028125 155.0925) scale(0.16 -0.16)">
       <use xlink:href="#DejaVuSans-30"/>
       <use xlink:href="#DejaVuSans-2e" x="63.623047"/>
       <use xlink:href="#DejaVuSans-34" x="95.410156"/>
      </g>
     </g>
    </g>
    <g id="ytick_7">
     <g id="line2d_13">
      <g>
       <use xlink:href="#m51cbd3950a" x="74.473125" y="103.76875" style="stroke: #000000; stroke-width: 0.8"/>
      </g>
     </g>
     <g id="text_14">
      <!-- 0.6 -->
      <g transform="translate(42.028125 109.8475) scale(0.16 -0.16)">
       <use xlink:href="#DejaVuSans-30"/>
       <use xlink:href="#DejaVuSans-2e" x="63.623047"/>
       <use xlink:href="#DejaVuSans-36" x="95.410156"/>
      </g>
     </g>
    </g>
    <g id="ytick_8">
     <g id="line2d_14">
      <g>
       <use xlink:href="#m51cbd3950a" x="74.473125" y="58.52375" style="stroke: #000000; stroke-width: 0.8"/>
      </g>
     </g>
     <g id="text_15">
      <!-- 0.8 -->
      <g transform="translate(42.028125 64.6025) scale(0.16 -0.16)">
       <defs>
        <path id="DejaVuSans-38" d="M 2034 2216 
Q 1584 2216 1326 1975 
Q 1069 1734 1069 1313 
Q 1069 891 1326 650 
Q 1584 409 2034 409 
Q 2484 409 2743 651 
Q 3003 894 3003 1313 
Q 3003 1734 2745 1975 
Q 2488 2216 2034 2216 
z
M 1403 2484 
Q 997 2584 770 2862 
Q 544 3141 544 3541 
Q 544 4100 942 4425 
Q 1341 4750 2034 4750 
Q 2731 4750 3128 4425 
Q 3525 4100 3525 3541 
Q 3525 3141 3298 2862 
Q 3072 2584 2669 2484 
Q 3125 2378 3379 2068 
Q 3634 1759 3634 1313 
Q 3634 634 3220 271 
Q 2806 -91 2034 -91 
Q 1263 -91 848 271 
Q 434 634 434 1313 
Q 434 1759 690 2068 
Q 947 2378 1403 2484 
z
M 1172 3481 
Q 1172 3119 1398 2916 
Q 1625 2713 2034 2713 
Q 2441 2713 2670 2916 
Q 2900 3119 2900 3481 
Q 2900 3844 2670 4047 
Q 2441 4250 2034 4250 
Q 1625 4250 1398 4047 
Q 1172 3844 1172 3481 
z
" transform="scale(0.015625)"/>
       </defs>
       <use xlink:href="#DejaVuSans-30"/>
       <use xlink:href="#DejaVuSans-2e" x="63.623047"/>
       <use xlink:href="#DejaVuSans-38" x="95.410156"/>
      </g>
     </g>
    </g>
    <g id="ytick_9">
     <g id="line2d_15">
      <g>
       <use xlink:href="#m51cbd3950a" x="74.473125" y="13.27875" style="stroke: #000000; stroke-width: 0.8"/>
      </g>
     </g>
     <g id="text_16">
      <!-- 1.0 -->
      <g transform="translate(42.028125 19.3575) scale(0.16 -0.16)">
       <use xlink:href="#DejaVuSans-31"/>
       <use xlink:href="#DejaVuSans-2e" x="63.623047"/>
       <use xlink:href="#DejaVuSans-30" x="95.410156"/>
      </g>
     </g>
    </g>
    <g id="text_17">
     <!-- Value -->
     <g transform="translate(20.877187 218.975) rotate(-90) scale(0.18 -0.18)">
      <defs>
       <path id="DejaVuSans-56" d="M 1831 0 
L 50 4666 
L 709 4666 
L 2188 738 
L 3669 4666 
L 4325 4666 
L 2547 0 
L 1831 0 
z
" transform="scale(0.015625)"/>
       <path id="DejaVuSans-61" d="M 2194 1759 
Q 1497 1759 1228 1600 
Q 959 1441 959 1056 
Q 959 750 1161 570 
Q 1363 391 1709 391 
Q 2188 391 2477 730 
Q 2766 1069 2766 1631 
L 2766 1759 
L 2194 1759 
z
M 3341 1997 
L 3341 0 
L 2766 0 
L 2766 531 
Q 2569 213 2275 61 
Q 1981 -91 1556 -91 
Q 1019 -91 701 211 
Q 384 513 384 1019 
Q 384 1609 779 1909 
Q 1175 2209 1959 2209 
L 2766 2209 
L 2766 2266 
Q 2766 2663 2505 2880 
Q 2244 3097 1772 3097 
Q 1472 3097 1187 3025 
Q 903 2953 641 2809 
L 641 3341 
Q 956 3463 1253 3523 
Q 1550 3584 1831 3584 
Q 2591 3584 2966 3190 
Q 3341 2797 3341 1997 
z
" transform="scale(0.015625)"/>
       <path id="DejaVuSans-6c" d="M 603 4863 
L 1178 4863 
L 1178 0 
L 603 0 
L 603 4863 
z
" transform="scale(0.015625)"/>
       <path id="DejaVuSans-75" d="M 544 1381 
L 544 3500 
L 1119 3500 
L 1119 1403 
Q 1119 906 1312 657 
Q 1506 409 1894 409 
Q 2359 409 2629 706 
Q 2900 1003 2900 1516 
L 2900 3500 
L 3475 3500 
L 3475 0 
L 2900 0 
L 2900 538 
Q 2691 219 2414 64 
Q 2138 -91 1772 -91 
Q 1169 -91 856 284 
Q 544 659 544 1381 
z
M 1991 3584 
L 1991 3584 
z
" transform="scale(0.015625)"/>
      </defs>
      <use xlink:href="#DejaVuSans-56"/>
      <use xlink:href="#DejaVuSans-61" x="60.658203"/>
      <use xlink:href="#DejaVuSans-6c" x="121.9375"/>
      <use xlink:href="#DejaVuSans-75" x="149.720703"/>
      <use xlink:href="#DejaVuSans-65" x="213.099609"/>
     </g>
    </g>
   </g>
   <g id="line2d_16">
    <path d="M 74.473125 148.322122 
L 76.36027 148.322122 
L 78.247416 104.748623 
L 80.134561 104.748623 
L 82.021706 82.948131 
L 83.908852 82.948131 
L 85.795997 71.029868 
L 87.683143 71.029868 
L 89.570288 64.563376 
L 91.457433 64.563376 
L 93.344579 60.729209 
L 95.231724 60.729209 
L 97.118869 58.943048 
L 99.006015 58.943048 
L 100.89316 59.229036 
L 102.780305 59.229036 
L 104.667451 57.362611 
L 106.554596 57.362611 
L 108.441742 61.124216 
L 110.328887 61.124216 
L 112.216032 60.209412 
L 114.103178 60.209412 
L 115.990323 59.499511 
L 117.877468 59.499511 
L 119.764614 61.571158 
L 121.651759 61.571158 
L 123.538904 59.313075 
L 125.42605 59.313075 
L 127.313195 58.613796 
L 129.200341 58.613796 
L 131.087486 59.627254 
L 132.974631 59.627254 
L 134.861777 57.90653 
L 136.748922 57.90653 
L 138.636067 57.364281 
L 140.523213 57.364281 
L 142.410358 59.64022 
L 144.297503 59.64022 
L 146.184649 58.939282 
L 155.620376 59.036491 
L 157.507521 57.604127 
L 159.394666 57.604127 
L 161.281812 56.362558 
L 163.168957 56.362558 
L 165.056102 72.244744 
L 166.943248 72.244744 
L 168.830393 96.969714 
L 170.717539 96.969714 
L 172.604684 135.09062 
L 174.491829 135.09062 
L 176.378975 152.059508 
L 178.26612 152.059508 
L 180.153265 130.476014 
L 182.040411 130.476014 
L 183.927556 123.890517 
L 185.814701 123.890517 
L 187.701847 122.87856 
L 189.588992 122.87856 
L 191.476137 138.041479 
L 193.363283 138.041479 
L 195.250428 128.374081 
L 200.911864 128.423529 
L 202.79901 114.735893 
L 204.686155 114.735893 
L 206.5733 132.755435 
L 208.460446 132.755435 
L 210.347591 127.439769 
L 212.234736 127.439769 
L 214.121882 131.314991 
L 216.009027 131.314991 
L 217.896173 127.772752 
L 219.783318 127.772752 
L 221.670463 122.14153 
L 223.557609 122.14153 
L 225.444754 141.161478 
L 227.331899 141.161478 
L 229.219045 132.956472 
L 231.10619 132.956472 
L 232.993335 128.133901 
L 234.880481 128.133901 
L 236.767626 113.150569 
L 238.654772 113.150569 
L 240.541917 127.425391 
L 242.429062 127.425391 
L 244.316208 136.310128 
L 246.203353 136.310128 
L 248.090498 130.00881 
L 249.977644 130.00881 
L 251.864789 125.864135 
L 253.751934 125.864135 
L 255.63908 111.45347 
L 257.526225 111.45347 
L 259.413371 137.653812 
L 261.300516 137.653812 
L 263.187661 141.484111 
L 265.074807 141.484111 
L 266.961952 130.777881 
L 268.849097 130.777881 
L 270.736243 121.157159 
L 272.623388 121.157159 
L 274.510533 120.426805 
L 276.397679 120.426805 
L 278.284824 121.991591 
L 280.17197 121.991591 
L 282.059115 132.22293 
L 283.94626 132.22293 
L 285.833406 145.129398 
L 287.720551 145.129398 
L 289.607696 123.741579 
L 291.494842 123.741579 
L 293.381987 126.969867 
L 295.269132 126.969867 
L 297.156278 121.322905 
L 299.043423 121.322905 
L 300.930569 135.196116 
L 302.817714 135.196116 
L 304.704859 117.673918 
L 306.592005 117.673918 
L 308.47915 123.660776 
L 310.366295 123.660776 
L 312.253441 143.096992 
L 314.140586 143.096992 
L 316.027731 176.799197 
L 317.914877 193.514424 
L 319.802022 196.967628 
L 321.689168 190.418543 
L 323.576313 182.300433 
L 325.463458 152.650885 
L 327.350604 152.962602 
L 329.237749 150.126255 
L 331.124894 154.045545 
L 333.01204 150.026345 
L 334.899185 155.459355 
L 336.78633 156.365112 
L 338.673476 156.006049 
L 340.560621 152.108388 
L 342.447767 142.377988 
L 344.334912 142.588573 
L 346.222057 140.770288 
L 348.109203 141.749473 
L 349.996348 140.347334 
L 351.883493 139.606138 
L 353.770639 135.485873 
L 355.657784 135.033784 
L 357.544929 135.666518 
L 359.432075 136.142453 
L 361.31922 135.492262 
L 363.206366 134.341484 
L 365.093511 135.636745 
L 366.980656 137.32795 
L 370.754947 139.988425 
L 372.642092 136.621727 
L 374.529238 138.445665 
L 376.416383 134.037423 
L 378.303528 137.080952 
L 380.190674 139.427953 
L 382.077819 135.468507 
L 383.964964 136.242947 
L 385.85211 138.738613 
L 387.739255 134.717499 
L 389.626401 135.29852 
L 391.513546 134.095449 
L 393.400691 130.131359 
L 395.287837 131.362319 
L 397.174982 133.248701 
L 399.062127 137.40739 
L 400.949273 134.748677 
L 402.836418 129.677687 
L 404.723563 131.53865 
L 406.610709 132.567326 
L 408.497854 129.91676 
L 410.385 130.243176 
L 412.272145 130.943359 
L 414.15929 131.034043 
L 416.046436 129.335272 
L 417.933581 128.206248 
L 419.820726 130.19072 
L 421.707872 129.914655 
L 423.595017 130.628453 
L 427.369308 131.446197 
L 429.256453 131.297462 
L 431.143599 132.977017 
L 433.030744 130.802734 
L 434.917889 129.953599 
L 436.805035 130.692309 
L 438.69218 131.816592 
L 440.579325 131.395029 
L 442.466471 132.349976 
L 444.353616 131.558689 
L 446.240761 132.967199 
L 448.127907 133.371351 
L 450.015052 130.221343 
L 451.902198 129.218786 
L 453.789343 129.740512 
L 455.676488 131.136146 
L 457.563634 131.347695 
L 459.450779 132.367694 
L 461.337924 130.900104 
L 463.22507 130.893422 
L 465.112215 130.288867 
L 466.99936 130.92968 
L 468.886506 131.119554 
L 470.773651 130.886893 
L 472.660797 131.051691 
L 474.547942 130.636259 
L 476.435087 131.323103 
L 478.322233 132.33697 
L 482.096523 130.968294 
L 483.983669 132.768633 
L 485.870814 131.282899 
L 487.757959 132.779789 
L 489.645105 130.448699 
L 491.53225 130.244524 
L 493.419396 128.433507 
L 495.306541 128.039908 
L 499.080832 129.520026 
L 500.967977 127.979632 
L 504.742268 128.45027 
L 508.516558 128.243049 
L 510.403704 130.023729 
L 512.290849 129.720368 
L 514.177995 129.149206 
L 516.06514 127.738223 
L 517.952285 128.220623 
L 519.839431 128.265278 
L 521.726576 128.651814 
L 523.613721 128.477028 
L 525.500867 128.786875 
L 527.388012 128.671748 
L 529.275157 128.39484 
L 531.162303 129.004227 
L 533.049448 130.30519 
L 534.936594 129.322602 
L 536.823739 129.286039 
L 538.710884 127.219779 
L 540.59803 127.117216 
L 542.485175 128.171527 
L 544.37232 128.813639 
L 546.259466 131.22412 
L 546.259466 131.22412 
" clip-path="url(#p08099b81a5)" style="fill: none; stroke: #008000; stroke-width: 2; stroke-linecap: square"/>
   </g>
   <g id="line2d_17">
    <path d="M 74.473125 239.068892 
L 76.36027 237.273763 
L 78.247416 235.081729 
L 82.021706 229.759955 
L 87.683143 220.866889 
L 97.118869 205.861145 
L 102.780305 197.322034 
L 108.441742 189.234341 
L 114.103178 181.754025 
L 119.764614 174.66866 
L 127.313195 165.864731 
L 132.974631 159.654883 
L 138.636067 153.746181 
L 142.410358 149.99328 
L 148.071794 144.715943 
L 153.73323 139.726816 
L 161.281812 133.446915 
L 163.168957 131.922052 
L 165.056102 130.584965 
L 166.943248 129.430894 
L 168.830393 128.545018 
L 170.717539 127.920403 
L 172.604684 127.686449 
L 174.491829 127.832917 
L 176.378975 128.144883 
L 178.26612 128.617956 
L 180.153265 128.86748 
L 183.927556 128.865137 
L 189.588992 128.545856 
L 191.476137 128.584221 
L 195.250428 128.858745 
L 200.911864 128.832007 
L 202.79901 128.688093 
L 204.686155 128.412094 
L 206.5733 128.320377 
L 210.347591 128.441357 
L 214.121882 128.440579 
L 219.783318 128.503281 
L 225.444754 128.375248 
L 229.219045 128.794688 
L 232.993335 128.909856 
L 234.880481 128.894506 
L 236.767626 128.730768 
L 238.654772 128.422565 
L 240.541917 128.262119 
L 244.316208 128.317513 
L 248.090498 128.568068 
L 251.864789 128.583374 
L 253.751934 128.529582 
L 255.63908 128.333846 
L 257.526225 127.999923 
L 259.413371 127.932613 
L 268.849097 128.799538 
L 272.623388 128.593134 
L 280.17197 128.018836 
L 283.94626 128.084655 
L 285.833406 128.294598 
L 287.720551 128.62762 
L 289.607696 128.741805 
L 295.269132 128.546161 
L 300.930569 128.317081 
L 302.817714 128.453161 
L 304.704859 128.412661 
L 308.47915 128.051414 
L 310.366295 127.964559 
L 312.253441 128.072304 
L 314.140586 128.369519 
L 316.027731 128.995311 
L 317.914877 130.106831 
L 321.689168 132.627553 
L 323.576313 133.690197 
L 325.463458 134.357556 
L 333.01204 135.721332 
L 338.673476 136.841375 
L 340.560621 137.181806 
L 344.334912 137.481466 
L 351.883493 137.749924 
L 357.544929 137.650168 
L 370.754947 137.504956 
L 380.190674 137.473177 
L 389.626401 137.37958 
L 393.400691 137.22322 
L 397.174982 137.000461 
L 402.836418 136.855965 
L 425.482162 135.475306 
L 444.353616 134.738706 
L 453.789343 134.406922 
L 466.99936 133.966613 
L 483.983669 133.533806 
L 493.419396 133.296869 
L 508.516558 132.580443 
L 546.259466 131.316515 
L 546.259466 131.316515 
" clip-path="url(#p08099b81a5)" style="fill: none; stroke: #0000ff; stroke-width: 2; stroke-linecap: square"/>
   </g>
   <g id="line2d_18">
    <path d="M 316.027731 375.23875 
L 316.027731 13.27875 
" clip-path="url(#p08099b81a5)" style="fill: none; stroke-dasharray: 3,4.95; stroke-dashoffset: 0; stroke: #ff0000; stroke-width: 3"/>
   </g>
   <g id="patch_3">
    <path d="M 74.473125 375.23875 
L 74.473125 13.27875 
" style="fill: none; stroke: #000000; stroke-width: 0.8; stroke-linejoin: miter; stroke-linecap: square"/>
   </g>
   <g id="patch_4">
    <path d="M 548.146611 375.23875 
L 548.146611 13.27875 
" style="fill: none; stroke: #000000; stroke-width: 0.8; stroke-linejoin: miter; stroke-linecap: square"/>
   </g>
   <g id="patch_5">
    <path d="M 74.473125 375.23875 
L 548.146611 375.23875 
" style="fill: none; stroke: #000000; stroke-width: 0.8; stroke-linejoin: miter; stroke-linecap: square"/>
   </g>
   <g id="patch_6">
    <path d="M 74.473125 13.27875 
L 548.146611 13.27875 
" style="fill: none; stroke: #000000; stroke-width: 0.8; stroke-linejoin: miter; stroke-linecap: square"/>
   </g>
   <g id="legend_1">
    <g id="patch_7">
     <path d="M 84.273125 368.23875 
L 196.765312 368.23875 
Q 199.565313 368.23875 199.565313 365.43875 
L 199.565313 305.190625 
Q 199.565313 302.390625 196.765312 302.390625 
L 84.273125 302.390625 
Q 81.473125 302.390625 81.473125 305.190625 
L 81.473125 365.43875 
Q 81.473125 368.23875 84.273125 368.23875 
z
" style="fill: #ffffff; opacity: 0.7; stroke: #cccccc; stroke-linejoin: miter"/>
    </g>
    <g id="line2d_19">
     <path d="M 87.073125 313.728437 
L 101.073125 313.728437 
L 115.073125 313.728437 
" style="fill: none; stroke: #008000; stroke-width: 2; stroke-linecap: square"/>
    </g>
    <g id="text_18">
     <!-- Action -->
     <g transform="translate(126.273125 318.628437) scale(0.14 -0.14)">
      <defs>
       <path id="DejaVuSans-41" d="M 2188 4044 
L 1331 1722 
L 3047 1722 
L 2188 4044 
z
M 1831 4666 
L 2547 4666 
L 4325 0 
L 3669 0 
L 3244 1197 
L 1141 1197 
L 716 0 
L 50 0 
L 1831 4666 
z
" transform="scale(0.015625)"/>
       <path id="DejaVuSans-63" d="M 3122 3366 
L 3122 2828 
Q 2878 2963 2633 3030 
Q 2388 3097 2138 3097 
Q 1578 3097 1268 2742 
Q 959 2388 959 1747 
Q 959 1106 1268 751 
Q 1578 397 2138 397 
Q 2388 397 2633 464 
Q 2878 531 3122 666 
L 3122 134 
Q 2881 22 2623 -34 
Q 2366 -91 2075 -91 
Q 1284 -91 818 406 
Q 353 903 353 1747 
Q 353 2603 823 3093 
Q 1294 3584 2113 3584 
Q 2378 3584 2631 3529 
Q 2884 3475 3122 3366 
z
" transform="scale(0.015625)"/>
       <path id="DejaVuSans-69" d="M 603 3500 
L 1178 3500 
L 1178 0 
L 603 0 
L 603 3500 
z
M 603 4863 
L 1178 4863 
L 1178 4134 
L 603 4134 
L 603 4863 
z
" transform="scale(0.015625)"/>
       <path id="DejaVuSans-6f" d="M 1959 3097 
Q 1497 3097 1228 2736 
Q 959 2375 959 1747 
Q 959 1119 1226 758 
Q 1494 397 1959 397 
Q 2419 397 2687 759 
Q 2956 1122 2956 1747 
Q 2956 2369 2687 2733 
Q 2419 3097 1959 3097 
z
M 1959 3584 
Q 2709 3584 3137 3096 
Q 3566 2609 3566 1747 
Q 3566 888 3137 398 
Q 2709 -91 1959 -91 
Q 1206 -91 779 398 
Q 353 888 353 1747 
Q 353 2609 779 3096 
Q 1206 3584 1959 3584 
z
" transform="scale(0.015625)"/>
       <path id="DejaVuSans-6e" d="M 3513 2113 
L 3513 0 
L 2938 0 
L 2938 2094 
Q 2938 2591 2744 2837 
Q 2550 3084 2163 3084 
Q 1697 3084 1428 2787 
Q 1159 2491 1159 1978 
L 1159 0 
L 581 0 
L 581 3500 
L 1159 3500 
L 1159 2956 
Q 1366 3272 1645 3428 
Q 1925 3584 2291 3584 
Q 2894 3584 3203 3211 
Q 3513 2838 3513 2113 
z
" transform="scale(0.015625)"/>
      </defs>
      <use xlink:href="#DejaVuSans-41"/>
      <use xlink:href="#DejaVuSans-63" x="66.658203"/>
      <use xlink:href="#DejaVuSans-74" x="121.638672"/>
      <use xlink:href="#DejaVuSans-69" x="160.847656"/>
      <use xlink:href="#DejaVuSans-6f" x="188.630859"/>
      <use xlink:href="#DejaVuSans-6e" x="249.8125"/>
     </g>
    </g>
    <g id="line2d_20">
     <path d="M 87.073125 334.277812 
L 101.073125 334.277812 
L 115.073125 334.277812 
" style="fill: none; stroke: #0000ff; stroke-width: 2; stroke-linecap: square"/>
    </g>
    <g id="text_19">
     <!-- State -->
     <g transform="translate(126.273125 339.177812) scale(0.14 -0.14)">
      <use xlink:href="#DejaVuSans-53"/>
      <use xlink:href="#DejaVuSans-74" x="63.476562"/>
      <use xlink:href="#DejaVuSans-61" x="102.685547"/>
      <use xlink:href="#DejaVuSans-74" x="163.964844"/>
      <use xlink:href="#DejaVuSans-65" x="203.173828"/>
     </g>
    </g>
    <g id="line2d_21">
     <path d="M 87.073125 354.827187 
L 101.073125 354.827187 
L 115.073125 354.827187 
" style="fill: none; stroke-dasharray: 3,4.95; stroke-dashoffset: 0; stroke: #ff0000; stroke-width: 3"/>
    </g>
    <g id="text_20">
     <!-- Transition -->
     <g transform="translate(126.273125 359.727187) scale(0.14 -0.14)">
      <defs>
       <path id="DejaVuSans-54" d="M -19 4666 
L 3928 4666 
L 3928 4134 
L 2272 4134 
L 2272 0 
L 1638 0 
L 1638 4134 
L -19 4134 
L -19 4666 
z
" transform="scale(0.015625)"/>
       <path id="DejaVuSans-72" d="M 2631 2963 
Q 2534 3019 2420 3045 
Q 2306 3072 2169 3072 
Q 1681 3072 1420 2755 
Q 1159 2438 1159 1844 
L 1159 0 
L 581 0 
L 581 3500 
L 1159 3500 
L 1159 2956 
Q 1341 3275 1631 3429 
Q 1922 3584 2338 3584 
Q 2397 3584 2469 3576 
Q 2541 3569 2628 3553 
L 2631 2963 
z
" transform="scale(0.015625)"/>
      </defs>
      <use xlink:href="#DejaVuSans-54"/>
      <use xlink:href="#DejaVuSans-72" x="46.333984"/>
      <use xlink:href="#DejaVuSans-61" x="87.447266"/>
      <use xlink:href="#DejaVuSans-6e" x="148.726562"/>
      <use xlink:href="#DejaVuSans-73" x="212.105469"/>
      <use xlink:href="#DejaVuSans-69" x="264.205078"/>
      <use xlink:href="#DejaVuSans-74" x="291.988281"/>
      <use xlink:href="#DejaVuSans-69" x="331.197266"/>
      <use xlink:href="#DejaVuSans-6f" x="358.980469"/>
      <use xlink:href="#DejaVuSans-6e" x="420.162109"/>
     </g>
    </g>
   </g>
  </g>
 </g>
 <defs>
  <clipPath id="p08099b81a5">
   <rect x="74.473125" y="13.27875" width="473.673486" height="361.96"/>
  </clipPath>
 </defs>
</svg>
