<?xml version="1.0" encoding="utf-8" standalone="no"?>
<!DOCTYPE svg PUBLIC "-//W3C//DTD SVG 1.1//EN"
  "http://www.w3.org/Graphics/SVG/1.1/DTD/svg11.dtd">
<svg xmlns:xlink="http://www.w3.org/1999/xlink" width="576pt" height="432pt" viewBox="0 0 576 432" xmlns="http://www.w3.org/2000/svg" version="1.1">
 <metadata>
  <rdf:RDF xmlns:dc="http://purl.org/dc/elements/1.1/" xmlns:cc="http://creativecommons.org/ns#" xmlns:rdf="http://www.w3.org/1999/02/22-rdf-syntax-ns#">
   <cc:Work>
    <dc:type rdf:resource="http://purl.org/dc/dcmitype/StillImage"/>
    <dc:date>2024-10-05T18:49:36.456489</dc:date>
    <dc:format>image/svg+xml</dc:format>
    <dc:creator>
     <cc:Agent>
      <dc:title>Matplotlib v3.7.5, https://matplotlib.org/</dc:title>
     </cc:Agent>
    </dc:creator>
   </cc:Work>
  </rdf:RDF>
 </metadata>
 <defs>
  <style type="text/css">*{stroke-linejoin: round; stroke-linecap: butt}</style>
 </defs>
 <g id="figure_1">
  <g id="patch_1">
   <path d="M 0 432 
L 576 432 
L 576 0 
L 0 0 
z
" style="fill: #ffffff"/>
  </g>
  <g id="axes_1">
   <g id="patch_2">
    <path d="M 72 384.48 
L 518.4 384.48 
L 518.4 51.84 
L 72 51.84 
z
" style="fill: #ffffff"/>
   </g>
   <g id="PolyCollection_1">
    <path d="M 72 177.758969 
L 72 193.235653 
L 73.778486 189.302972 
L 75.556972 160.241373 
L 77.335458 155.178989 
L 79.113944 146.82055 
L 80.89243 145.18426 
L 82.670916 141.437785 
L 84.449402 140.740193 
L 86.227888 139.326153 
L 88.006375 138.551677 
L 89.784861 134.239032 
L 91.563347 133.306621 
L 93.341833 130.726547 
L 95.120319 130.255308 
L 96.898805 129.350093 
L 98.677291 128.95877 
L 100.455777 126.972524 
L 102.234263 127.461064 
L 104.012749 133.056522 
L 105.791235 133.189831 
L 107.569721 128.580515 
L 109.348207 128.541312 
L 111.126693 132.862247 
L 112.905179 133.251552 
L 114.683665 131.808418 
L 116.462151 132.333149 
L 118.240637 137.656599 
L 120.019124 138.499017 
L 121.79761 139.398278 
L 123.576096 138.082367 
L 125.354582 127.459833 
L 127.133068 126.645497 
L 128.911554 131.247732 
L 130.69004 131.30239 
L 132.468526 127.099635 
L 134.247012 126.143386 
L 136.025498 123.280577 
L 137.803984 123.312869 
L 139.58247 126.4126 
L 141.360956 126.68945 
L 143.139442 125.634903 
L 144.917928 125.409898 
L 146.696414 124.802831 
L 148.4749 124.913253 
L 150.253386 126.335692 
L 152.031873 126.342507 
L 153.810359 124.98529 
L 155.588845 130.870459 
L 157.367331 175.731273 
L 159.145817 182.886207 
L 160.924303 190.931635 
L 162.702789 200.390141 
L 164.481275 262.259236 
L 166.259761 265.225266 
L 168.038247 225.275119 
L 169.816733 216.938925 
L 171.595219 195.296921 
L 173.373705 194.127006 
L 175.152191 207.109633 
L 176.930677 209.470657 
L 178.709163 213.942802 
L 180.487649 218.755941 
L 182.266135 249.853306 
L 184.044622 249.492253 
L 185.823108 215.721145 
L 187.601594 208.525506 
L 189.38008 189.1219 
L 191.158566 187.168315 
L 192.937052 192.121633 
L 194.715538 193.209869 
L 196.494024 196.31304 
L 198.27251 204.497668 
L 200.050996 261.884536 
L 201.829482 266.187347 
L 203.607968 240.592341 
L 205.386454 231.659922 
L 207.16494 191.246995 
L 208.943426 184.609903 
L 210.721912 175.956851 
L 212.500398 175.152121 
L 214.278884 177.856933 
L 216.057371 183.668294 
L 217.835857 223.917611 
L 219.614343 230.229479 
L 221.392829 236.640948 
L 223.171315 239.721548 
L 224.949801 256.07742 
L 226.728287 251.627933 
L 228.506773 202.385244 
L 230.285259 195.55034 
L 232.063745 194.275803 
L 233.842231 193.183066 
L 235.620717 186.377971 
L 237.399203 191.060336 
L 239.177689 232.474823 
L 240.956175 238.057649 
L 242.734661 237.917489 
L 244.513147 242.3195 
L 246.291633 274.989281 
L 248.07012 270.585547 
L 249.848606 205.376017 
L 251.627092 200.847888 
L 253.405578 232.595998 
L 255.184064 235.862635 
L 256.96255 228.230372 
L 258.741036 224.077155 
L 260.519522 201.016663 
L 262.298008 195.974661 
L 264.076494 181.767837 
L 265.85498 181.206155 
L 267.633466 191.261163 
L 269.411952 195.690507 
L 271.190438 218.367014 
L 272.968924 220.074444 
L 274.74741 210.033338 
L 276.525896 213.310493 
L 278.304382 247.568726 
L 280.082869 246.685652 
L 281.861355 205.893572 
L 283.639841 199.08111 
L 285.418327 189.541122 
L 287.196813 192.682272 
L 288.975299 225.431933 
L 290.753785 232.060469 
L 292.532271 248.286029 
L 294.310757 243.772803 
L 296.089243 194.216262 
L 297.867729 194.657163 
L 299.646215 251.118777 
L 301.424701 283.927106 
L 303.203187 276.406174 
L 304.981673 289.426584 
L 306.760159 299.983318 
L 308.538645 307.700598 
L 310.317131 315.554952 
L 312.095618 325.573093 
L 313.874104 281.95363 
L 315.65259 289.999533 
L 317.431076 304.023436 
L 319.209562 322.533073 
L 320.988048 334.213736 
L 322.766534 330.506892 
L 324.54502 369.36 
L 326.323506 364.647577 
L 328.101992 311.802373 
L 329.880478 300.112586 
L 331.658964 291.977775 
L 333.43745 262.825953 
L 335.215936 318.04489 
L 336.994422 319.796232 
L 338.772908 315.378372 
L 340.551394 312.625167 
L 342.32988 309.489262 
L 344.108367 258.261715 
L 345.886853 236.379236 
L 347.665339 220.60556 
L 349.443825 218.503578 
L 351.222311 230.410584 
L 353.000797 233.128894 
L 354.779283 257.424726 
L 356.557769 269.636655 
L 358.336255 269.179851 
L 360.114741 245.088794 
L 361.893227 252.052825 
L 363.671713 255.955094 
L 365.450199 251.128071 
L 367.228685 249.783989 
L 369.007171 256.771469 
L 370.785657 259.271543 
L 372.564143 259.394282 
L 374.342629 255.64812 
L 376.121116 258.064014 
L 377.899602 225.712573 
L 379.678088 253.955405 
L 381.456574 283.389558 
L 383.23506 281.027387 
L 385.013546 272.861077 
L 386.792032 271.720978 
L 388.570518 261.656392 
L 390.349004 252.809042 
L 392.12749 258.664721 
L 393.905976 267.842064 
L 395.684462 268.789615 
L 397.462948 274.567528 
L 399.241434 293.474654 
L 401.01992 296.739995 
L 402.798406 290.00097 
L 404.576892 242.50434 
L 406.355378 235.975868 
L 408.133865 238.721588 
L 409.912351 232.389949 
L 411.690837 223.482448 
L 413.469323 203.90519 
L 415.247809 201.245545 
L 417.026295 215.22172 
L 418.804781 221.365044 
L 420.583267 212.622921 
L 422.361753 250.153905 
L 424.140239 258.404982 
L 425.918725 267.88184 
L 427.697211 258.14217 
L 429.475697 268.415608 
L 431.254183 257.554213 
L 433.032669 282.508697 
L 434.811155 280.999357 
L 436.589641 280.25563 
L 438.368127 246.527739 
L 440.146614 248.34984 
L 441.9251 261.356896 
L 443.703586 286.025367 
L 445.482072 288.6806 
L 447.260558 265.147292 
L 449.039044 267.804474 
L 450.81753 258.316714 
L 452.596016 257.033032 
L 454.374502 249.297844 
L 456.152988 237.580326 
L 457.931474 237.153843 
L 459.70996 248.048643 
L 461.488446 253.146528 
L 463.266932 252.019218 
L 465.045418 250.416971 
L 466.823904 246.911295 
L 468.60239 246.537357 
L 470.380876 248.831089 
L 472.159363 245.908017 
L 473.937849 255.052875 
L 475.716335 256.10663 
L 477.494821 248.67995 
L 479.273307 268.239364 
L 481.051793 273.334767 
L 482.830279 277.592522 
L 484.608765 274.785825 
L 486.387251 278.660029 
L 488.165737 292.194573 
L 489.944223 303.401403 
L 491.722709 328.42911 
L 493.501195 331.1991 
L 495.279681 336.153424 
L 497.058167 327.071636 
L 498.836653 317.828436 
L 500.615139 310.206743 
L 502.393625 306.968254 
L 504.172112 303.079856 
L 505.950598 291.879629 
L 507.729084 269.589479 
L 509.50757 242.537388 
L 511.286056 240.674626 
L 513.064542 236.786515 
L 514.843028 215.792515 
L 516.621514 215.517358 
L 516.621514 107.39686 
L 516.621514 107.39686 
L 514.843028 86.500741 
L 513.064542 82.255952 
L 511.286056 78.15584 
L 509.50757 78.396198 
L 507.729084 115.089566 
L 505.950598 137.290784 
L 504.172112 162.419873 
L 502.393625 170.33411 
L 500.615139 167.142613 
L 498.836653 154.231232 
L 497.058167 151.10455 
L 495.279681 162.267347 
L 493.501195 169.986783 
L 491.722709 159.416571 
L 489.944223 128.471028 
L 488.165737 95.187959 
L 486.387251 70.601755 
L 484.608765 66.96 
L 482.830279 71.259975 
L 481.051793 71.894694 
L 479.273307 70.578418 
L 477.494821 69.834313 
L 475.716335 91.227052 
L 473.937849 90.855673 
L 472.159363 81.860718 
L 470.380876 81.464169 
L 468.60239 75.577769 
L 466.823904 82.73703 
L 465.045418 76.140066 
L 463.266932 71.847209 
L 461.488446 79.168219 
L 459.70996 78.717455 
L 457.931474 76.551945 
L 456.152988 73.029927 
L 454.374502 74.54371 
L 452.596016 101.039694 
L 450.81753 92.093196 
L 449.039044 100.253608 
L 447.260558 100.628335 
L 445.482072 105.524064 
L 443.703586 107.586347 
L 441.9251 114.578937 
L 440.146614 117.955115 
L 438.368127 116.417231 
L 436.589641 114.923684 
L 434.811155 102.840123 
L 433.032669 101.175433 
L 431.254183 93.282418 
L 429.475697 113.37059 
L 427.697211 115.880256 
L 425.918725 119.323453 
L 424.140239 117.842204 
L 422.361753 115.154176 
L 420.583267 114.519211 
L 418.804781 118.228928 
L 417.026295 120.928401 
L 415.247809 125.949057 
L 413.469323 125.652359 
L 411.690837 117.859821 
L 409.912351 117.526538 
L 408.133865 115.895986 
L 406.355378 110.750771 
L 404.576892 110.866423 
L 402.798406 120.419268 
L 401.01992 124.557508 
L 399.241434 136.251896 
L 397.462948 138.321533 
L 395.684462 139.805508 
L 393.905976 138.244928 
L 392.12749 136.010562 
L 390.349004 130.344098 
L 388.570518 132.757569 
L 386.792032 133.109131 
L 385.013546 125.737226 
L 383.23506 112.659868 
L 381.456574 108.742687 
L 379.678088 93.913616 
L 377.899602 70.702394 
L 376.121116 76.354793 
L 374.342629 74.954356 
L 372.564143 77.844101 
L 370.785657 70.950627 
L 369.007171 71.145552 
L 367.228685 77.040138 
L 365.450199 78.787782 
L 363.671713 77.006116 
L 361.893227 112.732871 
L 360.114741 117.793643 
L 358.336255 117.889546 
L 356.557769 118.021574 
L 354.779283 116.912762 
L 353.000797 81.290751 
L 351.222311 83.591131 
L 349.443825 90.524831 
L 347.665339 87.697028 
L 345.886853 99.464489 
L 344.108367 110.504342 
L 342.32988 128.352554 
L 340.551394 132.230623 
L 338.772908 135.202945 
L 336.994422 136.449742 
L 335.215936 129.727687 
L 333.43745 87.148552 
L 331.658964 98.607264 
L 329.880478 106.206448 
L 328.101992 118.349755 
L 326.323506 183.335988 
L 324.54502 177.973223 
L 322.766534 142.139997 
L 320.988048 141.929484 
L 319.209562 123.235115 
L 317.431076 119.617686 
L 315.65259 116.201351 
L 313.874104 122.414368 
L 312.095618 130.357462 
L 310.317131 136.923119 
L 308.538645 90.828549 
L 306.760159 83.106963 
L 304.981673 79.401928 
L 303.203187 80.864025 
L 301.424701 89.237605 
L 299.646215 109.139543 
L 297.867729 124.033952 
L 296.089243 127.058427 
L 294.310757 136.829489 
L 292.532271 135.967511 
L 290.753785 119.830141 
L 288.975299 117.980112 
L 287.196813 120.448351 
L 285.418327 121.647522 
L 283.639841 128.041961 
L 281.861355 130.674745 
L 280.082869 143.733187 
L 278.304382 142.168507 
L 276.525896 117.547178 
L 274.74741 114.359172 
L 272.968924 115.418696 
L 271.190438 114.785353 
L 269.411952 109.037683 
L 267.633466 108.863794 
L 265.85498 113.331989 
L 264.076494 116.144777 
L 262.298008 132.464859 
L 260.519522 134.425475 
L 258.741036 132.600154 
L 256.96255 132.877384 
L 255.184064 136.752626 
L 253.405578 135.376997 
L 251.627092 121.333785 
L 249.848606 119.696105 
L 248.07012 121.643033 
L 246.291633 124.88545 
L 244.513147 146.891232 
L 242.734661 146.232564 
L 240.956175 119.357723 
L 239.177689 115.256547 
L 237.399203 111.826085 
L 235.620717 111.884866 
L 233.842231 115.745456 
L 232.063745 118.147106 
L 230.285259 132.041844 
L 228.506773 135.774109 
L 226.728287 149.463704 
L 224.949801 149.650474 
L 223.171315 137.340045 
L 221.392829 133.25049 
L 219.614343 115.335724 
L 217.835857 112.228727 
L 216.057371 107.177659 
L 214.278884 108.016766 
L 212.500398 119.271572 
L 210.721912 123.800608 
L 208.943426 146.02325 
L 207.16494 150.084311 
L 205.386454 157.880971 
L 203.607968 158.148398 
L 201.829482 152.322924 
L 200.050996 146.304846 
L 198.27251 107.65425 
L 196.494024 104.099673 
L 194.715538 116.478361 
L 192.937052 119.697599 
L 191.158566 131.102657 
L 189.38008 133.292234 
L 187.601594 138.077275 
L 185.823108 139.37438 
L 184.044622 144.171736 
L 182.266135 141.181698 
L 180.487649 114.285933 
L 178.709163 111.032771 
L 176.930677 113.88918 
L 175.152191 116.25146 
L 173.373705 130.850005 
L 171.595219 134.077288 
L 169.816733 143.332647 
L 168.038247 143.927514 
L 166.259761 139.064026 
L 164.481275 134.369359 
L 162.702789 104.531657 
L 160.924303 99.08283 
L 159.145817 88.646662 
L 157.367331 88.42639 
L 155.588845 97.225097 
L 153.810359 98.699281 
L 152.031873 100.795156 
L 150.253386 101.723348 
L 148.4749 106.491472 
L 146.696414 107.252975 
L 144.917928 108.113829 
L 143.139442 108.070063 
L 141.360956 106.88726 
L 139.58247 106.706187 
L 137.803984 106.551181 
L 136.025498 106.654285 
L 134.247012 107.571574 
L 132.468526 107.931476 
L 130.69004 109.674714 
L 128.911554 110.051579 
L 127.133068 111.093451 
L 125.354582 110.90808 
L 123.576096 108.498735 
L 121.79761 109.029162 
L 120.019124 115.35919 
L 118.240637 116.080384 
L 116.462151 115.079569 
L 114.683665 114.657712 
L 112.905179 112.541773 
L 111.126693 111.969201 
L 109.348207 109.853377 
L 107.569721 109.872646 
L 105.791235 112.129274 
L 104.012749 112.068405 
L 102.234263 109.362022 
L 100.455777 109.347065 
L 98.677291 111.943469 
L 96.898805 112.22388 
L 95.120319 111.700443 
L 93.341833 112.118363 
L 91.563347 115.732619 
L 89.784861 116.573909 
L 88.006375 119.176481 
L 86.227888 118.956248 
L 84.449402 114.73081 
L 82.670916 115.684166 
L 80.89243 126.959513 
L 79.113944 129.399626 
L 77.335458 136.169781 
L 75.556972 141.415978 
L 73.778486 173.427049 
L 72 177.758969 
z
" clip-path="url(#pb7db7dc5db)" style="fill: #1f77b4; fill-opacity: 0.2"/>
   </g>
   <g id="PolyCollection_2">
    <path d="M 72 231.913389 
L 72 250.096262 
L 73.778486 253.613984 
L 75.556972 251.939857 
L 77.335458 249.933943 
L 79.113944 247.838719 
L 80.89243 245.687746 
L 82.670916 243.498758 
L 84.449402 241.293531 
L 86.227888 239.152561 
L 88.006375 237.069953 
L 89.784861 234.981243 
L 91.563347 232.87637 
L 93.341833 230.744741 
L 95.120319 228.592884 
L 96.898805 226.458764 
L 98.677291 224.349046 
L 100.455777 222.284963 
L 102.234263 220.273736 
L 104.012749 218.350747 
L 105.791235 216.512097 
L 107.569721 214.683446 
L 109.348207 212.855367 
L 111.126693 211.049479 
L 112.905179 209.275039 
L 114.683665 207.557327 
L 116.462151 205.903929 
L 118.240637 204.376369 
L 120.019124 202.963938 
L 121.79761 201.53752 
L 123.576096 200.092029 
L 125.354582 198.620186 
L 127.133068 197.11456 
L 128.911554 195.62961 
L 130.69004 194.170925 
L 132.468526 192.680059 
L 134.247012 191.157329 
L 136.025498 189.674857 
L 137.803984 188.240339 
L 139.58247 186.858538 
L 141.360956 185.525059 
L 143.139442 184.187532 
L 144.917928 182.84107 
L 146.696414 181.509361 
L 148.4749 180.19877 
L 150.253386 178.931282 
L 152.031873 177.71159 
L 153.810359 176.504765 
L 155.588845 175.302668 
L 157.367331 174.098466 
L 159.145817 173.081891 
L 160.924303 172.293546 
L 162.702789 171.75556 
L 164.481275 171.632518 
L 166.259761 172.218335 
L 168.038247 172.891495 
L 169.816733 173.16813 
L 171.595219 173.276367 
L 173.373705 173.191478 
L 175.152191 172.954817 
L 176.930677 172.768572 
L 178.709163 172.765221 
L 180.487649 172.937254 
L 182.266135 173.039229 
L 184.044622 173.058283 
L 185.823108 173.023888 
L 187.601594 172.800405 
L 189.38008 172.700361 
L 191.158566 172.621861 
L 192.937052 172.334726 
L 194.715538 171.977793 
L 196.494024 171.688199 
L 198.27251 171.618291 
L 200.050996 171.908219 
L 201.829482 172.720273 
L 203.607968 173.434655 
L 205.386454 173.761134 
L 207.16494 173.956983 
L 208.943426 173.8965 
L 210.721912 173.580396 
L 212.500398 173.088779 
L 214.278884 172.516269 
L 216.057371 171.978953 
L 217.835857 171.620682 
L 219.614343 171.757287 
L 221.392829 172.050178 
L 223.171315 172.370173 
L 224.949801 172.786905 
L 226.728287 173.335827 
L 228.506773 173.801938 
L 230.285259 173.880876 
L 232.063745 173.722075 
L 233.842231 173.448584 
L 235.620717 173.138062 
L 237.399203 172.806409 
L 239.177689 172.635535 
L 240.956175 172.847802 
L 242.734661 173.030531 
L 244.513147 172.946568 
L 246.291633 173.034194 
L 248.07012 174.095022 
L 249.848606 175.090516 
L 251.627092 175.451998 
L 253.405578 175.593954 
L 255.184064 175.700725 
L 256.96255 175.638621 
L 258.741036 175.377349 
L 260.519522 175.053453 
L 262.298008 174.587733 
L 264.076494 174.046255 
L 265.85498 173.490111 
L 267.633466 172.937537 
L 269.411952 172.504097 
L 271.190438 172.220324 
L 272.968924 172.241208 
L 274.74741 172.388837 
L 276.525896 172.514637 
L 278.304382 172.578182 
L 280.082869 172.629828 
L 281.861355 172.710428 
L 283.639841 172.65287 
L 285.418327 172.524255 
L 287.196813 172.318676 
L 288.975299 172.095888 
L 290.753785 172.161921 
L 292.532271 172.381715 
L 294.310757 172.745004 
L 296.089243 173.18787 
L 297.867729 173.367305 
L 299.646215 173.934951 
L 301.424701 175.319068 
L 303.203187 176.912032 
L 304.981673 178.516569 
L 306.760159 180.431531 
L 308.538645 182.533877 
L 310.317131 184.56643 
L 312.095618 186.445906 
L 313.874104 187.917788 
L 315.65259 189.166839 
L 317.431076 190.695933 
L 319.209562 192.381522 
L 320.988048 194.223118 
L 322.766534 196.068987 
L 324.54502 197.981012 
L 326.323506 200.082323 
L 328.101992 201.851876 
L 329.880478 203.221196 
L 331.658964 204.305629 
L 333.43745 204.773813 
L 335.215936 204.853329 
L 336.994422 205.0024 
L 338.772908 205.254438 
L 340.551394 205.60571 
L 342.32988 206.057887 
L 344.108367 206.379396 
L 345.886853 206.344159 
L 347.665339 206.109471 
L 349.443825 205.821482 
L 351.222311 205.634116 
L 353.000797 205.604605 
L 354.779283 205.666733 
L 356.557769 205.876567 
L 358.336255 206.183429 
L 360.114741 206.364508 
L 361.893227 206.433647 
L 363.671713 206.520726 
L 365.450199 206.660828 
L 367.228685 206.856696 
L 369.007171 207.087432 
L 370.785657 207.354313 
L 372.564143 207.661376 
L 374.342629 207.954271 
L 376.121116 208.256807 
L 377.899602 208.212163 
L 379.678088 207.77675 
L 381.456574 207.487556 
L 383.23506 207.39746 
L 385.013546 207.400821 
L 386.792032 207.555433 
L 388.570518 207.774935 
L 390.349004 207.845844 
L 392.12749 207.901252 
L 393.905976 208.119042 
L 395.684462 208.47316 
L 397.462948 208.825108 
L 399.241434 209.195818 
L 401.01992 209.68886 
L 402.798406 210.187661 
L 404.576892 210.447219 
L 406.355378 210.479534 
L 408.133865 210.403008 
L 409.912351 210.209221 
L 411.690837 209.92261 
L 413.469323 209.394605 
L 415.247809 208.647618 
L 417.026295 207.868419 
L 418.804781 207.145732 
L 420.583267 206.440594 
L 422.361753 205.948564 
L 424.140239 205.768056 
L 425.918725 205.631838 
L 427.697211 205.382229 
L 429.475697 205.075642 
L 431.254183 204.702604 
L 433.032669 204.467527 
L 434.811155 204.621667 
L 436.589641 204.99023 
L 438.368127 205.258347 
L 440.146614 205.364128 
L 441.9251 205.49495 
L 443.703586 205.715969 
L 445.482072 206.135445 
L 447.260558 206.585444 
L 449.039044 206.928426 
L 450.81753 207.005335 
L 452.596016 206.856591 
L 454.374502 206.673688 
L 456.152988 206.413757 
L 457.931474 206.163751 
L 459.70996 206.114992 
L 461.488446 206.287041 
L 463.266932 206.580829 
L 465.045418 206.941008 
L 466.823904 207.265061 
L 468.60239 207.555152 
L 470.380876 207.904839 
L 472.159363 208.29681 
L 473.937849 208.757216 
L 475.716335 209.328231 
L 477.494821 209.857521 
L 479.273307 210.35686 
L 481.051793 210.964198 
L 482.830279 211.643687 
L 484.608765 212.332701 
L 486.387251 213.010102 
L 488.165737 213.731341 
L 489.944223 214.435906 
L 491.722709 215.246833 
L 493.501195 216.237431 
L 495.279681 217.305577 
L 497.058167 218.374345 
L 498.836653 219.337479 
L 500.615139 220.146138 
L 502.393625 220.812116 
L 504.172112 221.437071 
L 505.950598 222.014443 
L 507.729084 222.341433 
L 509.50757 222.190628 
L 511.286056 221.785224 
L 513.064542 221.349072 
L 514.843028 220.777842 
L 516.621514 220.19088 
L 516.621514 153.195212 
L 516.621514 153.195212 
L 514.843028 153.898525 
L 513.064542 154.619769 
L 511.286056 155.334578 
L 509.50757 156.084358 
L 507.729084 156.449677 
L 505.950598 156.210399 
L 504.172112 155.394281 
L 502.393625 154.111125 
L 500.615139 152.710522 
L 498.836653 151.463616 
L 497.058167 150.321742 
L 495.279681 148.977499 
L 493.501195 147.351172 
L 491.722709 145.699086 
L 489.944223 144.51197 
L 488.165737 144.192278 
L 486.387251 144.702384 
L 484.608765 145.625915 
L 482.830279 146.570647 
L 481.051793 147.475504 
L 479.273307 148.413918 
L 477.494821 149.520118 
L 475.716335 150.584237 
L 473.937849 151.423436 
L 472.159363 152.354296 
L 470.380876 153.384457 
L 468.60239 154.441899 
L 466.823904 155.461086 
L 465.045418 156.483769 
L 463.266932 157.615033 
L 461.488446 158.637745 
L 459.70996 159.523697 
L 457.931474 160.39077 
L 456.152988 161.238433 
L 454.374502 161.996598 
L 452.596016 162.374123 
L 450.81753 162.527622 
L 449.039044 162.812967 
L 447.260558 163.212874 
L 445.482072 163.458147 
L 443.703586 163.386912 
L 441.9251 163.291083 
L 440.146614 163.374472 
L 438.368127 163.563156 
L 436.589641 163.625691 
L 434.811155 163.572223 
L 433.032669 163.412182 
L 431.254183 163.1885 
L 429.475697 162.848381 
L 427.697211 162.340122 
L 425.918725 161.830793 
L 424.140239 161.406353 
L 422.361753 161.152761 
L 420.583267 161.080751 
L 418.804781 161.065278 
L 417.026295 160.954744 
L 415.247809 160.924983 
L 413.469323 161.009461 
L 411.690837 161.18726 
L 409.912351 161.415158 
L 408.133865 161.612178 
L 406.355378 161.966111 
L 404.576892 162.450641 
L 402.798406 162.530535 
L 401.01992 162.159082 
L 399.241434 161.569414 
L 397.462948 160.919561 
L 395.684462 160.443997 
L 393.905976 160.0226 
L 392.12749 159.589383 
L 390.349004 159.212055 
L 388.570518 158.844898 
L 386.792032 158.398734 
L 385.013546 157.831465 
L 383.23506 157.210858 
L 381.456574 156.549559 
L 379.678088 156.138528 
L 377.899602 156.544412 
L 376.121116 157.496766 
L 374.342629 158.470049 
L 372.564143 159.419127 
L 370.785657 160.398993 
L 369.007171 161.446471 
L 367.228685 162.507886 
L 365.450199 163.531167 
L 363.671713 164.453453 
L 361.893227 164.987616 
L 360.114741 165.209808 
L 358.336255 165.323052 
L 356.557769 165.309917 
L 354.779283 165.321301 
L 353.000797 165.91842 
L 351.222311 167.045513 
L 349.443825 168.092339 
L 347.665339 169.121099 
L 345.886853 169.960104 
L 344.108367 170.410304 
L 342.32988 170.199052 
L 340.551394 169.337848 
L 338.772908 168.220643 
L 336.994422 166.859636 
L 335.215936 165.390973 
L 333.43745 164.889438 
L 331.658964 165.346544 
L 329.880478 165.850297 
L 328.101992 166.22824 
L 326.323506 165.560104 
L 324.54502 163.988137 
L 322.766534 162.910449 
L 320.988048 162.427238 
L 319.209562 162.162832 
L 317.431076 162.229965 
L 315.65259 162.507352 
L 313.874104 162.674436 
L 312.095618 162.542514 
L 310.317131 162.298515 
L 308.538645 162.742253 
L 306.760159 163.925169 
L 304.981673 165.201878 
L 303.203187 166.415911 
L 301.424701 167.567658 
L 299.646215 168.470534 
L 297.867729 169.095929 
L 296.089243 169.729125 
L 294.310757 170.012104 
L 292.532271 169.57492 
L 290.753785 169.266593 
L 288.975299 169.206758 
L 287.196813 169.245937 
L 285.418327 169.633713 
L 283.639841 169.969839 
L 281.861355 170.130088 
L 280.082869 169.795699 
L 278.304382 168.885649 
L 276.525896 168.567135 
L 274.74741 168.964287 
L 272.968924 169.342559 
L 271.190438 169.509898 
L 269.411952 169.685094 
L 267.633466 170.053947 
L 265.85498 170.422646 
L 264.076494 170.828993 
L 262.298008 170.92826 
L 260.519522 170.736735 
L 258.741036 170.408113 
L 256.96255 169.882477 
L 255.184064 169.390089 
L 253.405578 168.988078 
L 251.627092 169.118499 
L 249.848606 169.902741 
L 248.07012 170.624877 
L 246.291633 170.650038 
L 244.513147 169.710933 
L 242.734661 168.738376 
L 240.956175 168.33468 
L 239.177689 168.316743 
L 237.399203 168.46006 
L 235.620717 168.949452 
L 233.842231 169.416091 
L 232.063745 169.79232 
L 230.285259 170.10842 
L 228.506773 170.411995 
L 226.728287 170.367391 
L 224.949801 169.711534 
L 223.171315 169.140528 
L 221.392829 168.815181 
L 219.614343 168.766944 
L 217.835857 168.896542 
L 216.057371 169.08206 
L 214.278884 169.608138 
L 212.500398 170.084834 
L 210.721912 170.523396 
L 208.943426 170.791731 
L 207.16494 170.907303 
L 205.386454 170.689613 
L 203.607968 170.013608 
L 201.829482 169.413315 
L 200.050996 168.78781 
L 198.27251 168.681495 
L 196.494024 169.297697 
L 194.715538 169.733626 
L 192.937052 170.001521 
L 191.158566 170.265364 
L 189.38008 170.641976 
L 187.601594 170.721021 
L 185.823108 170.349942 
L 184.044622 169.691114 
L 182.266135 168.709103 
L 180.487649 168.399656 
L 178.709163 168.820212 
L 176.930677 169.168313 
L 175.152191 169.356958 
L 173.373705 169.486489 
L 171.595219 169.7146 
L 169.816733 169.786905 
L 168.038247 169.624257 
L 166.259761 169.405988 
L 164.481275 168.804209 
L 162.702789 168.469445 
L 160.924303 168.793833 
L 159.145817 169.222055 
L 157.367331 169.70788 
L 155.588845 170.473736 
L 153.810359 171.690912 
L 152.031873 172.962113 
L 150.253386 174.226231 
L 148.4749 175.449702 
L 146.696414 176.639921 
L 144.917928 177.838136 
L 143.139442 179.055971 
L 141.360956 180.333946 
L 139.58247 181.674655 
L 137.803984 183.058379 
L 136.025498 184.477436 
L 134.247012 185.867393 
L 132.468526 187.223555 
L 130.69004 188.596556 
L 128.911554 189.996097 
L 127.133068 191.459597 
L 125.354582 192.991645 
L 123.576096 194.529812 
L 121.79761 196.053356 
L 120.019124 197.582582 
L 118.240637 199.13168 
L 116.462151 200.690247 
L 114.683665 202.258803 
L 112.905179 203.844415 
L 111.126693 205.45645 
L 109.348207 207.179852 
L 107.569721 209.016865 
L 105.791235 210.857628 
L 104.012749 212.694887 
L 102.234263 214.607446 
L 100.455777 216.598284 
L 98.677291 218.576042 
L 96.898805 220.536583 
L 95.120319 222.544224 
L 93.341833 224.604904 
L 91.563347 226.699528 
L 89.784861 228.825648 
L 88.006375 230.965815 
L 86.227888 233.121842 
L 84.449402 235.327709 
L 82.670916 237.568902 
L 80.89243 239.74828 
L 79.113944 241.860753 
L 77.335458 243.921599 
L 75.556972 245.898793 
L 73.778486 247.515482 
L 72 231.913389 
z
" clip-path="url(#pb7db7dc5db)" style="fill: #ff7f0e; fill-opacity: 0.2"/>
   </g>
   <g id="matplotlib.axis_1">
    <g id="xtick_1">
     <g id="line2d_1">
      <defs>
       <path id="mfa52b989ca" d="M 0 0 
L 0 3.5 
" style="stroke: #000000; stroke-width: 0.8"/>
      </defs>
      <g>
       <use xlink:href="#mfa52b989ca" x="72" y="384.48" style="stroke: #000000; stroke-width: 0.8"/>
      </g>
     </g>
     <g id="text_1">
      <!-- 0 -->
      <g transform="translate(66.91 403.6375) scale(0.16 -0.16)">
       <defs>
        <path id="DejaVuSans-30" d="M 2034 4250 
Q 1547 4250 1301 3770 
Q 1056 3291 1056 2328 
Q 1056 1369 1301 889 
Q 1547 409 2034 409 
Q 2525 409 2770 889 
Q 3016 1369 3016 2328 
Q 3016 3291 2770 3770 
Q 2525 4250 2034 4250 
z
M 2034 4750 
Q 2819 4750 3233 4129 
Q 3647 3509 3647 2328 
Q 3647 1150 3233 529 
Q 2819 -91 2034 -91 
Q 1250 -91 836 529 
Q 422 1150 422 2328 
Q 422 3509 836 4129 
Q 1250 4750 2034 4750 
z
" transform="scale(0.015625)"/>
       </defs>
       <use xlink:href="#DejaVuSans-30"/>
      </g>
     </g>
    </g>
    <g id="xtick_2">
     <g id="line2d_2">
      <g>
       <use xlink:href="#mfa52b989ca" x="160.924303" y="384.48" style="stroke: #000000; stroke-width: 0.8"/>
      </g>
     </g>
     <g id="text_2">
      <!-- 50 -->
      <g transform="translate(150.744303 403.6375) scale(0.16 -0.16)">
       <defs>
        <path id="DejaVuSans-35" d="M 691 4666 
L 3169 4666 
L 3169 4134 
L 1269 4134 
L 1269 2991 
Q 1406 3038 1543 3061 
Q 1681 3084 1819 3084 
Q 2600 3084 3056 2656 
Q 3513 2228 3513 1497 
Q 3513 744 3044 326 
Q 2575 -91 1722 -91 
Q 1428 -91 1123 -41 
Q 819 9 494 109 
L 494 744 
Q 775 591 1075 516 
Q 1375 441 1709 441 
Q 2250 441 2565 725 
Q 2881 1009 2881 1497 
Q 2881 1984 2565 2268 
Q 2250 2553 1709 2553 
Q 1456 2553 1204 2497 
Q 953 2441 691 2322 
L 691 4666 
z
" transform="scale(0.015625)"/>
       </defs>
       <use xlink:href="#DejaVuSans-35"/>
       <use xlink:href="#DejaVuSans-30" x="63.623047"/>
      </g>
     </g>
    </g>
    <g id="xtick_3">
     <g id="line2d_3">
      <g>
       <use xlink:href="#mfa52b989ca" x="249.848606" y="384.48" style="stroke: #000000; stroke-width: 0.8"/>
      </g>
     </g>
     <g id="text_3">
      <!-- 100 -->
      <g transform="translate(234.578606 403.6375) scale(0.16 -0.16)">
       <defs>
        <path id="DejaVuSans-31" d="M 794 531 
L 1825 531 
L 1825 4091 
L 703 3866 
L 703 4441 
L 1819 4666 
L 2450 4666 
L 2450 531 
L 3481 531 
L 3481 0 
L 794 0 
L 794 531 
z
" transform="scale(0.015625)"/>
       </defs>
       <use xlink:href="#DejaVuSans-31"/>
       <use xlink:href="#DejaVuSans-30" x="63.623047"/>
       <use xlink:href="#DejaVuSans-30" x="127.246094"/>
      </g>
     </g>
    </g>
    <g id="xtick_4">
     <g id="line2d_4">
      <g>
       <use xlink:href="#mfa52b989ca" x="338.772908" y="384.48" style="stroke: #000000; stroke-width: 0.8"/>
      </g>
     </g>
     <g id="text_4">
      <!-- 150 -->
      <g transform="translate(323.502908 403.6375) scale(0.16 -0.16)">
       <use xlink:href="#DejaVuSans-31"/>
       <use xlink:href="#DejaVuSans-35" x="63.623047"/>
       <use xlink:href="#DejaVuSans-30" x="127.246094"/>
      </g>
     </g>
    </g>
    <g id="xtick_5">
     <g id="line2d_5">
      <g>
       <use xlink:href="#mfa52b989ca" x="427.697211" y="384.48" style="stroke: #000000; stroke-width: 0.8"/>
      </g>
     </g>
     <g id="text_5">
      <!-- 200 -->
      <g transform="translate(412.427211 403.6375) scale(0.16 -0.16)">
       <defs>
        <path id="DejaVuSans-32" d="M 1228 531 
L 3431 531 
L 3431 0 
L 469 0 
L 469 531 
Q 828 903 1448 1529 
Q 2069 2156 2228 2338 
Q 2531 2678 2651 2914 
Q 2772 3150 2772 3378 
Q 2772 3750 2511 3984 
Q 2250 4219 1831 4219 
Q 1534 4219 1204 4116 
Q 875 4013 500 3803 
L 500 4441 
Q 881 4594 1212 4672 
Q 1544 4750 1819 4750 
Q 2544 4750 2975 4387 
Q 3406 4025 3406 3419 
Q 3406 3131 3298 2873 
Q 3191 2616 2906 2266 
Q 2828 2175 2409 1742 
Q 1991 1309 1228 531 
z
" transform="scale(0.015625)"/>
       </defs>
       <use xlink:href="#DejaVuSans-32"/>
       <use xlink:href="#DejaVuSans-30" x="63.623047"/>
       <use xlink:href="#DejaVuSans-30" x="127.246094"/>
      </g>
     </g>
    </g>
    <g id="xtick_6">
     <g id="line2d_6">
      <g>
       <use xlink:href="#mfa52b989ca" x="516.621514" y="384.48" style="stroke: #000000; stroke-width: 0.8"/>
      </g>
     </g>
     <g id="text_6">
      <!-- 250 -->
      <g transform="translate(501.351514 403.6375) scale(0.16 -0.16)">
       <use xlink:href="#DejaVuSans-32"/>
       <use xlink:href="#DejaVuSans-35" x="63.623047"/>
       <use xlink:href="#DejaVuSans-30" x="127.246094"/>
      </g>
     </g>
    </g>
    <g id="text_7">
     <!-- Steps -->
     <g transform="translate(270.018281 424.642187) scale(0.18 -0.18)">
      <defs>
       <path id="DejaVuSans-53" d="M 3425 4513 
L 3425 3897 
Q 3066 4069 2747 4153 
Q 2428 4238 2131 4238 
Q 1616 4238 1336 4038 
Q 1056 3838 1056 3469 
Q 1056 3159 1242 3001 
Q 1428 2844 1947 2747 
L 2328 2669 
Q 3034 2534 3370 2195 
Q 3706 1856 3706 1288 
Q 3706 609 3251 259 
Q 2797 -91 1919 -91 
Q 1588 -91 1214 -16 
Q 841 59 441 206 
L 441 856 
Q 825 641 1194 531 
Q 1563 422 1919 422 
Q 2459 422 2753 634 
Q 3047 847 3047 1241 
Q 3047 1584 2836 1778 
Q 2625 1972 2144 2069 
L 1759 2144 
Q 1053 2284 737 2584 
Q 422 2884 422 3419 
Q 422 4038 858 4394 
Q 1294 4750 2059 4750 
Q 2388 4750 2728 4690 
Q 3069 4631 3425 4513 
z
" transform="scale(0.015625)"/>
       <path id="DejaVuSans-74" d="M 1172 4494 
L 1172 3500 
L 2356 3500 
L 2356 3053 
L 1172 3053 
L 1172 1153 
Q 1172 725 1289 603 
Q 1406 481 1766 481 
L 2356 481 
L 2356 0 
L 1766 0 
Q 1100 0 847 248 
Q 594 497 594 1153 
L 594 3053 
L 172 3053 
L 172 3500 
L 594 3500 
L 594 4494 
L 1172 4494 
z
" transform="scale(0.015625)"/>
       <path id="DejaVuSans-65" d="M 3597 1894 
L 3597 1613 
L 953 1613 
Q 991 1019 1311 708 
Q 1631 397 2203 397 
Q 2534 397 2845 478 
Q 3156 559 3463 722 
L 3463 178 
Q 3153 47 2828 -22 
Q 2503 -91 2169 -91 
Q 1331 -91 842 396 
Q 353 884 353 1716 
Q 353 2575 817 3079 
Q 1281 3584 2069 3584 
Q 2775 3584 3186 3129 
Q 3597 2675 3597 1894 
z
M 3022 2063 
Q 3016 2534 2758 2815 
Q 2500 3097 2075 3097 
Q 1594 3097 1305 2825 
Q 1016 2553 972 2059 
L 3022 2063 
z
" transform="scale(0.015625)"/>
       <path id="DejaVuSans-70" d="M 1159 525 
L 1159 -1331 
L 581 -1331 
L 581 3500 
L 1159 3500 
L 1159 2969 
Q 1341 3281 1617 3432 
Q 1894 3584 2278 3584 
Q 2916 3584 3314 3078 
Q 3713 2572 3713 1747 
Q 3713 922 3314 415 
Q 2916 -91 2278 -91 
Q 1894 -91 1617 61 
Q 1341 213 1159 525 
z
M 3116 1747 
Q 3116 2381 2855 2742 
Q 2594 3103 2138 3103 
Q 1681 3103 1420 2742 
Q 1159 2381 1159 1747 
Q 1159 1113 1420 752 
Q 1681 391 2138 391 
Q 2594 391 2855 752 
Q 3116 1113 3116 1747 
z
" transform="scale(0.015625)"/>
       <path id="DejaVuSans-73" d="M 2834 3397 
L 2834 2853 
Q 2591 2978 2328 3040 
Q 2066 3103 1784 3103 
Q 1356 3103 1142 2972 
Q 928 2841 928 2578 
Q 928 2378 1081 2264 
Q 1234 2150 1697 2047 
L 1894 2003 
Q 2506 1872 2764 1633 
Q 3022 1394 3022 966 
Q 3022 478 2636 193 
Q 2250 -91 1575 -91 
Q 1294 -91 989 -36 
Q 684 19 347 128 
L 347 722 
Q 666 556 975 473 
Q 1284 391 1588 391 
Q 1994 391 2212 530 
Q 2431 669 2431 922 
Q 2431 1156 2273 1281 
Q 2116 1406 1581 1522 
L 1381 1569 
Q 847 1681 609 1914 
Q 372 2147 372 2553 
Q 372 3047 722 3315 
Q 1072 3584 1716 3584 
Q 2034 3584 2315 3537 
Q 2597 3491 2834 3397 
z
" transform="scale(0.015625)"/>
      </defs>
      <use xlink:href="#DejaVuSans-53"/>
      <use xlink:href="#DejaVuSans-74" x="63.476562"/>
      <use xlink:href="#DejaVuSans-65" x="102.685547"/>
      <use xlink:href="#DejaVuSans-70" x="164.208984"/>
      <use xlink:href="#DejaVuSans-73" x="227.685547"/>
     </g>
    </g>
   </g>
   <g id="matplotlib.axis_2">
    <g id="ytick_1">
     <g id="line2d_7">
      <defs>
       <path id="m3dc6cf5622" d="M 0 0 
L -3.5 0 
" style="stroke: #000000; stroke-width: 0.8"/>
      </defs>
      <g>
       <use xlink:href="#m3dc6cf5622" x="72" y="374.859257" style="stroke: #000000; stroke-width: 0.8"/>
      </g>
     </g>
     <g id="text_8">
      <!-- −0.75 -->
      <g transform="translate(15.9675 380.938007) scale(0.16 -0.16)">
       <defs>
        <path id="DejaVuSans-2212" d="M 678 2272 
L 4684 2272 
L 4684 1741 
L 678 1741 
L 678 2272 
z
" transform="scale(0.015625)"/>
        <path id="DejaVuSans-2e" d="M 684 794 
L 1344 794 
L 1344 0 
L 684 0 
L 684 794 
z
" transform="scale(0.015625)"/>
        <path id="DejaVuSans-37" d="M 525 4666 
L 3525 4666 
L 3525 4397 
L 1831 0 
L 1172 0 
L 2766 4134 
L 525 4134 
L 525 4666 
z
" transform="scale(0.015625)"/>
       </defs>
       <use xlink:href="#DejaVuSans-2212"/>
       <use xlink:href="#DejaVuSans-30" x="83.789062"/>
       <use xlink:href="#DejaVuSans-2e" x="147.412109"/>
       <use xlink:href="#DejaVuSans-37" x="179.199219"/>
       <use xlink:href="#DejaVuSans-35" x="242.822266"/>
      </g>
     </g>
    </g>
    <g id="ytick_2">
     <g id="line2d_8">
      <g>
       <use xlink:href="#m3dc6cf5622" x="72" y="333.825839" style="stroke: #000000; stroke-width: 0.8"/>
      </g>
     </g>
     <g id="text_9">
      <!-- −0.50 -->
      <g transform="translate(15.9675 339.904589) scale(0.16 -0.16)">
       <use xlink:href="#DejaVuSans-2212"/>
       <use xlink:href="#DejaVuSans-30" x="83.789062"/>
       <use xlink:href="#DejaVuSans-2e" x="147.412109"/>
       <use xlink:href="#DejaVuSans-35" x="179.199219"/>
       <use xlink:href="#DejaVuSans-30" x="242.822266"/>
      </g>
     </g>
    </g>
    <g id="ytick_3">
     <g id="line2d_9">
      <g>
       <use xlink:href="#m3dc6cf5622" x="72" y="292.792421" style="stroke: #000000; stroke-width: 0.8"/>
      </g>
     </g>
     <g id="text_10">
      <!-- −0.25 -->
      <g transform="translate(15.9675 298.871171) scale(0.16 -0.16)">
       <use xlink:href="#DejaVuSans-2212"/>
       <use xlink:href="#DejaVuSans-30" x="83.789062"/>
       <use xlink:href="#DejaVuSans-2e" x="147.412109"/>
       <use xlink:href="#DejaVuSans-32" x="179.199219"/>
       <use xlink:href="#DejaVuSans-35" x="242.822266"/>
      </g>
     </g>
    </g>
    <g id="ytick_4">
     <g id="line2d_10">
      <g>
       <use xlink:href="#m3dc6cf5622" x="72" y="251.759003" style="stroke: #000000; stroke-width: 0.8"/>
      </g>
     </g>
     <g id="text_11">
      <!-- 0.00 -->
      <g transform="translate(29.375 257.837753) scale(0.16 -0.16)">
       <use xlink:href="#DejaVuSans-30"/>
       <use xlink:href="#DejaVuSans-2e" x="63.623047"/>
       <use xlink:href="#DejaVuSans-30" x="95.410156"/>
       <use xlink:href="#DejaVuSans-30" x="159.033203"/>
      </g>
     </g>
    </g>
    <g id="ytick_5">
     <g id="line2d_11">
      <g>
       <use xlink:href="#m3dc6cf5622" x="72" y="210.725585" style="stroke: #000000; stroke-width: 0.8"/>
      </g>
     </g>
     <g id="text_12">
      <!-- 0.25 -->
      <g transform="translate(29.375 216.804335) scale(0.16 -0.16)">
       <use xlink:href="#DejaVuSans-30"/>
       <use xlink:href="#DejaVuSans-2e" x="63.623047"/>
       <use xlink:href="#DejaVuSans-32" x="95.410156"/>
       <use xlink:href="#DejaVuSans-35" x="159.033203"/>
      </g>
     </g>
    </g>
    <g id="ytick_6">
     <g id="line2d_12">
      <g>
       <use xlink:href="#m3dc6cf5622" x="72" y="169.692167" style="stroke: #000000; stroke-width: 0.8"/>
      </g>
     </g>
     <g id="text_13">
      <!-- 0.50 -->
      <g transform="translate(29.375 175.770917) scale(0.16 -0.16)">
       <use xlink:href="#DejaVuSans-30"/>
       <use xlink:href="#DejaVuSans-2e" x="63.623047"/>
       <use xlink:href="#DejaVuSans-35" x="95.410156"/>
       <use xlink:href="#DejaVuSans-30" x="159.033203"/>
      </g>
     </g>
    </g>
    <g id="ytick_7">
     <g id="line2d_13">
      <g>
       <use xlink:href="#m3dc6cf5622" x="72" y="128.658749" style="stroke: #000000; stroke-width: 0.8"/>
      </g>
     </g>
     <g id="text_14">
      <!-- 0.75 -->
      <g transform="translate(29.375 134.737499) scale(0.16 -0.16)">
       <use xlink:href="#DejaVuSans-30"/>
       <use xlink:href="#DejaVuSans-2e" x="63.623047"/>
       <use xlink:href="#DejaVuSans-37" x="95.410156"/>
       <use xlink:href="#DejaVuSans-35" x="159.033203"/>
      </g>
     </g>
    </g>
    <g id="ytick_8">
     <g id="line2d_14">
      <g>
       <use xlink:href="#m3dc6cf5622" x="72" y="87.625331" style="stroke: #000000; stroke-width: 0.8"/>
      </g>
     </g>
     <g id="text_15">
      <!-- 1.00 -->
      <g transform="translate(29.375 93.704081) scale(0.16 -0.16)">
       <use xlink:href="#DejaVuSans-31"/>
       <use xlink:href="#DejaVuSans-2e" x="63.623047"/>
       <use xlink:href="#DejaVuSans-30" x="95.410156"/>
       <use xlink:href="#DejaVuSans-30" x="159.033203"/>
      </g>
     </g>
    </g>
    <g id="text_16">
     <!-- Value -->
     <g transform="translate(8.224063 242.87625) rotate(-90) scale(0.18 -0.18)">
      <defs>
       <path id="DejaVuSans-56" d="M 1831 0 
L 50 4666 
L 709 4666 
L 2188 738 
L 3669 4666 
L 4325 4666 
L 2547 0 
L 1831 0 
z
" transform="scale(0.015625)"/>
       <path id="DejaVuSans-61" d="M 2194 1759 
Q 1497 1759 1228 1600 
Q 959 1441 959 1056 
Q 959 750 1161 570 
Q 1363 391 1709 391 
Q 2188 391 2477 730 
Q 2766 1069 2766 1631 
L 2766 1759 
L 2194 1759 
z
M 3341 1997 
L 3341 0 
L 2766 0 
L 2766 531 
Q 2569 213 2275 61 
Q 1981 -91 1556 -91 
Q 1019 -91 701 211 
Q 384 513 384 1019 
Q 384 1609 779 1909 
Q 1175 2209 1959 2209 
L 2766 2209 
L 2766 2266 
Q 2766 2663 2505 2880 
Q 2244 3097 1772 3097 
Q 1472 3097 1187 3025 
Q 903 2953 641 2809 
L 641 3341 
Q 956 3463 1253 3523 
Q 1550 3584 1831 3584 
Q 2591 3584 2966 3190 
Q 3341 2797 3341 1997 
z
" transform="scale(0.015625)"/>
       <path id="DejaVuSans-6c" d="M 603 4863 
L 1178 4863 
L 1178 0 
L 603 0 
L 603 4863 
z
" transform="scale(0.015625)"/>
       <path id="DejaVuSans-75" d="M 544 1381 
L 544 3500 
L 1119 3500 
L 1119 1403 
Q 1119 906 1312 657 
Q 1506 409 1894 409 
Q 2359 409 2629 706 
Q 2900 1003 2900 1516 
L 2900 3500 
L 3475 3500 
L 3475 0 
L 2900 0 
L 2900 538 
Q 2691 219 2414 64 
Q 2138 -91 1772 -91 
Q 1169 -91 856 284 
Q 544 659 544 1381 
z
M 1991 3584 
L 1991 3584 
z
" transform="scale(0.015625)"/>
      </defs>
      <use xlink:href="#DejaVuSans-56"/>
      <use xlink:href="#DejaVuSans-61" x="60.658203"/>
      <use xlink:href="#DejaVuSans-6c" x="121.9375"/>
      <use xlink:href="#DejaVuSans-75" x="149.720703"/>
      <use xlink:href="#DejaVuSans-65" x="213.099609"/>
     </g>
    </g>
   </g>
   <g id="line2d_15">
    <path d="M 72 185.497311 
L 73.778486 181.365011 
L 75.556972 150.828675 
L 77.335458 145.674385 
L 79.113944 138.110088 
L 80.89243 136.071886 
L 82.670916 128.560975 
L 84.449402 127.735502 
L 86.227888 129.141201 
L 88.006375 128.864079 
L 89.784861 125.40647 
L 91.563347 124.51962 
L 93.341833 121.422455 
L 95.120319 120.977875 
L 96.898805 120.786986 
L 98.677291 120.45112 
L 100.455777 118.159794 
L 102.234263 118.411543 
L 104.012749 122.562464 
L 105.791235 122.659553 
L 107.569721 119.22658 
L 109.348207 119.197345 
L 111.126693 122.415724 
L 112.905179 122.896662 
L 114.683665 123.233065 
L 116.462151 123.706359 
L 118.240637 126.868491 
L 120.019124 126.929103 
L 121.79761 124.21372 
L 123.576096 123.290551 
L 125.354582 119.183956 
L 127.133068 118.869474 
L 128.911554 120.649656 
L 130.69004 120.488552 
L 132.468526 117.515556 
L 134.247012 116.85748 
L 136.025498 114.967431 
L 137.803984 114.932025 
L 139.58247 116.559393 
L 141.360956 116.788355 
L 143.139442 116.852483 
L 144.917928 116.761864 
L 146.696414 116.027903 
L 148.4749 115.702362 
L 150.253386 114.02952 
L 152.031873 113.568832 
L 153.810359 111.842286 
L 155.588845 114.047778 
L 157.367331 132.078831 
L 159.145817 135.766435 
L 160.924303 145.007233 
L 162.702789 152.460899 
L 164.481275 198.314298 
L 166.259761 202.144646 
L 168.038247 184.601317 
L 169.816733 180.135786 
L 171.595219 164.687104 
L 173.373705 162.488506 
L 175.152191 161.680546 
L 176.930677 161.679919 
L 178.709163 162.487786 
L 180.487649 166.520937 
L 182.266135 195.517502 
L 184.044622 196.831995 
L 185.823108 177.547762 
L 187.601594 173.301391 
L 189.38008 161.207067 
L 191.158566 159.135486 
L 192.937052 155.909616 
L 194.715538 154.844115 
L 196.494024 150.206357 
L 198.27251 156.075959 
L 200.050996 204.094691 
L 201.829482 209.255136 
L 203.607968 199.37037 
L 205.386454 194.770446 
L 207.16494 170.665653 
L 208.943426 165.316576 
L 210.721912 149.878729 
L 212.500398 147.211846 
L 214.278884 142.936849 
L 216.057371 145.422977 
L 217.835857 168.073169 
L 219.614343 172.782601 
L 221.392829 184.945719 
L 223.171315 188.530796 
L 224.949801 202.863947 
L 226.728287 200.545818 
L 228.506773 169.079677 
L 230.285259 163.796092 
L 232.063745 156.211455 
L 233.842231 154.464261 
L 235.620717 149.131418 
L 237.399203 151.44321 
L 239.177689 173.865685 
L 240.956175 178.707686 
L 242.734661 192.075027 
L 244.513147 194.605366 
L 246.291633 199.937366 
L 248.07012 196.11429 
L 249.848606 162.536061 
L 251.627092 161.090836 
L 253.405578 183.986497 
L 255.184064 186.30763 
L 256.96255 180.553878 
L 258.741036 178.338654 
L 260.519522 167.721069 
L 262.298008 164.21976 
L 264.076494 148.956307 
L 265.85498 147.269072 
L 267.633466 150.062479 
L 269.411952 152.364095 
L 271.190438 166.576183 
L 272.968924 167.74657 
L 274.74741 162.196255 
L 276.525896 165.428835 
L 278.304382 194.868616 
L 280.082869 195.209419 
L 281.861355 168.284159 
L 283.639841 163.561536 
L 285.418327 155.594322 
L 287.196813 156.565311 
L 288.975299 171.706023 
L 290.753785 175.945305 
L 292.532271 192.12677 
L 294.310757 190.301146 
L 296.089243 160.637344 
L 297.867729 159.345557 
L 299.646215 180.12916 
L 301.424701 186.582355 
L 303.203187 178.6351 
L 304.981673 184.414256 
L 306.760159 191.54514 
L 308.538645 199.264573 
L 310.317131 226.239036 
L 312.095618 227.965277 
L 313.874104 202.183999 
L 315.65259 203.100442 
L 317.431076 211.820561 
L 319.209562 222.884094 
L 320.988048 238.07161 
L 322.766534 236.323444 
L 324.54502 273.666612 
L 326.323506 273.991783 
L 328.101992 215.076064 
L 329.880478 203.159517 
L 331.658964 195.29252 
L 333.43745 174.987253 
L 335.215936 223.886289 
L 336.994422 228.122987 
L 340.551394 222.427895 
L 342.32988 218.920908 
L 344.108367 184.383029 
L 345.886853 167.921862 
L 347.665339 154.151294 
L 349.443825 154.514205 
L 351.222311 157.000858 
L 353.000797 157.209823 
L 354.779283 187.168744 
L 356.557769 193.829115 
L 358.336255 193.534699 
L 360.114741 181.441219 
L 361.893227 182.392848 
L 363.671713 166.480605 
L 367.228685 163.412064 
L 369.007171 163.958511 
L 370.785657 165.111085 
L 372.564143 168.619191 
L 374.342629 165.301238 
L 376.121116 167.209403 
L 377.899602 148.207483 
L 379.678088 173.934511 
L 381.456574 196.066123 
L 383.23506 196.843627 
L 385.013546 199.299152 
L 386.792032 202.415054 
L 388.570518 197.20698 
L 390.349004 191.57657 
L 393.905976 203.043496 
L 395.684462 204.297561 
L 397.462948 206.444531 
L 399.241434 214.863275 
L 401.01992 210.648752 
L 402.798406 205.210119 
L 404.576892 176.685381 
L 406.355378 173.36332 
L 408.133865 177.308787 
L 409.912351 174.958244 
L 411.690837 170.671135 
L 413.469323 164.778774 
L 415.247809 163.597301 
L 417.026295 168.07506 
L 418.804781 169.796986 
L 420.583267 163.571066 
L 422.361753 182.65404 
L 425.918725 193.602646 
L 427.697211 187.011213 
L 429.475697 190.893099 
L 431.254183 175.418316 
L 433.032669 191.842065 
L 434.811155 191.91974 
L 436.589641 197.589657 
L 438.368127 181.472485 
L 440.146614 183.152478 
L 441.9251 187.967917 
L 443.703586 196.805857 
L 445.482072 197.102332 
L 447.260558 182.887814 
L 449.039044 184.029041 
L 450.81753 175.204955 
L 452.596016 179.036363 
L 454.374502 161.920777 
L 456.152988 155.305126 
L 457.931474 156.852894 
L 459.70996 163.383049 
L 461.488446 166.157373 
L 463.266932 161.933213 
L 465.045418 163.278519 
L 466.823904 164.824163 
L 468.60239 161.057563 
L 470.380876 165.147629 
L 472.159363 163.884367 
L 473.937849 172.954274 
L 475.716335 173.666841 
L 477.494821 159.257132 
L 479.273307 169.408891 
L 481.051793 172.61473 
L 482.830279 174.426249 
L 484.608765 170.872912 
L 486.387251 174.630892 
L 488.165737 193.691266 
L 489.944223 215.936216 
L 491.722709 243.922841 
L 493.501195 250.592942 
L 495.279681 249.210385 
L 497.058167 239.088093 
L 498.836653 236.029834 
L 500.615139 238.674678 
L 502.393625 238.651182 
L 504.172112 232.749865 
L 505.950598 214.585207 
L 507.729084 192.339523 
L 509.50757 160.466793 
L 511.286056 159.415233 
L 513.064542 159.521234 
L 514.843028 151.146628 
L 516.621514 161.457109 
L 516.621514 161.457109 
" clip-path="url(#pb7db7dc5db)" style="fill: none; stroke: #1f77b4; stroke-width: 1.5; stroke-linecap: square"/>
   </g>
   <g id="line2d_16">
    <path d="M 72 241.004826 
L 73.778486 250.564733 
L 75.556972 248.919325 
L 79.113944 244.849736 
L 84.449402 238.31062 
L 91.563347 229.787949 
L 98.677291 221.462544 
L 104.012749 215.522817 
L 111.126693 208.252965 
L 116.462151 203.297088 
L 121.79761 198.795438 
L 134.247012 188.512361 
L 139.58247 184.266597 
L 144.917928 180.339603 
L 153.810359 174.097839 
L 155.588845 172.888202 
L 157.367331 171.903173 
L 159.145817 171.151973 
L 160.924303 170.543689 
L 162.702789 170.112503 
L 164.481275 170.218363 
L 166.259761 170.812162 
L 168.038247 171.257876 
L 169.816733 171.477518 
L 171.595219 171.495483 
L 180.487649 170.668455 
L 182.266135 170.874166 
L 184.044622 171.374699 
L 185.823108 171.686915 
L 187.601594 171.760713 
L 189.38008 171.671169 
L 192.937052 171.168123 
L 198.27251 170.149893 
L 200.050996 170.348015 
L 203.607968 171.724131 
L 205.386454 172.225373 
L 207.16494 172.432143 
L 208.943426 172.344115 
L 210.721912 172.051896 
L 214.278884 171.062203 
L 216.057371 170.530507 
L 217.835857 170.258612 
L 219.614343 170.262116 
L 221.392829 170.43268 
L 223.171315 170.755351 
L 226.728287 171.851609 
L 228.506773 172.106966 
L 230.285259 171.994648 
L 233.842231 171.432337 
L 237.399203 170.633235 
L 239.177689 170.476139 
L 240.956175 170.591241 
L 242.734661 170.884453 
L 246.291633 171.842116 
L 248.07012 172.35995 
L 249.848606 172.496628 
L 251.627092 172.285249 
L 253.405578 172.291016 
L 256.96255 172.760549 
L 258.741036 172.892731 
L 260.519522 172.895094 
L 262.298008 172.757996 
L 264.076494 172.437624 
L 269.411952 171.094595 
L 271.190438 170.865111 
L 276.525896 170.540886 
L 278.304382 170.731915 
L 280.082869 171.212764 
L 281.861355 171.420258 
L 283.639841 171.311354 
L 288.975299 170.651323 
L 290.753785 170.714257 
L 292.532271 170.978318 
L 294.310757 171.378554 
L 296.089243 171.458498 
L 297.867729 171.231617 
L 299.646215 171.202743 
L 306.760159 172.17835 
L 308.538645 172.638065 
L 310.317131 173.432473 
L 312.095618 174.49421 
L 313.874104 175.296112 
L 317.431076 176.462949 
L 319.209562 177.272177 
L 322.766534 179.489718 
L 324.54502 180.984574 
L 326.323506 182.821213 
L 328.101992 184.040058 
L 329.880478 184.535747 
L 331.658964 184.826087 
L 333.43745 184.831625 
L 335.215936 185.122151 
L 340.551394 187.471779 
L 342.32988 188.128469 
L 344.108367 188.39485 
L 345.886853 188.152132 
L 347.665339 187.615285 
L 351.222311 186.339815 
L 353.000797 185.761513 
L 354.779283 185.494017 
L 360.114741 185.787158 
L 361.893227 185.710631 
L 363.671713 185.48709 
L 374.342629 183.21216 
L 376.121116 182.876787 
L 379.678088 181.957639 
L 381.456574 182.018558 
L 386.792032 182.977084 
L 388.570518 183.309917 
L 393.905976 184.070821 
L 397.462948 184.872334 
L 402.798406 186.359098 
L 404.576892 186.44893 
L 411.690837 185.554935 
L 422.361753 183.550663 
L 425.918725 183.731315 
L 429.475697 183.962012 
L 433.032669 183.939855 
L 438.368127 184.410752 
L 441.9251 184.393016 
L 447.260558 184.899159 
L 450.81753 184.766478 
L 452.596016 184.615357 
L 454.374502 184.335143 
L 459.70996 182.819345 
L 472.159363 180.325553 
L 481.051793 179.219851 
L 486.387251 178.856243 
L 488.165737 178.961809 
L 489.944223 179.473938 
L 491.722709 180.47296 
L 497.058167 184.348044 
L 502.393625 187.461621 
L 504.172112 188.415676 
L 505.950598 189.112421 
L 507.729084 189.395555 
L 509.50757 189.137493 
L 514.843028 187.338183 
L 516.621514 186.693046 
L 516.621514 186.693046 
" clip-path="url(#pb7db7dc5db)" style="fill: none; stroke: #ff7f0e; stroke-width: 1.5; stroke-linecap: square"/>
   </g>
   <g id="line2d_17">
    <path d="M 299.646215 384.48 
L 299.646215 51.84 
" clip-path="url(#pb7db7dc5db)" style="fill: none; stroke-dasharray: 1.5,2.475; stroke-dashoffset: 0; stroke: #ff0000; stroke-width: 1.5"/>
   </g>
   <g id="patch_3">
    <path d="M 72 384.48 
L 72 51.84 
" style="fill: none; stroke: #000000; stroke-width: 0.8; stroke-linejoin: miter; stroke-linecap: square"/>
   </g>
   <g id="patch_4">
    <path d="M 518.4 384.48 
L 518.4 51.84 
" style="fill: none; stroke: #000000; stroke-width: 0.8; stroke-linejoin: miter; stroke-linecap: square"/>
   </g>
   <g id="patch_5">
    <path d="M 72 384.48 
L 518.4 384.48 
" style="fill: none; stroke: #000000; stroke-width: 0.8; stroke-linejoin: miter; stroke-linecap: square"/>
   </g>
   <g id="patch_6">
    <path d="M 72 51.84 
L 518.4 51.84 
" style="fill: none; stroke: #000000; stroke-width: 0.8; stroke-linejoin: miter; stroke-linecap: square"/>
   </g>
   <g id="legend_1">
    <g id="patch_7">
     <path d="M 431.048437 103.874375 
L 511.4 103.874375 
Q 513.4 103.874375 513.4 101.874375 
L 513.4 58.84 
Q 513.4 56.84 511.4 56.84 
L 431.048437 56.84 
Q 429.048437 56.84 429.048437 58.84 
L 429.048437 101.874375 
Q 429.048437 103.874375 431.048437 103.874375 
z
" style="fill: #ffffff; opacity: 0.8; stroke: #cccccc; stroke-linejoin: miter"/>
    </g>
    <g id="line2d_18">
     <path d="M 433.048437 64.938437 
L 443.048437 64.938437 
L 453.048437 64.938437 
" style="fill: none; stroke: #1f77b4; stroke-width: 1.5; stroke-linecap: square"/>
    </g>
    <g id="text_17">
     <!-- Action -->
     <g transform="translate(461.048437 68.438437) scale(0.1 -0.1)">
      <defs>
       <path id="DejaVuSans-41" d="M 2188 4044 
L 1331 1722 
L 3047 1722 
L 2188 4044 
z
M 1831 4666 
L 2547 4666 
L 4325 0 
L 3669 0 
L 3244 1197 
L 1141 1197 
L 716 0 
L 50 0 
L 1831 4666 
z
" transform="scale(0.015625)"/>
       <path id="DejaVuSans-63" d="M 3122 3366 
L 3122 2828 
Q 2878 2963 2633 3030 
Q 2388 3097 2138 3097 
Q 1578 3097 1268 2742 
Q 959 2388 959 1747 
Q 959 1106 1268 751 
Q 1578 397 2138 397 
Q 2388 397 2633 464 
Q 2878 531 3122 666 
L 3122 134 
Q 2881 22 2623 -34 
Q 2366 -91 2075 -91 
Q 1284 -91 818 406 
Q 353 903 353 1747 
Q 353 2603 823 3093 
Q 1294 3584 2113 3584 
Q 2378 3584 2631 3529 
Q 2884 3475 3122 3366 
z
" transform="scale(0.015625)"/>
       <path id="DejaVuSans-69" d="M 603 3500 
L 1178 3500 
L 1178 0 
L 603 0 
L 603 3500 
z
M 603 4863 
L 1178 4863 
L 1178 4134 
L 603 4134 
L 603 4863 
z
" transform="scale(0.015625)"/>
       <path id="DejaVuSans-6f" d="M 1959 3097 
Q 1497 3097 1228 2736 
Q 959 2375 959 1747 
Q 959 1119 1226 758 
Q 1494 397 1959 397 
Q 2419 397 2687 759 
Q 2956 1122 2956 1747 
Q 2956 2369 2687 2733 
Q 2419 3097 1959 3097 
z
M 1959 3584 
Q 2709 3584 3137 3096 
Q 3566 2609 3566 1747 
Q 3566 888 3137 398 
Q 2709 -91 1959 -91 
Q 1206 -91 779 398 
Q 353 888 353 1747 
Q 353 2609 779 3096 
Q 1206 3584 1959 3584 
z
" transform="scale(0.015625)"/>
       <path id="DejaVuSans-6e" d="M 3513 2113 
L 3513 0 
L 2938 0 
L 2938 2094 
Q 2938 2591 2744 2837 
Q 2550 3084 2163 3084 
Q 1697 3084 1428 2787 
Q 1159 2491 1159 1978 
L 1159 0 
L 581 0 
L 581 3500 
L 1159 3500 
L 1159 2956 
Q 1366 3272 1645 3428 
Q 1925 3584 2291 3584 
Q 2894 3584 3203 3211 
Q 3513 2838 3513 2113 
z
" transform="scale(0.015625)"/>
      </defs>
      <use xlink:href="#DejaVuSans-41"/>
      <use xlink:href="#DejaVuSans-63" x="66.658203"/>
      <use xlink:href="#DejaVuSans-74" x="121.638672"/>
      <use xlink:href="#DejaVuSans-69" x="160.847656"/>
      <use xlink:href="#DejaVuSans-6f" x="188.630859"/>
      <use xlink:href="#DejaVuSans-6e" x="249.8125"/>
     </g>
    </g>
    <g id="line2d_19">
     <path d="M 433.048437 79.616562 
L 443.048437 79.616562 
L 453.048437 79.616562 
" style="fill: none; stroke: #ff7f0e; stroke-width: 1.5; stroke-linecap: square"/>
    </g>
    <g id="text_18">
     <!-- State -->
     <g transform="translate(461.048437 83.116562) scale(0.1 -0.1)">
      <use xlink:href="#DejaVuSans-53"/>
      <use xlink:href="#DejaVuSans-74" x="63.476562"/>
      <use xlink:href="#DejaVuSans-61" x="102.685547"/>
      <use xlink:href="#DejaVuSans-74" x="163.964844"/>
      <use xlink:href="#DejaVuSans-65" x="203.173828"/>
     </g>
    </g>
    <g id="line2d_20">
     <path d="M 433.048437 94.294687 
L 443.048437 94.294687 
L 453.048437 94.294687 
" style="fill: none; stroke-dasharray: 1.5,2.475; stroke-dashoffset: 0; stroke: #ff0000; stroke-width: 1.5"/>
    </g>
    <g id="text_19">
     <!-- Transition -->
     <g transform="translate(461.048437 97.794687) scale(0.1 -0.1)">
      <defs>
       <path id="DejaVuSans-54" d="M -19 4666 
L 3928 4666 
L 3928 4134 
L 2272 4134 
L 2272 0 
L 1638 0 
L 1638 4134 
L -19 4134 
L -19 4666 
z
" transform="scale(0.015625)"/>
       <path id="DejaVuSans-72" d="M 2631 2963 
Q 2534 3019 2420 3045 
Q 2306 3072 2169 3072 
Q 1681 3072 1420 2755 
Q 1159 2438 1159 1844 
L 1159 0 
L 581 0 
L 581 3500 
L 1159 3500 
L 1159 2956 
Q 1341 3275 1631 3429 
Q 1922 3584 2338 3584 
Q 2397 3584 2469 3576 
Q 2541 3569 2628 3553 
L 2631 2963 
z
" transform="scale(0.015625)"/>
      </defs>
      <use xlink:href="#DejaVuSans-54"/>
      <use xlink:href="#DejaVuSans-72" x="46.333984"/>
      <use xlink:href="#DejaVuSans-61" x="87.447266"/>
      <use xlink:href="#DejaVuSans-6e" x="148.726562"/>
      <use xlink:href="#DejaVuSans-73" x="212.105469"/>
      <use xlink:href="#DejaVuSans-69" x="264.205078"/>
      <use xlink:href="#DejaVuSans-74" x="291.988281"/>
      <use xlink:href="#DejaVuSans-69" x="331.197266"/>
      <use xlink:href="#DejaVuSans-6f" x="358.980469"/>
      <use xlink:href="#DejaVuSans-6e" x="420.162109"/>
     </g>
    </g>
   </g>
  </g>
 </g>
 <defs>
  <clipPath id="pb7db7dc5db">
   <rect x="72" y="51.84" width="446.4" height="332.64"/>
  </clipPath>
 </defs>
</svg>
